<?xml version="1.0" encoding="utf-8"?>
<!-- Generator: Adobe Illustrator 21.1.0, SVG Export Plug-In . SVG Version: 6.00 Build 0)  -->
<svg version="1.1" id="Layer_1" xmlns="http://www.w3.org/2000/svg" xmlns:xlink="http://www.w3.org/1999/xlink" x="0px" y="0px"
	 viewBox="0 0 600 549.7" style="enable-background:new 0 0 600 549.7;" xml:space="preserve">
<g>
	<path d="M224.1,138.5c9.6-2.8,19.3-5.3,29.3-6c2-0.1,4-0.8,5.9-1.2c0.7-0.1,1.5-0.4,1.8,0.5c0.2,0.7-0.4,1.1-0.9,1.3
		c-2.6,1-4.7,2.8-6.5,4.9c-0.7,0.8-1.9,0.9-3,1c-8.8,0.6-17.5,1.7-26,4.2c-0.9,0.3-2,1.1-2.3-0.3c-0.3-1.3,1.1-1.3,2-1.5
		c4.3-1,8.5-2,12.8-3.2c-2.6-0.6-5.2-0.2-7.8,0.5c-10.8,2.8-21.4,6.2-32.5,8.2c-1.9,0.3-3.7,0.8-5.6,0.1c-3.1,0-6-3.7-9.9-0.5
		c3.6,1.4,6.8,0.5,9.9,0.5c-2.1,3.6-5.9,2.6-8.3,1.7c-4.1-1.5-5.5,1.3-8.5,3.3c8.5,0.2,16-2.2,23.6-2.8c7.5-0.6,14.7-3.3,22.3-4.3
		c-2.7,1.1-1.7,5.6-5.4,5.7c-2.8,0.1-5.7,0.5-8.5,0.8c-1.1,0.1-2.1,0.2-3.2,0.5c6,0.1,12.1,0.9,18.1,0.1c4.6-0.6,9.3-0.8,13.9-1.1
		c0.7,0,1.5-0.2,1.9,0.5c0.5,1-0.4,1.5-1,2c-1.4,1.3-2.5,2.6-4.7,3.1c-1.5,0.3-2.3,2.4-3.5,3.6c-4.5,4.6-10.3,7.2-15.6,10.5
		c-4.1,2.5-8.3,4.8-12.9,6.3c-2.3,0.8-4.5,2.2-7.1,2.2c-0.9,0-2.8-0.7-2.2,1.5c0.5,2,1.9,0.4,2.5,0.2c13.6-3.8,25.6-10.9,36.7-19.4
		c9.8-7.6,19.6-15.1,28.5-23.8c4.4-4.3,9.5-7.4,16.4-5.2c2.6,0.8,5.7,0.4,8.5,0.5c1,0,2.2,0.3,3-1.5c-3.4-0.6-6.8,0-10.1-0.6
		c-1.9-0.4-2.6-0.9-1.9-2.7c1.1-2.8,2-5.8,4.6-8c1.7,2.1-1.2,3.2-0.7,5.2c2-1.2,2.9-3,4.3-4.3c0.6-0.6,1.4-1.8,2.3-0.8
		c0.8,0.8-0.4,1.4-0.8,2.1c-0.2,0.3-0.3,0.6-0.5,1c2.8,1,3.2-1.9,4.8-2.8c0.6-0.4,0.9-1.7,1.9-0.7c0.7,0.7-0.3,1.3-0.3,2
		c1.3,0,2.3-0.6,3.2-1.3c0.9-0.7,2.4-1.5,1.9-2.7c-0.6-1.6-1.7,0.2-2.6,0.1c-2.6-0.4-4.5-2.5-7.3-2c0.1-0.7,0.1-1.2,0.1-1.2
		c4.1-0.3,8,0.3,11.8,1.6c1.6,0.6,1.9,1.4,0.4,2.8c-2.9,2.9-5.7,5.7-9.9,6.8c-1.8,0.5-3.6,1.3-5.3,3c2.9,0.5,5.5,1.1,7.8-0.7
		c7.5-6,15.6-11.3,21.6-19.1c1.5-1.9,1.4-2.6-0.6-3.5c-0.4-0.2-0.9-0.4-1.2-0.8c-1.4-2-3.9-3.8-3.2-6.4c0.7-2.7,3.5-1.1,5.3-1.2
		c3.3-0.3,6.2-1.7,9.3-2.5c0.8-0.2,1.2-0.8,1.4-1.5c0.8-2.6,2-5,3.3-7.5c-2.3-0.5-2.8,1.2-3.5,2.2c-2.8,4-6.9,5.1-11.3,5.9
		c-1.9,0.3-2.2-0.5-1.5-2c0.5-1.2,1.3-2.3,1.8-3.5c0.8-2,1-3.7-0.3-6c-1.7-2.9-2.5-6.5-1.6-9.9c0.4-1.6,0.9-3-0.9-4
		c-0.5-0.3-0.9-0.9-0.4-1.4c0.2-0.2,0.9-0.2,1.3-0.1c2.2,0.5,4.3,1.4,6.6,1.5c0.6,0,1.2,0.4,1.1,1.1c-0.1,0.8-0.7,1-1.3,0.7
		c-2.4-0.9-3.7,0-4.6,2.4c-0.9,2.4-0.6,3.8,1.9,4.6c0.6,0.2,0.5,1,0,1.5c-0.2,1.7-2.4,3.7,1.3,4.5c1.2,0.2,0.9,1.8,0.5,2.8
		c-0.4,1.2-1.5,2.2-1.1,3.6c1.5-0.1,2.1-1.4,3.1-2.3c1.7-1.6,4-2,5.7-3c3.6-2.2,5.2-6.5,6.5-10.7c-1.8-0.4-3.3-1.1-5.2,0.1
		c0.5,0.8,1.9,1.2,1.7,2.5c-2,1.2-4.3-2-6.2,0.6c0.4,0.1,0.7,0.3,1.1,0.3c0.9,0.2,2.3,0.1,2.2,1.3c-0.1,1.3-1.5,0.7-2.4,0.8
		c-1.1,0.1-2.3,0-3.5,0c0,1.3,2.1,0.5,1.7,1.9c-0.4,1.2-1.6,0.9-2.5,1c-2.9,0.5-2.2-2.1-2.9-3.5c3.4-1.1,4.4-4.9,7.5-6.4
		c-1.5,0-2.6,1-3.6,1.8c-0.4,0.3-0.9,0.9-1.5,0.1c-0.5-0.6-0.1-1.1,0.4-1.5c0.7-0.6,1.4-1.3,2.2-1.8c6.8-3.8,13.1-8.7,20.4-11.6
		c3.3-1.3,5.2-4.4,7.5-7c0.6-0.7,0.9-2,3.1-1.6c-2.9,5.5-7.1,10.3-7.4,16.9c1.8-1.2,4.2-1.4,4.1-4.5c0-1.3,0.6-3.7,1.8-3.5
		c2.3,0.4-0.4,2.4,0.7,3.8c1-0.5,2.1-1.1,3.1-1.7c0.9-0.5,2.3-0.7,2.6,0.1c1.5,4.5,4.2,1.8,6.5,1.2c0.6-0.2,1.4,0,1.8-0.9
		c-1.4-1.2-4.4,0.1-4.7-3.2c3.5,0.7,6.9,1.8,10.3,0c-1.7-0.4-3.4-0.9-5-1.4c-0.8-0.2-1.8-0.6-1.4-1.7c0.3-0.7,1.3-0.5,1.9-0.3
		c2.8,0.9,5.6,1.7,9.2,1.1c-1.4-1.3-2.5-2.2-3.6-3.2c-0.7-0.6-1.7-1.3-1-2.4c0.6-1.1,1.5,0,2.2,0c1,0,2,0.8,3.3,0.2
		c0-1.7-2-3.2-0.5-5.5c0.7,1.3,1.2,2.5,1.8,3.5c2.5,3.7,2.5,3.7-2.2,4.5c2,0.9,3.5,1.7,5.1,2.3c0.6,0.2,1.6,0,1.5,1.1
		c-0.1,0.9-0.9,1-1.6,1.1c-2.3,0.2-4.7,0-7,2c3.8,0.3,7.3,1.1,10.5-1.1c0.9-0.6,1.6-0.9,2.5,0c3.3,3.5,8,3.7,12.3,4.9
		c1.3,0.4,2.9,0,3,2.2c0,1.4,1.4,0.8,2.3,0.7c6.6-0.3,12.4,3.2,18.7,4.2c1.8,0.3,1.5,3.2,0.8,4.8c-0.8,2.1-2.2,0.6-3.1-0.1
		c-3.8-3-7.6-5.7-12.5-6.5c-0.4-0.1-0.9-0.3-1.4,0.3c1.9,2.8,5.2,3.9,7.8,5.8c0.9,0.7,1.8,1.2,1.7,2.5c-0.1,1.3-1.4,1.1-2.2,1.4
		c-1.9,0.8-3.7,1.7-4.9,3.3c0.1,0.2,0.2,0.5,0.3,0.6c1.5,1.1,4.8-0.4,4.8,2.2c0,1-1.8,3-2.8,4.8c5-0.8,8.2-2.7,11.2-6.7
		c-1.9-0.1-2.9,2.2-5,1.9c0.4-1.6,1.7-2.1,2.8-2.7c2.3-1.3,4.1-2.8,4.7-5.5c0.2-0.9,0.8-1.9,1.9-1.9c1,0,1,1.1,1.4,1.8
		c2.5,4.4,1.4,8.9-3.9,14.6c-1.9,2.1-2.7,4.3-1.5,7.7c1.4-3.8,3.8-5.9,6.8-7.6c8.1-4.7,7-9.5,1.9-15.6c-1.5-1.8-3.5-3.3-4.6-5.2
		c-3.1-5.4,1.5-16.1,6.1-18.6c0.6-0.3,1.3-0.6,2-0.7c3.6-0.4,6.9-2,9.9-3.9c2.7-1.7,5-4,8.1-5.2c3-1.1,6-2.3,9-3.4
		c-1.8-1.6-3.4-1.1-5,0.2c-0.6,0.5-1.4,1.3-2.2,0.6c-1-0.9,0.8-1.5,0.5-2.4c-1.9,1-3.2,2.5-4.2,4.2c-0.5,0.7-0.7,1.7-1.8,0.9
		c-0.9-0.6-0.5-1.5,0-2.2c0.8-1.1,1.7-2.2,3-3.9c-3.6,0.5-5.3,2.5-5.7,4.9c-0.2,1.5,0,2.4-1.8,2.3c-2.3-0.1-0.8-1.7-1.1-2.6
		c-0.1-0.2-0.1-0.4-0.2-0.6c-1.3,1.1-1.8,2.5-1.8,4.1c0,1.1-0.6,2.1-1.9,2.2c-0.7,0.1-1.5,0.1-2-0.6c-0.7-1-0.3-2,0.3-3
		c0.8-1.3,1.5-2.6,2.5-4.3c-4,0.9-5.1,4-4.7,6.4c0.7,4.2-4,2.6-4.4,5c-1.4-0.5-1.6-1.7-1.5-2.9c0.3-3.7,2-6.7,5.2-8.5
		c8.4-4.8,17.3-5.1,26.3-2.1c0.7,0.2,1.5,0.1,2.1,0.4c0.9,0.5,2.8-0.2,2.7,1.6c-0.1,1.4-1.8,1.4-2.9,1.7c-6.1,1.5-11.9,3.4-16.7,7.7
		c-2.4,2.1-5.4,3-8.3,4.2c-2.6,1.1-4.5,3-6.4,5.7c4.7,0.7,9,1.4,13.4,1.9c5,0.6,9.8,1.8,14.5,3.6c1.2,0.5,2.3,0.7,3.4-0.2
		c1.2-1,0.5-1.6-0.3-2.5c-0.8-0.9,0.1-1.8,1-1.6c4.8,1.5,7.5-0.8,10.4-4.3c1.8-2.3,1.2-2.7-0.7-4c-2.7-1.9-5.1-4.4-8.2-6.1
		c5,1.9,10-0.2,14.8,0.4c2.1,0.3,2.6-0.6,2.2-2.4c-0.5-2.3-0.4-4.7-0.6-7.1c-0.3-2.9-2.9-4.3-5-6c-0.5-0.4-1.6-0.3-1.3-1.4
		c0.3-0.8,1.2-0.7,1.9-0.5c0.8,0.2,1.6,0.6,2.2,1.1c3.9,3,7.8,6.1,11.7,9.2c0.8,0.6,1.5,1.5,1.3,2.4c-0.8,5.1,3.5,7.1,6,10.1
		c2,2.4,11.7,3,14.3,1.5c1.2-0.7,0.6-1.2,0.4-2c-1.3-5.6,1.1-8.6,6.9-8.7c1.2,0,2.4,0.3,3.4-0.6c-0.3,2-1.3,2.6-3.4,2.4
		c-3.6-0.3-5.7,1.5-5.6,4.4c0.2,3.4,5,7.3,8.7,6.8c-0.9-3.1-5.7-4.5-3.5-9.7c0.2,4.1,2,3,3.7,2.3c2.4-0.9,1.1-2.4,0.8-3.8
		c-0.2-0.8-0.4-1.6-0.6-2.4c-2.2-5.7,0.5-10.8,3.2-15.1c8.7-13.9,21.4-21.3,38.1-21c5.6,0.1,11.2-0.5,16.7,0.8
		c1,0.2,2.2,0.3,3.1,0.7c1.7,0.8,4.8,0.7,4.3,3.3c-0.4,2.1-3,1-4.6,1c-4.9,0-8.9,3.1-13.4,4.3c-0.9,0.2-1.6,1-2.5,1.3
		c-5.9,2-9.4,6.2-12.5,11.5c-1.8,3.1-3.3,7.4-8,8.3c-3.3,0.6-2.9,5-5.9,6.5c11.5,0.1,23-1.4,33.7,4.2c-7.9,0.1-15.6-2.2-23.5-1.3
		c-7.6,0.9-15.5-0.1-22.4,5.4c2.1,1.2,3.4,0.5,4.7,0.1c11-3.3,22.3-3.4,33.2-1.3c7.9,1.6,16.2,1.8,23.9,4.8c1.5,0.6,3.2,0.8,5,2.9
		c-18.1-4.7-35.3-8.7-52.5-0.2c0.8,1.6,1.9,1.4,2.9,1.2c12.6-2,25.1-2,37.7-0.5c1.2,0.1,2.2,0.4,2.1,1.8c-0.1,1.7-1.5,1.2-2.5,1.1
		c-7.8-0.8-15.7-1.3-23.6-0.7c-3.7,0.3-7.3,0.5-11.4,1.6c6.4,5.4,13.8,3.7,20.7,4.4c-3,1.8-6.5,3.3-9.7,3.1
		c-7.2-0.3-14.5,0.2-21.6-1.5c-4.6-1.1-6.1-0.5-8.4,4.1c11.3,2.3,22.3-0.4,33.4-1.7c11-1.3,21.8-4.2,32.5-7.1
		c-2.6,2.7-6.3,3-9.6,3.8c-11.9,2.9-23.9,5.3-35.8,7.9c-6.6,1.4-13.3,0.7-20,0.6c-1.2,0-2.8-1-3,1.2c-0.2,2.4,1.7,1.8,3,1.9
		c7.6,0.7,15-0.6,22.4-1.5c0.7-0.1,1.4-0.4,2.4,0.4c-4.2,2-8.7,1.8-12.9,2.5c-4.5,0.8-9,0.8-13.6,0.4c-0.9-0.1-2-0.4-2.1,1.1
		c-0.1,1.5,0.9,1.3,1.9,1.3c9.8-0.2,19.5-0.9,29.1-3c3.8-0.8,7.8-1.2,11.6-1.9c8.8-1.7,17.2-4.8,25.2-8.6c1.9-0.9,3.9-1.8,6.2-0.6
		c-0.9,2.2-2.9,3.5-4.7,4.4c-12.2,6.4-25.5,9-39,11c-9.7,1.4-19.5,2.4-29.5,1.6c0.5,2.8,3.2,4.4,2.6,7.2c-4.1-3.5-8.3-6.7-13.2-8.4
		c-3.6-1.3-4.1-0.5-3,3.2c1.2,4.2,5.7,7.8,10.2,8.1c0.9,0.1,2.2-0.3,2.2,1c0,1-1.2,1.1-1.9,1.2c-5,0.9-10,0.9-14.9-0.2
		c-3.2-0.7-4.8-3.4-7.1-5.3c-1.1,0.8-0.7,2-0.7,2.9c0.2,3.1-0.9,5.6-3,7.8c-3.9,4-6.1,8.6-5.9,14.4c0.1,3.4-1.2,6.5-3.1,9.3
		c-1.7,2.5-2.4,5.1-1.1,8.3c1.1-4.3,4.3-7.5,5.8-11.4c0.6-1.6,0.7-3.5,2-5c0.4-0.4,0.1-0.9-0.5-0.9c-3.4-0.1-1.9-1.3-0.5-2.5
		c1.3-1.1,2.2-2.4,2.6-4.1c-0.8-0.7-1.7,1-2.7-0.3c0.9-2,2.9-3.3,4.3-4.9c0.5-0.6,1.2-1.2,2.2-0.7c1,0.5,0.8,1.4,0.7,2.2
		c-0.7,5.2-0.2,10.7-3.3,15.5c4.5-3.9,5.7-9,5.2-14.6c-0.2-2.4-0.6-4.7-1.5-7c-0.8-1.9-0.7-3.8,1.1-5.6c-0.4,4.7,3.1,8,3.9,12.2
		c1.1,5.6-0.9,10.7-3.7,15.3c-1.8,2.9-3.5,6-5.9,8.5c-3.7,3.9-7.5,7.8-5.5,14.3c-3.3-0.7-4.5-3.2-5.1-4.9c-1.7-4.6-3.3-9.6-0.1-14.4
		c2.2-3.3,3.3-7,3.3-11.1c0-4.3,1.6-8.2,4.4-11.4c2.8-3.1,5.1-6.4,4.8-10.8c-0.1-1.2,1.1-1.9,1.2-3.4c-4.1,2.3-5.7,6.4-8.6,9.3
		c-3.1,3.1-5.8,6.6-8.7,9.9c-1.1,1.2-1.6,2.7-1.4,4.3c0.4,3.8-1.4,6.6-3.9,9.2c-0.6,0.6-1.1,1-1.7,0.6c-0.8-0.5-0.4-1.4,0.1-1.8
		c3.4-2.6,4.1-6.1,3.9-10.2c-0.1-0.9,0.6-2.2,1.3-2.8c6.7-6.2,11.2-14.2,17.9-20.4c1.2-1.2,0.6-2.4,0.4-3.6
		c-0.2-1.3-1.2-1.8-2.3-1.8c-1.4,0-2.9,0-4.2,0.4c-4.5,1.6-9.2,2.5-13.9,3.1c-3.7,0.5-1.2,3.8-2.6,5.4c4.7-1.5,9.6-2.2,13.4-5.8
		c-0.1,2.8-2.1,3.8-4.1,4.7c-3.8,1.8-8.4,2.2-10.9,6.3c-0.4,0.6-1,0.5-1.6,0.3c-1.4-0.6-0.3-2-0.9-3.1c-7.3,7.4-16,12.4-25.7,16
		c-7.7,2.9-15.8,3.4-23.9,3.5c-2.1,0-4,0.3-5.5,2.2c2.5,1.7,5.4,0.6,8,1.4c0.9,0.2,2.5,0.2,2.3,1.2c-0.5,3.2,1.7,2.3,3.2,2.4
		c4.2,0.3,8.3,1,12.1,2.7c1.3,0.6,5-0.3,3.3,3.4c0.9,0.4,1.7,0.7,2.6,1.1c3.1,1.4,6.5,2.1,8,6.2c0.8,2.2,4.4,3.4,6.5,5.2
		c1.4,1.2,4,2.1,2.5,5c-0.5,1,1.1,1.4,1.6,2.1c1.2,2,5.9,2.1,3.6,6.2c-0.1,0.1,0.2,0.4,0.4,0.6c6.3,4.7,11,11.3,18.1,14.9
		c3,1.5,6.3,2,9.6,2c0.8,0,1.4-0.1,1.4,1c0,0.7-0.4,1.1-1.1,1.1c-7.2,0.6-14,3.9-21.4,3.4c-3.1-0.2-6.2,0-9.2-0.6
		c-1.3-0.3-2.1-0.2-3.1,1.2c-1.5,2.3-4.3,1.5-6.6,1.3c-1.8-0.2-2.5,0.2-2.4,2c0,0.1,0.1,0.3,0,0.4c-4,4.8,0.5,8.7,1.6,12.9
		c0.6,2.5,1.3,4.7-1.8,5.9c-1.4,0.5-0.4,1.4-0.4,2c0.1,2.3,0.4,4.5,0.6,6.8c0.1,1.8-0.2,4.2-1.6,4.9c-3.3,1.6-2.2,4-1.7,6.2
		c0.6,2.7,1,5.4-0.3,8c-0.3,0.6-0.6,1.3-0.2,2c2.1,3.5,1.5,7.3,1.1,11.1c-0.5,4.8,1.5,9.3,1.9,14.1c0.1,0.9,0.7,2.1-0.1,2.7
		c-1.1,0.9-1.5-0.7-2.2-1c-9.4-4.9-13.4-14.8-20.6-21.8c-1.6-1.6-2.9-3.1-5.4-2.7c-1.7,0.3-3-0.6-4.2-1.6c-2.3-2-4.8-3.9-6.9-6.2
		c-1.8-2.1-3.4-1.4-5.3-0.6c-2.3,1-1.6,2.5-1.1,4.1c0.4,1.2,0.6,2.5-0.3,3.4c-4.8,4.7-4.8,11.6-7.9,17.1c-0.4,0.7-0.5,1.7-0.3,2.4
		c0.8,2.4,0.4,3.8-2.4,3.9c-1.3,0.1-2,1.1-2.4,2.3c-2.2,7.8-8.7,12.3-13.9,17.8c-0.4,0.4-1.3,0.8-1.5,0.6c-2.5-1.7-3-0.6-2.7,1.8
		c0.1,1.2-0.5,1.5-1.5,1.1c-3.9-1.6-8.5-1.7-11.4-5.3c-0.4-0.4-1.1-1.2-1.4-0.6c-2.1,4.5-3.5,0.2-5.1-0.3c-1-0.3-1.8-1-2.7-1.6
		c-0.2,0.3-0.5,0.6-0.4,0.7c3.4,8.9-1.2,16.4-4.4,24c-1.7,4.3-4.5,8.1-6.6,12.3c-2.1,4.3-3.8,8.7-2.3,13.7c0.4,1.4,0.3,2.9-1.8,2
		c-1.3-0.5-1.7,0-2,1.1c-1.8,6.6-6.5,11.3-11,16c-4.8,5.1-9.1,10.4-10.8,17.4c-0.2,0.9-0.7,1.9-1.5,1.7c-3.5-0.8-3.7,2.1-4.7,4.1
		c-1.1,2.1-2.1,4.3-3.9,5.9c-0.3,0.3-1,0.8-0.9,1c1.1,4-2.5,3-4.2,4c-2,1.1-3.7,2.4-5,4.4c-1.1,1.8-2.4,2.5-3.8-0.1
		c-2.4-4.4-2.5-4.3-7-2.2c-3.3,1.6-4,1.1-4.2-2.7c-0.1-2.4,1.2-5.5-1.5-6.9c-2.7-1.4-4.7,1.2-6.5,2.7c-2.3,1.9-3.6,1.2-4.7-1.1
		c-1.8-3.9-3.4-7.9-5.3-11.7c-1.1-2.2-2.4-4-5.6-2.5c-2.2,1.1-3-1-3.7-2.7c-1.9-4.5-3.8-9-8.3-11.7c-0.9-0.5-1.7-1.5-2.6,0.1
		c-2.5,4.5-6.6,7.4-11.3,9.9c9.3,4.7,15.7,12.4,23,19c1.1,1,2.3,1.6,3.6,2.2c4.9,2.1,9,5.3,11.4,10.2c1.1,2.3,1.1,4.2-1.9,4.8
		c-1.8,0.3-1,1.2-0.6,2c2,3.6,3.3,7.4,4,11.4c0.8,4.9,3.7,8.1,7.8,10.4c1,0.6,2.2,0.9,2.9,2c-0.4,1.3-1.7,0.6-2.4,1
		c-4.5,2.6-5,3.9-3,8.8c1.8,4.4,1.5,8.9,0.9,13.4c-0.6,4.1-0.6,8,1.4,11.8c2.7,5.4,0,10.5-1.2,15.6c-0.4,1.5-1.5,0.2-2-0.5
		c-1.1-1.4-1.9-3.1-4.2-3.4c0.1,3.1,0.4,6.2-0.2,9.2c-0.6,3.7-1.5,7.2-4,10.2c-3.7,4.3-3.1,9.9-3.9,15c-0.6,4.6-2.3,8.4-6.2,11.2
		c-1,0.7-1.4,1.7-1.9-0.5c-0.4-1.5-1.4,0.1-1.7,0.5c-4.3,4.8-8.1,10.1-10.8,15.9c-1.3,2.8-3.2,5.3-3.6,8.5c-0.2,1.8-1.2,1.2-2.2,0.6
		c-1.6-0.9-2.7-3.4-4.7-2.9c-2.4,0.6-3.4,3.2-4.8,5.1c-2,2.7-3.4,5.8-4.3,9c-0.5,1.6-0.7,2.2-2.2,1.2c-2.1-1.4-3.5-0.7-5.1,1.1
		c-3.2,3.6-6,4.2-9.8,2.1c-1.9-1.1-3.4-1.1-5,0.2c-0.3,0.2-0.7,0.3-1,0.4c-1.8,1-3.5,2.6-5.3,2.8c-2.6,0.2-1.8-3.1-3.3-4.5
		c-2.7-2.4-5.6-4.6-8.8-6c-5.9-2.6-9.2-6.9-10.3-13.2c-0.2-1.2-0.5-2.2-1.7-2.9c-3.9-2.4-6.3-6.1-8.4-10c-1.7-3.2-3.7-3.5-6.5-0.9
		c-0.2,0.2-0.4,0.5-1.2,1.4c-0.2-7.7-3.5-13.6-7.4-19.3c-2.7-3.9-5.6-7.7-7.9-11.9c-0.7-1.4-1.8-2.7-2.1-4.1
		c-0.7-3.9-2.8-5.4-6.6-4.9c-1.1,0.1-2.1,0.1-2-1.6c0.3-7.8,0.1-15.7-1.6-23.4c-2.3-10.4-1.7-20.6,2.1-30.6c0.2-0.4,0.1-0.9,0.1-1.4
		c-0.8-0.9-1.6-0.1-2.3-0.1c-2.2-0.1-3.3-0.5-2.2-3.3c2.1-5.3,4.4-10.4,6.4-15.9c-5.4,8-13.9,11.6-22.5,16.4c1.6-3.5,3-6.1,3.8-9
		c1.6-5.1,1.7-10.2,0.5-15.4c-0.3-1.4-0.1-2.9-0.1-4.3c-0.1-2.9,0.5-5.7-2-8.2c-1.3-1.3-0.4-3.6,0-5.5c0.6-2.5,1.2-5-2.1-6.2
		c-0.7-0.2-1.1-0.9-0.8-1.8c1.2-3.2,2.4-6.1,1.6-9.9c-0.4-1.7,2-4.2,3.2-6.2c1.3-2.2,2.3-4.2-0.2-6.2c-1-0.8-0.5-1.7,0-2.6
		c1.2-2.2,2.3-4.4,3.7-6.5c1.4-2.1,3.6-4,1.7-6.9c-0.2-0.3,0.2-1.2,0.5-1.6c3.6-4,7-8.1,12.1-10.4c2.7-1.2,6.1-2.7,4.5-6.1
		c-1.6-3.5-4.8-1-7.1,0.1c-3.8,1.7-6.4,4.4-7.6,8.5c-1.2,4.5-4.1,7.9-7.6,10.9c-2.4,2.1-3,5.6-4.7,8.2c-0.5,0.8-0.7,2.3-1.8,1.8
		c-3.7-1.5-4,1.7-5,3.6c-1.4,2.7-3.1,5.1-4.9,7.5c-1.1,1.4-2.4,2.8-4.5,1.7c-1.6-0.9-2.1,0.5-2.9,1.3c-2.6,2.7-5.1,5.4-8.5,7.1
		c-1.1,0.6-1.9,1.6-3.4,0.3c-1.2-1.1-2,0.7-3,1.1c-2.3,1-4.3,3.4-7.1,1c-0.9-0.8-1.5,0.2-2.1,0.7c-1.5,1.2-2.8,2.5-4.3,3.8
		c-0.7,0.6-1.7,1.5-2.5,0.7c-2.5-2.5-3.3-0.4-4.3,1.4c-0.5,0.8-1.1,2-1.8,2.1c-4.1,0.6-5.4,4.6-8.3,6.6c-5.2,3.6-9.4,8.7-15.6,10.9
		c-1.1,0.4-1.2,1.7-1.7,2.6c-3.5,7.1-7.5,13.8-12.7,19.8c-0.6,0.7-1,2-2.2,1.3c-1-0.6,0.1-1.5,0.4-2.1c3.2-6.1,2-11.8-0.6-17.8
		c-0.9-2-4.1-1.2-3.8-4c0.2-2,0.2-4.1,0.1-6.1c0-0.8-0.4-2-0.9-2.2c-3.9-1.9-2.3-5.1-2.1-8c0.1-1.7,0.8-3.2,0.6-4.9
		c-0.3-1.6,0-3.1-2.4-3.4c-1.9-0.2-1.7-1.7-0.7-2.9c1.3-1.8,2.8-3.5,4.2-5.3c-0.8-0.3-2-0.5-1.9-0.7c0.5-4.1-3.4-8-0.4-12.2
		c1.8-2.4,2.9-5,1.1-7.9c-0.6-0.9,0.3-1.5,0.8-2.1c2.2-2.8,4.8-5.9,5-9.3c0.2-4.8,3.1-7.4,5.7-10.6c0.9-1.1,2.4-2.4-0.2-3.6
		c-0.8-0.4-0.7-1.4-0.2-2.2c1.2-2,2.5-4.1,3.5-6.2c1-2,4.2-3.3,2.1-6.4c-0.3-0.4,0.4-1,0.8-1.4c2-2.2,3.9-4.4,5.9-6.6
		c1.2-1.3,2.7-2.3,0.6-4.2c-0.9-0.8-0.3-1.8,0.9-2.1c3.8-1.2,7-4.1,8-7.2c1.6-5,5.8-4.3,8.9-5.9c1.5-0.8,3.3-1,1.5-3.3
		c-1-1.3,0.3-1.9,1.3-2.2c3.3-1.1,4.2-4.1,5.7-6.7c0.5-0.9-0.2-1.2-0.8-1.6c-2.5-1.8-6.2-2.1-6.9-6.1c0-0.3-1.1-0.4-1.6-0.6
		c-1.2-0.4-2.9-0.5-3.6-1.4c-4.8-5.5-12-8.1-16.2-14.3c-1.4-2.1-0.9-2.7,1.3-2.8c5.2-0.4,10.3-2,15.6-2.1c1.5,0,4,0.2,2.6-2.9
		c-0.4-0.9,0.7-1,1.4-1c5.2,0,10.1-1.4,15.1-2.4c1.4-0.3,2.8-0.3,2.2-2.6c-0.5-1.7,1.2-1.7,2.4-1.7c2.6,0,5.3,0,7.9-0.1
		c1-0.1,2.6,0.2,1.9-2c-0.5-1.5,1.1-1.5,2.2-1.6c2-0.1,4.1-0.1,6.1-0.3c1.4-0.1,3.6,0.7,3.2-2.3c-0.2-1.2,1.2-0.9,1.9-0.9
		c2.1-0.1,4.3-0.2,6.4-0.3c2.1-0.1,4.8,0.9,3.6-3.2c-0.4-1.4,1.3-1.3,2.4-1.2c1.9,0.3,3.8,0.7,5.7,0.8c1.9,0.2,4.2,1.5,5.3-1.6
		c0.3-0.8,1.5-0.2,2.3-0.2c2.5,0.2,5,0.6,7.5,0.8c0.8,0.1,1.9,0.4,2.2-0.6c1-3,3.1-1.8,4.9-1.4c3.1,0.6,5.9,2.8,9.3-0.2
		c1.3-1.1,4,0.9,6.1,1.3c1.3,0.3,2.8,1.1,4.1-0.1c2.6-2.7,5.2-5.4,7.6-8.2c3.1-3.5,5.3-7.7,9.5-10.3c2.6-1.6,3.4-5.5,7.1-6
		c1-0.1,0.1-1.2,0-1.8c-0.1-0.9-1-2.2-0.3-2.7c3.1-2.2,4.8-5.8,7.7-8c1.7-1.3,4-1.3,2.7-4.3c-0.3-0.6,0.8-1.2,0.3-2
		c-2.9-0.7-5.6,0.5-8.5,0.5c-1.5,0-3.1,0.2-4.6-0.5c-0.9-0.4-1.9-0.8-1.7-1.9c0.2-1.4,1.4-0.4,2-0.6c3.1-1.1,5.3-3.6,7.8-5.6
		c2.6-2.1,4.6-4.8,8.7-3.2c2.2,0.8,4.9,0.4,8.1,0.6c-2.4-1.5-4.2-2.2-6.4-2.3c-1.2,0-2.5-0.2-2.1-2l-0.1,0.1
		c4.5-0.7,8.8,0.1,13.1,1.2c1,0.3,2.5,0.3,1.6,2.2c-0.3,0.7,0.2,1.1,1.8,0.8c4.1-0.9,8.3-2,12.5-3.1c-6.7-3.7-12.9-7.9-20.3-9.8
		c2-1.3,3.9-0.8,5.7-0.2c6.1,1.9,12.5,3.2,16.6,8.8c0.6,0.9,1.2,0.3,1.8,0.1C221.3,139.2,222.7,138.9,224.1,138.5L224.1,138.5z
		 M210.7,279.9c0.1-0.8,0.6-1.8,0.2-2.4c-1.9-3.1-3.8-6.1-4.5-9.8C205.5,272.7,207.8,276.4,210.7,279.9c0.6,1.5,1.2,3,1.6,4.6
		c0.5,1.7,1.4,2.1,2.8,0.8c0.9-0.8,2.2-1.4,2.2-2.9c-1.4-0.7-2,1.7-3.5,0.9C215,280.1,214.5,279.5,210.7,279.9z M184.3,348.5
		c-2.7-1-2.1-3.3-2-5.3c0.1-2.4,1.2-4.7,0.4-7.5c-2.2,1.6-1.6,4.6-3.5,6.4c-0.6-1-1.1-1.8-1.6-2.5c-0.5-0.9-1.2-1.7-2.3-1
		c-1.1,0.7-0.6,1.7,0.2,2.4c2.3,2.2,4.4,4.4,6,7.2C182.1,349.2,183.2,349.9,184.3,348.5c3.4,0.6,4.7-0.9,3.1-9
		C186.4,342.9,184.5,345.4,184.3,348.5z M360,211.7c0.1,2.7,0.4,4,3.7,2c4.4-2.6,6.9-6.7,10.1-10.3c0.5-0.6,1.1-1.3,0.3-2.5
		c-3.1,1.6-3.5,6.1-7.4,7.2c0.6-3,2.6-5.3,2-9.2c-1.4,3.2-2.5,5.5-3.5,7.8c-0.4,1-0.3,2.9-1.8,2.5c-1.2-0.3-0.2-1.8-0.1-2.7
		c0.2-1.3,0.5-2.6-0.2-4.2c-0.4,2.6-0.8,4.8-1,7C361.9,210.7,361.2,211.5,360,211.7c-1.4-5.5-0.7-11.2-1.7-17.8
		c-1.1,5-0.5,9.2-0.7,14c-2.6-2.4-2.4-5.2-3.8-7.3c-0.8,1.8,0.9,3.3,0.1,5.4c-4.5-4.3-6.6-9.2-6.1-15.7c-3.3,4.9-1.8,12.1,3.1,15.5
		C353.7,207.8,356.9,209.7,360,211.7z M392.1,69.2c0.3-1.7-1-1.5-2-1.6c-7,0.3-9.2,2-10.7,8.6c-0.6,2.5-2.2,3.9-4.2,5
		c-1.4,0.8-2.8,1.6-3.3,3.3c6.8-0.4,11.6-3.3,14.7-9.2C388,73,390.1,71.1,392.1,69.2z M259.7,445.2c-5.3-4.4-10.5-8.8-16.5-13.8
		c2.1,6,10.5,12.8,16.3,14c0.3,0.6,1.4,0.9,1,1.7c-0.4,0.9-1.3,0.4-1.9,0.2c-1-0.3-2-0.9-2.9-1.3c-5.1-2.2-9.5-5.5-14.4-8.2
		c-0.5,0.9-0.3,1.4,0.1,1.9c3.4,4.5,7.7,7.8,13.5,8.5c6.2,0.8,12.4,1.7,18.5,4c0.6-3.1-0.9-5.7-1.1-9.4c-0.8,2.1,0.1,3.8-0.6,4.7
		c-5.7,0.2-8.6-3.2-11.1-7.3c-1-1.6-2.2-3.1-3.2-4.7c-2-2.9-4.4-5.3-7.8-7.6c0.3,2.6,1.8,3.8,2.6,5.3c2.3,4.2,6.2,6.9,9.2,10.4
		c0.6,0.7,2,1.2,1.3,2.2c-0.9,1.2-1.5-0.5-2.3-0.6C260.1,445.3,259.9,445.3,259.7,445.2z M247.5,488.3c-2.5-2.7-5-5.4-8.2-7.3
		c-0.6-0.4-1.2-1.5-2.1-0.5c-0.6,0.7-0.2,1.6,0.2,2.3c0.6,1.2,1.7,1.9,2.9,2.5c2.3,1.2,4.7,2.2,7.3,2.8c2.9,2.9,6.7,4.9,9.3,8.2
		c0.5,0.7,1,1.9,2.2,1.4c1.1-0.5,0.7-1.7,0.7-2.6c-0.3-5.9,0.3-11.6,2.7-17.1c0.2-0.4,0-0.9,0-1.4c1.8-2.2,3-4.7,3.6-7.5
		c0.2-0.8,0.7-2.1-0.7-2.4c-1.4-0.3-1.4,1-1.6,1.8c-0.5,2.7-0.8,5.4-1.2,8.1c-0.7,0.6-1.8,2.6-2-0.2c-0.2-2.8,0-5.7-0.1-8.5
		c0-1,0.1-2.4-1.5-2.4c-1.3,0-1.2,1.3-1.2,2.2c0,2.6,0.1,5.2,0.3,7.8c0.1,3.2,0.3,6.4,0.4,9.5c-0.3,0-0.7,0.1-1,0.1
		c-1.4-4.6-1.2-9.8-4.1-14c0.2,3.7,1,7.2,1.8,10.8c0.9,3.6,2.7,6.8,3.8,10.4c-5.5-1.6-8.6-5.2-10.9-9.8c-1.2-2.3-2.9-4.3-4.5-6.4
		c-0.5-0.7-1.2-1.4-2.1-0.7c-0.7,0.6,0,1.3,0.3,1.9c1.5,3.1,3.8,5.8,6.1,8.3C248.7,486.8,249.7,487.8,247.5,488.3z M428,196
		c0.1-2.1,1.4-1.5,2.5-1c2.6,1.1,5.2,2.3,7.9,3.3c3.3,1.2,6.3,3.7,10.3,3.2c-4.8-6.3-15.5-10.1-25.4-10.9c1.9,2,2.9,4.1,4.9,5.4
		c0.1,0.6,0.1,1.2,0.5,1.6c7.2,8.9,12.4,18.8,15.7,29.7c0.6,2.2,1.9,3.8,4.3,4.1c0-1.8-1.4-3-1.9-4.6c-0.3-0.8-1.9-1.1-1.2-2.3
		c0.7-1.3,2,0.7,2.8-0.4c-0.7-2.2-2.3-3.9-3.3-5.9c-0.8-1.5-3.9-2.4-2.5-3.9c1.3-1.3,3.1,1.2,4.6,2.2c0.1,0.1,0.4,0,0.9,0
		c-2.7-3.1-4.7-6.8-8.6-8.4c-0.7-0.3-2.3-0.4-1.7-1.7c0.5-1.1,1.6-0.2,2.5,0.2c2,0.8,3.8,2.9,6.6,1.5c-1.5-2.8-3.8-4.4-6.3-5.7
		C436.3,200.2,432.2,198.1,428,196z M238,510.9c-1.2-0.1-1.3,0.6-1.2,1.6c0.1,1.2,0.2,2.4-0.9,3.5c-0.7-6.4-2-12.6-3.9-19
		c-1.1,4,0.7,7.7-0.2,11.3c-1.4-2.7-2.3-5.5-3.4-8.2c-0.2-0.5-0.3-1.6-1.3-1.2c-0.9,0.4-0.5,1.2-0.4,1.9c0.5,2,1,4.1,1.5,6.4
		c-1.8-1.2-1.8-1.2-3.1-4.2c-0.6-1.4-1.4-3.6-3.1-2.7c-1.6,0.9,0.2,2.4,0.9,3.6c0.1,0.2,0.5,0.6-0.3,1c-0.7,0.8-1.4-1-2.7-0.2
		c3.5,7.7,13,8.8,16.4,16.1c5-5.9,4.7-13.1,7.4-19.2c0.3-0.7,0.7-1.8-0.4-2.1c-1-0.3-1.3,0.6-1.6,1.5c-0.9,3.4-2,6.9-2.3,10.4
		c-0.1,0.7-0.2,2-1.2,1.8c-1.6-0.4-0.4-1.5-0.3-2.3c0.2-5.7,3.1-11.2,1.1-17.5c-2.1,5.3-2.4,10.4-2.2,15.5
		C236.8,509.8,237.3,510.4,238,510.9z M451.6,165.2c-0.7-3.3-0.2-6.9-2.5-10.4C448.2,161.1,448.3,161.3,451.6,165.2
		c-1.2,1.2-0.9,3.4-2.6,4.4c-0.6,0.4-0.3,0.9,0.1,1.4c3,4.5,10.1,5.7,14.4,2.4c0.7-0.5,1.3-0.4,2-0.1c5.5,2.1,11.2,1.7,16.9,1.3
		c3.6-0.3,7.2-1,10.7-2.5c-5-2.6-10.1-0.7-14.8-2.2c-0.3,2,2.4,2.4,1.1,4.3c-2.4-0.8-3.1-4.3-5.8-4.3c-1,1.1,0.4,2.5-1,3.7
		c-2.1-2.7-3.4-5.8-6.5-7.7c-0.3,1.9,1.7,3.5,0.1,5.2c-3.3-2-2.6-6.9-6.4-8.5c-0.6,3.1,0.9,6-0.3,9.7c-2.6-4.8-2-10.3-6.4-13.9
		c0.9,3.9,1.9,7.4,0.1,11C451.4,168.2,453,166.2,451.6,165.2z M115.6,395.1c-0.4,2.7-0.9,5.3-1.3,8c0.1,0.1,0.3,0.1,0.4,0.2
		c1.4-2.6,2.8-5.1,4.5-8.3C117.7,395.6,116.6,395.5,115.6,395.1c2.2-3.3,5.4-6.1,7.4-10.3c-2.2,0.5-3,2.2-4.9,2.2
		c0.9-2.8,4.1-4.1,4.4-7.1c-2.9,0.4-3.4,3.8-6.1,4.4c1.4-5,6.8-6.7,9.5-11.6c-3.9,1.2-5.9,3.5-8.3,5.1c-0.5,0.4-1.2,1.1-1.9,0.4
		c-0.7-0.7,0-1.3,0.4-1.9c1.3-2,3-3.7,4.8-5.2c1.8-1.4,3.5-2.9,5.2-4.4c1.6-1.4,3.5-2.7,4.3-5.4c-5.7,2.5-9.4,7.1-14.3,10.1
		c2.7-3.6,6-6.6,9.7-9.1c2.1-1.4,4.1-3,5.4-5.2c0.5-0.9,1.4-1.9,0.4-2.9c-0.8-0.8-1.8-0.1-2.6,0.4c-1.1,0.6-2.2,1.5-3.3,2.2
		c-4.5,2.8-7.3,7.8-12.4,10c-1.2,0.5-1.4,6.1-0.4,6.3c3,0.6,2.5,3,2,4.4c-2,5.7,2.3,11.3,0,16.9
		C114.9,394.5,115.4,394.9,115.6,395.1z M136.3,231.8c-2.2-7.4-7-13.3-11.5-19.3C126.2,220.4,131.6,225.9,136.3,231.8
		c-0.2,0.9,1,2.1-0.3,2.9c-1.4,0.8-6.2-1-7.1-2.5c-5.5-10.2-12.3-19.5-21.4-26.9c-0.4-0.4-1.1-0.7-0.9-1.4c0.2-0.7,0.9-0.7,1.5-0.8
		c2.9-0.4,4.7,1.5,6.5,3.1c2.7,2.4,5.2,5.1,8.3,8.1c-0.7-2.9,0.9-5.5-1.3-7.3c-3.9-3-8-5.6-13.2-5.4c-1.9,0.1-5.4-1.7-3.7,3
		c0.1,0.3-0.3,1-0.6,1.2c-1.9,1.2-0.5,1.7,0.4,2.4c3,2.4,6,4.7,9,7.1c5.5,4.5,8.7,11,13.4,16.2c-5.6,1.9-6.1,1.7-8.8-3
		c-2-3.5-4.1-6.9-7-9.9c-3.4-3.5-6.9-6.9-10.2-10.4c-2.4-2.5-4.4-2.1-6.9-1.9c-0.5,0-1.3,0.3-0.9,1.2c0.2,0.4,0.4,1,1,0.6
		c2.1-1.3,2.4,0.4,2.9,1.7c0.2,0.5,0.2,1.5,1,1c2.4-1.5,3.4,0.8,4.7,1.8c5.8,4.6,9,11.3,13.4,17.1c0.4,0.5,1.5,1.8-0.6,1.7
		c-3.3,0-5.4-1.2-7.2-4.4c-2.9-5.2-6.7-9.9-10.1-14.8c0.1,5.8,1.4,10.9,5.5,15c0.6,0.6,1.5,1.1,1.2,2c-0.4,1.2-1.8,0.2-2.6,1
		c4.5,0.7,8.8,1.9,13.2,1.2c0.3,1.5,1.6,1.2,2.6,1.4c8.7,2,17.4,3.9,26.1,5.9c4.4,1,8.4,3.3,13,3.8c3.5,0.4,5.2-1.3,4.5-4.9
		c-0.4-2-1.2-3.9-1.6-5.8c-1.6-7.9-5.4-14.8-9.6-22c0.3,10.2,5.1,18.4,9.1,26.9c0.5,1,2.4,2.6,0.2,3.4c-1.4,0.6-3.9,1-4.4-1.5
		c-1.2-5.7-4.5-10.5-6.5-15.8c-3.7-9.8-9.7-17.9-18.7-23.6c-1.1-0.7-2.3-1.7-3-0.4c-0.5,0.9-1.1,2.7,0.6,3.7
		c0.9,0.5,1.7,1.3,2.7,1.8c4.3,2.2,7.1,5.8,10.1,9.4c4.8,6,8.6,12.5,11.5,19.6c0.4,1,1.9,2.1,0.9,3.1c-1.1,1.1-2.9,0.9-4.4,0.2
		c-1.2-0.5-1.7-1.6-2.1-2.8c-2.6-7.2-7.1-13.4-11.1-19.9c-2.8-4.6-7.6-7.6-10-12.6c-0.1-0.3-0.8-0.4-1.2-0.5c-0.5-0.1-1.2,0.2-1,0.7
		c0.8,1.8-0.5,4.4,2.2,5.6c1.2,0.6,2.2,1.8,3.2,2.8c6.1,6.4,10,14.4,15,21.7c0.8,1.1,2.5,2.5,0.2,3.8c-1.8,1-3.6,1.2-5.1-0.7
		C137.8,233.7,137.9,232.1,136.3,231.8z M149,271.4c6.6-0.5,13-1.5,19.1-4.2c3.8-1.7,7.9-2.7,11.9-3.7c6.3-1.6,12.8-2.1,19.9-3.3
		c-1.1-0.6-1.5-0.9-1.9-0.9c-5.1,0-9-2.6-12.6-5.9c-1.9-1.8-4.1-3.2-6.8-3.8c-0.7-0.2-1.9-0.5-2-0.3c-1.2,2.4-2.9,0.7-4.2,0.4
		c-2.8-0.6-5.5-1.4-8.3-2.2c-1.7-0.5-4-1.5-4.8,0.3c-0.6,1.4,1.9,2.2,3.2,3.1l0,0c0.9,2.4,0.3,3.4-2.4,2.8
		c-4.2-0.9-8.5-1.5-12.7-1.6c-1.7,0-4.1-1.5-4.4,2c-0.1,1-1.6,0.4-2.5,0.4c-3.8-0.1-7.6-1.1-11.4-0.5c-1.5,0.2-2.7,0.2-1.4,2.2
		c1.4,2.1,0.7,3-1.8,2.7c-3.4-0.4-6.7-0.7-10.1-1.1c2.3,3.9,2.2,3.3-2.1,4.2c-4.6,0.9-10.5-0.9-13,5.3c-0.2,0.4-1.3,0.5-1.9,0.7
		c-1.3,0.4-2.6,0.6-3.8,1.1c-1,0.5-3.1,0.7-2.4,2.2c0.5,1.3,2.7,1.5,3.8,0.8c1.9-1.1,3.8-1,5.8-1.2c6.3-0.6,12.2,1.9,18.3,2.6
		c9.8,1.2,19.4,0.8,28.8-2.4L149,271.4z M427,64c3.6-0.6,7.1,0.3,10.5,1.2c10.5,2.8,21.2,4.4,31.6,7.5c2.6,0.8,5.3,1.4,7.9,2
		c2,0.5,2.9-1.2,4-2.4c0.7-0.8,0.1-1.2-0.6-1.5c-0.6-0.2-1.7,0.1-1.4-1c0.3-1.1,1.5-1,2.1-0.7c2.6,1.6,3.9-0.4,5.4-1.7
		c1-0.9,2-1.7,2.9-2.6c1.5-1.6,4.2-2.3,3.1-5.5c-0.4-1.2,1.2-1.5,2.3-1.5c9.7-0.6,18.9,1.8,28.1,4.5c1.1,0.3,1.9,1.1,1.5,2.4
		c-0.4,1.1-1.5,1.4-2.4,0.9c-2-1.1-3.4,0.1-4.9,1c-6.3,3.9-13.1,6.8-19.8,9.9c-16.7,7.9-33.7,7.8-50.9,1.4
		c-4.7-1.8-9.1-4.7-15.1-4.2c4.3,2.8,8.5,4.4,12.6,6.1c12.3,5,24.8,8.2,38.3,4.8c3.7-0.9,7.3-2.3,11-2.9c5.2-0.9,7.5,1.2,7.2,6.3
		c-0.1,2,0.6,3.5,1.7,4.9c3.8,5,9,5.2,15.4,4.7c-4.6-3.3-7.1-7-8.1-11.8c-0.5-2.4-1.9-4.7-4.1-6.1c-2.3-1.3-2.1-2.2,0-3.8
		c4.5-3.5,11.1-4.1,14.1-9.8c0.2-0.4,0.8-0.4,1.2,0c0.5,0.6,0.3,1.1,0,1.6c-0.9,1.3-2.6,2.1-2.9,4.2c2.2-0.5,2.9,0.1,2.7,2.4
		c-0.2,2,0.2,4.1,2.1,6.5c-0.5-6.5,2.7-11,4.8-15.8c1.5-3.5,3.5-3.9,7.2-2.2c0.5,0.2,1.3,1.1,1.4-0.3c0.2-2.4,1.2-1.2,2.2-0.6
		c0.9,0.5,1.6,1.4,3,1.1c-1.3-2.1-4.5-2.5-5-4.3c-1-3.4-2.7-2.1-4.8-2c-2.2,0.1-3.4,1.5-5.1,3.2c0-2.8-0.1-5-0.8-7.2
		c-0.8-2.6,0.3-5.2,2.8-6.3c7.3-3.3,11-11.1,18.3-14.3c0.3-0.1,0.5-0.5,0.6-0.8c1-3.1,3.4-5.3,5-7.9c1.9-3,4.5-5.9,7.8-7.6
		c3.6-1.9,7.5-3.3,12.2-5.4c-7.5,0.5-14,1.5-20.1,4.3c0.5,1.3,2.5,0.7,2.3,2.8c-1,0-2.5,0.5-3.2-0.1c-2.1-1.6-3.7-0.4-5.3,0.6
		c-13.5,8.3-21.6,19.9-21.8,36.2c0,1.2,0,2.4,0,3.6c0,1-0.4,1.8-1.5,1.3c-5.3-1.9-10.8-2.5-16.3-3.5c-3.8-0.8-8.2-2.5-11.5-1.4
		c-3.1,1.1-4.3-0.7-6.3-1.4c-2-0.7-4.5-0.4-5.9-2.6c-1.7-2.6-4.5-2.8-7.3-2.7c-1.9,0.1-3.8,0.4-6.1,0.6c4.3,3.4,8.5,6.1,14.2,4.7
		c-2.3,2.9-4.9,2.1-7.3,1.6c-2-0.4-2.3,1.3-3.4,2c-0.5,0.3-0.5,1.1-0.1,1.6c0.9,0.9,2.1,0.6,3.1,0.4c1.3-0.2,2.5-0.7,3.8-1
		c2.5-0.6,4.2,0.3,4.2,2.2l0.1-0.1c-0.9-0.5-1.8-0.3-2.7-0.1c-2.1,0.5-5.1,0.4-2.3,3.9c0.8,1,0.2,1.7-1,1.9
		c-2.5,0.4-4.9,1.1-6.2,3.6c-0.2,0.4-0.9,0.7-1.5,0.9c-0.7,0.2-1.7,0.9-2.1-0.3c-0.3-0.8,0.6-1.3,1.3-1.4c1.9-0.3,2.2-2.4,3.6-3.2
		c2-1.2,1.9-1.4,1.1-4c-0.5,0.4-1.1,0.6-1.4,1.1c-1.8,3.6-7.7,6.4-11.7,5.9c-3-0.3-5.1-2.4-7.9-3.1c-7.2-1.9-14.4-2.6-21.7-3.6
		C428.2,60.6,427.1,61.2,427,64c-1.1,1.6-0.3,2.1,1.3,2.7c2.7,1,5.5,0.3,8.1,1.1c5.8,1.8,11.8,2.6,17.5,4.7c2.4,0.9,5,1.1,7.5,1.6
		c-1.1-1.1-2.2-1.6-3.5-2c-9.1-2.7-18.4-4.9-27.8-6.8C429,65,427.9,64.8,427,64z M400.4,93.8L400.4,93.8c1.1-3.3,2.8-6.1,6.4-8.1
		c-1.5,0-2.3,0.1-3.1,0c-0.9-0.1-2.1,0.9-2.6-0.2c-0.7-1.4,0.9-1.7,1.6-2.4c1.1-1.2,3.6-3,3.5-3.3c-2.3-3.6,1.9-2.2,2.9-3.6
		c-2.5-0.9-4.7-2.2-5.9-4.1c-2.4-3.8-4.4-2.1-6.7-0.2c0.3,1.3,2.5,0.3,2.1,1.9c-0.3,1.1-1.6,1-2.5,0.9c-3.5-0.7-5.4,1.6-7.1,3.8
		c-2.7,3.7-6.8,5.1-10.7,6.8c-1.4,0.6-3.1,0.4-4.5,1.1c-1.1,0.6-2,2.2-3.4,0.8c-1.2-1.3-0.3-2.7,0.3-4c0.7-1.6,2.1-2.5,3.5-3.4
		c1.3-0.8,2.8-1.5,3.3-3.1c0.3-1,0.5-1.9-1.2-1.4c-11,3.2-21.7,7.2-31.1,13.9c-5.1,3.6-5.1,4-2.8,9.9c2.7-1.2,5.1-2.6,6.8-5.3
		c2.9-4.6,8.4-3.1,12.7-4.5c0.4-0.1,1.3,0.2,1.6,0.6c2,2.6,4,1.4,6.3,0.5c4.4-1.8,9.2-0.8,10.1,2.5c1,3.5,3.2,4,6.2,4.2
		c5.8,0.4,11.6,1.1,16.9,3.9c3.6,1.9,7.6,2.6,11.6,3.3c11.1,1.8,21.6-0.6,31.6-5.3c5.2-2.5,10.6-5,14.5-9.5c1.3-1.4,1.5-2.5-1-2.6
		c-3.6-0.1-7-1.4-10.4-2.5c-5.2-1.7-10.5-3.4-16-5.2c1.7,4.1,1.5,5.8-0.2,9.2c-1.4,2.9-4,4.3-6.6,5.8c-2.9,1.6-5.1,3.7-4,7.4
		c0.2,0.6,0.4,1.2-0.2,1.6c-0.8,0.5-1.3-0.2-1.8-0.6c-4.1-3.1-4.5-7.6-0.7-11.7c2.2-2.4,3.8-4.9,3.4-9c-3.3,4.7-6.8,8-11.7,9.7
		c-2,0.7-4.4-0.4-6.1,1.3C403.8,94.4,402.1,94.3,400.4,93.8z M306.9,264.7c0,1.5,0.6,2.7,1.8,3.6c1.1-0.8,1.6-1.9,1.8-3.1
		c0.9-6.9,3.4-13.3,4.9-20c2.1-9.2-4.1-20.6-12.8-24c2.1,2.3,4.5,3.9,5.5,6.9c2.8,8.2,3.4,16.7,2.9,25.3c0,0.7,0,1.6-0.9,1.7
		c-1.2,0.1-1-1-1.2-1.8c-0.3-1.6,0.9-3.4-1-4.8c1.1,4.8-0.8,9.7,1,14.4c0.3,0.7,1.2,1.5,0.4,2.3
		C308.5,266.1,307.7,264.7,306.9,264.7c-0.1-3.1-1.4-6-2.3-8.9c-2.4-7.5-2.2-15.6-4.3-23.2c-1.2-4-2.4-8.1-3.6-12.1
		c7.7,7.3,10.2,16.8,11.4,26.8c0.7-11.1-3-20.8-9.8-29.6c1.8,1,3.8,0.3,5.5,1.5c4.1,2.9,8,6.1,11.4,9.7c3.4,3.8,7.5,6.2,12.2,7.7
		c2.5,0.8,5,1.7,7.7,2.6c-3.7,3.6-7.4,1.2-11.1,0.8c0.9,1.7,2.8,1.1,3.9,2.8c-2.9,0.6-5.5,0.5-8.1-0.1c-0.5-0.1-1-0.9-1.5-0.1
		c-0.4,0.8,0.1,1.5,0.9,1.6c1.9,0.3,3.6,1,5.6,0.8c8.1-0.5,14.4-5.1,20.9-9.3c-1.9-1.9-3.6-1.3-4.8,0.2c-1.1,1.4-2.4,1.5-3.8,1.4
		c-5-0.3-9.5-1.7-13.6-4.7c-5-3.6-8.4-9.1-13.7-12.5c-1.6-1-3.9-0.9-5.3-3.1c4.5,0.2,7.8,1.7,10.9,4.1c4.8,3.7,8.8,8.4,13.9,11.8
		c2.9,1.9,4.6,2.3,8,1.6c-6.2-1.9-10.7-5.8-14.4-10.6c-2.3-2.9-4.9-5.2-8.2-6.6c-1.1-0.5-2.5-0.3-3.6-1.9c3.2-0.1,5.6,1,8,2.3
		c5.2,2.8,9.3,7,13.3,11.2c2,2.1,4.2,3.5,7.2,3.8c-5-3.2-8.6-7.8-12.6-12c-4.4-4.6-9.7-8.5-16.6-8.8c-3.7-0.2-7.3-0.8-11-1.1
		c-0.7-0.1-1.6-1.1-2.2,0c-0.2,0.4-0.1,1.2,0,1.7c0.4,1.3,1.3,0.5,2.1,0.3c3.5-0.7,6.9,0.6,10.3,0.5c-1.2,1.4-2.8,1.4-4.2,1.3
		c-1.8-0.2-3.3,0.2-4.9,0.8c-4.7,1.6-6.1,1-6.5-4c-0.9-10.8-2-21.5-4.3-32.1c-1.4-6.3-2.4-12.6-6.8-17.7c1.5,6.5,4.2,12.7,4.6,19.4
		c-2.8-5.5-3.2-12-7.2-17.5c-1.1,6.1-2.3,11.6-6.9,15.4c-0.9,0.7-1.5,2.1-3,1.2c-1.5-0.9-0.2-1.8,0-2.8c0.6-3.2-1.2-5.6-3.4-7.3
		c-2.1-1.5-3.1,1.1-4.2,2.1c-7,6.9-13,14.6-18.4,22.7c-6.8,10.2-13.3,20.6-19.4,31.3c-1.6,2.9,0,3.3,2.1,3.5c0.9,0.1,2-0.2,2.7-0.7
		c6.8-4.2,13.6-8.4,20.2-12.8c10.6-7.1,19.1-16.5,28.5-24.9c3.6-3.2,5.1-6.7,2.8-11.4c-0.9-1.8-2.2-3.9-1.3-6.3
		c1.4,0.6,1.4,1.8,1.7,2.8c1.3,4.1,2.9,8.1,3.8,12.3c1.6,7.2,3.4,14.4,2.6,21.8c-0.4,4-4.8,9.3-8.4,10c2.2-2.6,5-4.6,5.8-8.3
		c-7.8,1.2-15.4-1.7-23.1,1c6.3-3.5,10.3-9.2,15.1-13.8c1.5,0.6,0.2,1.8,1,2.7c2.8-3.5,7.4-5.8,5.9-11.4c-0.2-0.8-0.2-1.8-1.1-2.1
		c-1-0.3-1.3,0.8-1.8,1.3c-6.6,6.4-12.9,13.1-20,18.9c-9.1,7.5-18.6,14.3-29.9,20.5c4.4,0.6,7.4-0.1,10.4-1.9
		c5.6-3.3,10.1-7.9,14.9-12.2c0.6-0.6,1.6-1.7,2.4-0.7c0.8,0.9,0.1,2-0.9,2.7c-3,2.2-4.9,5.2-5.9,8.7c-2.5,8.6-7.1,15.8-14.9,20.6
		c-0.6,0.4-1.3,1-1.1,1.9c0.8,0.5,1.4,0.2,2-0.3c4.1-4.2,8.8-5.2,14.3-3.2c4.4,1.6,9,0.9,13.4,0.1c0.6-0.1,1.7,0.3,1.4-1
		c-0.2-0.9-1-0.9-1.7-0.8c-1.7,0.1-3.3,0.3-5,0.3c-0.8,0-2.2,0.3-2.2-1.1c0-1.1,1.2-0.9,2-0.9c2.3-0.2,4.5-0.8,6.8-2.8
		c-3.9-0.4-6.9,1.5-10.8,1.4c3.7-3.3,9.1-3,11.3-7.4c-3.9,0.9-7.3,2.9-12.1,3.8c5.3-4.9,11.7-6.2,17-11c-5.8,1.4-10.3,3.2-14.3,6
		c-3.9,2.8-7.4,6.1-11.1,9.2c-0.4-0.5-0.9-0.9-1.3-1.4c3.3-2.9,6.5-5.8,9.8-8.7c4.8-4.3,10.6-6.2,16.7-7.5c1.1-0.2,2.3,0,3,0.7
		c0.7,0.8-0.3,1.5-0.7,2.1c-8.9,14.3-3.3,26.7,9.2,34.6c6,3.8,12.8,5.9,19.4,8.2c0.7,0.3,1.5,0.8,2.4-0.3c-1-2.1-2-4.4-3.2-6.6
		c-3.4-6.5-5.5-13.3-6.1-20.7c-0.5-6-1.1-12.3-5-17.3c-1.9-2.5-4.3-4.2-2.1-7.7c0.5-0.8,0-2.3,0-3.5c-0.1-4.4-0.6-8.9,1.7-13.1
		c0.6,2.6,1,5.2,1.2,7.9c0.4,4.7-0.3,9.6,1.6,14.1c3.8,9,5.5,18.4,7.5,27.9C302.7,254.9,303,260.5,306.9,264.7z M329.3,144
		c1.6-0.4,3.2-1,4.8-1.2c2.7-0.3,4.9-2.9,7.8-1.9c2.1,0.7,3.7-0.1,5.3-1.1c4.1-2.6,8.4-5.1,12.2-8.2c9.5-7.7,20.1-13,32.3-15.1
		c3.5-0.6,5.9-3,8.5-5.3c-12.1,1.9-23.8,4.9-34.9,10.1c2.3-3.1,5.6-4.5,8.9-5.6c3.5-1.2,7.1-2.1,10.6-3.2c3.2-1,6.8-1.4,9.9-3.8
		c-11.7,0.7-22.1,4.2-32.3,8.8c8.2-7.1,19-7.9,28.7-11.8c-1.1-1-2.7,0.3-3.4-1.1c0.7-1.4,2.8-0.4,3.5-1.9c-0.2-0.2-0.4-0.3-0.5-0.4
		c-0.2-0.1-0.5-0.1-0.7,0c-2.2,0.3-4.1-0.3-5.3-1.7c-0.3-0.3-0.8-0.5-1.2-0.7c-2.1-0.8-3.7,0.2-5.2,1.4c-1.3,1.1-2.4,2.5-4.9,2.7
		c0.7-3.4,4.8-5.9,2.1-9.7c-3.7,1.6-4.4,6.2-8,8.7c-0.2-3.1,2.1-4.9,2.6-7.8c-4.4,3.6-4.9,9.3-9,13.3c0-5.3,2.9-8.7,3.7-12.9
		c-4.6,3-4.8,8.5-7.6,12.6c0.4-4.3,1.7-8.4,3.9-12.1c0.8-1.4,1.3-2.8-0.2-3.8c-1.3-0.9-2.5,0.3-3.3,1.3c-2.1,2.6-3.9,5.3-4.8,8.6
		c-1.3,4.7-2.5,9.4-3.7,14.2c0.3-8.4,2.2-16.5,5.4-24.3c-5.3,5.3-7.2,11.9-7.1,19.7c-2.9-4-0.5-7.9-1.3-11.6c-2,5.4-2.5,11-2.3,16.6
		c0,0.8,0.5,1.9-0.7,2c-1.1,0.1-1.1-1-1.2-1.8c-0.3-3.9-0.5-7.8-0.7-11.8c-1.3,1-1.5,2.1-1.6,3.4c-0.3,3.9-0.1,7.8,0.6,11.7
		c0.2,1.5-0.2,3.7,1.3,4.3c1.7,0.6,2.9-1.3,4.1-2.4c6.5-5.7,14-9.9,21.7-13.7c3.6-1.8,7.3-3.2,11.2-4.4c0.1,1.4-0.7,1.6-1.4,1.8
		c-4.2,1.2-7.9,3.2-11.6,5.4c-8.5,5.2-16.9,10.3-21.5,19.8c-1.1,2.3-2.6,4.9-5.8,5.2c-0.8,0.1-0.5,0.7-0.6,1
		c-0.1,0.5,0.1,1.3-0.8,1.3c-0.7,0-1-0.6-1.1-1.2c-0.2-1.2-0.3-2.4-0.5-3.5c-0.5-2.3,0.3-4.9-1.5-7.5c-1.3,2-2.4,3.7-3.5,5.4
		c-2.7,4.1-2.7,4.2,2,5.5c0.9,0.3,2.1,0.3,1.9,1.6c-0.1,1.4-1.3,1.1-2.2,1c-5.6-1.1-11.3-0.8-17-1c-1.7-0.1-4.5,2-4.8-0.5
		c-0.2-1.5,3.2-1.1,4.9-1.8c0.1-0.1,0.2-0.3,0.4-0.6c-2.3-0.1-4.6-0.4-6.8-0.3c-1.7,0.1-3.5,0.8-2.8,3.2c0.5,1.7,0,3-1.3,4.1
		c-1.5,1.2-1.2,2,0.4,2.9c2.2,1.2,2.8,2.6,1.1,4.9c-0.8,1.2-1.5,2.9,1.2,3.3c3.6,0.5,4.9,2.2,3.8,5.5c-1,3,0.5,3.2,2.5,3.6
		c3.6,0.6,6.3,1.9,5.8,6.4c-0.3,2.9,1.4,3.3,3.8,2.8c4.7-1,5.9-0.5,5.8,4.1c-0.1,4.1,2.1,4.5,4.9,4c5.3-0.8,8.9,0.4,10,6.3
		c0.5,2.6,2.5,2.9,4.7,1.3c4.8-3.3,4.8-3.2,8.2,1.2c0.7,0.9,1.4,1.6,2,2.5c0.9,1.4,2.1,2,3.6,1.1c3.2-1.8,5.3-0.5,6.5,2.4
		c0.8,2,1.9,2.7,4.1,2.3c3.1-0.6,5.8,0.1,7.5,3.3c1.1,2.1,3.2,2.3,5.3,1.7c6.6-2,5.5-1.1,9.1,3.7c0.5,0.7,1,1.4,1.4,2.1
		c1.1,2.1,2.4,2.7,4.4,0.9c1.5-1.4,5.1-0.4,5,1.3c-0.2,3.6,3.3,4.4,4.6,6.9c0.5,0.9,1.6,1.2,2.5,0.4c2.4-2.1,3.3-0.3,4,1.5
		c1.3,3.6,4.3,6,6.7,8.7c1.4,1.6,3.2,2.6,5.3,0.9c1.6-1.3,2.6-0.9,3.9,0.9c4.8,6.4,9.8,12.7,14.7,18.9c0.9,1.2,1.9,2.5,3.5,3
		c-0.3-4-0.6-5-2.7-8.1c-0.4-0.6-0.5-1.3-0.7-2c-0.3-1.2-0.6-2.5-1-3.8c-1.3,0.9-0.3,2.7-2,3.3c-2.5-5.5,0-12.2-3.9-18.2
		c-0.7,4.8,0.3,8.9-0.2,12.9c-3.3-7.6-1.9-16.3-6.3-23.5c-0.8,5.5,1.5,10.8,0.8,16.3c-2.2-9-3.3-18.3-7.7-26.6
		c1,7.5,0.5,15.1,1.6,22.6c-2.2-10.4-2.1-21.3-8.5-30.5c1.3,9.8,0.8,19.8,3,29.6c-3.6-11.3-3.1-23.8-10.4-33.9
		c1.2,5.5,1.6,11,2,16.6c-3.1-7.9-4.3-16.5-9.9-24.3c0.3,4.3,1.8,7.3,2.6,10.5c0.8,3.2,0.9,6.4,1.3,9.6c0.4,3.1,0.7,6.2,1.1,9.4
		c-0.4,0.1-0.8,0.1-1.2,0.2c-2-11-4.1-21.9-9.3-31.9c-0.2,8.3,1.7,16.4,0.8,24.7c-2.1-10.4-2.1-21.4-8.9-30.4
		c0.6,8.1,1.3,16.2,1.9,24.3c-0.4,0.1-0.8,0.2-1.2,0.2c-1.3-9.3-1.3-18.9-6.8-27.9c-1.8,10.3,2.1,19.7,0.2,29.2
		c-2.5-11.1-3.6-22.5-7.9-33.5c-3.3,9.2-1.1,17.9-1.3,26.7c-1.4-8.4-2.7-16.9-4.1-25.3c-2.6,6.7-2.3,13.7-2.3,20.6
		c-0.4,0-0.9,0-1.3,0c-0.6-8.4-1.1-16.8-1.7-25.2c-4.1,8.4-2.1,17.8-5.2,26.4c-2.1-9.2-1-18.7-1.5-28.6c-4.8,7.1-7,14.6-8.5,22.3
		c-0.1-9.4,4.4-17.8,6-27c-1.6,0.6-2.2,1.7-3,2.5c-3.4,3.5-4.5,8.3-6.7,12.4c-0.3,0.5-0.3,1.3-1.1,1.1c-1.1-0.3-0.5-1.1-0.2-1.7
		c1.7-4.6,3.6-9.1,6.1-13.2c0.5-0.8,1.5-1.5,0.9-2.9c-5.1,3.5-8.3,8.7-13.3,13.6c0.6-5.7,3.8-9.1,6-13.9c-5.7,4.5-9.5,9.4-14.4,13.3
		c1.9-6.2,5.7-11.2,10.5-16.5c-5.3,1.3-8.5,4.6-12.8,7.3c1.3-5.6,7.1-6.1,8.5-10.8c-4.9,0.2-8.1,4.1-12.9,5.3
		c2.1-3.2,5.2-4.3,7.5-7.1c-3.5,0.8-6.3,1.5-9.2,2.2c-0.5,0.1-1,0.3-1.2-0.3c-0.2-0.6,0.1-1.1,0.8-1.3
		C325.4,145.3,327.5,145.1,329.3,144L329.3,144z M43.1,361.9c-0.9,0-0.9,1.3-1.8,0.9c-0.7-0.4-0.4-1-0.3-1.6
		c0.3-1.6-0.1-3.4,0.8-4.9c3.5-5.6,5.2-11.7,5.7-18.2c0.1-0.7,0.2-1.7,1-1.7c1.1,0,1,1.1,0.9,1.9c-0.4,3-0.6,5.9-1.1,8.9
		c-0.4,2.6,0.3,5.6-1.9,7.8c3.3,2.6,0.5,5.9,1,8.8c0.3,1.7,1.4,1.8,2.5,0.6c1.8-1.9,2.3-4.4,2.6-6.9c1.2-9,1.1-18.1,2.8-27
		c0.3-1.5,0.2-4,1.8-3.9c1.4,0.1,1.1,2.6,0.9,4.1c-0.9,8-0.2,16-0.6,24c-0.1,1.4,0.1,2.9,0.3,4.3c0.1,0.6,0.4,1.2,1,1.2
		c0.7,0,0.9-0.7,1-1.3c0.6-2.2,0.7-4.6,0.4-6.7c-1.5-8.6,0.8-16.8,2.4-25.1c0.2-0.8,0.2-1.9,1.3-1.7c1.2,0.2,0.8,1.3,0.8,2.1
		c-0.4,5.5-1,10.9-1.3,16.4c-0.2,3.3-0.3,6.7,1.5,10.3c1.3-2.7,1.2-5,1.2-7.2c-0.1-10.9,1.4-21.6,5.5-31.8c0.3-0.8,0.4-2.2,1.7-1.9
		c1.3,0.3,0.8,1.7,0.6,2.5c-2.3,6.4-2.4,13.1-3.2,19.7c-0.4,3.9-0.5,7.8,0.3,11.7c1.8-2.5,2.9-5.1,4.7-7.3c0.3-0.4,0.6-1.1,0.5-1.6
		c-1.4-9.7,0-19.1,3.6-28.1c0.7-1.8,1.3-3.8,4.1-5.2c-3.1,10.1-5.1,19.6-5.5,30.2c2-2.2,3-4,3.4-6.2c0.5-2.9,1-5.9,1.5-8.8
		c1.3-7.6,3.4-14.9,7.4-21.5c0.4-0.6,0.5-1.9,1.7-1.4c0.9,0.4,0.4,1.3,0.1,1.9c-5.3,11.6-5.6,24.3-8,36.5c-0.6,3-0.8,6-0.4,9.2
		c1.6-0.3,1.6-1.4,1.8-2.5c0.7-4.5,1.2-9,2.2-13.4c2.8-12.6,4.8-25.5,11.9-36.8c1-1.5,1.6-3.4,4.3-4.2c-1.5,3-2.8,5.5-3.9,8
		c-5.7,13.2-6.2,27.6-9.5,41.3c-0.4,1.6-1.1,3.6,1.4,3.9c2.4,0.3,2.1-1.8,2.3-3.2c2-11.4,3.5-22.8,6.3-34.1
		c1.1-4.6,2.7-9.1,4.2-13.7c0.7-2.2,0.6-4.3-0.9-6c-1.7-1.9-3.6-0.3-5.2,0.3c-2.3,0.9-4.5,2.1-6.7,3.4c-24.2,14.7-44.6,33.7-61,56.8
		c-4.2,5.9-6.6,12.6-7.7,20.1c1.6-0.9,1.1-3.4,3.6-3.3c-1.5,5.4-2.6,10.9-1.7,16.9c2.1-1.9,1.9-3.8,1.8-5.6
		c-0.6-5.9,1.4-11.3,3-16.8c0.3-1,0.6-2.6,1.8-2.2c1.4,0.5,0.3,1.8,0.1,2.7c-0.1,0.5-0.4,0.9-0.5,1.3c-1.6,5-2.2,10-1.4,15.2
		c0.2,1.4,0.6,2.8,2.1,2.8c1.4,0,1.7-1.5,2-2.6c0.2-0.7,0.4-1.4,0.4-2.1c-0.1-4.2,0.8-8.3,1.7-12.4c0.9-4.4,2.1-8.8,3.2-13.2
		c1.5,1.6,1.2,3.1,0.8,4.7c-1.6,6.8-2.1,13.6-2,20.6c0,0.7-0.5,1.9,0.6,2.2c1.2,0.3,1.3-1,1.8-1.8C42.8,368.4,42.8,365.3,43.1,361.9
		z M166,190.7c-0.1-0.2-0.2-0.4-0.4-0.7c-2.6,0.8-5.1,1.9-7.7,2.5c-3.2,0.7-4.6,3.2-6.4,5.4c-0.4,0.4-0.9,1.1-0.1,1.5
		c2.7,1.4,5.5,2.7,8.3,4c1.6,0.7,1.9-1.1,2.9-1.6c1.1-0.6,1.8,0,2.5,0.6c2.4,2,4.9,3.8,6.7,6.4c0.4,0.6,0.6,2,2.1,0.9
		c2.8-2,5.1-1.2,6.7,1.9c1.1,2,2.1,5.3,3.5,5.5c4.2,0.6,5,3.7,6.2,6.5c1.3,3,3.4,1.7,5.3,1.7c2.4,0,2.1-1.8,2.2-3.3
		c0.4-9.6,3.6-18.4,7.7-26.9c2.7-5.6,6.8-10.2,10.7-15.3c-7.4,1.2-14.5,1.5-21.3,3.8c-6.8,2.3-13.7,3.9-20.7,5.7
		c-6.8,1.7-12.3,6.3-18.9,8.5c-0.1-0.3-0.3-0.7-0.4-1C158.6,194.8,162.3,192.7,166,190.7z M337.3,183.1c-1.5-0.1-2.3-0.1-3-0.2
		c-4.7-0.5-5.9-1.5-6.9-6.2c-0.4-1.9-1.8-1.9-3.3-1.9c-5.2,0-5.9-0.5-6.6-5.6c-0.5-3.3-3.5-2.2-5.2-3.3c-1.2-0.8-2.2-0.2-3,1
		c-3.9,5.9-7.9,11.7-11.6,17.6c-1.3,2-2.5,4.1-2.2,6.7c0.6,4.4,1.1,8.7,1.7,13.1c9.4-1.5,14.6,0.1,20,6.2c1.8,2,3.9,3.5,6,5
		c2.6,1.8,3.4,0.7,3.9-1.7c1-4.1,1.2-8.4,3.1-12.2c-1.4-0.6-2.9,0.1-4.1-1.3C332.8,196.5,332.5,188.7,337.3,183.1z M158.7,458.8
		c4-5.6,9.6-6.8,14.6-9.2c9.5-4.5,16.6-11.4,21.2-20.8c1.2-2.4,2.6-5.1,1.1-8.3c-3.1,3.2-4.8,6.8-6.7,10.4c-2.9,5.5-5.1,7.8-8.2,8.6
		c3.3-6.2,6.3-12.4,7-19.5c-5.5,8.3-6.7,19-14.4,26.2c6.2-9.2,5.7-20.2,8.4-30.4c-3.1,3-4.5,6.8-6,10.6c-2.5,6.7-3.4,13.9-6.9,20.3
		c-0.3,0.6-0.3,1.6-1.3,1.4c-1.1-0.3-0.6-1.1-0.4-1.7c4.8-10.4,3.8-22.3,8.9-32.6c0.5-1,1.1-2.9-0.3-3.5c-1.5-0.6-2.2,1.2-2.7,2.3
		c-2.6,5.8-4.5,11.8-5,18.2c-0.5,6.6-2.1,12.9-4.5,19c-0.3,0.7-0.4,1.6-1.3,1.3c-1.1-0.3-0.8-1.2-0.4-2c1.3-2.4,0.8-5.1,0.9-7.7
		c0.4-9.6,0.7-19.3,4.2-28.5c0.5-1.4,1.3-3,0.4-4.8c-1.4,1.2-1.8,2.7-2.4,4.1c-2,5.1-2.9,10.5-3.8,15.9c-0.6,3.4-1.4,6.7-4.3,9.2
		c2.8-9.3,1.3-19.3,5.8-29c-3.8,1.3-4.3,3.6-4.8,5.7c-1,4.5-1.7,9.1-2.7,13.7c-0.2,0.8,0,2.6-1.5,2.3c-1.2-0.3-0.4-1.6-0.3-2.5
		c0.6-6-1.2-12.1,0.8-18.1c-2.7,2-3.4,4.8-3.9,7.7c-0.1,0.7,0,1.9-1.1,1.9c-0.9,0-1.3-0.9-1.6-1.7c-0.5-1.2-0.3-2.2,0-3.4
		c0.4-1.5,1.5-2.9,1.2-4.8c-0.3,0.2-0.6,0.3-0.7,0.5c-0.4,0.6-0.7,1.3-1,1.9c-4.9,10.3-0.5,19.6,3.7,28.6
		C153.6,446.1,158.1,451.1,158.7,458.8z M203.5,408c-2.8-3.3-4.4-7.1-5.5-11.1c-0.6-2.2-1.3-4.3-2.6-6.2c-0.5-0.7-1.2-1.3-2.1-1.1
		c-1.2,0.3-0.8,1.5-0.7,2.1c0.3,3,1,5.9,2.2,8.6c0.5,1.1,1.5,2.4,0.8,3.9c-1.8-0.5-1.8-2.1-2.5-3.1c-1.2-1.9-1.2-4.4-2.8-6.1
		c-0.7-0.7-0.9-2.3-2.3-1.7c-1.2,0.5-0.7,2-0.5,2.9c0.6,2.7,1.3,5.4,2,8c-1.5,0.4-1.5-0.5-1.9-1.1c-1-1.9-2-3.8-3.1-5.6
		c-0.3-0.6-0.8-1.4-1.6-1.2c-1,0.3-0.9,1.3-0.8,2.1c0.3,1.5,0.8,3,1.2,4.5c-1.1,0.2-1.3-0.5-1.6-0.9c-0.8-0.9-1.2-2.9-2.8-1.8
		c-1.4,1-0.1,2.3,0.5,3.4c2.9,5.7,8.3,7.4,13.8,8.3c5.9,0.9,10.5,3.2,14.1,8.1c1.7,2.3,3.9,4.8,8,4.6c-3.1-2.9-2.4-5.7-1-8.7
		c0.8-1.8,1.9-3.3,3.4-4.5c6.9-5.4,10.5-13.1,14.4-20.6c0.9-1.6,0.9-3.3-0.1-5c-0.1,1.6-0.7,3.1-1.5,4.4c-0.3,0.6-0.5,1.5-1.4,1.2
		c-1-0.3-0.5-1.2-0.5-1.8c0.3-6.8-0.5-13.3-5.4-18.7c-0.5-0.6-1.4-1.4-0.7-2.9c4.4,4,7.6,8.7,9.8,14.1c-0.3-6.3-9.3-18.2-14.8-19.9
		c-2.5-0.8-4.1-0.2-4.6,2.7c-0.3,1.7,0.2,2.8,1.1,4.3c4.3,7.3,7.3,14.9,6,23.6c-0.4,2.6-0.7,5.2-1.2,7.7c-0.3,1.6,1.6,4.5-0.5,4.6
		c-2,0.1-1.9-3.2-2.2-5c-0.9-5.9-0.2-11.9-1.1-17.8c-0.8-4.8-2.6-9.1-5.7-13.4c-1,2,0.2,3,0.7,4.1c2.4,5.1,4,10.5,3.9,16.2
		c-0.1,6.6-0.8,13.3,1.5,19.8c0.2,0.6,0.2,1.3-0.5,1.5c-0.7,0.2-1-0.4-1.3-0.9c-1.6-3.4-2.8-6.9-4-10.5c-1,6,0.7,11.7,2.4,18.2
		c-2.9-1.8-3.9-4.1-4.8-6.4c-2.4-6-1.9-12.4-2.8-18.7c-0.7-4.5-1.2-6.1-4.3-8.9C199.3,392.3,201.9,400.1,203.5,408z M328.2,92.1
		c0.1,0.8-0.3,1.3-0.8,1.8c-5.6,5.8-10.2,12.6-16.2,18.1c-4,3.7-7.1,8.4-12,11.2c-3.4,2-6.4,4.5-9.3,7.2
		c-5.2,4.7-10.1,9.8-15.9,13.9c-3,2.2-6,3.6-9.9,2.5c-2.7-0.8-5.7-0.7-8.5,0.1c2,0.4,4,0.5,5.9,0.9c1,0.2,2.9-0.7,2.8,1.1
		c-0.1,1.1-1.8,0.6-2.8,0.5c-4.1-0.2-8.1-0.5-12.1,0.2c-1.3,0.2-2.8,0.3-3.5,2.1c6,2.4,12,2.8,18.5,0.8c-1.3,3.7-5.8,1.8-6.4,5.2
		c0.3,0,0.7,0.1,1,0.1c0.9,0.2,2.1-0.6,2.5,0.6c0.4,1.1-0.9,1.5-1.6,2.1c-1.9,1.5-3.7,3.2-4.7,5.6c2.3,0,3.4-1.7,4.8-2.9
		c3-2.6,5.1-6,6.8-9.6c0.7-1.5,1.7-1.6,3.2-0.9c1.7,0.8,0.7,1.6,0.3,2.5c-1.6,3.3-0.7,7.9,2.1,11.3c-1.6-8.4-1.6-8.4,1-10.7
		c-3.4,6.2,2.9,10.9,2.1,16.8c2.8-5.1,3.3-10.3,1.3-15.7c-2.2-5.8-0.9-7.8,5.3-8.3c4.8-0.4,9.5-0.5,14.2-1.4
		c4.1-0.8,4.2-0.8,5.6-5.4c-7.1,2.9-14.5,3.1-21.7,3.7c-0.7,0.1-1.5,0.5-1.9-0.3c-0.4-1,0.7-1.1,1.2-1.4c9.9-6.7,19-14.6,28.2-22.2
		c2-1.6,2.9-4.3,4.9-6.1c7-6.5,12.4-14.2,16.9-22.6c0.9-1.7,1.8-3.7,4.1-4.4c0.1,0.5,0.3,0.8,0.2,0.9c-5.2,6.5-4.5,14-3.3,21.5
		c0.2,1,0.1,2,1.6,1.2c5-2.5,8.4-9.2,7.3-14.8c-0.5-2.9-1.2-5.8-2.5-8.6c-1.8-4.1-5.7-5.2-9.1-2.2c-2.2,1.9-3.4,4.5-3.8,7.5
		C325.9,93.7,326.2,91.5,328.2,92.1z M429.6,143.6c-15.5-5-30.4-1.6-44.8,5.5c2.1-2.2,4.2-4.6,7.1-5.3c6.4-1.6,12.2-4.6,18.4-6.7
		c1.2-0.4,2.6-0.7,3.7-2.3c-9.8,1.8-18.9,4.2-27.7,7.3c-5.8,2.1-11,5.1-15.2,9.6c-0.8,0.9-2.2,1.8-0.1,3c4.3,2.5,8.7,4.9,12.9,7.7
		c1.9,1.3,3.6,1.3,5.7,0.6c9.2-3.1,18.7-4.4,28.4-4.4c5.6,0,11,1.1,16.6,0.7c-10.5-1.9-20.8-5.3-31.7-2.5c9.9-3.5,20.1-3.3,30.3-2.1
		c-12.7-5.6-25.8-1.5-38.8-2c11.8-2.7,23.6-5.5,35.7-6.7c-13.4,0.1-26.7,0.6-39.7,4.3C402.9,144.6,416.3,143.1,429.6,143.6z
		 M141.7,394.8c5.8-14.6,17.7-23.2,30.5-31c-0.9-0.3-1.6-0.2-2.2,0.1c-6.2,2.8-11.9,6.6-17.1,11c-0.6,0.5-1.2,1.6-2,0.8
		c-0.8-0.8,0.2-1.5,0.7-2.1c3.1-3.3,6.6-6.2,10.3-8.8c2.5-1.8,5.5-2.6,7.9-4.5c-4.9,0.4-9.3,2.5-14.1,4.2c0.8-2.1,2.6-2.4,3.9-3.3
		c1.2-0.9,3-0.9,4.1-2.8c-8.7,1.8-14.4,6.9-18.2,14.2c-6.1,11.7-10.7,24.1-15.5,36.4c-0.1,0.2,0.1,0.5,0.3,1.2
		c5.8-6,13.1-6.8,20.7-6.7c7.2,0,16.5-3.1,20.5-7c-0.9,0.2-1.4,0.3-2,0.5c-3.5,1.4-7.1,2.8-10.6,4.2c-0.8,0.3-1.8,0.8-2.2-0.2
		c-0.5-1.1,0.7-1.3,1.4-1.6c0.8-0.4,1.5-0.6,2.3-1.1c2.9-1.7,5.9-3.5,8.8-5.2c-4.2,0.6-7.5,3.2-11.4,4.2c-0.6,0.2-1.4,0.9-1.9-0.1
		c-0.5-0.9,0.4-1.2,1-1.6c3.5-2.4,7.1-4.8,10.6-7.3c0.9-0.7,2.4-1.1,2-3.2c-6.5,3.1-11.9,7.7-18.2,11c-0.2-0.3-0.4-0.5-0.5-0.8
		c3.5-3.7,7.1-7.3,10.6-11c-6.5,2.5-10.5,7.7-15.6,11.8c5.9-11.2,15.5-18.7,25.4-25.9C159.1,375.8,150.8,385.8,141.7,394.8z
		 M369.6,138.3c10.3-7.9,22.4-12.5,34.5-16.7c-11.5-0.4-21.2,4.8-31,9.9c-0.4-1,0.2-1.3,0.6-1.7c6.4-4.8,13.4-8.3,21.2-9.9
		c8.1-1.6,8.4-1.5,10.8-3.6c-7.9,0.3-15.1,2.4-22.4,4.9c-10.4,3.7-19.4,9.3-26.6,17.8c-4.4,5.1-4.3,6.3,1.4,9.3
		c1.7,0.9,3.2,2.5,5.6,1.2c2.3-1.3,4.8-2.2,7.1-3.3c13.2-6.3,27.1-10.4,41.3-13.4c3-0.6,6.3-0.5,9-2.6c-15.8-1.2-29.9,5.8-44.8,9.2
		c9.7-6,20.8-8.9,30.9-14.1C393.7,126.9,381.8,132.9,369.6,138.3z M71.7,222.5c1.2,1.3,2.4,2.5,3.6,3.8c0.6,0.6,1,2.1,0.6,2.1
		c-2.5-0.4-3.4,2.5-5.5,2.6c-8.1,0.4-16.2,0.9-24.3,1.3c-0.8,0-2-0.3-2,0.8c-0.1,1.3,1.2,1.2,2.1,1.3c2.8,0.4,5.5,0,8.1-1.1
		c0.7-0.3,1.5-1.3,2.1-0.1c0.5,1-0.6,1.5-1.2,1.9c-1.6,1-3.2,2-5.2,2.3c-1.1,0.2-2.2,0.3-2.9,1.5c5.8-0.3,11.4-1.6,16.9-3.6
		c1-0.4,2.2-2.1,3-0.6c0.7,1.3-1.4,1.6-2.1,2.4c-1.8,1.8-4.3,2.3-6.3,3.8c1,0.1,1.9,0,2.7-0.2c5.1-1.4,9.9-3.4,14.3-6.3
		c0.6-0.4,1.2-1.1,1.9-0.4c0.6,0.7-0.1,1.3-0.6,1.8c-0.6,0.7-1.3,1.5-2,2c-2.8,1.9-5.6,3.7-9.1,6c8.1-1.1,14.2-4.6,20.4-8
		c-2.4,4.6-7.1,6.3-10.9,9.1c0.8-0.1,1.6-0.3,2.3-0.7c5.3-2.7,10.5-5.5,15.8-8.3c0.8-0.4,1.8-1.4,2.6-0.4c0.9,1.1-0.7,1.5-1.1,2.2
		c-0.7,0.9-1.5,1.8-2.2,2.7c0.1,0.1,0.2,0.2,0.3,0.4c3.5-1.9,7.1-3.9,11.6-6.4c-8.1-1.6-15.5,0-22.4-2.7c6-1.5,12.3-0.4,18-2.2
		c-4.3-7.2-10-12.9-17.1-17c0.7-1,1.4-0.9,1.9-0.8c3.9,0.9,7.2,2.9,10.3,5.7c0.7-5.1-2-8.6-5.8-7.8c-2.3,0.5-4.6,1-7,0.7
		c-0.5-0.1-1.9-0.3-1.5,0.6c1.5,3.2-0.8,3.1-3,3.4c1.2,0.8,2.2,1.3,3.3,1.7c4.8,1.9,8.8,5.1,12.5,8.7c0.9,0.9,2.2,2.2,0.4,3.6
		c-1.9,1.5-5.1,1-6.3-1.1c-3.5-5.9-9.1-9.6-14.8-13.1c-1.1-0.7-3.1-0.8-3.5,0.4c-0.4,1.1,0.1,2.8,2.1,3.4c5.5,1.7,9.2,6.2,14,9.1
		c0.3,0.2,0.6,0.8,0.6,1.1c-0.1,0.8-0.8,0.7-1.4,0.7c-2.9,0.2-5.6,0.2-7.5-2.7C75.9,224.3,74.1,223,71.7,222.5z M258.8,299.7
		c0.8-5.2,3.3-9.9,3.7-15.7c-4.3,3.1-4.5,8.2-7.4,12.3c-1-3.7,0.5-6.2,0.3-8.8c0-0.8,0.4-1.9-0.8-2.1c-1-0.2-1.4,0.7-1.8,1.4
		c-0.7,1-0.5,2.6-2.1,3.1c-0.7-0.6-0.5-1.3-0.5-2c-0.1-1,0.3-2.5-1-2.7c-1.2-0.2-1.6,1.1-2.1,2.1c-0.4,0.9-0.1,2.3-1.4,2.7
		c-2-0.8-1-3.4-2.9-4.9c-0.6,5.7,1.1,10.2,4,14.5c3.2,4.7,5.6,9.6,5,15.6c-0.2,1.5-0.5,3.3,0.5,5.2c9-12.3,24.1-16.1,34.6-27
		c-4.9-0.3-6.3,4.2-10.3,6.1c1.6-3.9,4.5-6,5.4-9.9c-7.2,2.7-9.7,9.7-14.7,13.9c2.4-6.7,6.5-12.4,9.1-18.9
		c-7.3,7.7-13.5,16-18.3,25.4c-0.3-0.2-0.7-0.4-1-0.6c4-8.4,7.9-16.8,11.9-25.2C264.6,288.9,262.7,294.9,258.8,299.7z M193,467.1
		c0.2-4.6,1.1-8.8,0.5-13.1c-0.1-0.9,0.3-2.3-1-2.3c-1.5,0-1.2,1.5-1.2,2.5c-0.2,2.3-0.3,4.5-0.5,6.8c-0.4,3.9-0.8,7.8-2.4,11.5
		c-0.3,0.7-0.5,1.8-1.6,1.6c-1.4-0.3-0.4-1.4-0.3-2c0.4-3.9,1-7.8,1.2-11.7c0.2-2.9,0.1-5.8-2.4-8.3c-1.5,2.9-1.1,5.6-1,8.3
		c0.2,5.6,0.6,11.2-0.7,16.7c-0.2,0.8-0.2,1.8-1.4,1.6c-1-0.2-1.1-1.1-1-2c0.1-2.6,0.5-5.3,0.2-7.8c-0.4-4.5-1.2-9-2.9-13.3
		c-1.2,5.3-1.2,10.5-0.4,15.8c0.6,3.8,1.2,7.5,0.5,11.3c-0.1,0.7-0.2,1.6-1.2,1.3c-0.8-0.2-0.5-0.9-0.4-1.5
		c0.3-3.6,0.5-7.3-1.3-10.5c-2.3-4.2-3.2-8.7-3.5-13.3c-0.1-0.9,0.2-2-1-2.6c-2.9,5.3-1.3,10.5,0.2,15.8c-3.5-2.3-3.3-7.3-7-9.7
		c-0.8,2.6,0.2,4.7,0.6,6.9c0.2,1,1.9,2.3,0.1,3c-1.3,0.5-1.9-1-2.6-2c-1.5-2.1-0.9-5.6-4.7-6c-0.5-0.1-0.9-1.5-0.7-2.5
		c0.6-2.8,0.5-2.8-1.8-4.8c0,0.4-0.1,0.7-0.1,1.1c0.4,5.8,3.6,10.5,5.8,15.7c2,4.8,4.8,8.4,9.2,10.9c1.9,1.1,3.8,2.2,4.9,4
		c1.1,1.9,2.1,1.3,3.4,0.3c2.7-2.2,4.9-4.8,6.6-7.8c3.1-5.6,6.8-10.6,12.3-14.1c2-1.3,2.5-2.7,0.5-4.4c-1.1,0.5-1.3,1.6-1.8,2.5
		C195.4,465.9,194.8,466.9,193,467.1z M130.7,391.2c0-3.3,0-6.2,0-9.1c0-0.8-0.1-1.9,0.9-2.1c1.1-0.2,1.2,0.9,1.5,1.7
		c0.3,0.9,0.1,2.2,1.9,2.5c-0.4-3.2-0.7-6.2-1.1-9.2c-0.1-0.7-0.7-1.5,0.2-1.9c0.8-0.4,1.3,0.4,1.7,0.9c1.4,1.7,1.9,0.9,2-0.7
		c0.1-2.8,0.1-5.7,0.1-8.6c0-0.8-0.2-1.7,1-1.9c1.1-0.2,1.4,0.4,1.7,1.3c0.3,1,0.5,2.3,2.1,2.6c2-4.3-1.3-8.8,0.3-13.7
		c0.9,1.6,1.4,2.8,2.2,3.9c0.8,1.1,0.8,3.7,2.7,3c1.7-0.6,1.2-2.7,0.6-4.4c-0.8-2.4-1.2-4.8-1.9-7.3c-0.3-1-0.4-1.9,0.9-2.5
		c1.3,3,2.5,6.1,3.9,9.1c0.4,0.8,0.6,2.4,2.1,1.8c1.2-0.5,0.9-2,0.6-2.9c-1-2.9-2-5.9-2.3-9c-0.1-1.5-0.7-3.2,1-4.6
		c1.7,4.2,2.3,8.4,4.7,11.8c0.5,0.7,0.8,1.9,2.1,1.1c1-0.6,0.5-1.4,0.3-2.2c-1.1-4-2.1-8.1-3.3-12.1c-0.6-2.2-1.5-4.3-3.2-5.9
		c-0.6-0.5-1.1-1.4-2.1-0.7c-3.7,2.6-7.7,4.9-9.6,9.2c-1.5,3.5-2.9,7-4.2,10.6c-4,10.8-6.8,22-11.5,32.6c-2.3,5.3-5.2,10.3-7.8,15.5
		c3.4-1.8,6.6-3.7,7.2-7.8c0.2-1.3,0.9-2.4,1.4-3.7c0.2-0.6,0.4-1.2,1.1-1.1c0.6,0.1,1,0.6,1,1.3C129,389.6,128.7,390.4,130.7,391.2
		z M250.8,174.7c-2.6,1.8-6.3,1.3-8.3,4c-4.3,5.7-8.8,11.3-12.8,17.2c-10.5,15.7-17.1,33.4-23.5,51c-0.7,2-1.4,4.1-2,6.1
		c-0.3,0.9-0.8,2,0.2,2.6c1.2,0.7,1.7-0.6,2.1-1.3c2.2-4.2,5.2-8,7-12.5c4-10.1,9.4-19.5,15-28.7c2.4-4.1,5.4-7.8,7.6-13.1
		c-6,6.1-8.6,13.6-13.9,19.1C230.1,203.1,241.9,189.9,250.8,174.7z M280.4,267c-2.1,9.9-0.4,16.6,5.4,21.8c3.1,2.7,6.3,5.4,10.4,6.8
		c5.5,1.9,10.5,4.4,14.5,8.7c0.8,0.8,2,1.3,3,1.9c0.5,0.3,1.1,0.8,1.6,0.4c0.3-0.3,0.4-1.2,0.3-1.6c-1.2-3-0.3-5.9,0.7-8.7
		c1.4-4.2,3-8.3,4.5-12.4c0.5-1.4,1.1-2.8-0.9-4.4c-0.7,4.7-1.6,8.9-4.6,12.6c-1.8-4.5,2-9.5-2.1-13.6c0,8.3,0,16.6,0,24.9
		c-4.4-7.4-3.2-15.9-5.8-23.5c-0.9,5.6-0.5,11.2,0.2,16.8c-4-6.5-4.2-14.4-7.6-21.8c-1.5,6.7,1.1,12.2,1.8,17.8
		c-4.7-6.3-4.4-14.3-8-21c-1.3,1-0.9,2.2-0.7,3.4c0.7,3.8,1.3,7.5,1.8,11.3c0.1,0.7,0.9,1.8-0.3,2.1c-1,0.3-1.4-0.8-1.7-1.5
		c-1.3-2.8-2.6-5.6-3.2-8.7c-0.7-3.4-1.6-6.7-2.4-10.1c-1.8,5.8-0.8,11.2,1.2,16.6C283.3,279.9,283.1,272.9,280.4,267z M440.3,137.1
		c2.9-3.4,7.2-3.4,11.6-4.8c-4.8-2.4-8.7,0.4-12.9,0.5c0.5-2.5,3.5-2.2,4.2-4.1c-1.1-1.2-2.4-0.5-3.5-0.8c-1.6-0.3-4.1,1.7-4.8-0.5
		c-0.5-1.7,2.8-1.1,3.8-2.9c-2.6-0.8-4.7,0.1-6.7,1.2c-0.6,0.4-1.3,0.9-1.9,0.2c-0.7-1,0.5-1,0.9-1.5c0.3-0.3,0.8-0.5,0.6-1.3
		c-2.4-0.3-5-0.7-7.6-0.9c-0.7-0.1-1.4,0.3-1.6,1.1c-0.2,0.8,0.7,0.8,1.1,1.2c2.4,2.6,5.4,3.7,8.7,4.6c3.3,0.9,4,2.7,2.2,5.5
		c-0.6,0.9-1.5,1.9-0.3,2.8c3.6,2.6,5.3,6.8,8.4,9.6c8.9,8.1,19.2,14.4,30.3,19.2c3.8,1.6,7.8,2.9,12.2,2.3
		c-4.9-0.5-7.9-5.5-13.7-4.2c1.7-2.5,3.9-0.9,5.1-2.3c-3.7-2.7-8.7,0.5-12.4-2.5c1-1.3,2.7-0.2,3.5-1.6c-3-1.3-6.2,0.7-9.5-1.7
		c3.5-0.6,6.6-0.3,9.9-2c-3.5-1.2-6.5-1.2-9.6-1c-0.7,0-1.9,0.7-2.1-0.5c-0.2-1.5,1.3-1,2.1-1.2c2.8-0.6,5.7-0.4,9.1-1.9
		c-6.1-1.2-11.6-0.9-17.1-0.9c2.7-2,6.3-1.5,9.4-4c-5.3-2.3-10.1-0.2-14.9-0.1c4.8-2.8,10.2-3,15.5-4c-6.4-2.3-12.7-0.5-20,1
		c4.1-3.4,8.6-2.9,13.1-4.5C448.2,135.3,444.4,136.7,440.3,137.1z M134.9,453.1c3.1-7.5,0.7-14.4,1.4-21.2c0.8-7,5.4-12.5,6.4-19.3
		c-4.9,5.9-6.7,13.2-9.4,20.1c-0.9-5.5,1.2-10.5,2.6-15.8c-0.7,0.1-1,0.1-1.1,0.2c-0.3,0.3-0.7,0.7-0.9,1.1
		c-1.9,5.6-4.2,11.1-3.8,17.2c0.3,4.2,0.7,8.3,1.9,12.3c1.4,5-0.6,10.2,0.3,15.3c0.3,1.6-1.3,3.9,0.2,4.7c1.5,0.9,3.2-1,4.8-1.7
		c6.3-2.8,11.8-6.6,15.5-12.7c0.7-1.1,1.5-2.4-0.2-3.4c-1.5-0.8-2.6-0.2-3.4,1.4c-1.5,2.8-3.2,5.6-4.8,8.3c-0.5,0.8-0.8,1.8-2.2,1.1
		c2.2-7.1,7-13.5,5.7-21.5c-2.7,3-2.6,6.9-3.6,10.5c-1.3,4.5-3.6,8.3-5.6,8.9c6.7-29,6.7-29.2,3.4-32.6c-0.8,1.5-1.2,3.1-1.5,4.8
		c-1.1,5.2-1.3,10.4-1.7,15.6C138.8,448.8,138.2,451.2,134.9,453.1z M247.4,278.6c8.9-6.6,16.3-13.2,21.3-22.1
		c-5.9,4.1-10.2,10.1-16.3,14.2c3.3-5.5,8.2-9.9,10-16.7c-5,2.3-7,7.6-12.4,9.5c1.1-5,5.2-8,6-12.8c-3.7,0.9-4.1,5.3-7.7,6.6
		c0.7-2.6,2.5-4.3,2.5-7.6c-8.7,9.6-6,22.2-11.8,32.2c8.3-0.3,16.4,1.6,23.2-1.9c6.6-3.4,12-8.9,15-16.2
		c-6.1,5.2-11.5,11.4-19.5,13.9c2.4-3,5.9-4.7,8-8C260.1,273.1,255,277.4,247.4,278.6z M224.4,417c-0.3,0-0.6,0-0.9,0.1
		c0,1.8-0.1,3.7,0,5.5c0.3,4.3,0.5,8.6,0.2,12.9c0,0.7,0.1,1.6-0.8,1.7c-1.3,0.1-1.1-1-1.1-1.8c-0.1-2-0.1-4-0.2-6.1
		c0-0.8-0.3-1.5-1.1-1.6c-1.1,0-0.8,0.9-0.8,1.6c0,1.7,0,3.3,0.1,5c0.3,3.8,0.7,7.6,1,11.4c-0.3,0.1-0.7,0.2-1,0.3
		c-1.4-4.7-1.4-10-5-13.9c-1.2,2.5,0.5,5.2-1.1,7.9c-2.1-3.2-1.8-6.9-4.1-10.5c-0.2,2.2-0.4,3.5-0.4,4.9c0,0.7,0.1,1.6-0.8,1.7
		c-1,0.1-0.9-0.9-1.1-1.5c-0.8-2.7-0.6-5.8-2.8-8.2c-1.3,3,0.2,6-0.9,8.7c-1.3,0-1.1-1-1.5-1.5c-0.6-0.8-0.2-2.9-2-2.1
		c-1.6,0.7-2.3,2.1-1.1,3.8c0.7,1,1.4,2,2.2,2.8c5.4,5,11.9,8.2,18.2,11.9c1.2,0.7,1.8,0.4,2.3-1c2.1-5.6,5.3-10.6,9.6-14.9
		c3.3-3.4,6.1-7.4,7.2-12.2c0.2-0.9,1.2-2.4-0.2-2.6c-2.2-0.4-1.4-1.9-1.5-3c-0.1-1.9-0.2-3.8-1.2-5.9c-0.8,3.4-0.7,6.6-0.8,9.8
		c-0.1,3.3-1.5,6.2-3.5,8.9c0.2-6.1,2.2-12.2-1.2-18.4c-1,2-0.8,3.4-0.8,4.9c0,5,0.6,10-0.7,15c-0.2,0.9,0.4,2.6-1.2,2.4
		c-1.2-0.1-0.5-1.6-0.6-2.5C226.5,425.8,225.5,421.4,224.4,417z M219.9,486.4c-1.4,2.4-0.4,5.6-3.1,8.1c-1.8-6.6,0.6-13.6-4.2-19.2
		c-1.4,1.6-1.2,3.2-1.1,4.7c0,5.3,0.4,10.5,1.2,15.7c0.1,1,0.8,2.4-0.9,2.6c-1.3,0.1-1.1-1.3-1.3-2.1c-1-5.5-2.3-11-2.6-16.6
		c-0.1-2.6-0.9-5.1-2.5-7.7c-1.4,4.1-0.8,7.8-0.6,11.6c0.1,0.7,0.7,1.8-0.5,2.1c-1.2,0.3-1.3-0.8-1.5-1.6c-0.2-0.9-0.3-1.9-0.7-2.8
		c-0.8-2.1-0.8-4.7-3-6.4c-1,1.6-0.8,3.1-0.8,4.6c0,1.3,1.5,3.3,0.2,3.8c-2,0.8-1.8-2-2.7-3c-0.6-0.7-0.9-2-2-1.9
		c-1.3,0.1-1.4,1.4-1.8,2.4c-0.7,1.5,0.5,3,0.1,4.4c-1.3,0.9-1.9-1.5-3.4-0.3c1.2,4.8,5.1,6.8,9.1,8.7c5.3,2.5,10.7,4.7,14.2,9.9
		c1.3,2,2.8,1.8,3.5-0.6c1.1-3.7,2.4-7.2,5.7-9.6c0.4-0.3,0.9-0.8,0.4-1.1C219.3,490.7,220.8,488.3,219.9,486.4z M245.8,453.1
		c-3.7,1.7-4.9,4.6-6.5,7.2c-0.4,0.7-0.9,1.7-1.9,1.2c-1.2-0.6-0.3-1.5,0-2.1c0.9-1.8,1.8-3.6,1.3-6.2c-1.9,3.6-3.6,6.8-5.4,10
		c-0.5,0.9-0.8,2.6-2.3,2.4c-1.8-0.3,0.1-2.3-1.2-3.2c-0.5,1.7-1,3.3-1.5,4.9c-0.2,0.7,0,2-1.3,1.6c-0.9-0.2-0.5-1.2-0.4-1.9
		c0.1-3.1,0.6-6.3-0.6-9.4c-2.5,5.3-1.6,11.6-4.8,16.9c-1.1-1.3-0.5-2.1-0.3-2.9c1.1-4.5,1.1-9,0.5-13.5c-0.1-0.7,0-1.7-0.9-1.8
		c-1.3-0.1-0.9,1.1-1.1,1.8c-0.5,1.8-0.8,3.7-1.4,5.5c-0.3,0.9-0.3,2.5-1.8,2.2c-1.6-0.3-0.7-1.8-0.6-2.7c0.4-3.5,0.7-7-1.3-10.2
		c-1.8,0.7-1.9,2.3-2.5,3.5c-0.5,1.2-0.1,2.8-1.7,4.1c-0.9-3.1-0.8-6.3-3.2-8.9c-0.3,1.5-0.6,2.7-0.9,4c-0.2,0.7-0.2,1.6-1.2,1.4
		c-0.7-0.1-0.8-0.8-0.8-1.5c-0.1-3.4-1.2-6.5-2.4-9.6c-1.4,1.7-3,4.8-2.9,5.2c1.5,5.5,2.4,11.6,8.2,14.8c5.3,2.9,10.6,5.8,13.3,11.9
		c5.2-5.7,11-9.8,17.3-13.4C241.2,462.3,244.9,459,245.8,453.1z M198.5,279.9c-0.5,1-0.7,1.4-0.9,1.8c-1.1,2.6-0.6,5.4-1.3,8
		c-4.6,19.4-4.6,39.2-4.1,59c0,1,0.3,2.2,0.7,3.1c0.8,1.8,2.7,1.7,4.3,1.8c0.9,0,1-0.5,1-1.4c0-5.6,0.5-11.2,0.2-16.7
		c-0.9-16.6-0.1-33,4.3-49.2c0.5-1.8,1.5-3.8,0.4-6.3c-2.3,4-2.4,8.3-4.7,12.8C197.4,288.1,199.6,284.4,198.5,279.9z M431.2,164.5
		c-8.5-2.8-17-3.2-25.7-2c-3.8,0.5-7.5,1.1-10.7,3.5c-1.6,1.3-1.9,2,0,3.2c6.2,3.7,12.5,7.4,18.3,11.8c0.6,0.5,1.7,1.1,2.3,0.9
		c4.2-1.5,8.9-0.2,13.2-2.2c-4.4-3-10-2-14.2-4.9c9.7-0.1,19,3.3,28.7,2.4c-5-1.5-10.1-2.3-15.1-3.9c-5-1.6-10.3-2-16.2-3.7
		c3.4-1.8,6.4-0.1,9.7-1.4c-3.4-0.4-6-0.6-8.5-1.1c-1.5-0.3-4.3,0.9-4.3-0.8c0-1.9,3-1.6,4.8-1.9c0.3-0.1,0.7,0,1.1,0
		C420.1,164.5,425.6,164.5,431.2,164.5z M261.9,409.2c-2.6-0.7-3.7-2.9-5.2-4.7c-2.6-3-4.7-6.3-7.8-8.8c-0.6-0.5-1.5-1.1-2.2-0.2
		c-0.3,0.4,0.1,1.4,0.4,1.9c2.3,3.6,4.7,7.1,7.1,10.7c0.5,0.7,1.6,1.3,0.4,2.6c-5.1-4-6.3-11.6-12.9-14.3c2.4,6.3,5,12.5,11.1,16.4
		c-4-0.2-5.7-3.3-8.3-5.5c-2.6-2.2-3.6-6-7.5-7.2c0.5,3,2,5.4,3.3,7.8c2.1,3.8,5.1,5.8,9.5,6.5c6.8,1,13.5,0.5,20.3-0.1
		c2.2-0.2,4.5-1,6.4-2.8c-7.9-3.5-13.9-9.5-21.1-13.5C257,402.3,259.8,405.5,261.9,409.2z M162.1,303.4c-0.6-0.1-0.6-0.6-0.7-1.1
		c-0.2-1.3,1-3.6-1.8-3.3c-2.4,0.2-3.5,1.6-3.1,4.2c0.4,2.6,1.2,4.8,3.1,6.7c3.2,3.2,5.6,6.9,6.8,11.2c0.8,2.7,1.7,2.9,4,1.5
		c4-2.5,8.2-4.2,13.1-4.1c1.9,0,4-0.4,5.8-1.5c1.6-1,1.3-2.5,0.6-3.7c-1-1.8-2-0.2-2.8,0.3c-1,0.6-1.4,2.2-2.9,1.9
		c-0.5-1.1,0.4-1.7,0.5-2.5c0.1-1,1.1-2.2-0.3-2.8c-1.2-0.6-1.9,0.7-2.6,1.4c-0.6,0.6-0.9,1.4-1.4,2c-0.8,1-1,2.6-3,2.8
		c0.9-3.8,4.2-6.4,3.9-10.6c-4.2,2.5-4.3,7.6-7.2,10.8c-0.9-1.4-0.2-2.2,0.1-3.1c1.1-3.5,2.4-7,3.5-10.5c0.2-0.8,0.6-1.8-0.3-2.3
		c-1-0.5-1.4,0.5-1.9,1.2c-2.3,3.2-3.6,6.7-4.4,10.5c-0.4,1.6-0.6,3.4-2.4,4.4c1.1-5.5,2.2-10.9,2.5-17.3c-3.1,2.8-2.4,6.3-4.2,8.8
		c-0.4-1.4-0.3-2.7-0.4-4c-0.1-1.7,0.7-4.2-1.6-4.6c-1.9-0.3-1.5,2.2-2.2,3.5C162.6,303.3,162.3,303.3,162.1,303.4z M180,380.2
		c-0.3-0.2-0.5-0.4-0.8-0.6c1.1-2.3,2.3-4.5,3.4-6.8c1.2-2.3,2.3-4.7,3-7.7c-2,2.1-3.1,4-3.9,6.1c-0.6,1.5-1.4,2.8-2.5,3.9
		c-0.4,0.4-1,0.9-1.6,0.6c-1-0.5-0.2-1.1,0-1.8c0.9-2.5,1.6-5,2.6-7.4c1.9-4.3,3.5-8.9,8.9-10.4c-1.7-0.7-3.1,0.1-4.5,0.8
		c-3.7,2-4.8,5.7-6,9.3c-1.2,3.5-2,7.3-5.5,9.5c3.3,2.8,3.2,3-2.3,9c6.4,2.3,12.7,2.4,18.7-1.2c2.1-1.3,4-2.8,6-4.2
		c7.6-5.3,8.9-14,12-21.8c-2.8-0.7-4.9-0.2-7,2.1c1.7,0.2,2.9-0.9,3.7,0c0.9,1.1-0.4,1.9-0.8,2.8c-0.6,1.3-1.2,2.6-1.7,3.9
		c-1.3,3.5-3.8,6-6.5,8.3c-0.5,0.5-1.3,0.9-1.9,0.2c-0.5-0.5,0-1.1,0.3-1.6c0.7-1.2,1.8-2.3,2.1-4.4c-2.4,2.6-3.8,5.3-6.5,6.7
		c1.1-3.9,2.7-7.3,3.7-12.1C188.1,369.5,185.3,375.8,180,380.2z M132.3,348.4c-6.2,2.1-10.2,6.4-15.2,9.1
		c4.4-7.4,13.6-9.6,18.1-16.9c-7.2,2.4-12.6,7.7-19,11.5c4.5-6.6,10.8-11.3,17.1-15.9c-5.6,2.1-10,5.9-15.2,8.4
		c2.4-4.3,6.2-7,10.2-9.5c2.8-1.8,5.6-3.6,8.3-5.5c0.6-0.4,1.4-1.2,0.7-2.1c-0.7-0.9-1.3,0-1.8,0.3c-5,2.6-9.7,5.6-14.3,8.8
		c-0.7,0.5-1.6,1.8-2.4,0.9c-1-1.1,0.5-1.9,1.2-2.5c2.7-2.4,5.5-4.6,8.2-6.9c-0.8-0.1-1.5,0.1-2.1,0.4c-3.6,1.6-5.9,5.4-10.3,5.8
		c-0.6,0.1-2.9,3.2-1,3.8c3.6,1.3,1.7,3.2,1.2,4.7c-0.5,1.7-1.7,3.1-2.6,4.7c-0.7,1.2-2.1,3.3-1.7,3.7c2.9,3-0.4,5-0.9,7.3
		c-0.4,1.8-2.2,3.8,1.6,3.6c1.7-0.1,0.8,1.7,1.9,2.3C118.8,357.8,127.2,355.6,132.3,348.4z M166.1,284c-3,0-3.9,6-8,2.6
		c-1.8,2.4-4.2,1.7-6.6,1.3c-1.7-0.3-2.2,1.2-2.8,2.3c-0.9,1.8-0.9,3.9-0.8,6c0.1,2.5,1.3,3,3.2,1.5c1.8-1.4,3.6-3.2,5.8-3.3
		c6.1-0.4,11.9-2.3,17.8-3.4c5.2-1,8.7-3.9,13.3-6.6c-2.9-0.8-4.7-0.2-6.3,1.3c-1.1,1-2.5,1.8-3.8,2.7c-0.4,0.3-0.8,0.6-1.2,0.2
		c-0.2-0.2-0.3-0.6-0.3-0.9c0.4-2.1,6.8-7.4,9.1-7.4c7-0.1,14-6.1,14.4-13.2c-2.2,3.9-4.6,6.7-7.4,9c-0.5,0.5-1.2,1-1.9,0.3
		c-0.7-0.7-0.2-1.3,0.3-1.8c1.3-1.5,2.7-3,1.8-5.7c-3.6,2.7-3.5,7.7-7.3,10.1c-1.1-1.8,1.1-3.3,0-5.3c-4.3,3.8-6.1,9.7-11.7,12.9
		c0.4-3.4,3.2-5.3,3.2-8.7c-4.7,3.2-7.5,7.7-11.4,11.2C164.5,287,167.3,285.9,166.1,284z M156.5,507.4c2.9-3.7,6.1-6.7,9-10
		c2.3-2.6,4-5.8,2.6-9.5c-0.3-0.8-1-3.3-2.4-0.5c-0.3,0.5-0.5,1.2-1.3,1c-1.1-0.3-0.6-1.1-0.5-1.7c0.2-2-0.5-3.6-2-5.5
		c-0.8,4.1,1,7.6-0.4,11.2c-0.9-8-5-14.9-6.7-22.6c-0.9,5.3-0.4,10.2,1.9,15c2,4.2,2.6,8.6,2.6,13.2c0,0.9,0.1,2-1.5,2.3
		c0.2-3.2,0-6.2-1.4-9c-3.8-7.8-9.6-15-8-24.7c-2.5,2-2.8,4.6-2.2,7.3c0.9,3.6,2.1,7.1,3.9,10.3c0.5,0.9,2,2.2,0.7,2.9
		c-1.3,0.7-1.7-1.4-2.1-2.3c-2-4.6-5.7-8.1-7.4-13.2c-0.9,1.5-0.5,2.6-0.2,3.7c1.2,4.5,3.6,8.3,6.6,11.7
		C152.6,493,156.6,499.2,156.5,507.4z M353.1,279.4c1-2.3,0.3-4.3-0.7-6c-1.9-3-2.5-6.5-5.4-9.2c-2.2-2-2.9-5.7-4.2-8.6
		c-0.8-1.8-1.2-3.9-3.3-4.8c-0.4,0.6-0.1,1.2,0.1,1.7c2.2,7.2,6.2,13.3,10.8,19.2c0.4,0.5,1.6,1.2,0.7,2c-0.8,0.7-1.5-0.1-2.1-0.7
		c-1.6-2-3.1-4-4.6-5.9c-3.4-4.2-6.8-8.5-10.2-12.7c2.1,6.7,5.8,12.2,10.6,17.1c0.7,0.7,2.8,1.3,1.4,2.6c-1,1-1.9-0.8-2.8-1.4
		c-0.6-0.4-0.9-1.1-1.4-1.6c-5.3-5-10.6-10-15.2-14.2c2.7,5.1,7.2,10.3,12.1,15.1c0.7,0.7,2.2,1.4,1.3,2.5c-0.9,1-1.9-0.3-2.7-0.9
		c-4.7-3.3-9.3-6.6-13.7-10.3c1.3,3.3,4.1,5.3,6.5,7.6c0.7,0.7,2.4,1.3,1.7,2.4c-1,1.6-2.1-0.2-2.9-0.7c-4.7-2.8-8.8-6.4-12.5-10.5
		c0,0.8,0.3,1.4,0.6,1.9c1.9,2.9,4.5,5.3,7.1,7.4c0.4,0.4,1,0.7,0.6,1.4c-0.4,0.6-1.1,0.5-1.6,0.2c-0.9-0.5-1.7-1.3-2.6-1.9
		c-2.3-1.5-4.3-3.5-7.5-4.5c0.5,2.7,1.8,4.1,3.6,5.1c6.7,3.5,13.9,4.9,21.4,4.4C343.4,275.9,348.6,275.8,353.1,279.4z M232.9,248
		c1.3-2,1.4-2.1,0.3-4.3c-0.6-1.3,0-1.6,1-1.4c0.8,0.1,1.6,0.4,2.3,0.8c0.8,0.5,1.4,0.8,2.1-0.1c0.6-0.7,0.9-1.3,0.7-2.3
		c-1.7-5.7-10.1-8.2-15-4.5c1,1.6,3.6,1.9,3.7,4.7c-1.7-0.5-3-1.1-4.5-1.3c-2.4-0.4-5-0.6-6.3,1.9c-2.2,4.5-3.5,9.2-3.8,14.5
		c1.3-0.7,0.2-2.8,2-2.7c1.9,1.5-0.4,5,3.1,6.1c-0.3-3.6-0.6-7-0.9-10.4c-0.1-0.7-0.4-1.6,0.6-1.8c1-0.2,0.9,0.8,1.1,1.5
		c1.1,3.7,1.5,7.5,1.4,11.3c-0.1,1.9,0,3.7,1.7,4.9c2.1-5.1,0.6-10.4,1.1-15.6c3.9,7.1,1.7,14.6,1.9,22.1c2-1.5,2.6-3.7,2.7-5.9
		c0.2-8.4,0.1-16.7-8.6-22.4c3.3-0.5,5.6,2.3,6.9,1.8C230.2,243.6,231,246.4,232.9,248z M134.7,317.9c-3.7-0.5-5.3,3.6-9.5,2.8
		c5.2-4,9.7-7.3,14.1-10.9c0.3-0.3,5.3-1,0.9-3.3c-0.5-0.3,0.3-1,0.7-1.4c0.9-0.8,1.9-1.5,2.8-2.3c0.6-0.6,1.3-1.3,0.8-2.2
		c-0.6-1.1-1.5-0.1-2.2,0.1c-0.7,0.3-1.3,0.8-1.9,0.2c-0.7-0.8,0.3-1.2,0.6-1.8c1.2-1.7,2.3-3.4,2-6.3c-1.6,1.9-2.9,3.3-4.8,5.5
		c0-3.5,2.1-5.4,2.6-7.7c0.2-1,1.3-2.1,0.3-2.9c-1.1-0.7-1.8,0.7-2.6,1.3c-2.3,1.7-2.8,4.9-5.5,6.4c-0.8-2,0.7-3.3,1-4.9
		c0.1-0.8,0.5-1.8-0.5-2.2c-0.9-0.5-1.6,0.3-2.1,1c-0.6,0.9-1.1,1.8-1.7,2.7c-1.2,1.8-1.1,4.3-3.4,6.5c0.1-3.7,1.7-6.7,0.4-10.6
		c-2.8,6.7-7.3,11.8-7.4,19.1c0.9-1,1.6-1.9,2.3-2.6c3.6-3.2,7.5-5.9,12.8-5.2c3.2,0.4,6.1,4.2,4.8,7c-1.4,3.1-3.6,6.1-6.9,6.8
		c-5.2,1.1-7.8,5.1-11.2,8.3c-0.6,0.5-1.3,1.7,0,1.9c4.2,0.8,1.5,2.2,0.4,3.5c-0.8,0.9-2,1.6-2.5,4
		C124,325.4,130.4,323.3,134.7,317.9z M190.1,513.3c-0.1-6-3.2-11.2-3.4-17.1c-0.1-1.8-0.5-4.3-2.5-4c-1.6,0.2-0.9,2.9-0.8,4.5
		c0.2,4.1,1.4,7.9,2.6,11.8c-4.3-3.3-3.8-9.8-8.6-13.1c-1.1,3,1.3,5.3,0.9,8.3c-2.8-1.1-2.3-4.9-5.1-5.6c-0.8,1.8,1.3,2.9,0.7,4.5
		c-1.4,0.1-2-0.8-2.8-1.5c-0.8-0.7-1.7-1.1-2.5-0.3c-1.1,1,0.1,1.8,0.6,2.4c2.8,2.9,5.6,5.8,9.9,6.6c3.4,0.6,6,2.4,7.9,5.5
		c1.3,2.2,1.7,5,4.1,6.7c0.9-1.1,1.4-2.3,1.6-3.5c0.5-2.6,1.3-5.4,3.3-7c3.6-2.8,1.7-5.9,1.5-9.5c-2.6,2.4-1.3,5.7-3.3,8.6
		c-1.3-5.2-1.1-10.1-3.4-15.4C190,501.8,191.6,507.6,190.1,513.3z M213,195.2c3.1-3.3,5.2-7.5,8.6-10.7c3.4-3.1,7-6,10.8-9.3
		c-3.4,0.8-5,4.2-8.3,4.2c-0.3-1.1,0.5-1.4,1-1.8c4.8-4.1,9.9-7.8,16.2-9.5c1.9-0.5,5.7-1.4,5-3c-1.1-2.4-4.2-0.5-6.3,0.3
		c-5.9,2.2-10.7,6-15.3,10.3c-6.5,6-13.3,11.5-17.4,19.7c-6.9,13.5-9.3,27.6-7.2,43.7c3.5-9,1.1-17.9,3.8-26.1
		c2.6-8.2,5.6-16.2,11.1-23.1C214.3,191.6,213.6,193.4,213,195.2z M242.2,176.6c-13.7,3.9-32.9,28.5-31.7,48
		C220.8,208.3,229.4,191.6,242.2,176.6z M293.4,326.1c-5-6.1-7.7-13.5-11.3-21.3c-1.2,4.2,0,7,1,9.9c0.3,1,1.8,2.3,0.3,3
		c-1.3,0.6-1.7-1.3-2.3-2.2c-1-1.5-1.7-3.1-2.7-4.6c-0.6-0.9-1.2-2.6-2.5-2.3c-1.7,0.4-0.3,2-0.5,3c-0.1,0.6,0.4,1.5-0.8,1.7
		c-1.2-0.4-1.2-2.3-3-2.7c1.4,5.1,4.6,8.3,8.3,11.6c5.6,5,13.8,6.3,17.8,13.2c0.3,0.6,0.8,0.9,1.4,0.3c0.4-0.4,0.8-1.3,0.4-1.5
		c-3.7-2-2.5-5.9-3.1-8.9c-1.6-7.9-4.7-15.2-7.8-22.5C288.1,311.2,290.2,318.7,293.4,326.1z M303.4,330.5c-1.3,2.3-1.1,4.5,0.1,6.7
		c2.5,4.4,7,7.8,7.1,13.6c0,1.1,1.3,1.9,2.3,2c1.2,0.1,1.4-1.2,1.7-2c1.5-3.8,3.6-7.2,6-10.5c2.2-2.8,4.2-5.8,6.3-8.8
		c-2.3-0.4-2.1,2.4-3.9,2.3c-0.6-1.1,1.2-2-0.1-3c-1.3,1-1.1,3.2-3.3,3.8c1-6.7,3.6-12.9,2.9-19.7c-3.6,10.3-6,21-10.2,31.1
		c-0.7-10.3,3.4-20.2,2.9-30.5c-3.1,7.5-2.6,15.9-5.3,23.5c-0.6-4.8,0.2-9.6-1-15.4c-1.3,4.6-2.3,8.2-2.6,12
		C303.8,334.4,305.5,331.6,303.4,330.5z M65.2,292.7c-5.9-1.3-11.8-0.4-17.8-0.8c1.2-1.3,2.6-1.2,4-1.4c6.1-0.7,12.3-1.2,18.4-2.1
		c0.7-0.1,2.6,0.8,2.4-1c-0.1-1.4-1.7-0.9-2.7-1c-9.4-0.2-18.8,0.2-28.2,0.6c-1.6,0.1-3.3,0.6-5.6-1.1c12.4-3.3,24.8-1.4,36.5-4.8
		c-3-1.2-5.7,0.5-8.5,0.3c-9.4-0.6-18.8,0.1-28.1,1.4c-3.3,0.5-8-0.6-9.3,5.1c7.2-1.4,13.9,0.7,19.3,4.5
		C52.8,297.3,58.8,293.5,65.2,292.7z M467.5,87.9c-2-0.3-3.3-0.9-4.3,0.8c-2.6,4.3-6.9,6.8-11.2,9c-10.2,5.3-20.8,9.2-32.7,8.6
		c-5.1-0.2-9.8-1.8-14.6-2.9c-0.8-0.2-2-0.8-2.3,0.6c-0.3,1.1,0.8,1.2,1.6,1.5c5.3,1.9,10.7,3.6,16.3,3.5c20.6-0.2,39-6.1,54-21.2
		c-5.5-1.8-7.4,5.2-13,4.9C463.5,91,465.2,89.7,467.5,87.9z M167.3,235.9c0.8-2,0.2-3.2,0-4.5c-1.3-6.6-3.9-12.7-7.3-18.5
		c-0.5-0.8-1.9-1.9-0.5-2.6c1.2-0.6,1.5,1.1,2.1,1.9c3.8,5.3,6.1,11.3,8.7,17.2c0.6,1.4,1.6,3.3,3.2,2.6c1.7-0.7,0.9-2.7,0.6-4.2
		c-1.3-5.5-3.5-10.6-6.5-15.4c-0.9-1.4-2.5-3-2.2-4.3c0.5-2.7-1.6-3-2.8-4.3c-2.4,5.1-3,5.2-7.2,1.8c-0.4-0.3-0.7-0.7-1.1-0.9
		c-0.9-0.3-1.8-1.9-2.7-0.5c-0.8,1.3-1.6,3.4-0.2,4.5c5.8,4.4,8.8,10.6,11.5,17.1C164.1,229.2,164.2,232.9,167.3,235.9z
		 M292.1,142.7c4-0.8,7-1.5,10-1.9c1.4-0.2,2-0.2,1.8-2c-0.3-3,1.7-4.8,4.7-4.8c1.9,0,3.8-0.3,5.7-0.3c1.4,0,2.1-0.6,2.7-1.8
		c2.2-4.4,4.8-8.5,7.3-12.7c1.9-3.1,4.5-6.2,4-10.8C317.8,121.4,303.5,129.7,292.1,142.7z M208,523.1c-1-2.6-1.9-5.2-3-7.8
		c-0.3-0.8-0.9-1.5-1.9-1.2c-1.2,0.4-0.8,1.4-0.6,2.1c0.6,2.3,1.4,4.5,2.1,6.8c0.2,0.7,1.1,1.7,0.1,2.2c-1.8,0.9-0.8,1.8-0.3,2.8
		c1.6,3.3,2.4,6.7,3.6,11c-3-2-3.2-4.7-4.3-6.7c-1.2-2.2-2.8-4.1-4.8-5.8c-0.4,1,0.1,1.5,0.2,2c0.2,0.8,1.6,1.7,0.3,2.4
		c-1,0.5-1.5-0.8-2-1.6c-1-1.6-1.9-3.2-4.3-3.5c-0.1,1.6,0.7,2.6,1.6,3.5c3.2,3.2,6.5,6.3,9.7,9.5c2.2,2.2,3.5,1.2,4.6-1
		c2.1-4,4.2-8,7.2-11.5c2.4-2.7,3.6-7.7,3.2-10.5c-3.1,4.1-4.3,9-7.2,12.9c0.5-4.9,3.3-9.4,2.3-14.9c-2.3,2.3-1.7,5.2-3.5,7.6
		c-0.9-2.9-0.1-5.4-0.6-7.7c-0.2-1.1-0.1-2.8-1.8-2.5c-1.1,0.2-0.8,1.8-0.8,2.8C208.1,517.1,209.2,519.9,208,523.1z M275.3,335.7
		c-2-4.3-1.4-8.7-3.8-12c-1.6,1.1-0.3,3.6-2.3,4.5c-1.3-2.8-1.2-6.1-3.6-8.5c0.8,2.4-3,3.6-0.8,6.9c5.5,8.2,13.7,14.4,17.7,23.6
		c0.1,0.3,0.4,0.6,0.7,0.8c0.6,0.5,1.2,0.5,1.4-0.3c0.4-1.9,2.3-3,2.3-5.1c0-3.8,1.2-7.2,3.7-10.1c0.5-0.5,1.5-1.1,0.6-2.1
		c-0.7-0.7-1.4-1.5-2.4-1.4c-1,0.1-1.1,1.1-1.4,1.9c-1,2.5-0.9,5.1-0.8,7.7c0,0.8-0.1,1.5-0.9,1.7c-1,0.2-1-0.8-1.2-1.4
		c-0.7-2.4-0.1-4.7,0-7.1c0.1-1.8,0.6-3.7-1.3-5.5c-0.7,4.2-1.4,8.1-2,12c-2.5-4.5-0.5-9.7-3.6-14.1
		C275.8,329.6,277.1,332.7,275.3,335.7z M327.7,84c2.9-1.4,6.5,0.4,8.8-1.7c6.9-6.5,15.4-10.3,23.6-14.5c1.7-0.9,3.8-1.2,5.2-3
		c-4.2-0.3-4.2-0.4-6.9,0.8c-2.1,0.9-3.9,1.2-5.2-1.1c-0.7-1.3-1.4-1.1-2.5-0.5C341.4,68.7,334.6,76.3,327.7,84z M53.3,272.2
		c-0.2-1-0.8-0.8-1.2-0.9c-3.5-0.7-7.4,0.8-10.4-2.2c-0.8-0.8-1.9-0.2-2.4,0.7c-2.4,4.1-5.9,7.6-8,12.2c13.8-3.2,27.8-3.4,41.6-5.8
		c-12.6-4.3-25.1-2.2-37.6,0.9C41,274.6,47,272.7,53.3,272.2z M42.4,318.5c-1.8-0.7-3.7-0.8-5.5-0.4c-6.2,1.3-12.5,1.9-18.5,3.9
		c-1,0.3-2.6,1.3-3.1-0.2c-0.6-1.6,1.3-1.6,2.3-2c8-2.7,16.3-4.5,24.6-5.6c1.2-0.2,2.4-0.1,3.2-1.5c-6.2-0.8-12.1,0.2-18,0.8
		c-9.5,0.9-16.7,5.1-19.1,15.2c1.5-0.2,2.8-1.2,4.2-1.7c2.3-0.8,4.2-2.7,7.3-1.8c1.2,0.3,3.8-1.6,6.1-1.9
		C31.7,322.6,37.1,321,42.4,318.5z M163.7,273c-3.2,1.4-6.2,2.9-8.8,5.1c-0.8,0.7-1.8,2.4-2.9,1.1c-1-1.1,1.3-1.3,1.5-2.3
		c0-0.2,0-0.4-0.1-0.7c-2.8,0.6-5.4,1.7-8,2.9c-1.3,0.6-2.7,2.7-3.9,1.4c-1.2-1.3,2-1.7,1.7-3.7c-3.1,1-6.3,2-9.4,2.8
		c-0.7,0.2-1.5,1.1-2.3,0.2c-0.7-0.8,0.8-1.3,0.5-2.3c-2.5,0-4.8,0.8-7,2.3c16.3,7.9,41.3,1.7,52.5-11.2c-5.8,0.8-9.8,4.8-14.1,7.7
		C162.2,274.9,164.3,274.5,163.7,273z M112.6,284.2c-3.9,3.8-15.5,43.7-14.1,48.6c2.9-2.2,5-4.3,5.8-8.4c1.9-10.1,5.6-19.8,7-30.1
		C111.7,291,113.3,287.8,112.6,284.2z M62.4,258.9c0.8,0.3,1.2,0.6,1.6,0.6c6.6,0.4,13.3,0.8,19.9,0.5c4.7-0.2,9.4-1.1,14.2,0.8
		c1.8,0.7,4.6-0.8,6.9-1.3c-1.1-3.6,2.5-2.6,4-3.8c-3-0.8-5.8-0.7-8.6,0c-7.5,2.1-15.2,2-22.9,2.4c-0.7,0-1.9,0.5-2.1-0.7
		c-0.1-1.4,1.1-0.8,1.8-0.8c3.2-0.2,6.4-0.2,9.6-0.7c3.1-0.4,6.5,0,9.7-2.1C87.9,251.4,68.6,254.1,62.4,258.9z M247.6,307.8
		c-0.4,1.1-0.7,2.2-1.1,3.3c-0.3,0.7-1.1,1.4-1.6,0.7c-1.5-2.4-1.1,0-1.1,0.4c0.3,7.5,1.1,14.8,5,21.6c2.9,5.1,7.8,9,8.2,15.6
		c3.6-3,7.1-11.3,6.4-14.7c-1.7,1.7-2.5,3.7-3,6c-0.2,0.8-0.4,1.5-1.3,1.3c-1-0.2-0.8-1-0.8-1.7c0.1-0.8,0.4-1.6,0.4-2.5
		c0-3.2,1.1-6.4-0.6-10.2c-0.9,2.5-0.6,4.4-0.8,6.3c-0.2,1.7,0.5,4.3-1.2,4.6c-1.4,0.2-1-2.7-1.5-4.2c-1.1-3.2-0.4-6.8-2.5-10
		c-0.8,1.6-0.4,3-0.5,4.4c-0.1,0.6,0.2,1.3-0.6,1.4c-0.7,0.1-1.1-0.4-1.3-1c-0.6-1.7-1.2-3.3-1.7-5
		C246.3,318.7,246.5,313.3,247.6,307.8z M119,287.7c-2.2,2.8-3.1,5.8-4.2,8.6c-2.5,6.9-6.2,13.5-6.5,21.2c0,0.9-0.8,2.3,0.3,2.6
		c1.8,0.4,3.5,2.6,5.6,0.7c2-1.8,3.5-3.9,3.6-6.7c0-0.2-0.1-0.5-0.3-0.6c-1.7-1.3-1.7-1.3-1.3-2.8
		C117.9,303.3,118.9,295.8,119,287.7z M171,509.2c-1.1,2.1,1.6,3.4,1,5.6c-4.7-2.3-6.1-6.4-7.2-10.9c-1.8,2.1-1.3,2.9,0.2,6.2
		c4.4,9.5,14.6,12.9,21.2,20.8c1.9-4.9,1.7-9.1-0.9-13.4c-1.7,1.7-0.3,4-1.9,5.7c-1.1-1.3-0.9-2.6-1-3.8c-0.1-1.9-0.6-3.7-1.3-5.5
		c-0.4-1.1-1.3-2-2.4-1.5c-1,0.4,0,1.5,0,2.2c0,1,1.3,1.8,0,3.2C176.4,514.5,174.6,511,171,509.2z M293.5,345.7
		c-0.5,6.8-4.8,12.4-4.7,19.3c-1.9-5.4,1.6-10.8-1.1-16.4c-1.8,2.1-2,4.5-2.2,6.8c-0.2,2.4,1,4.7,0.2,8c-2.7-5-1.5-11-6.6-13.9
		c-0.8,3.1,2.4,5.5,1.2,8.7c-2.8-4.7-4.7-9.8-5.9-15.1c-0.5,6.2,0.6,11.9,5.1,16.6c3.1,3.3,6.9,6.4,6.6,12.3
		C293.7,364.1,293.3,354.8,293.5,345.7z M72.1,268.8c0-0.4-0.1-0.7-0.1-1.1c8-0.6,16.2-0.6,23.2-5.6c-9.4,2.3-18.9,2.3-29.1,1.1
		c1.1,2.6,3.1,4.2,2.8,6.7c-2.8-2.3-5.5-0.3-8.2,0c8.4,1.7,15.5,8.2,24.7,5.9c-3.3-0.6-6.7-1-10.1-1.5c-0.9-0.1-2.1-0.5-2-1.6
		c0-1.5,1.4-0.9,2.2-1.1c3.3-0.6,6.8-0.4,9.7-2.7C81,268.8,76.6,268.8,72.1,268.8z M197.1,241.6c-2.7-3-6-4.2-9.8-4.6
		c-7.7-1-13.7,1.6-18.8,7.2c-1.3,1.4-2,2.5,0.8,2.8c2.2,0.3,3.6,1.8,5.6-1.6c1.7-2.9,6.4-4,9.9-5.8c0.7-0.3,1.9-0.8,2.3,0.1
		c0.6,1.4-1,1.2-1.7,1.7c-0.8,0.5-1.7,0.8-2.4,1.4c-0.7,0.6-2.3,1.1-1.4,2.4c0.7,1,2,0.4,2.8-0.3c2-1.7,4.5-2.6,6.9-3.8
		c0.3-0.2,1.1-0.1,1.3,0.1c0.5,0.6,0,1-0.5,1.3c-1.5,1-3.2,1.6-4.3,3.2c-0.5,0.7-1.6,1.4-0.8,2.4c1,1.2,2,0.2,2.7-0.4
		C191.9,245.5,194.2,243.3,197.1,241.6z M375.7,208.1c1,5.3,3.9,9,5.5,13.2c-1.5,0.7-1.9-0.4-2.5-1.1c-2.1-2.6-4.1-5.2-6.2-7.8
		c-0.4-0.5-0.9-1.4-1.6-1.2c-1,0.3-0.9,1.3-0.9,2.1c0,0.8,0.2,1.6,0.7,2.3c2.5,3.5,5.2,6.7,9.9,7.5c2.4,0.4,4.8,1.1,6.9,2.7
		c0.7,0.5,1.5,1.9,2.2,1.3c1-0.9,2.4-2.6,2.1-3.5c-1.6-5.7-0.7-12-3.9-17.9c-0.7,4.9,0,9.1,1.4,13.3c0.4,1,1.4,2.7,0.1,3.2
		c-1.6,0.7-1.5-1.4-1.9-2.3c-2.1-4.7-4.2-9.4-6.2-14.1c0.7,5.9,2.6,11.4,4.4,17C381.5,218.7,379.6,213.2,375.7,208.1z M324.6,303.6
		c-3.5-1.1-3.3-5.7-6.9-6.5c-0.7,2.1,0.1,3.7,1.3,5.2c2.4,3.1,5.3,5.4,9.4,5.9c4.4,0.5,7.4,2.9,8.9,7.1c0.2,0.5,0.2,1.3,1.7,0.8
		c-3.6-9.4-3.2-20-8.4-29c0.9,7.3,2.4,14.5,3.5,21.8c-2.5-5.6-5-11.1-7.5-16.7c-0.6,2.9,0.9,5.1,2,7.4c1.1,2.3,3,4.1,3.1,7.3
		c-4.9-3.3-7.2-8.3-10.6-13.4C321.2,297.9,324.6,299.9,324.6,303.6z M224.1,279.4c-1.1-1.6-2.5-3.2-3.4-5c-1-1.9-1.5-4-2.2-6
		c-2.4-6.8-5.6-8.5-12.1-6c1.8,2.5,2.3,5.4,3,8.3C210.9,276.7,219.2,281.5,224.1,279.4z M372.6,67.7c-2.1-2.2-3.8-2.4-5.9-1.1
		c-1.5,1-3.2,1.6-4.8,2.4c-7.5,3.7-15.1,7-21.7,12.2c-2.7,2.1-2.5,4.2-1.5,6.8c0.8,2,1.7,3.2,3.4,0.5c1.7-2.7,4.1-4.6,6.9-6.1
		c1.4-0.8,2.8-1.8,4.2-2.6c-4.6,0-7.8,2.8-11.7,4.3C350.7,76.5,361,71.3,372.6,67.7z M385.2,259c0.6-9.3,5.3-17.9,4.6-27.8
		c-2.8,3-0.3,7.2-2.8,10.4c-2.6-4.8,0.3-10.3-3-14.5c-0.2,2.3,0.1,4.5,0.2,6.8c0.1,1,1.2,2.8-0.5,3c-1.3,0.2-1.1-1.8-1.3-2.9
		c-0.4-1.9-0.8-3.7-2.4-6c0.6,2.6,1,4.4,1.4,6.2c0.1,0.7,0.5,1.6-0.2,2c-1,0.5-1.3-0.6-1.8-1.2c-0.6-0.8-1.6-2.5-1.6-2.3
		c-0.8,3.2-2.7-0.2-4.2,1c4.7,4,8.1,8.8,11.6,13.5c1.3,1.7,2.1,2.9,0.7,4.6C384.1,253.9,384,256.3,385.2,259z M233.5,269.2
		c2.6-7.3,6.8-13.2,9.1-19.9c-1.1,0.5-2.1,1.1-2.6,1.9c-3.3,5.8-7,11.4-8.9,17.8c-1.8,6.2,0.7,11.6,3.6,16.8
		c0.8-2.8,2.8-5.1,2.5-8.1c-1.3,0.3-1.3,2.2-3.3,1.8c0.7-5.3,3.9-9.8,4.9-15.3C236.4,265.4,236.4,268.2,233.5,269.2z M104.8,244
		c0.9-2.7,3.3-3.3,4.9-4.9c0.6-0.7,1.8-1.1,1.4-2.2c-0.4-1.1-1.4-1.6-2.5-1.8c-1.2-0.2-2.3,0.3-3.3,1c-2.9,2.3-5.8,4.5-8.7,6.8
		c-1.1,0.8-3,1.4-2.1,3.2c0.9,1.7,2.7,0.8,4.2,0.5c1.4-0.3,2.3-1.8,4.2-1.3c5.8,1.5,9.8-0.4,13-6.3
		C111.7,239.6,109.4,243.8,104.8,244z M31.5,299.7c0-0.2-0.1-0.3-0.1-0.5c-0.7-0.1-1.4,0-2.1-0.2c-1-0.3-3,0.8-3-0.9c0-2,2-1,3.1-1
		c6-0.4,12-0.6,18.3-0.9c-7.6-7.2-18.9-8.5-21-2.6c4.6-1.8,9-0.2,13.9-0.1c-0.6,0.7-0.7,1-0.9,1.1c-0.6,0.1-1.2,0.2-1.7,0.1
		c-5-0.3-9.8-0.7-14.7,1.4c-2.3,1-3.3,2.3-4,4.6C23.6,300.3,27.5,300,31.5,299.7z M504.3,61.9c-2.2-0.4-4.1,0-6-0.8
		c-1.1-0.5-2.1-0.1-3.2,0.9c-3.4,3.2-7,6.1-10.4,9.3c-2.8,2.6-5.5,5.3-7.2,9C487.9,76.3,493.8,65.7,504.3,61.9z M469.1,80.1
		c-12.1-3.5-23.7-9-36.5-10.3C444.4,75,455.8,81.1,469.1,80.1z M227.3,156c-1.8-0.1-2.8-0.2-3.9-0.3c-11.4-0.9-22.9-1-34.3-0.7
		c-1.7,0-3.6,0.2-3.7,1.9c0,1.5,2.1,1.1,3.3,1.2c10.5,1.4,20.8-0.9,31.2-1.3C222.1,156.8,224.4,157.2,227.3,156z M166.9,342.6
		c3.2-3.8,6.2-7,6.6-11.6c0.1-1.1,1.3-2.5-0.4-3c-1.4-0.4-2,0.9-2.4,2.1c-0.5,1.6-0.9,3.2-1.6,4.7c-0.4,0.9,0.2,2.6-1.8,2.6
		c-0.4-3.1,0.4-6.7-3.2-8.8c-1.1,1.6-0.2,3.7-2.2,5c-1.2-2.5-0.2-5.5-2.3-7.7c-1.4,2.7-2.2,5.1,0,7.5
		C162.2,336.2,165.3,338.7,166.9,342.6z M233.8,359.3c9.7,4.8,14.9,16.2,26.7,18.1c-2,2.4-4.3,3.4-6.9,3.8c1.7,0.3,1.9,3.7,4.3,1.9
		c1.8-1.3,5-1.6,5.3-3.6c0.2-1.8-2.5-3.2-4.2-4.5c-0.6-0.5-1.1-0.9-1.8-1.2c-5.9-2.7-11.1-6.4-15.2-11.5
		C240,359.8,237.1,359.1,233.8,359.3z M354.7,227.5c-1.4,3.6,1,6.2,0.3,9.2c-2.7-1.6-1.9-4.8-4.2-6.6c0.5,4.1,0.7,8,4.3,10.3
		c2,1.3,4.1,2.3,5.6,4.3c0.7,0.9,1.5,1.7,2.3-0.5c1.2-3.3,2.8-6.5,4.5-9.7c1.4-2.7,3-5.6,2.2-9c-0.8,1.2-1.4,2.5-1.8,3.8
		c-1,2.7-1.4,5.7-3.5,8c-1.8,2-6.1,1.4-6.9-1.1C356.5,233.5,355.7,230.8,354.7,227.5z M13.8,314.1c0.1,0.4,0.3,0.7,0.4,1.1
		c11-5.1,22.9-5.8,35.1-7.4c-2-2.5-4.2-2.1-6.1-1.9c-8.1,0.7-16,2.9-24.2,2.7c-0.4,0-0.8,0.4-1.1,0.7
		C16.4,310.9,15.1,312.5,13.8,314.1z M174.5,169.7c13.1-1.9,25.8-1,38.5-3.4c-1.2-1.1-2.3-1.1-3.3-1.1c-9,0-18.1-0.2-27.1,0.1
		C179.8,165.4,176.9,166.8,174.5,169.7z M328.3,216.5c8.8,1.6,15.7-2.8,15.6-9.7c-1.6,1.3-1.1,4-3.4,5c-0.5-2.9,1.4-5.5,0.5-8.3
		c-1.4,2.2-2.7,4.2-4,6.2c-0.3,0.5-0.5,1.6-1.5,1c-0.6-0.4,0.5-1.4-0.4-1.9c-0.3,0.5-0.6,1-1,1.5c-0.6,0.6-1,2-2.1,1.4
		c-1.6-0.8,0.2-1.5,0.4-2.2c0.4-2.4,2.4-4.3,2.5-7.3C330.2,206.2,331.6,212.3,328.3,216.5z M42.3,265.7c7,1.7,18.7,3.3,22.7,0.8
		c-1.7-3.1-4.6-3.8-7.8-3.9c-1.1,0-2.5,0-2-1.9c0.2-0.7,2,0.3,1.1-1.1c-0.7-1-1.6-0.3-2.2,0.2C50.7,262.5,47,264.6,42.3,265.7z
		 M206.8,331.7c0.9-4.6,2.9-9,3.2-13.7c-5.9,6.3-8.9,13.3-6.5,22.1c5.6-4.2,7.5-10.2,9.3-16.3C210.6,326.3,209.7,329.7,206.8,331.7z
		 M496.7,70.6c6.8,1.1,15.6-2,19.8-6.5C507.7,59.6,502.6,66.3,496.7,70.6z M295.4,301.8c2.6,9.5,4.6,19.1,3.9,29.9
		c2.7-3.3,4.7-5.7,6.6-8.3c0.6-0.8,1.4-2.4,1.1-2.9c-1.9-2.8-0.6-5.7-0.9-8.5c-0.3-3-1.3-6.8-2.9-8.9c1.4,6.6,2.1,13,0.4,19.3
		c-0.2,0.9,0.1,2.6-1.4,2.5c-1.5-0.1-1.4-1.8-1.4-2.9c-0.2-5-1.3-9.9-2.5-14.7C297.8,305.3,297.3,303.3,295.4,301.8z M180.8,162.9
		c12.1-1,24.4,2,36.2-1.9C204.9,159.6,192.7,159.4,180.8,162.9z M369.8,257c1.6-4.1,5.3-6.4,8.4-9.3c0.8-0.7,2.4-1.1,1.6-2.7
		c-0.2-0.4-0.6-1-0.9-1c-1.4,0-1.3,1.4-1.9,2.2c-0.4,0.6-0.6,1.5-1.5,1.1c-0.9-0.4-0.2-1.2-0.2-1.9c0-1.5,0.8-2.9,0.2-4.5
		c-1.9,2.4-0.9,6-3.7,8.5c-0.7-3.6,1-6.5-0.4-9.6c-0.6,3.9-1.2,7.9-1.7,11.8c-1.5-2.1-1.8-4.3-1.5-6.5c0.2-1.3,0.8-3.1-0.9-3.2
		c-1.6-0.1-2,1.9-1.7,3.3C366.4,249.2,365.9,253.8,369.8,257z M36.2,330.6c-0.8-0.1-1.4-0.3-2-0.2c-7.9,1.7-15.8,3.4-23.7,5.1
		c-1.3,0.3-2.6,0.7-3.4,1.8c-0.6,0.7-1.2,1.7-0.8,2.6c0.5,1,1.5,0.2,2.2,0c7.1-2.1,14.2-4.1,21.2-6.5
		C31.8,332.8,34.6,333.3,36.2,330.6z M49.8,302.5c-0.3-1.1-1-1-1.5-1.1c-7.7-1.1-15.4-0.5-23,0.6c-2.8,0.4-4.6,2.2-5.7,5.3
		C29.8,305.2,39.7,303.1,49.8,302.5z M155.2,310.2c-0.2,1.4-0.3,2.4-0.4,3.3c-0.1,0.8-0.1,1.9-1.1,1.9c-1.2,0-0.9-1.3-0.9-2
		c-0.3-2.2-0.1-4.5-1.1-6.6c-0.7,1.7-1.6,16.9-1.1,19.9c3-3.8,6.1-6.7,10.3-8.4c1.1-0.4,0.8-1.2,0-1.9c-1.1-0.9-1.8-0.8-2.5,0.4
		c-0.4,0.6-0.5,1.9-1.6,1.5c-1.2-0.5-0.4-1.7-0.4-2.5C156.2,314.1,157,312.3,155.2,310.2z M197.7,537.9c-0.8,0.8-0.2,2.4-1.5,2.4
		c-1.1,0-1.1-1.3-1.4-2.2c-1-2.8-2.2-5.6-4.9-7.6c-0.7,2.2,1.3,3.6,0.9,5.2c-2.1,0.9-1.6-3.1-3.5-1.7c-1.6,1.1-2.1-0.1-2.9-0.9
		c-2.8-2.5-5.5-4.9-8.7-7.7c0.6,5.6,2.8,8.3,7,9.6c3.9,1.1,7.6,2.6,10.7,5.5c0.8,0.7,1.3,2.5,2.7,1.9
		C197.7,541.6,197.9,539.9,197.7,537.9z M302.6,359.2c0.1-2.7,0.3-4.5,0.3-6.4c0.1-2-0.1-3.9-1.5-5.7c-1.7,2.5-0.2,5.6-2.1,7.9
		c-1.3-1-0.9-2.3-1-3.5c-0.2-1.1-0.2-2.2-1.2-3c-1.7,4.6-1.5,6,1.3,9.3c1.5,1.8,2.6,3.7,3.1,6c0.4,1.9,1,1.9,2.2,0.5
		c1.6-1.8,2.8-8.1,1.9-11.6C304.4,354.5,304.9,357,302.6,359.2z M322.1,133.5c-0.1,0,0.8,0.6,1.2-0.3c2-5.3,5.9-9.4,7.8-14.7
		c0.4-1.2-0.1-2.3-1-2.8c-1.1-0.5-1.9,0.3-2.5,1.4c-2.6,4.4-5.2,8.8-8,13.1C318.3,132.4,319,133.4,322.1,133.5z M542.9,16.7
		c3.6,0.1,2.1-3.4,3.8-4.5c1.1-0.7,1.4-3.2,2.9-2.4c1.6,0.9-0.7,2.1-0.6,3.3c0,0.2,0.2,0.4,0.3,0.7c2.8-0.4,3.6-3.2,5.5-4.6
		c0.8-0.5,2.6-1.6,2.3-0.2c-0.7,3.8,1.7,1.1,2.3,1.2c2,0.4,3-2.6,5.1-1.8c3.2,1.2,6.1-0.1,9.1-0.6c-0.5-0.5-1-0.9-1.5-1
		c-8.7-0.4-17.3-0.4-25.7,2.6c-0.9,0.3-1.6,0.5-1.9,1.8C544.4,13.1,543.6,14.7,542.9,16.7z M227.3,339.1c-3.1,1.6-3.8,5.1-6.9,6.6
		c1.2-5.6,4.7-10.4,5.8-16c-3.7,4.8-4.8,11.1-9.3,15.5c0.2-4.9,2.3-9.3,2.6-14.3c-2,1-1.7,2.6-2.1,3.9c-0.4,1.2-0.6,3.5-1.1,3.6
		c-2.9,0.4-1.4,2.3-1.5,3.6c0,0.9,0,1.9,0,2.8c0,1.4-0.3,3.3,1.4,3.7c1.6,0.3,3.9,0.7,5.1-0.7C223.6,345.1,225.4,342,227.3,339.1z
		 M297.5,177.3c-0.2-0.2-0.4-0.3-0.7-0.5c1.2-2.4,2.5-4.7,3.7-7.1c0.4-0.7,1.5-1.7,0.1-2.4c-1.2-0.6-2.3-0.4-3,1
		c-1,1.9-1.8,4-3.2,5.5c-3.1,3.5-1.4,6.9-0.2,10.9c3.8-5.6,7.6-10.6,9.9-16.4C302,171.3,299.7,174.3,297.5,177.3z M188.4,290.6
		c-2.1,2.2-1.5,4.3-1.5,6.2c0,0.8-0.1,1.6-1,1.6c-0.7,0-0.8-0.7-0.8-1.3c0-0.5,0-1-0.2-1.4c-0.4-1.1-0.9-2.6-2.4-2
		c-1.5,0.6-0.8,2-0.2,3.1c2.1,3.9,4.4,7.6,9.4,8.7c1-5.2,1.2-10.4,2.3-15.6c-3.5,3.4-2.7,8.2-4.4,13.4
		C187.8,298.6,189,294.8,188.4,290.6z M32.2,337.8c-5.8-2.6-20.6,2.2-22.6,7.7C17,341.9,25.2,341.8,32.2,337.8z M482.8,36.3
		c-1.7,8.9,1.8,14.2,9.7,15.1c0-1.6-1.4-2.1-2.4-2.8c-1.3-0.9-2-2-1.8-3.6C488.8,40.8,486.2,38.4,482.8,36.3z M255.6,378.1
		c-7.9-1.8-13.6-6.2-18.6-11.9c-1.6-1.9-3.8-3.6-6.8-3.2c0.4,1.8,1.2,3.1,2.6,3.9c4.3,2.4,7.9,5.8,11.6,9
		C247.4,378.6,250.9,379.8,255.6,378.1z M340.5,186.3c-5,2.7-5.5,8.7-10.2,12.7c3.4,0,5.7,0,7.9,0c4.8-0.1,5.8-1.4,5.5-6.6
		c-2.1,1.2-2.2,4.5-5.4,5c1.3-3.3,2.7-6.2,5.1-9.6c-4.1,1.9-4,6.4-7.7,7.1C337.3,192,338.9,189.1,340.5,186.3z M281.1,136.2
		c-6-1-10.4,0.2-13.1,5.4c-0.5,1.1-2.2,2.2-1,3.3c0.8,0.8,2.5,0.4,3.6-0.4C274.1,142.2,277.6,139.8,281.1,136.2z M208.3,170.3
		c-9.9-0.9-19.6-0.5-29.2,1.2c-0.7,0.1-2-0.3-1.9,0.9c0,1.3,1.2,1.2,2.2,1.1c8.6-0.7,17.3-1.3,25.9-2
		C206.3,171.4,207.3,171.3,208.3,170.3z M24.2,350.2c-4.9,0.4-8.6,1.9-12.4,3.1c-3.4,1.1-4.5,3.7-3.4,8
		C13,356.9,19.3,355.3,24.2,350.2z M271.1,348.1c-0.6,4.5,2.3,8.4,0.3,12.6c-1.2-3.8-2.4-7.6-3.7-11.5c-0.8,0.8,0.4,2.3-0.9,2.5
		c-1.5,0.2-1.3-2.1-3.3-2.3c2.3,4.6,4.5,8.9,6.7,13.1c0.6,1.1,0.8,3,2.5,2.2c1.5-0.7,2.8-2.6,1.9-4.2
		C272.8,356.8,273,352.4,271.1,348.1z M139.7,203.7c1,1.3,2.2,2.8,3.3,4.4c1.1,1.6,2.3,3.1,4.3,4.4c1-3.1,0.6-6.2,2-8.9
		c0.5-0.9-0.5-1.1-1.2-1.3C145,201,141.9,199.9,139.7,203.7z M300.9,149.3c-1.3,0-2.2,0-3.2,0c-1,0-1.7,0.3-1.2,1.5
		c1.2,2.8,1.3,5.7,1.7,8.7c0.1,0.8,0.5,1.5,1.2,1.7c1.1,0.4,1.3-0.8,1.6-1.5c1.1-2.2,1.9-4.5,2.6-6.9
		C304.5,149.4,304,148.3,300.9,149.3z M170.4,212.8c3.3,4.5,5.3,9.7,7.9,14.6c0.3,0.5,0.2,1.6,1.4,1.2c1.1-0.4,0.9-1.1,0.6-2
		c-1.3-3.4-2.9-6.8-3.7-10.4C175.8,212.4,174.3,210.9,170.4,212.8z M211.2,291.7c-3.3,6.7-7.5,13.1-8.3,21.2
		c1.1-0.2,1.4-0.3,1.7-0.4c3.3-0.7,1.7-3.9,2.6-5.7C209.4,302.1,211.1,297.1,211.2,291.7z M284.6,153.5c3.2,6,7.7,10.3,14.9,11.4
		C295.8,158.8,290.1,156.3,284.6,153.5z M291.6,175.2c2.1-2.6,3.4-5.1,4.6-7.6c0.4-0.7,0.3-1.4-0.6-1.7c-2.9-0.8-5.1-3-8.2-4.5
		C288.8,166.1,290.1,170.4,291.6,175.2z M418.6,183.6c9.4,3.4,18.2,8.2,28.2,9.7C437.8,188.8,428.8,184.5,418.6,183.6z M255.6,425.4
		c2.2,7.7,7.4,13.4,11.8,19.5C264.9,437.5,262.6,430,255.6,425.4z M338.8,220.5c-4.1,4.4-1.9,8.1,6.5,10.3
		c-0.8-3.7-1.5-7.3-2.5-11.7c-1.3,2.3-0.6,4.3-2.2,5.5C339,223.5,340.1,221.5,338.8,220.5z M220.8,289.4c-0.9,0-1.2,0.5-1.5,1
		c-2.8,5.5-6.4,10.6-9.7,15.8c-0.5,0.8-1.8,2-0.8,2.7c1.3,0.9,3-0.7,3-1.6c0.1-3.2,2.7-4.5,4.2-6.6
		C218.7,297.3,220.5,293.7,220.8,289.4z M21.9,326.5c2.8,3.1,16.8,0.6,21.1-3.8C35.7,323,29,325.4,21.9,326.5z M402.7,224.6
		c-0.8,0.5-0.1,1.9-1.3,2c-1.2,0.1-1-1.1-1.4-1.8c-0.6-1.2-1-2.4-1.6-3.5c-0.3-0.6-0.8-1.3-1.7-0.9c-1.2,0.5-0.8,1.4-0.4,2.1
		c1.9,3.6,4.2,6.9,8.3,8.3c2.2,0.7,3.6-0.4,2.9-2.4c-0.9-2.9-1.3-5.8-1.1-8.8c-1.5,1.9-1.2,4.1-1.2,6.2c0,1,1.3,2.7-0.5,3
		c-1.4,0.2-1.1-1.8-1.7-2.7C402.8,225.6,402.8,225.1,402.7,224.6z M372.5,271.4c-3-0.7-4.6-3-6.5-4.7c-0.6-0.5-1.1-0.9-1.8-0.4
		c-0.9,0.6-0.1,1.3,0.2,1.8c1.7,2.7,4.3,4.4,7.1,5.7c1.1,0.6,1.9,0.1,2.5-1.1c1.2-2.4-0.9-9.3-4.5-12
		C371.5,264.6,371.3,268,372.5,271.4z M237.1,303.8c-1.9,4.8-0.3,11.5,3.7,14.7c0-4.5,0-8.7,0-12.8
		C237.3,310.2,238.8,304.1,237.1,303.8z M203,241c-0.2-0.1-0.4-0.2-0.5-0.3c-3.1,3-6.3,5.9-9.3,9c-0.6,0.6-1.5,1.5-0.7,2.5
		c0.8,1,1.9,2,3.3,1.8c1.3-0.2,0.6-1.5,0.9-2.3c0.2-0.7,0.4-1.4,0.6-2c0.2-0.8,0.4-1.8,1.4-1.9c1.4,0,0.4,1.6,1.4,2.2
		C200.9,246.9,202,244,203,241z M358.3,218c-0.2,0.1-0.4,0.1-0.7,0.2c-0.1,1,0,2.2-0.3,3.1c-1.4,4,2.3,5.1,4.2,6.9
		c1,0.9,2.8-1.6,3.7-2.8c1.3-1.8,5.4-3.5,1.2-6.5c-0.3-0.2,0.3-1.1-0.5-1.2c-0.7,2.2,0.6,4.9-1.7,6.5c-0.7,0.5-0.1-1.5-1.1-1.6
		c-0.7,1.1,0.7,3.1-1.1,3.4c-1.6,0.2-1.5-1.8-2-2.9C359.3,221.3,358.8,219.6,358.3,218z M277.3,152.9c7.8-3.8,13.5-0.3,18.9,5.9
		c0.1-4.6-1.5-7-4.6-8.4C288.8,149.2,278.8,150.8,277.3,152.9z M355.2,222.7c-1-2.7-0.8-5-2.4-7.3c-0.2,0.8-0.3,1.1-0.4,1.4
		c-0.5,0.9,0.8,2.7-1,2.9c-1.2,0.1-1.4-1.4-1.8-2.3c-1.4-3.1-2.3-6.3-2.1-10.2C343.2,215.4,346,218.6,355.2,222.7z M183.7,184.1
		c-8,1.1-16.4,0.6-24.5,4.1c1.8,0.7,3,0.4,4.2,0.1c2.4-0.5,5-1.7,7.3-1.2C175.7,188.2,179.4,185.2,183.7,184.1z M310,208.6
		c-3.6-2.8-7.6-3.8-12.1-2.6c-1,0.3-1.3,0.9-1.4,1.8c-0.1,1.1,0.9,0.8,1.4,1.1C302,210.8,306,208,310,208.6z M337.7,134.5
		c1.3-2.8,1.6-5.5,0.9-8.2c-0.7-2.4-1.3-4.8-1.6-7.3c-0.4-3.1-0.8-3.5-5.2-4.3C336.4,120.9,337.2,127.7,337.7,134.5z M264.4,425.4
		c-0.3,0.1-0.7,0.2-1,0.3c2.1,6.3,4.2,12.6,6.2,19C269.1,437.9,269.4,430.8,264.4,425.4z M179.8,233.1c6.3,1.7,11.3,0.6,15.6-3.8
		C190.3,230.5,184.9,229.8,179.8,233.1z M8.2,334.2c3.9-1.4,7-3.1,10.6-3.2c1.2,0,1.5-1,0.7-2c-1.1-1.3-2.2-2.2-4.3-1.4
		C12.3,328.8,9.9,330.5,8.2,334.2z M338.8,306.3c3.2-4.3,2.9-11.9-0.7-17.2C338.7,295.1,337.1,300.5,338.8,306.3z M123.1,241.1
		c-0.2-0.3-0.5-0.6-0.7-0.9c-4.8,3-9.5,6-14.3,8.9C114.1,248,119.9,246.8,123.1,241.1z M362.8,255.7c0.4-0.8,0.7-1.5-0.3-1.9
		c-1.3-0.4-1.8,0.5-2,1.4c-0.7,3.6-1.2,7.2-2,10.8c-0.2,1-0.6,1.9,0.6,2.2c1.1,0.3,1.2-0.8,1.4-1.6
		C361.3,263,362.1,259.3,362.8,255.7z M224.7,482.4c-0.8,3.2-1.4,5.9-2.1,8.8c6.3-2.1,10.3-8.4,10.1-16.1c-2,4-3,8.1-5.2,11.6
		c-0.5,0.9-0.8,2.3-2.1,1.9c-1.4-0.4-0.7-1.7-0.5-2.7C225.2,484.9,225.5,484,224.7,482.4z M430,182.6c4.7,1.6,8.5,4.2,13.1,5.1
		c-0.7-0.7-1.5-1.2-2.2-1.8c-0.7-0.5-1.7-0.6-2.1-1.7C437.4,181.1,433.7,180.3,430,182.6z M17.3,383.8c-1.1,1.6-1.6,2.5-2.2,3.1
		c-2.5,2.8,0.4,5.4,0.4,8c0,0.3,0.5,0.9,1.1,0.6c2.1-1.3,2.9-3.4,3.5-5.6c0.2-0.7,0.5-1.5-0.3-2.3c-0.4,0.9-0.6,1.7-1,2.4
		c-0.4,0.7-0.4,1.8-1.6,1.5c-0.9-0.3-0.5-1.2-0.5-1.9C16.8,388,17,386.3,17.3,383.8z M285.5,201.4c-2.6,2.7-4.8,5.1-7.2,7.7
		C285.6,210,287.4,208.1,285.5,201.4z M548.7,51.4c-7.1-1-13.7,0.8-20.2,3.4C535.5,55,542,52.9,548.7,51.4z M348.3,262.2
		c0.4-6.9-4-12.1-6-18.1c-0.2-0.6-0.7-1.1-1.3-0.6c-0.7,0.5-0.3,1.1,0.1,1.6c2,3.1,3.2,6.6,4.4,10.1
		C346.2,257.6,346.6,260.1,348.3,262.2z M236.3,334.6c-3,4.6-8.4,7-11.2,11.8C230.3,343.9,234.9,340.8,236.3,334.6z M188.5,225.7
		c-0.5-1.8-2-2.8-3.1-4.1c-1-1.1-2.3-0.6-3.2,0.1c-1.6,1.3,0.2,2.7,0.1,4.1c-0.1,0.6,0.2,1.7,1.5,1.3
		C185.2,226.5,186.9,227,188.5,225.7z M342.5,299c0.3,0.1,0.6,0.1,0.8,0.2c0.7-1,2.3-2.6,2-3c-1.6-2.4-0.3-4.8-0.5-7.2
		c-0.2-2.2-0.4-4.4-2.1-6.2C343.1,288.2,343.5,293.6,342.5,299z M102.1,273.8c3.9,1.6,7.5,3.1,11.6,3.3c0.7,0,1.3,0.5,1.7-0.4
		c0.5-1.2-0.6-1.6-1.3-1.6C110.2,274.5,106.4,272.5,102.1,273.8z M308.3,99.1c5.6,3.8,11.3,2.7,12.8-2.6
		C317,98.3,313,99.3,308.3,99.1z M228.3,318.4c3.3-4.1,4.1-9.5,2-12.6C229,309.9,227.2,313.6,228.3,318.4z M307.4,156.2
		c-0.3-0.2-0.4-0.4-0.6-0.4c-1.1-0.2-2.3-0.5-2.6,0.9c-0.7,2.5-3.5,4.2-2.7,7.1c0.3,1,1.5,1.7,2.3,0.1
		C305,161.3,306.2,158.8,307.4,156.2z M393.6,220.9c1-3.6,4.7-7,1.1-11.5C393.1,213.3,392.6,217,393.6,220.9z M7.7,368.8
		c1.9-2,3.8-3.8,6-5.5c2.1-1.6,4.3-3.1,6.2-6.4C14.2,360.2,9.5,363.1,7.7,368.8z M166.5,182c7.4,0.5,14.8,0,21.7-3
		C180.9,180.1,173.7,181.1,166.5,182z M215.6,304.6c5.7-3.4,10.1-7.8,11.4-14.6C224.5,295.9,219.7,300,215.6,304.6z M79.5,351.2
		c1.9-4.1,0.6-7.9,1.1-12.4c-2.4,2-4.2,3-2.4,6C79.1,346.3,78.3,349,79.5,351.2z M173.8,177.8c6.5-0.5,13.1-1,19.6-1.5
		c0-0.3-0.1-0.7-0.1-1C186.8,175.9,180.2,175,173.8,177.8z M395.3,240.2c-3.3,2.3-1.1,5.3-1.3,7.7c-0.1,1.4,2.2,2.3,3.6,3.1
		c0.5,0.3,1,0.2,1-0.4c0-0.4-0.2-0.9-0.3-1.3c-2.9,0.9-1.6-1.5-1.9-2.6C395.9,244.7,395.7,242.6,395.3,240.2z M18.5,372.5
		c-4,2.1-5,5.4-7,8c-0.4,0.6-0.4,1.4,0.2,1.9c0.4,0.4,1,0.2,1.2-0.2C14.7,379.3,17.4,376.8,18.5,372.5z M536.6,16.2
		c-7.5,1.7-4.1,6.7-5.1,10.9C535.5,24,533.2,19.4,536.6,16.2z M541.4,11.9c-1.4,1-2.9,2-4.3,3c2,2.1-0.2,4.2-0.1,6.5
		C541.3,19.6,540.2,15.2,541.4,11.9z M471.1,61.8c-1.9-1-2.9,1-4.4,0.3c-2-0.9-3,0.6-4.2,1.8c-0.4,0.4-1,1-0.5,1.5
		c0.6,0.5,1.4,0.8,2.2,1.2C465.4,63.7,469.3,64.5,471.1,61.8z M213.9,328.7c6.3-1.8,7.2-2.8,6.9-8.3
		C218.5,323.2,216.3,325.8,213.9,328.7z M381.9,262.3c-1.2-4.3,0.2-7.8-0.2-11.4C379.6,254.5,376.9,258,381.9,262.3z M179.1,327
		c-3.1,2.2-3.6,3.1-4.4,7.9C178.8,333.8,179.7,331,179.1,327z M47.1,230.1c2,0.9,4,0.4,6,0.2c0.9-0.1,2-0.5,0.9-1.5
		c-2.1-2-4.7-3.3-7.5-4.1c1,1.6,3.5,1.8,3.6,3.8C50.3,230.4,47.8,229,47.1,230.1z M489.8,75.3c3.3,1,6.1,0.6,8.8-1.8
		C495.2,72.6,492.2,72,489.8,75.3z M18.5,366.3c-3.5,1.6-7.1,3.1-7.7,8.5C13.8,371.4,16.1,368.9,18.5,366.3z M180.9,332
		c1.8-0.4,3.2-0.9,4.5-1.7c0.9-0.6,2.2-1,1.2-2.3c-0.8-1-2.1-1.7-3.4-0.6C182,328.5,181.2,329.9,180.9,332z M246.8,169.2
		c0.3,0.2,0.5,0.4,0.8,0.6c2.5-3.4,5-6.7,7.6-10.1C251.5,162.2,248.2,164.9,246.8,169.2z M529.6,22.2c-4.6,3-1.7,7.4-2.5,11.2
		C531.3,30.4,525.8,25.4,529.6,22.2z M295.3,366.4c-1.8,2.1-0.8,4.5-1.3,6.6c-0.2,0.8-0.9,1.6,0.3,2c1.1,0.3,1.7-0.7,1.7-1.3
		C296.1,371.3,296.8,368.8,295.3,366.4z M445.1,155.5c0.5-2.9-0.2-5-3.2-6C441.2,152.5,442.2,154.4,445.1,155.5z M238.5,158.1
		c-1.9,1.2-2,3.2-2.7,5c-0.3,0.7-1.2,1.6,0.1,2c0.9,0.3,2.2-0.3,2.1-1.3C238,161.9,239.5,160.2,238.5,158.1z M508.6,79.5
		c0.4,2.9,2.8,1.9,4.5,2.2c0.7,0.1,2.1,1,2.1-0.6c0.1-1-0.8-1.6-2-1.6C511.7,79.4,510.2,79,508.6,79.5z M201.2,506.9
		c1.4-0.6,2.5-1.7,2.9-3.2c0.3-0.9-1.3-1.6-1.6-1.4c-1.3,0.7-1.9,2.1-2.3,3.5C200.1,506.3,200.1,507,201.2,506.9z M124.5,276.9
		c-2.7,0-4.8,0.2-7,1.2C120.2,279.4,122.5,280.7,124.5,276.9z M398.8,242.6c2.6-4.6,3-6.7,1.7-9.4
		C399.6,236.4,398.5,239.3,398.8,242.6z M228.8,169.7c1.6-1,2.4-1.4,3.2-1.9c1.1-0.7,1.2-1.8,0.9-2.8c-0.1-0.4-0.7-0.9-0.9-0.8
		c-1,0.2-1.4,1.2-1.8,2C229.7,167,229.4,167.9,228.8,169.7z M127.1,244.5c-3.3,0.9-5.4,2.6-7.8,4.8C122.8,249,125,247.5,127.1,244.5
		z M524.2,30.2c-0.9,3.1-0.7,6.3,0.1,9.8C526.6,36.5,523.8,33.4,524.2,30.2z M222.4,175.2c1.6-1.3,2.8-2.1,3.8-3.1
		c0.8-0.8,0.7-2.1,0-2.6c-0.8-0.7-1.4,0.5-1.9,1.1C223.4,171.7,222.8,173,222.4,175.2z M227.5,303.6c-2.7,2.2-2.9,5.3-2.3,8.5
		C226,309.3,226.7,306.4,227.5,303.6z M208.4,386.1c0.2-2.7-0.6-5.2-2.3-8C205.7,381.5,207,383.8,208.4,386.1z M240.1,163.2
		c4.1-0.6,3.4-3.3,3.5-6C241.5,158.7,241.1,160.7,240.1,163.2z M266,403c-0.5-3.4-1.4-6-5-7.6C262.2,398.5,263.7,400.7,266,403z
		 M248.5,157c-2,1.3-2.6,3.1-3,4.9c0,0,0.9,0.5,1.2,0.4C248.7,161.3,248.9,159.5,248.5,157z M174.9,352.2c0.1-3.7-3.1-2.9-4.8-4.2
		C170.9,350.2,172.7,351.3,174.9,352.2z M356.2,259.8c0.5-2.8,1-5.6,1.5-8.4c-0.3-0.1-0.6-0.1-0.9-0.2
		C356.5,254.1,354.5,256.6,356.2,259.8z"/>
	<path d="M313.4,30.2c2.9,0.2,4.7,1.6,7.3-1.5c2.6-3.1,7.6-4.3,11.9-5.2c7.5-1.4,14.9-3.4,22.6-2.5c5.3,0.6,10.6,0.7,15.9,2.5
		c-4.5,2.9-6.1,2.9-10.7-0.3c0.2,2.7-0.6,3.6-3.1,2c-1.8-1.1-3.7-2.5-6.2-2.2c0.5,1.5,2.3,1.8,2,3.6c-3.4,0-6-2.9-9.9-2.6
		c1,0.9,1.6,1.6,2.4,2.2c0.7,0.6,2,1,1.4,2.1c-0.7,1.4-1.7,0-2.4-0.3c-2.3-1-4.6-2.4-7.7-1.9c0.4,0.2,0.9,0.4,1.3,0.7
		c0.9,0.9,3.3,1.1,2.6,2.4c-0.9,1.8-2.8,0.2-4.1-0.3c-3-1.1-6.1-1.7-9.8-1.8c1.4,2.1,3.4,2.7,5,3.6c0.9,0.5,3,0.6,2.2,2.1
		c-0.6,1.2-2.1,0-3.1-0.4c-0.9-0.4-1.8-0.7-2.7-1c-0.9-0.3-2.1-1.2-2,1c0.1,1.4-1.1,1-1.8,0.8c-2.3-0.7-4.6,0.2-7-0.7
		c-1.8-0.7-5.6,3.7-5.4,5.8c0.1,1.1,0.6,1,1.5,0.9c1.4-0.2,2.7-0.2,4.9-0.4c-2,2.4-4.3,3.4-5.5,5.5c1.3,1.2,3-0.5,4.5,0.8
		c-1.7,1.4-4,0.9-5.5,2c-1.2,0.8-4.5,1.5-0.9,3.7c1.1,0.7,1.1,1.7-0.1,2.5c-0.8,0.5-1.5,1.3-1.9,2.1c-1.5,2.5-0.8,3.8,2.1,3.8
		c2.2,0,4.4,0,6.9,0c-0.5,1.8-2,1.6-2.9,1.8c-2.3,0.7-4.6,1.1-6.1,3.4c-0.4,0.6-1.3,1.4-2.1,0.9c-0.9-0.5-0.2-1.5-0.3-2.3
		c-0.6-4.8,1.1-9.3,1.5-14c0.2-2.2,1.8-3.8,3.3-5.4c0.6-0.6,2.6-1.3-0.1-2.9c-2-1.1-0.2-4.3,1-6.4c0.7-1.2,2-2,0.2-3.5
		c-0.9-0.8,0.1-2,0.9-2.8c1.4-1.4,3-2.8,4.5-4c0.9-0.7,2.1-0.9,1.3-2.6c-0.6-1.3,0.5-2.2,1.6-2.8c1.6-0.7,3.3-1.3,4.9-2
		c1.5-0.7,4-0.2,3.9-3.1c0-0.3,1.3-0.8,2.1-1.1c2.8-0.8,5.5-1.4,8.4-1.5c1.6-0.1,3,0.2,4.1-2.1c1.1-2.3,4.3-0.6,6.5-1.3
		c1.2-0.4,2.6,0.1,3.9,0.3c1.9,0.2,3.9,1.6,5.3-1.3c0.4-0.8,2.1-0.6,3.3-0.1c7.3,2.5,13.2,6.8,17.4,13.4c0.9,1.3,1.8,2.8,3.6,3.7
		c0.8-4,0.9-7.9,3.3-11.2c1.4-1.9,2.6-3.7,5.3-3.4c0.2,0,0.5-0.1,0.7-0.1c2,0.1,3.7-2.9,5.2-1.5c1,0.8,0.1,3.6,0.3,5.5
		c0.6,4.9-0.1,9-4.4,12.4c-3.3,2.6-3.1,3.2,0.8,4.8c7.5,3.1,13.1,8.5,18.5,15.7c0.3-4.4,2.5-5.9,5.8-6.3c1.9-0.3,1.2-3.1,3.8-3.7
		c-1.4,6.2,0.6,12.2-0.9,18.2c-0.2,0.9-0.6,1.8-1.6,1.4c-0.9-0.3-0.4-1.1-0.3-1.8c1-4,0.7-8-0.2-12.4c-3.1,1.5-4.6,4-5.6,7.2
		c1.4-0.1,1.3-0.8,1.6-1.2c0.3-0.6,0.1-1.6,1.1-1.5c1.3,0.1,0.9,1.2,1,1.9c0.1,1.8,0.3,3.6,0.1,5.3c-0.2,1.9,0.8,3.1,2.1,3.8
		c1.8,0.9,1.9-1.2,2.7-2c1-1,1.3-2.6,4-3.5c-3.6,4.5-4.9,8.9-6.2,13.4c-0.1,0.5-0.4,1-0.9,0.9c-0.3,0-0.7-0.5-0.7-0.6
		c2.4-3.7-1.4-6-2.6-8.3c-3.5-6.8-6.8-13.9-12.9-19.1c-6.7-5.7-14.5-8.5-23.2-8.8c-2-0.1-2.9-0.7-3.6-2.5c-0.8-2-1.9-3.8-3-5.6
		c-0.7-1-0.9-3.3-3.2-1.4c-0.8,0.7-1.3-1.1-2.1-1.5c-1.7-0.9-3.3-1.8-5-2.8c-0.8-0.4-2.3-0.7-1.8-1.8c0.7-1.4,1.8,0,2.7,0.3
		c0.8,0.2,1.6,0.6,2.2,1.1c1.9,1.8,3.2,1.2,4.4-1.1c-2.9-1.2-4.6-4.4-8-4.7c-0.6-0.1-1.6-0.7-1.6,0.4c-0.1,3.7-2.2,1.8-3.9,1.6
		c-1.6-0.1-3.6-2.9-5,0.8c-0.4,1-2.7-0.8-4.2-1c-1.5-0.2-3.5-2-3.3,1.6c0.1,1.2-1.3,1-2.3,0.9c-2.6-0.4-5.3,0-7.8,0.5
		c-1.1,0.2-2.9-0.5-2.5,2.4c0.2,1.9-3.2,1-4.7,2c0.4,1.1,1.2,0.6,1.8,0.6c0.6,0,1.2,0.2,1.3,0.9c0.1,1.1-0.8,0.9-1.5,1
		c-1.5,0.1-3.1-0.1-4.6,0.2c-1.1,0.2-3.6-0.6-2.4,2.4c0.4,1-1.1,1-1.8,1.3C318,25.6,315.7,27.5,313.4,30.2z M396.8,10.4
		c-3.4,4-6.6,8-7.4,13.4c-0.2,1.1,0,1.9,0.9,2.4c0.7,0.4,1-0.1,1.5-0.5C396.3,21.7,399.4,17.1,396.8,10.4z M388.1,19.9
		c2-4,4.2-6.5,6.6-9.5C389.4,10.7,387.8,12.8,388.1,19.9z"/>
	<path d="M334.4,41.5c4.4,0.6,8.9,0.8,13.2,2.5c-6.2,1.5-12.8-0.2-19.7,2.5c3,0.3,5.1,0.5,7.3,0.9c1,0.2,2.6-0.1,2.4,1.4
		c-0.1,1-1.5,0.9-2.4,0.9c-4.4,0.1-8.8,0.5-13.1,1.5c-1,0.2-2,0.6-3.4,1.1c2,0.5,3.4,0.1,4.8-0.1c0.8-0.1,1.9-0.4,2,0.8
		c0.1,0.9-0.8,1-1.5,1.1c-3.6,0.6-7.1,1.7-10.6,4c-0.2-2.8,0.3-4.9,1.8-6.6c13.9-14.8,30.9-23.1,51.2-24.5c1.6-0.1,3.3,0.2,5,0.4
		c0.6,0.1,1.2,0.6,1.1,1.2c-0.1,0.7-0.8,0.7-1.4,0.8c-1.2,0.1-2.4,0.2-3.6,0.3c-1,0.1-2.1,0.2-3.1,0.4c0.1,0.4,0,0.7,0.2,0.8
		c1.1,0.9,3.9,1,3.5,2.3c-0.6,2-2.7,0.1-4-0.1c-5.1-0.7-10.2-0.4-15.5,0c4.3,1,8.4,2.4,12.3,4.7c-7.7,0-15.2-2-22.9-0.6
		c5.2,0.9,10.5,1.7,15.7,2.8c0.9,0.2,2.9-0.1,2.5,1.7c-0.4,1.4-1.9,0.5-2.8,0.3C347.1,40.7,340.8,41.1,334.4,41.5z"/>
	<path d="M379.3,50c2.8-0.4,3.6,1.8,4.7,3.5c3.4,5,5.8,5.8,11.5,4.2c1.6-0.4,1.9-0.9,1.1-2.4c-2.3-4.1-2.5-8.8-2.7-13.7
		c4.5,4.5,9.9,7.7,15.7,11.9c-4.3-9.7-11.1-15.7-19.9-19.4c-4.3-1.8-6.3,2.2-8.6,4.6c-2.2,2.3-4.1,5-7.3,6.1
		c-0.6,0.2-1.2,0.3-1.6-0.2c-0.4-0.7,0.2-1.2,0.7-1.4c4.6-1.7,6.6-6,9.4-9.5c-2.3-0.2-2.3-0.2-4.4,3.2c-0.4,0.7-0.8,1.5-1.7,1.7
		c-0.4,0.1-0.5-0.2-0.8-2.3c-1.5,0.3-1.9,1.6-2.7,2.6c-0.5,0.7-0.7,2.2-1.9,1.6c-1.3-0.7,0-1.5,0.4-2.3c0.3-0.5,0.6-1.1,0-1.7
		c-0.9-0.2-1.6,0.5-1.8,1.2c-1,3.4-3.5,4-6.5,3.8c-0.4,0-1,0.3-1.3-0.2c-0.4-0.6-0.2-1.3,0.3-1.6c5.3-3.9,10.3-8.6,17.6-8.3
		c0.6,0,1.2,0.2,1.8,0.1c13.1-0.9,21.1,6.8,27.8,16.7c3.6,5.2,5.5,11.3,9,16.6c0.8,1.2,1.2,1.9-1,1.9c-6.6,0-12.4-3-18.7-4.1
		c-1.2-0.2-2.3-0.9-3.4-1C387.3,60.9,382.8,56.3,379.3,50z M403.4,59.9c-1-1.7-1.5-2.6-2-3.4c-0.5-0.8-2-1.8-0.9-2.6
		c1.5-1.2,1.7,1,2.6,1.6c0.6,0.4,0.9,1.1,1.4,1.6c3.2,2.7,6.4,5.3,11.1,7.4c-4.6-9.2-12.9-12.9-19.8-18.9
		C396.1,51.4,397.8,56.1,403.4,59.9z"/>
	<path d="M187.2,139.4c-2.1,0.9-4.1,1.9-6.8,3.1c1.4-3.6,4.8-3.8,6.5-6.1c-0.5-1.3-2.8-1.6-2.3-3c0.4-1,2-1.6,3.1-2.3
		c1.7-1.1,4.6-0.9,4-4.3c-0.1-0.3,1-0.9,1.5-1.3c0.4-0.4,1.4-0.6,1.1-1.2c-1.9-4.3,2-4.3,4.1-5.3c1.4-0.7,2.5-0.9,2.5-3.1
		c0.1-2.5,3-2.7,4.7-2.7c5.3,0,9.4-2.5,13.7-5.1c1-0.6,2.4-1.3,3.3-1.1c4.7,1.1,8-2.3,12-3.4c2.8-0.8,6.4-2.2,9.2,0.6
		c0.8,0.8,1.4,0.4,2.2,0.1c2.6-1.1,4.9-1,6.4,1.8c0.4,0.8,0.9,1.3,2,0.7c3.8-2,4.2,1.6,5.7,3.4c-2.2-1.3-4-3.7-7-1.1
		c-0.8,0.7-1.3-1-1.8-1.8c-1.1-1.7-2.1-2.6-3.8-0.6c-1.6,1.9-2.9,0.5-4.2-0.7c-2.3-2.1-5.5-2-7.2,0.5c-1,1.4-2.1,1.2-3.4,0.7
		c-1.4-0.5-2.7-0.7-3.3,1.4c-0.6,2.1-2.1,0.9-3.2,0.5c-1.7-0.6-3.2-1.9-3.5,1.5c-0.2,1.8-2.1,1.1-3.3,0.7c-1.5-0.6-2.3-0.3-3.7,0.7
		c-2.6,1.9-5.8,2.4-9.1,2.8c-1.4,0.1-3.4-0.2-2.6,2.8c0.5,1.7-2.2,1.7-3.4,2.3c-1.3,0.7-4.3,0-2.6,3.3c0.3,0.5-0.5,1.5-1.3,2
		c-1.9,1.3-3.9,2.1-4,5.2c-0.1,2.1-3.9,1.2-5.3,3.4c3.7,2.1,0.8,3.8-0.5,5.7C187.1,139.5,187.2,139.4,187.2,139.4z"/>
	<path d="M267.1,119.6c-0.9,1.3-0.9,2.7-0.4,4c0.8,1.9-0.2,3.2-1.1,4.5c-0.9,1.6-2.2,1.7-3.4,0.1c-1.6-2.1-3.4-4.1-4.6-6.3
		c-2.6-5-7-8.5-10.4-12.9c5.9,3,10.8,7.4,15.3,12.2c2.2-3.8,2.1-6.9-0.2-10c-0.5-0.6-2.2-1-0.9-2.1c1-0.9,1.9,0.2,2.6,1
		c3.1,4,7.7,7.3,6.8,14.2c3.4-3.8,5-8.3,9.7-9c1.4-0.2,3,0.3,3.8,2.1c-6.3-0.3-9.7,2.3-11.6,8.8c-0.4,1.2,0,3.4-2.2,2.8
		c-1.8-0.5-2.8-1.9-2.3-4.1C268.9,121.5,268.7,121.5,267.1,119.6z"/>
	<path d="M335.1,54.4c0.1,2,3.3,1.4,2.6,3.1c-0.9,1.9-2.7,0-4.1-0.1c-1.5-0.1-3-0.8-4.6-0.3c0.7,2,3.6,1,4.3,3.4
		c-3.2,0.1-6.1-1.2-9.1-0.6c0,0.2-0.1,0.5,0,0.6c1,1.1,3.8,0,3.5,2c-0.3,1.7-2.5,0.3-3.8,0.6c-1.7,0.4-3.4,0.4-5.3,0.6
		c1.2,1.7,4.6,0.2,4.1,2.6c-0.3,1.4-2.9,0-4.5-0.1c-1.1,0-3.1,1.4-3.6-0.9c-0.4-1.8,1.4-2.3,2.4-3.2c7.1-6,15.9-8.9,24.3-12.6
		c0.9-0.4,2.3-1.1,2.7,0.4c0.3,1.2-1.4,0.9-2.1,1.4c-0.8,0.6-3.3,0.3-1.6,2.7c0.6,0.8-0.7,1-1.3,0.7C337.6,54,336.5,53.5,335.1,54.4
		z"/>
	<path d="M470.8,104.2c5,2.4,7.9-0.9,10.9-4.6c3.7-4.5,7.7-8.8,11.7-13c0.8-0.8,1.7-2.8,2.9-1.7c1.2,1.1-0.8,1.9-1.5,2.7
		c-5,5.8-10.1,11.4-15.2,17.1c-1.3,1.5-2.8,2.4-4.9,2.3c-3.3-0.2-6.3,1.2-9.3,2.3c-1.1,0.4-2,0.8-2.7-0.4c-0.8-1.4,0.4-1.9,1.2-2.5
		C465.9,105.1,468.1,104.5,470.8,104.2z"/>
	<path d="M207.6,118.3c4.5-1.6,8.2,0.2,11.7,2c5.8,3,11.4,6.4,17,9.6c0.9,0.5,2.5,1.1,1.6,2.6c-0.9,1.4-2.3,1.5-3.7,0.4
		c-3.4-2.4-7.1-4.4-10.1-7.2c-3.9-3.7-8.9-4.8-13.7-6.4C209.5,119,208.6,118.6,207.6,118.3z"/>
	<path d="M218.1,114.2c4.2,1.2,7.8,3.6,11.5,5.9c0.8-1.1-0.3-1.5-0.5-2.2c-0.2-0.5-0.1-1,0.3-1.2c0.5-0.3,1-0.1,1.2,0.4
		c3.1,5.7,9,8.3,13.7,12.3c0.7,0.6,1.7,1.3,0.9,2.3c-0.7,0.9-1.9,1-2.8,0.1c-3-3-6.5-5.5-9.8-8.2c-2.5-2-5.7-3.8-8.8-5.3
		c-2.1-1-4.1-2.1-6.1-3.2C217.8,114.8,218,114.5,218.1,114.2z"/>
	<path d="M245.7,140.7c0.4-0.1,0.7-0.2,1.1-0.2c1,0,2.4-0.8,2.6,0.8c0.1,1.2-0.8,2.2-2.2,2.4c-3.9,0.5-7.8,1.1-11.7,1.5
		c-3.7,0.4-7.3,0.6-11,0.8c-0.7,0-1.6,0.6-1.8-0.4c-0.3-1.2,1-1.2,1.7-1.3c7.1-1.3,14.2-2.5,21.3-3.8
		C245.7,140.6,245.7,140.6,245.7,140.7z"/>
	<path d="M258.4,129.7c-2.2,0.7-3.2-0.9-4.3-2.3c-5.6-6.7-11.9-12.7-19.6-17c-0.5-0.3-1.6-0.4-1-1.4c0.4-0.6,1-0.4,1.6-0.1
		c9.1,5.3,17.6,11.4,23.4,20.4C258.5,129.4,258.4,129.5,258.4,129.7z"/>
	<path d="M205.4,121c6.1,2.1,11.6,4.3,16.8,7.1c2.8,1.5,5.4,3.5,8,5.3c0.6,0.4,1.4,0.7,1.2,1.5c-0.3,1.2-1.4,0.6-2.2,0.6
		c-0.7,0-1.4-0.2-2-0.6c-6.6-5-13.8-8.9-21.2-12.3C205.9,122.5,205.9,122.2,205.4,121z"/>
	<path d="M252,129.7c-2,1.2-4,1-5.3-0.8c-5-6.8-11.3-12-18.9-16.1C231.4,111.8,248.1,123.8,252,129.7z"/>
	<path d="M220.2,148.7c8.6-0.6,16.3-2.2,24.8-3.6c-2,3.4-4,4.7-7.3,4.6c-4.5-0.1-9,0.2-13.5,0.2C223.1,150,221.9,150.6,220.2,148.7z
		"/>
	<path d="M207.2,127c-0.1-0.6-0.5-1.2-0.3-1.7c0.1-0.4,0.9-0.6,1.2-0.2c3.8,5.1,10.4,5.4,15,9.2c1.5,1.2,2,2.4,1,4.2c0,0,0,0,0,0
		c-2.7-2-5.4-4-8.6-5.1c-3.6-1.3-6.5-3.2-8.4-6.5L207.2,127z"/>
	<path d="M468.4,117.7c3.5-1.8,5.3-5.6,9-6.9c-0.2,2.1-2,3-3,4.3c-1.1,1.5-3.3,2.3-2.3,4.9c0.2,0.4-0.6,3-2.9,1.3
		c-3.9-2.8-4.2-3.7-1.3-7.5c0.1-0.1,0.1-0.2,0.2-0.3c1.2-0.7,1.3-3.7,2.5-2.8c1.8,1.4-0.5,3-1.4,4.5
		C468.8,115.8,467.9,116.3,468.4,117.7z"/>
	<path d="M191.6,135.8c6-0.1,11.8,0.3,17.3,2.4c0.8,0.3,2,0.7,1.8,1.9c-0.2,1.4-1.6,0.6-2.3,0.9c-2,0.9-3.9,0.4-5.7-0.8
		C199.3,137.9,195.3,137.4,191.6,135.8z"/>
	<path d="M470.7,124.3c2.6,5.5,2.2,6.6-2.6,6.9c-1,0.1-1.8,0-2.5,0.8c-0.7,0.8-1.5,1.2-2.5,0.7c-0.5-0.2-0.7-0.9-0.3-1.2
		c0.9-0.6,0.2-2.3,2.2-2.3C467.5,129.2,469.9,128,470.7,124.3z"/>
	<path d="M347.7,14.6c0.6-1.5,1.5-1.3,2.3-1.1c3.7,0.8,7.4,1.6,10.9,3.4c0.7,0.3,1.2,0.8,1,1.7c-0.1,0.2-0.7,0.5-0.9,0.4
		C357,16.4,352.2,16.1,347.7,14.6z"/>
	<path d="M350.9,49.4c-0.3-0.3-0.8-0.5-1-0.9c-0.4-0.6-0.1-1.2,0.3-1.6c2.1-1.9,4.7-3.1,7.3-4.2c0.3-0.1,1,0,1.2,0.3
		c0.3,0.4,0.1,1-0.4,1.2c-2.5,1.1-4.7,2.6-6.5,4.7C351.7,49.2,351.3,49.2,350.9,49.4z"/>
	<path d="M329.1,36.4c-3.1,2-5.7,1.9-8.4,1.8c-0.5,0-1.3,0.3-1.4-0.6c-0.2-0.7,0.4-1.1,0.9-1.3C322.9,35.5,325.7,34.8,329.1,36.4z"
		/>
	<path d="M345.3,19c-3.4,0.3-6.7-0.5-10.9-1.5C338.3,16.4,340.5,16.7,345.3,19z"/>
	<path d="M428.1,80c2.7,3.3,1.8,7.3-2.1,9.6C427.5,86.6,428.9,83.5,428.1,80z"/>
	<path d="M454,120.8c-0.7-0.5-1.1-0.6-1.3-0.9c-0.6-0.8-0.2-1.5,0.2-2.3c0.9-1.6,4.3-1.4,3.2-4.6c-0.1-0.3,1-0.2,1.4,0.2
		c1.1,1,0.8,2.1,0,3.2C456.4,118,453.5,117.8,454,120.8z"/>
	<path d="M207.1,126.9c0,0.9,0.8,2.5-1.3,1.8c-2-0.6-3.9-1.2-6.6-2.1c3.3-1.3,5.6,0.8,8,0.4C207.2,127,207.1,126.9,207.1,126.9z"/>
	<path d="M468.6,54.9c-0.8,1.2-2,0.5-2.9,0.6c-1.2,0.1-2.1-0.5-2.6-1.6c-0.1-0.2,0-0.8,0.3-0.9c1-0.7,1.8,0.1,2.6,0.4
		C466.8,53.8,468.2,53.5,468.6,54.9z"/>
	<path d="M392.1,69.2c-3.9,1-7.7,2.3-10,6.1c0.6-4.6,4.7-5.7,8-7.7C391.1,67.8,392.4,67.5,392.1,69.2z"/>
	<path d="M329.4,143.9c-1.6-1.7-3.4-0.7-5-0.3c-3,0.8-5.9,0.1-8.9-0.1c-0.7-0.1-1.5-0.4-1.4-1.3c0-0.7,0.8-0.7,1.4-0.8
		c4.5-0.8,9-1,13.5,0C331,142,330.3,143,329.4,143.9C329.3,144,329.4,143.9,329.4,143.9z"/>
	<path d="M288.4,224.6c3,3.6,3.6,7.2,4.4,10.7c1.4,6.2,2.6,12.5,3.9,18.8c0.5,2.7,1.4,5.3,2.9,7.6c0.4,0.7,0.7,1.4-0.1,1.9
		c-0.9,0.5-1.2-0.5-1.5-1c-4.3-8-7.7-16.3-8.3-25.5C289.4,233.3,288.9,229.4,288.4,224.6z"/>
	<path d="M292.5,261.9c-7.7-3.9-10-21.7-6.5-31.3C285.5,241.4,288.1,251.6,292.5,261.9z"/>
	<path d="M257,228.2c-0.8-1.1-0.5-1.7-0.1-2c5.6-5,11.7-9,19.6-8.7c0.9,0,2.3-0.2,2.4,0.9c0.1,1.3-1.4,0.9-2.2,1.2
		C270.1,222.3,262.7,223.3,257,228.2z"/>
	<path d="M280.3,233.1c-0.6,3.7,0.4,7.3,0.6,11c0.2,3.5,1.5,6.8,3.2,10.5C276.7,249.7,275.8,238.9,280.3,233.1z"/>
	<path d="M273.6,215.1c-4.7,1-8.9,3-13.2,5.1C261,216.2,266.9,213.9,273.6,215.1z"/>
	<path d="M400.4,93.8c-1.1,0.6-2.3,2.8-3.4-0.1c-0.2-0.5-0.7-0.6-1.2-0.5c-4.3,0.7-1.2-3.3-2.7-4.4c-0.2-0.2,0.9-0.7,1-0.5
		c2,2.8,4.3-1.2,6.2,0.2c0.5,0.4-0.1,1.1-0.6,1.4C397,91.9,398.8,92.8,400.4,93.8C400.4,93.8,400.4,93.8,400.4,93.8z"/>
	<path d="M392.5,81.8c-1-0.6-3.5,0.7-3.6-1.4c-0.1-1.6,2-1,3.2-1.1c1.2-0.1,2.6-0.2,2.6,1.5C394.8,81.9,393.8,82.2,392.5,81.8z"/>
	<path d="M393.4,87.9c-1.1-0.4-2.2-0.8-2-1.6c0.3-1.8,2.1-2,3.5-2.5c0.6-0.2,1.4-0.1,1.4,0.7C396.1,86.3,393.6,86.1,393.4,87.9z"/>
	<path d="M403.8,78.1c0.2,0.7-0.3,1.1-0.9,1c-1.3-0.4-3.1-0.2-3.6-1.8c-0.4-1.2,0.8-1.4,1.7-1.7C403.4,74.9,402.8,77.2,403.8,78.1z"
		/>
	<path d="M511.1,95.3c-3.4-1-5.1-3.3-5.8-6.4c-0.7-2.9-1.1-5.9-4.4-7.3c-0.4-0.2-0.9-0.5-0.6-1.1c0.3-0.6,0.9-0.8,1.5-0.6
		c1.8,0.6,3.3,1.8,3.8,3.5C507.1,87.6,507.4,92.1,511.1,95.3z"/>
	<path d="M479.6,67.1c4.3-1.9,6.9-5.9,11.1-8.5C489.8,62.5,483.3,67.6,479.6,67.1z"/>
	<path d="M483.6,59.6c1.7-1.6,3.5-3.1,6-3.4c0.4-0.1,1,0.1,1.3,0.4c0.2,0.2-0.1,1.2-0.3,1.2c-3.7,0.5-5.5,3.9-8.4,5.5
		c-0.5,0.3-1.1,0.4-1.7-0.2c0.2-2,3.2-1.6,3.2-3.7C483.7,59.5,483.6,59.6,483.6,59.6z"/>
	<path d="M549.5,18.6c0.8-0.2,1.9,0.3,1.6,0.8c-1.2,2.2-4,1.2-5.9,2.4c-0.4,0.3-1.3-0.4-0.9-1C545.5,18.9,547.7,19,549.5,18.6z"/>
	<path d="M536.1,37.1c-0.4,0.9-0.9,1.4-1.9,1.3c-1.6-0.1-2.8,1.6-4.5,0.8c-0.2-0.1-0.2-0.6-0.1-0.9c0.3-0.9,5.4-2.5,6.1-1.9
		C535.9,36.5,536,36.9,536.1,37.1z"/>
	<path d="M542.4,24.8c1.1-0.1,2.2,0.3,1.9,0.9c-1.3,1.9-3.9,1.2-5.7,2.2c-0.7,0.4-1.3-0.4-1.1-0.8C538.6,25,540.9,25.4,542.4,24.8z"
		/>
	<path d="M539.9,31.3c0,1-0.8,1.7-1.5,1.7c-1.4,0-2.6,1.4-4,0.6c-0.1-0.1-0.2-0.8,0-0.9c1.3-1.3,2.9-2,4.7-2.3
		C539.6,30.4,539.8,30.8,539.9,31.3z"/>
	<path d="M152.2,257.2c3.8-1,7.1-0.4,10.3,0.8c3,1.1,5.8,2.6,8.7,4c0.7,0.3,1.7,0.9,1.2,1.9c-0.5,1.1-1.5,0.4-2.2,0.2
		c-0.9-0.2-1.6-0.9-2.5-1.2c-4.2-1.6-8.1-3.9-12.8-4C154.1,258.8,153.1,258.6,152.2,257.2z"/>
	<path d="M149.1,271.3c-2-0.3-3.9-0.9-5.6-2.1c-3.5-2.4-7.6-3-11.9-4c1.1-1.7,2.7-1.2,3.9-1c4.5,0.8,9,2,13.1,4.2
		c1.9,1,1.7,1.8,0.3,3C149,271.4,149.1,271.3,149.1,271.3z"/>
	<path d="M147.1,259.7c6.8-0.8,12.9,0.9,18.6,4.3c0.6,0.3,1.4,0.7,1,1.6c-0.3,0.8-1.2,1-1.8,0.7C159.5,263,153.5,261,147.1,259.7z"
		/>
	<path d="M116,268.6c6-2.1,10.6,1.9,15.8,3.5C125.9,273.3,121.2,270,116,268.6z"/>
	<path d="M125.3,266.1c5.7,0.6,11.2,1.8,15.8,5.6C134.9,272.6,131.1,266.6,125.3,266.1z"/>
	<path d="M143.7,263c5.3-0.1,9.9,1.9,14,5.2C152.8,266.9,148.4,264.6,143.7,263z"/>
	<path d="M172.3,252.7c3.3,0.5,4.8,2.8,6,5.3c0.4,0.9,0.1,1.6-0.7,2.1c-0.8,0.4-1.5,0.2-1.7-0.6
		C175.3,256.9,173.4,255.1,172.3,252.7z"/>
	<path d="M162.5,250.8c1.2-1,2.3-1.3,3.3,0.4c0.6,1,1.6,1.8,2.2,2.8c0.6,1.1,2.3,2.8,0.5,3.7c-1.6,0.8-1-1.6-1.7-2.3
		C165.4,253.8,163.9,252.3,162.5,250.8C162.5,250.8,162.5,250.8,162.5,250.8z"/>
	<path d="M180.1,252.5c2.7,1.1,3.5,3.1,3.9,5.4c0.1,0.9,0.3,2-1.1,2c-0.9,0-1.6-0.5-1.3-1.6C182.1,256.2,179.3,255,180.1,252.5z"/>
	<path d="M226.8,386.3c0.3,5.5-2.5,10.1-4.1,15c-0.2,0.6-0.6,1.2-1.3,0.8c-0.9-0.5-0.6-1.5-0.3-2.2c2.5-8,0.9-15.8-1-23.5
		c-0.9-3.5-3-6.4-4.8-9.5c-0.5-0.8-1.9-2.2-0.2-3c1.3-0.6,1.6,1,2.2,1.9c3.3,4.8,7.2,9.1,8.7,15
		C226.5,382.6,226.9,384.4,226.8,386.3z"/>
	<path d="M335.9,92.1c0.5,3.9,0.1,7.6-1,11.3c-0.3,1-0.6,2.1-1.1,3c-0.5,0.9,0.2,3-1.6,2.6c-1.2-0.3-0.5-2.1-0.2-2.8
		C334.1,101.7,334,96.7,335.9,92.1z"/>
	<path d="M217.7,273.8c-3.9-2.3-3.7-7.3-7.2-9.9C216,265,215.2,270.5,217.7,273.8z"/>
</g>
</svg>
