<?xml version="1.0" encoding="utf-8"?>
<!-- Generator: Adobe Illustrator 21.1.0, SVG Export Plug-In . SVG Version: 6.00 Build 0)  -->
<svg version="1.1" id="Layer_1" xmlns="http://www.w3.org/2000/svg" xmlns:xlink="http://www.w3.org/1999/xlink" x="0px" y="0px"
	 viewBox="0 0 334.2 600" style="enable-background:new 0 0 334.2 600;" xml:space="preserve">
<g>
	<path d="M178.7,598.3c-1.3,0.1-2.4,0.2-3.4,0.2c-5.1,0-10.1-0.3-15.1-0.8c-3.4-0.3-6.7-1-10.1-1.5c-2.3-0.3-4.6-0.7-6.9-1.1
		c-1.2-0.2-2.4-0.4-3.6-0.8c-3.8-1-7.6-1.8-11.2-3.1c-5.8-2.1-11.8-3.5-17.5-5.6c-1.8-0.7-3.7-1-5.5-1.7c-6.3-2.3-12.6-4.6-18.8-7.1
		c-2.7-1.1-5.3-2.4-7.9-3.6c-2.8-1.3-5.5-2.8-8.2-4.1c-2.6-1.2-5.1-2.7-7.4-4.5c-0.5-0.4-1-0.9-1.6-1.1c-3-1.1-5.5-3.1-8.1-4.9
		c-1.2-0.8-2.3-1.6-3.4-2.5c-1.4-1.1-2.7-2.1-3.8-3.5c-1-1.3-2.2-2.5-3.5-3.5c-2.1-1.6-3.9-3.5-5.6-5.6c-1.9-2.4-3.9-4.7-6-7
		c-1.4-1.5-2.5-3.3-4.2-4.6c-0.1-0.1-0.2-0.3-0.3-0.4c-1.3-2-2.6-4-3.9-6c-0.8-1.3-1.4-2.8-2.4-4.1c-0.3-0.3-0.4-0.7-0.6-1.1
		c-1.8-3.9-3.5-7.9-5.3-11.8c-1-2.2-1.9-4.4-2.6-6.7c-0.5-1.6-1.2-3.1-1.8-4.6c-0.9-2.1-1.7-4.3-2.2-6.5c-1-3.8-1.6-7.6-2.9-11.3
		c-0.9-2.6-1.3-5.3-1.5-8c-0.2-2.7-0.3-5.5-0.6-8.2c-0.1-1.3-0.4-2.6-0.6-3.9c-0.5-3-0.5-6.1-0.6-9.1c-0.1-1.7,0.4-3.3,0.3-4.9
		c-0.1-2.2,0-4.5-0.1-6.7c0-2,0-4,0.4-5.9c0.4-2,0.7-4.1,0.8-6.2c0-0.2,0-0.5,0.1-0.7c1.1-3.5,1.1-7.2,2.3-10.7
		c0.8-2.5,1.1-5.2,1.6-7.8c0.6-3,1.2-6,1.9-9c0.5-2,1.3-3.9,2-5.9c0.6-1.6,1.2-3.3,1.8-4.9c0.4-1.2,0.8-2.3,1.2-3.5
		c0.9-3.2,2-6.3,3.5-9.3c1.3-2.5,2.2-5.2,3.5-7.7c2-3.8,3.5-7.9,6-11.4c1.4-1.9,2.6-3.9,4-5.7c1.5-1.9,2.8-3.9,4.1-5.9
		c1.8-2.9,3.8-5.7,5.7-8.4c2-2.9,3.8-5.8,5.8-8.7c2.6-3.7,4.9-7.7,7.5-11.5c2.1-3.1,3.9-6.3,6.4-9.2c1.8-2.1,3.3-4.6,4.5-7.1
		c0.6-1.3,1.3-2.5,2.1-3.7c1.3-2,2.5-4.1,3.5-6.3c0.8-1.8,2.2-3.1,3.3-4.7c1.1-1.7,2.2-3.3,3.1-5.1c1.5-2.7,3.3-5.2,4.8-7.8
		c2.9-5.4,6.2-10.6,8.5-16.3c1.7-4.4,3.7-8.7,6.1-12.8c1.1-1.9,2-4,2.6-6.2c0.7-2.4,1.6-4.7,2.6-7c0.8-1.7,1.4-3.4,1.8-5.2
		c0.4-2.1,1.1-4.2,2.8-5.7c0.2-0.2,0.3-0.4,0.4-0.6c0.5-1.4,1.1-2.8,1.5-4.2c0.9-3.1,1.7-6.2,2.5-9.4c0.1-0.5,0.2-1,0.3-1.5
		c0.4-2.3,0.9-4.5,1.7-6.7c0.6-1.6,0.9-3.4,1.2-5.1c0.5-2.4,1.3-4.6,2-6.9c1-3,1.8-6,2.2-9.2c0.3-2,0.9-4,1.4-6
		c0.6-2.3,1.5-4.6,2.1-6.9c0.3-1.2,0.6-2.4,0.8-3.6c0.4-2.1,0.9-4.2,1.4-6.3c0.8-3.3,1.4-6.7,2-10c0.7-3.3,1.3-6.7,2-10
		c0-0.2,0-0.3,0.1-0.5c1.1-2.6,1.4-5.5,1.7-8.3c0.3-2.9,1.1-5.7,1.9-8.5c1.6-5.9,3.4-11.8,4.7-17.8c0.1-0.2,0.1-0.5,0.2-0.7
		c0.7-5.8,2.5-11.3,4.1-16.9c0.4-1.3,1.1-2.6,1.6-3.9c0.9-2.1,2-4.2,2.9-6.3c0.7-1.8,1.8-3.6,3.2-5c0.5-0.5,0.9-0.9,1.3-1.5
		c1.1-1.4,2.3-2.8,3.7-4c1.1-0.9,1.6-2,1.6-3.5c0-3.4,0.1-6.8-0.1-10.2c-0.2-4.8-0.6-9.6-0.8-14.4c-0.1-1.6,0.1-3.3,0.2-5
		c0.1-2.3,0-4.6,0.4-6.9c0.6-3.6,1.5-7.2,2.9-10.5c0.7-1.6,1.7-3.1,2.5-4.5c0.3-0.6,0.9-1,1.5-1.2c4.1-1.4,8.5-0.3,10.8,3.3
		c0.8,1.2,1.4,2.5,1.7,3.8c0.7,2.4,1.2,4.8,1.8,7.2c0.9,3.7,1.3,7.5,2.1,11.2c0.5,2.1,0.9,4.2,1.4,6.3c0.5,2,0.7,4.1,0.9,6.1
		c0.2,2.9,0.8,5.7,1,8.6c0.1,1.7,0.9,3.2,1.6,4.7c0.2,0.5,0.6,0.8,1,1.1c1,0.6,1.9,1.3,2.9,2c3.8,2.5,6.9,5.7,9.4,9.4
		c0.6,0.9,1.4,1.6,2.1,2.5c1.7,2.1,3.1,4.4,4,7.1c0.8,2.4,1.5,4.9,2.1,7.4c0.7,2.7,1.6,5.4,2.3,8.1c0.3,0.9,0.5,1.8,0.7,2.7
		c0.3,1.6,0.5,3.3,1.5,4.7c0.2,0.3,0.2,0.6,0.3,0.9c0.5,4.2,1.1,8.4,1.6,12.6c0.5,4.1,1.1,8.2,1.6,12.3c0.3,2.1,0.4,4.3,0.7,6.4
		c0.5,3.4,1,6.9,1.6,10.3c0.2,1.4,0.3,2.8,0.4,4.2c0,1,0.1,2,0.5,2.9c1.7,4.5,2.6,9.3,3.6,14c1.1,4.9,2,9.7,3.2,14.6
		c0.8,3.4,1.8,6.7,2.6,10.1c1.2,4.8,2.8,9.6,4.2,14.3c0.7,2.2,1.1,4.5,1.6,6.8c0.6,2.9,1.4,5.8,2.5,8.6c0.6,1.5,1.2,3.1,1.6,4.7
		c0.5,1.9,1,3.8,1.8,5.7c0.7,1.7,1,3.5,1.6,5.2c2.3,6.2,3.8,12.7,5.8,19c0.3,0.9,0.6,1.9,1,2.8c1.2,2.5,1.9,5.1,2.5,7.8
		c0.7,3.1,1.8,6,3,8.9c1.2,2.8,2.4,5.6,3.5,8.5c2,5.3,4.8,10.2,7.9,14.9c3.6,5.7,7.4,11.4,11.1,17.1c1.6,2.4,3,5,4.6,7.4
		c1.9,2.9,4,5.7,6.1,8.5c0.9,1.3,1.8,2.6,2.6,4c0.9,1.6,1.9,3.1,2.8,4.7c0.2,0.3,0.3,0.6,0.6,0.8c2.1,1.6,3.3,3.9,5,5.8
		c2.4,2.6,4.4,5.6,6.9,8.1c0.5,0.5,0.9,1.2,1.2,1.9c1.4,2.9,3.3,5.6,4.6,8.5c0.4,1,1.2,1.8,1.7,2.7c2.1,3.7,4,7.4,5.8,11.3
		c0.1,0.2,0.2,0.4,0.4,0.7c2.5,4.1,4.2,8.7,5.9,13.1c1.1,2.9,2.5,5.6,3.3,8.6c0.3,1.1,0.6,2.2,0.9,3.4c0.7,3.2,1.5,6.5,2.1,9.7
		c0.5,2.6,1.2,5.2,1.5,7.8c0.5,4.2,1.1,8.4,1.3,12.6c0.3,5.7,0.4,11.4,1.2,17.1c0.2,1.3,0.1,2.6,0.2,4c0,0.9,0,1.8,0.1,2.7
		c0.4,3.5,0.3,6.9,0,10.4c-0.1,0.8-0.1,1.7,0,2.5c0,1.2-0.1,2.5-0.4,3.7c-0.4,1.7-0.6,3.4-1,5.1c-0.6,2.9-1.1,5.9-1.8,8.8
		c-0.5,1.9-1.3,3.8-1.9,5.6c-0.3,0.9-0.6,1.7-0.7,2.6c-0.1,0.5-0.2,1-0.4,1.4c-1.2,2.1-1.7,4.4-2.7,6.6c-0.9,2.2-1.7,4.5-2.6,6.7
		c-0.8,1.9-1.8,3.7-2.8,5.5c-0.4,0.8-0.8,1.6-1.3,2.4c-1.9,3.1-2.9,6.7-4.8,9.8c-1.1,1.7-2.2,3.3-3.1,5.1c-0.6,1.2-1.4,2.3-2.2,3.3
		c-1,1.2-2.1,2.3-2.9,3.7c-0.2,0.3-0.5,0.5-0.7,0.7c-1.8,1.3-3.3,3-5,4.4c-3.6,3-6.9,6.5-10,10c-2.7,3-5.8,5.4-9.1,7.7
		c-1.9,1.3-3.8,2.7-5.8,3.8c-0.7,0.4-1.4,0.9-2,1.5c-1.4,1.3-2.9,2.4-4.5,3.5c-4.7,3.2-9.7,5.8-14.9,7.9c-0.6,0.3-1.2,0.6-1.8,0.9
		c-0.9,0.6-1.9,1.1-2.9,1.5c-1.2,0.4-2.2,1-3.3,1.8c-0.7,0.5-1.5,1-2.4,1.4c-2.3,1-4.5,2-6.8,3.1c-0.5,0.2-0.9,0.4-1.4,0.5
		c-1.6,0.2-3,0.9-4.5,1.4c-0.8,0.3-1.5,0.6-1.7,1.6c-0.1,0.5-0.6,0.8-1.1,0.9c-4.5,0.6-8.7,2.2-13,3.3c-2.5,0.6-5,1.1-7.5,1.5
		c-1.9,0.3-3.8,1-5.8,1.5c-2.4,0.6-4.8,1.2-7.3,1.1c-1.8,0-3.6,0.5-5.4,0.5C183.3,598.4,180.9,598.6,178.7,598.3z M163.7,544.5
		C163.7,544.5,163.7,544.4,163.7,544.5l-0.1-0.2L163.7,544.5z M180.9,560.6C180.9,560.6,180.9,560.6,180.9,560.6l0.1,0.2
		L180.9,560.6z M240.2,554.7c0.2-0.2,0.4-0.3,0.5-0.5c0.5,0,0.9-0.2,1.3-0.5c0.8-0.5,1.7-0.9,2.5-1.3c-0.3,0.4-0.7,0.9-1,1.3
		c-2.7,1.1-4.5,3.3-6.3,5.4c-0.1,0.1-0.1,0.3-0.2,0.4c-0.1,0.3,0.3,0.8,0.6,0.9c0.4,0,0.7,0,0.9-0.3c1.8-1.7,3.6-3.5,4.9-5.6
		c0.2-0.3,0.2-0.6,0-0.9c1,0.2,0.8-0.8,1-1.2c-0.1-0.8,0.6-0.6,1-0.8c0.4-0.2,0.8-0.2,1.1,0.3c0.2,0.4,0.4,0.8,0.2,1.2
		c-0.5,1-1.1,1.8-1.9,2.6c-1.2,1.2-2.4,2.5-3.6,3.7c-1.7,1.6-2.6,3.6-3.6,5.6c0,0.1-0.1,0.2,0,0.2c0.1,0.1,0.2,0.3,0.3,0.3
		c0.5,0,0.7-0.4,1-0.7c0.8-0.9,1.6-1.9,2.7-2.5c0.9-0.4,1.7-1.1,2.6-1.4c1.8-0.6,2.8-2,3.6-3.5c1-1.8,2.2-3.5,2.9-5.5
		c0.1-0.2,0.4-0.3,0.6-0.3c0.2,0,0.5,0.2,0.5,0.4c0.3,0.9,0,1.6-0.4,2.4c-1,2-2.3,3.9-3.6,5.7c-0.3,0.5-0.7,0.9-0.9,1.5
		c-0.5,1.4-1.3,2.7-2.2,3.9c-0.2,0.3-0.6,0.7-0.1,1.1c0.3,0.2,0.6,0.1,0.9,0c1.1-0.7,2.3-1.3,3.6-1.4c0.8-0.1,1.4-0.7,1.6-1.4
		c0.4-1.5,1.2-2.9,1.9-4.3c0.1-0.1,0-0.3-0.1-0.4c-0.1-0.1-0.3,0-0.4,0.1c-0.9,1.1-1.6,2.3-2.1,3.6c-0.2,0.5-0.5,1.1-1.2,0.9
		c-0.6-0.2-0.7-0.8-0.3-1.7c1.5-3.2,3.7-5.9,5.4-8.9c0-0.1,0.1-0.1,0.2-0.2c1.3-1.5,2.4-3.2,3.2-5c0.2-0.5,0.5-0.9,0.9-1.2
		c0.4-0.3,1-0.2,1.3,0.3c0.1,0.1,0.1,0.3,0.2,0.5c0.4,0.7,0.8,0.8,1.2,0.2c1.2-1.6,2.3-3.2,3.4-4.9c0.5-0.7,1-1.3,1.7-1.8
		c0.8-0.5,1.6-1.2,2.3-1.9c1.6-1.6,3.9-2.2,5.5-3.8c0.1-0.1,0.3-0.2,0.4-0.2c1.6,0.1,2.3-1,3-2.1c0.4-0.7,1-1.4,1.6-1.9
		c0.9-0.7,1.2-1.7,1.4-2.8c0.2-1.2,0.5-2.4,0.8-3.6c0.1-0.4,0.5-0.6,1-0.5c0.4,0.1,0.5,0.4,0.6,0.7c0.1,0.9-0.2,1.8-0.4,2.7
		c-0.8,2.5-1.5,4.9-2.4,7.3c-0.7,1.8-1.2,3.6-1.7,5.5c-0.3,0.9-0.4,1.9-0.8,3.4c1-1.3,1.6-2.1,2.3-2.9c0.6-0.6,1-1.2,1-2.2
		c0-1.4,0.6-2.6,1.5-3.6c1-1,1.9-2.1,2.9-3.1c0.6-0.6,1-1.3,1.3-2.1c0.7-2.2,1.2-4.5,0.8-6.8c-0.1-0.6-0.1-1.3-0.1-2
		c0-0.3,0.2-0.6,0.6-0.8c0.3-0.1,0.7,0,0.9,0.2c0.2,0.3,0.4,0.5,0.5,0.8c0.3,0.8,0.3,1.6,0.1,2.5c-0.3,1.7-0.6,3.4-1.3,5.1
		c-0.3,0.7-0.6,1.4-0.5,2.2c0,0.3,0.4,0.6,0.7,0.4c1.2-0.6,2.3-1.3,2.5-2.9c0-0.4,0.3-0.8,0.4-1.2c0.6-2.2,1.5-4.4,1.5-6.8
		c0-1.2,0.2-2.3,0.3-3.5c0.1-0.5,0.3-0.7,0.8-0.7c0.5,0,0.8,0.3,1,0.7c0.3,0.6,0.1,1.1,0,1.7c-0.6,2.6-1.2,5.1-1.8,7.7
		c-0.1,0.4-0.1,0.8-0.1,1.2c0,0.1,0.1,0.2,0.2,0.2c0.2,0,0.4,0,0.5-0.1c0.2-0.2,0.4-0.4,0.4-0.6c1.1-3.2,2.1-6.5,2.6-9.8
		c0.3-1.7,0.7-3.4,0.3-5.2c-0.1-0.4,0-0.8,0.5-1c0.5-0.1,1,0.2,1.2,0.6c0.3,0.6,0.2,1.3,0.2,2c-0.2,2.3-0.9,4.5-1.4,6.8
		c-0.1,0.5-0.3,1.1-0.4,1.7l0.1,0.1l-0.1-0.2c0.5-0.5,0.6-1,0.3-1.6c0.6-0.1,0.8-0.5,1-1c1.2-3.2,2.6-6.3,3.5-9.5
		c0.2-0.8,0.3-1.6,0.3-2.5c0-1.1,0-2.2-0.1-3.2c-0.1-0.8,0-1.5,0.1-2.2c0.2-0.8,0.8-1.1,1.5-0.7c0.4,0.2,0.7,0.7,1.3,0.3
		c0.4-0.3,0.9-0.8,1.3-0.4c0.6,0.5,0.1,1.1-0.1,1.6c-0.2,0.4-0.3,0.8-0.5,1.1c-1.1,2.6-2.3,5.2-2.9,7.9c-0.5,1.9-0.9,2.1,1.6,3.4
		c0.5-0.3,0.5-0.8,0.6-1.3c0.5-2.1,1.1-4.2,1.4-6.3c0.7-3.7,1.4-7.3,1.2-11.1c0-1.1-0.2-2.1-0.4-3.2c0-0.2,0.1-0.5,0.3-0.6
		c0.3-0.2,0.6-0.2,0.9,0c0.6,0.4,0.7,0.9,0.7,1.5c0.1,1.4-0.1,2.8-0.4,4.2c-0.6,2.7-1.5,5.2-1.3,8c0,0.6-0.3,1.1-0.4,1.7
		c-0.1,0.6-0.3,1.1,0.1,1.7c0.4-0.1,0.5-0.4,0.6-0.7c1.5-4.5,3.1-8.9,3.9-13.6c0.9-5.2,1.5-10.3-0.4-15.4c-0.2-0.4-0.1-0.8,0.4-1
		c0.4-0.2,0.8,0,1.1,0.3c0.4,0.5,0.6,1,0.6,1.6c0.1,0.8,0.1,1.7,0.1,2.5c0,0.7,0,1.5,0,2.2c0,0.9,1.1,1,1.2,1.8
		c0,0.2,0.1,0.3,0.1,0.5c0,0.2,0,0.3,0,0.5c0,0.1,0,0.2,0,0.4c0-0.1,0-0.3,0-0.4c0-0.2-0.1-0.3-0.1-0.4c1-0.5,1-1.5,1.1-2.3
		c0.2-1.4,0.4-2.8,0.6-4.2c0.3-2,0.6-4.1,1-6.1c0.2-0.8,0.6-1.5,0.3-2.4c-0.1-0.5,0.3-0.7,0.8-0.7c0.2,0,0.3,0.1,0.5,0.1
		c1.2,0.1,1.2,0.1,1.3-1c0.3-2.7,0.6-5.4,0.9-8.2c0.1-1,0.2-2-0.2-2.9c-0.2-0.5-0.1-1,0.2-1.4c0.9-1.1,1-2.5,1.1-3.8
		c0.1-2.5,0.1-5-0.2-7.4c-0.3-1.9-0.6-3.8-0.6-5.7c-0.1-2.3-0.4-4.4-0.9-6.6c-0.3-1.5-0.6-2.9-0.9-4.4c-0.2-1.3-0.5-2.6-0.7-3.9
		c-0.2-1.3-0.6-2.6-0.2-3.9c0.1-0.4,0-1-0.1-1.5c-0.2-1.1-0.5-2.1-0.6-3.2c-0.6-4.5-1.4-9-2.5-13.4c-0.2-0.9-0.4-1.8-0.5-2.7
		c-0.4-2.5-0.8-5.1-1.7-7.5c-0.9-2.4-1.7-4.8-2.6-7.2c-1.5-3.9-2.9-7.8-4.7-11.5c-0.4-0.7-0.7-1.5-1-2.3c-1.4-4.3-3-8.6-5-12.7
		c-1.3-2.7-2.5-5.4-4.4-7.7c-0.5-0.6-1-1.3-1.4-2.1c-0.7-1.5-1.7-2.7-2.7-3.9c-1.3-1.6-2.4-3.3-3.5-5.1c-1.1-1.8-2.1-3.6-3.4-5.2
		c-1.2-1.7-2.5-3.3-3.7-5c-1.6-2.4-3.3-4.8-5-7.1c-1.6-2.2-3.5-4.2-4.8-6.7c-0.8-1.5-2-2.8-2.8-4.4c-1-2-2.2-3.9-3.4-5.8
		c-2.7-4.2-5.3-8.4-7.8-12.7c-1.9-3.1-3.7-6.3-5.2-9.6c-1.2-2.7-2.6-5.3-3.6-8.2c-0.1-0.2-0.2-0.5-0.3-0.7c-2.4-4.4-4-9.1-5.4-13.9
		c-0.2-0.8-0.5-1.6-0.8-2.3c-1-2.4-2-4.8-2.9-7.1c-1.4-3.6-2.9-7.2-4.2-10.9c-1.6-4.4-2.2-9.2-4.1-13.5c-0.1-0.2-0.1-0.5-0.1-0.7
		c-0.3-1.2-0.6-2.4-0.9-3.6c-0.5-1.8-1.1-3.7-1.6-5.5c-0.4-1.4-0.8-2.9-1.2-4.3c-1.1-3.8-2.2-7.6-3.1-11.5
		c-1.3-5.1-2.3-10.2-3.9-15.2c-0.6-1.7-1.8-3-2.5-4.5c-0.2-0.3-0.6-0.2-0.9,0c-0.3,0.2-0.4,0.6-0.4,0.9c0.2,1.7,0.4,3.3,1.6,4.6
		c0.5,0.5,0.9,1,1.1,1.6c0.3,0.8-0.5,1.7-1.4,1.6c-0.3-0.1-0.6-0.2-0.9-0.4c-2.1-1.6-3.4-3.6-3.4-6.3c0-0.7-0.1-1.5-0.1-2.2
		c0-1.3,0-2.7-0.1-4c0-0.6-0.2-1.1-0.4-1.7c-0.1-0.2-0.4-0.4-0.6-0.4c-0.2,0-0.5,0.2-0.6,0.4c-0.5,1.4-0.8,2.9-0.6,4.4
		c0.2,1.5-1.2,2.5-2.5,2.1c-2.4-0.6-2.6-0.8-1.9-3.2c0.4-1.4,0.6-2.7-0.1-4.1c-0.4-0.9-0.3-2-0.5-2.9c-0.2-1.3-0.1-2.5,0.9-3.5
		c0.5-0.5,0.7-1.1,0.5-1.8c-0.5-1.7-0.1-3.3,0.6-4.8c0.8-1.8,1.2-3.8,0.7-5.8l0.1,0l0,0.1c-1.7-0.2-2.6-1.2-3.3-2.7
		c-0.7-1.6-1-3.3-1.2-5.1c-0.1-1.1,0.2-2,0.9-3c1.3-1.7,1.9-3.6,1.3-5.8c-0.6-2-1-4-1.7-6c-0.4-1-0.5-1.1-1.6-0.7
		c-1,0.4-1.7,0.1-2.4-0.7c-0.5-0.6-0.8-1.3-0.8-2c0-1.1-0.1-2.1,0.1-3.2c0.1-0.6,0.2-1.3,0.2-2c0-0.7,0.5-1.4,0.1-2.1
		c-0.5,0-0.8,0.3-1.1,0.6c-0.9,0.6-1.8,0.3-2-0.8c-0.1-0.7,0-1.5,0-2.2c0-1,0.1-2-0.2-2.8c-0.5-0.1-0.7,0.3-0.9,0.4
		c-1.4,1.1-2.4,0.8-3.1-0.8c-0.3-0.6-0.2-1.3-0.4-1.9c-0.1-0.9-0.1-1.8-0.9-2.5c-1.2,0.3-1.1,1.5-1.6,2.3c-0.7,1.4-0.6,2.9-0.9,4.4
		c-0.1,0.7-0.3,1.5-0.3,2.2c0,1,1.1,0.9,1.5,1.4c0.5,0.6,0.5,1.6-0.2,1.9c-0.5,0.2-1.1,0.3-1.6,0.5c-0.5,0.2-0.8,0.9-0.6,1.5
		c0.1,0.5,0.4,0.7,0.9,0.7c0.4,0.1,0.8,0.1,1.2,0.2c0.7,0.2,1.4,0.5,2,1c0.4,0.3,0.4,1-0.1,1.3c-0.4,0.3-0.9,0.4-1.4,0.5
		c-0.7,0-1.3,0-2,0.1c-0.7,0.1-1,0.5-1.1,1.1c-0.2,1-0.1,1.3,1,1.9c0.1,0.1,0.3,0.1,0.5,0.2c0.9,0.6,0.9,1.6,0.1,2.3
		c-0.2,0.2-0.5,0.2-0.7,0.3c-0.8,0.6-0.6,1.8,0.3,2.2c0.5,0.2,1.1,0.3,1.7,0.5c0.5,0.2,0.7,0.6,0.7,1.2c0,0.6-0.3,1.1-0.9,1.3
		c-0.2,0-0.3,0-0.5,0.1c-1.2,0.3-1.3,0.5-1.1,1.4c0.3,1.3,0.5,1.5,1.8,1.6c1.2,0.2,2.5,0.3,3.6,0.8c0.5,0.2,0.7,0.7,0.6,1.3
		c-0.1,0.5-0.4,0.9-1,1c-0.4,0.1-0.8,0-1.2-0.1c-0.6-0.1-1.1-0.2-1.7-0.3c-0.4-0.1-0.7,0.1-0.9,0.4c-0.6,1.1,0,2.5,1.2,2.7
		c0.7,0.1,1.3,0.1,2,0.2c0.5,0.1,0.8,0.6,0.8,1.1c0,0.7-0.3,1.2-0.9,1.3c-0.6,0.1-1.2,0.1-1.7,0.1c-0.7,0.1-1,0.5-1,1.2
		c0,0.9,0.3,1.4,1,1.4c0.7,0.1,1.5,0,2.2,0c0.7,0,1.2,0.6,1.2,1.3c0,0.7-0.4,1.3-1.1,1.4c-0.7,0.1-1.3,0-2,0.1
		c-0.5,0-0.7,0.4-0.8,0.8c-0.2,1.2,0.3,1.9,1.5,2.2c0.6,0.1,1.3,0.1,2,0.2c0.4,0,0.8,0,1.2,0.1c0.5,0.1,0.8,0.6,0.8,1.1
		c0,0.6-0.4,1.2-0.9,1.3c-0.3,0.1-0.7,0.1-1,0c-0.8-0.1-1.7-0.7-2.3,0.1c-0.6,0.7,0,1.6,0,2.4c0,0.2,0,0.3,0.1,0.5
		c0.2,0.8,0.5,1.1,1.4,1.1c0.7,0,1.5-0.1,2.2,0c0.8,0,1.3,0.5,1.3,1.2c0,0.7-0.4,1.2-1.2,1.3c-0.7,0.1-1.3,0.1-2,0.2
		c-0.6,0.1-0.9,0.6-0.8,1.3c0.2,1,0.5,1.4,1.6,1.6c0.6,0.1,1.2,0.1,1.7,0.2c0.5,0.1,0.9,0.8,0.9,1.3c0,0.5-0.5,1-1.1,1.1
		c-0.5,0.1-1,0-1.5,0.1c-0.2,0-0.5,0.3-0.5,0.5c-0.3,1.5,0.1,2.7,1.6,2.6c0.5,0,1,0,1.5,0.1c0.5,0.1,0.7,0.4,0.8,0.8
		c0.2,0.8-0.2,1.5-1.1,1.6c-0.4,0.1-0.8,0-1.2,0.1c-0.2,0.1-0.4,0.3-0.5,0.5c-0.5,1.4,0.4,2.7,1.8,2.8c1.4,0.1,2.8,0,4.2,0
		c0.8,0,1.2,0.3,1.3,0.9c0.1,0.6-0.3,1-1,1.2c-0.3,0.1-0.7,0.1-1,0.1c-1.1,0.1-2.1,0.3-3.2,0.4c-0.7,0.1-1,0.5-1,1.2
		c0,1,0.4,1.5,1.4,1.7c0.2,0,0.5,0,0.7,0c0.7,0.1,1,0.5,1,1.2c0,0.8-0.4,1.2-1.2,1.4c-0.4,0.1-0.8,0.3-0.9,0.7
		c-0.1,1.4,0.5,2.3,1.6,2.3c0.6,0,1.2,0,1.7,0c0.7,0,1.1,0.4,1.2,1c0.1,0.7-0.2,1.2-0.8,1.4c-0.5,0.2-1.1,0.3-1.7,0.4
		c-0.2,0.1-0.5,0.3-0.6,0.4c-0.6,1.1,0.1,2.6,1.4,2.8c0.7,0.1,1.3,0.1,2,0.2c0.5,0.1,0.9,0.3,1,0.9c0,0.6-0.3,1-1.1,1.1
		c-0.4,0.1-0.8,0-1.2,0.1c-1,0.1-1.3,0.5-1.1,1.5c0.2,1.5,0.5,1.7,2,2c0.7,0.1,1.3,0.2,2,0.4c0.5,0.1,0.9,0.5,0.9,1.1
		c0,0.6-0.4,0.9-0.9,1c-0.7,0.1-1.3,0.1-2,0.3c-0.7,0.1-0.9,0.6-0.9,1.3c0.1,1,0.4,1.3,1.3,1.5c0.7,0.1,1.5,0.1,2.2,0.4
		c0.4,0.2,0.7,0.5,0.6,1c0,0.5-0.3,0.8-0.8,0.8c-0.5,0.1-1,0.1-1.5,0.2c-0.8,0.2-1.1,0.6-1,1.4c0.1,0.9,0.5,1.3,1.4,1.5
		c0.7,0.1,1.5,0,2.2,0.4c0.4,0.2,0.7,0.5,0.6,1c-0.1,0.4-0.3,0.6-0.6,0.7c-0.6,0.2-1.1,0.2-1.7,0.4c-0.5,0.1-0.7,0.5-0.7,0.9
		c-0.1,1.3,0.4,1.9,1.7,2.2c1.1,0.3,1.5,0.6,1.5,1.3c0,0.8-0.6,1-1.3,1.3c-0.9,0.4-1,0.7-0.8,1.5c0.1,0.9,0.7,1.2,1.6,1.2
		c0.6,0,1.2,0.1,1.4,0.8c0.2,0.7-0.3,1.1-0.9,1.3c-0.2,0.1-0.3,0.1-0.5,0.2c-0.7,0.3-0.8,1-0.8,1.7c0.1,0.7,0.4,1.3,1.2,1.4
		c0.3,0.1,0.7,0.1,1,0.2c0.4,0.1,0.7,0.4,0.8,0.9c0.1,0.5-0.2,0.8-0.6,1c-0.3,0.1-0.6,0.2-0.9,0.4c-0.2,0.1-0.4,0.3-0.4,0.6
		c-0.3,1,0.5,2.2,1.5,2.4c0.4,0.1,0.8,0.1,1.2,0.2c0.5,0.2,0.8,0.5,0.8,1.1c0,0.5-0.3,0.8-0.7,0.9c-0.3,0.1-0.7,0.1-1,0.2
		c-0.6,0.1-0.8,0.5-0.8,1.1c0.1,0.7,0.4,1,1.1,1.1c0.7,0.1,1.3,0.1,2,0.3c0.4,0.1,0.7,0.5,0.7,0.9c0,0.5-0.2,0.9-0.6,1
		c-0.5,0.2-1.1,0.3-1.7,0.5c-0.2,0.1-0.4,0.3-0.5,0.4c-0.4,0.8,0.3,1.8,1.1,1.7c0.4,0,0.8-0.2,1.2-0.2c0.7-0.1,1.2,0.7,0.9,1.4
		c-0.2,0.6-0.7,0.9-1.2,1.2c-0.5,0.3-0.7,0.7-0.7,1.3c0,0.7,0,1.3,0.2,2c0.2,0.8,0.6,1.1,1.4,1.2c0.4,0,0.8,0,1.2,0c0.5,0,1,0,1.5,0
		c0.8,0.1,1.3,0.5,1.3,1c0,0.6-0.4,0.9-0.9,1c-0.6,0.2-1.3,0.3-1.9,0.4c-0.3,0.1-0.7,0.1-1,0.2c-0.2,0.1-0.5,0.3-0.5,0.5
		c-0.3,0.7-0.2,1.5,0.1,2.2c0.3,0.7,0.9,0.7,1.5,0.7c0.2,0,0.5,0,0.7,0.1c0.4,0.1,0.7,0.4,0.8,0.9c0.1,0.6-0.1,1-0.5,1.3
		c-0.4,0.2-0.8,0.3-1.1,0.5c-0.5,0.2-0.7,0.7-0.6,1.2c0,0.5,0.3,0.9,0.9,1c0.5,0.1,1,0.1,1.5,0.3c0.6,0.2,0.9,0.8,0.8,1.4
		c-0.1,0.6-0.4,0.9-0.9,1c-0.5,0.1-1,0.1-1.4,0.3c-0.4,0.2-0.6,0.6-0.4,1c0.1,0.4,0.4,0.8,0.8,0.8c0.6,0.1,1.3,0.1,2,0.2
		c0.4,0,0.6,0.3,0.7,0.6c0.1,0.4,0,0.9-0.3,1.1c-0.3,0.2-0.7,0.4-1.1,0.6c-1.3,0.6-1.5,0.9-1.3,2.2c0.2,1.1,0.6,1.4,1.7,1.3
		c0.5,0,1-0.1,1.5-0.1c0.7,0,1.1,0.9,0.7,1.5c-0.2,0.3-0.4,0.5-0.7,0.7c-0.4,0.2-0.9,0.3-1.4,0.5c-0.4,0.1-0.7,0.4-0.8,0.8
		c-0.1,0.6,0,1.2,0.6,1.5c0.3,0.2,0.6,0.2,0.9,0.3c0.7,0.3,0.9,1.1,0.5,1.7c-0.2,0.3-0.6,0.6-0.8,0.9c-0.6,0.8,0,2.1,1,2.2
		c0.7,0.1,1.3,0,2,0.1c0.7,0.1,1.1,0.7,1,1.5c0,0.6-0.4,0.9-0.9,1c-0.5,0.1-1,0.1-1.5,0.2c-0.4,0.1-0.7,0.5-0.7,0.9
		c0,0.7,0.1,1.3,0.3,1.9c0.1,0.5,0.6,0.8,1.2,0.8c0.7,0,1.3-0.2,2-0.2c0.3,0,0.7,0.1,0.8,0.4c0.2,0.4,0.1,0.8-0.2,1.1
		c-0.4,0.5-1,0.6-1.5,0.8c-1.4,0.5-1.5,0.9-1.1,2.2c0.3,1.1,0.8,1.8,2,1.7c0.2,0,0.3,0,0.5,0c0.6,0.1,0.9,0.4,1,1
		c0.1,0.6-0.2,1-0.7,1.2c-0.2,0.1-0.5,0.2-0.7,0.3c-0.6,0.2-0.6,0.7-0.5,1.2c0.3,1.3,0.7,1.8,2,1.7c0.3,0,0.7,0,1,0.1
		c0.4,0.1,0.6,0.6,0.4,1c-0.3,0.7-0.9,1-1.4,1.3c-0.6,0.4-0.6,0.9-0.5,1.5c0.1,0.6,0.5,1,1.2,1.1c0.6,0.1,1.2,0.1,1.7,0.3
		c0.4,0.1,0.6,0.5,0.6,1c0,0.3-0.2,0.7-0.5,0.8c-0.5,0.2-1,0.3-1.4,0.4c-0.5,0.2-0.8,0.6-0.6,1.2c0.1,0.7,0.4,1.3,1.2,1.4
		c0.4,0.1,0.8,0.1,1.2,0.2c0.7,0.2,0.9,1.1,0.5,1.6c-0.3,0.4-0.8,0.6-1.2,0.9c-0.3,0.3-0.3,0.7-0.2,1.2c0.1,0.3,0.4,0.5,0.7,0.6
		c0.2,0,0.3,0,0.5,0.1c0.6,0.1,1.5-0.1,1.7,0.7c0.2,1-0.7,1.2-1.3,1.5c-0.6,0.3-0.7,0.8-0.6,1.5c0,0.2,0.1,0.5,0.1,0.7
		c0.3,1.2,0.7,1.5,2,1.4c0.5,0,1-0.1,1.5,0c0.5,0,0.9,0.6,0.9,1c0,0.5-0.2,0.8-0.7,1c-0.5,0.2-1.1,0.3-1.7,0.4
		c-0.2,0.1-0.4,0.3-0.5,0.5c-0.5,1.2,0.5,2.9,1.7,2.9c0.6,0,1.2,0,1.7,0.1c0.4,0.1,0.7,0.4,0.8,0.9c0,0.4-0.2,0.6-0.5,0.8
		c-0.5,0.3-1.1,0.5-1.6,0.7c-0.4,0.2-0.5,0.6-0.4,1c0.2,0.9,0.6,1.3,1.5,1.3c0.3,0,0.7-0.1,1-0.1c0.5,0,0.9,0.5,0.8,1
		c-0.2,0.8-0.7,1.3-1.3,1.7c-0.5,0.3-0.6,0.7-0.3,1.3c0.5,1,1.1,1.8,2.5,1.6c0.3-0.1,0.7,0,1,0.1c0.6,0.1,0.8,1.1,0.4,1.4
		c-0.4,0.3-0.9,0.5-1.3,0.7c-0.7,0.4-0.8,0.7-0.5,1.4c0.4,1.4,0.8,2.7,2.7,2.5c0.4,0,0.7,0.4,0.8,0.8c0.1,0.4,0,0.8-0.4,1.1
		c-0.3,0.2-0.6,0.3-0.8,0.5c-0.2,0.1-0.4,0.3-0.5,0.5c-0.2,0.8,0,1.7,0.3,2.4c0.3,0.6,0.9,0.7,1.5,0.8c0.3,0,0.7,0.1,1,0.2
		c0.7,0.2,0.9,1.1,0.4,1.6c-0.4,0.4-0.8,0.5-1.3,0.6c-0.5,0.1-0.7,0.5-0.6,0.9c0.1,0.6,0.2,1.1,0.4,1.7c0.2,0.5,0.5,0.8,1.1,0.8
		c0.2,0,0.5,0,0.7,0.1c1,0.2,1.2,1.2,0.6,1.9c-0.2,0.2-0.4,0.3-0.6,0.4c-0.5,0.3-0.7,0.7-0.5,1.2c0.1,0.5,0.4,0.9,1,0.9
		c0.7,0.1,1.5,0.1,2.2,0.3c0.3,0.1,0.6,0.4,0.6,0.7c0.1,0.4-0.1,0.9-0.5,1c-0.6,0.2-1.3,0.4-1.9,0.6c-0.3,0.1-0.6,0.3-0.6,0.7
		c-0.1,0.8,0,1.7,0.4,2.4c0.4,0.5,1.1,0.4,1.6,0.4c0.2,0,0.5,0,0.7,0.1c0.4,0.1,0.7,0.4,0.8,0.8c0.1,0.4-0.1,0.9-0.5,1.1
		c-0.4,0.2-0.9,0.4-1.4,0.6c-0.9,0.4-1,0.5-0.9,1.5c0,0.1,0,0.2,0,0.2c0.2,1.4,0.5,1.7,1.9,1.8c0.7,0,1.5-0.1,2.2,0.2
		c0.2,0.1,0.4,0.3,0.5,0.5c0.1,0.3,0,0.7-0.3,0.9c-0.4,0.2-0.8,0.3-1.1,0.4c-0.6,0.2-1.3,0.3-1.9,0.6c-0.2,0.1-0.4,0.3-0.4,0.6
		c-0.2,0.5,0.3,1.3,0.8,1.4c0.5,0.1,1,0,1.5,0.1c0.7,0.1,1.1,0.6,1.1,1.1c0.1,0.6-0.3,1-1,1.2c-0.3,0.1-0.7,0.1-1,0.2
		c-0.6,0.2-0.8,0.8-0.7,1.7c0.1,0.6,0.5,0.8,1.1,0.8c0.7-0.1,1.3-0.2,2,0c0.5,0.2,0.9,0.5,1,1c0.1,0.5-0.1,1-0.5,1.3
		c-0.6,0.5-1.2,0.9-2,1c-0.6,0.1-0.8,0.6-0.8,1.1c0,1.1,0.3,1.4,1.4,1.6c0.3,0.1,0.7,0,1,0.1c1,0.2,1.3,0.6,1.3,1.5
		c0,1-0.3,1.5-1.2,1.6c-0.2,0.1-0.5,0-0.7,0.1c-0.8,0.1-1,0.4-1.1,1.1c0,0.8,0.3,1.4,0.9,1.5c0.7,0.1,1.3,0.1,2,0.2
		c1.4,0.1,1.9,0.7,1.9,2c0,0.6-0.3,1-0.9,1c-0.8,0.1-1.7,0.1-2.5,0.2c-0.5,0.1-0.8,0.5-0.8,1.1c0,0.6,0.4,1,0.9,1
		c0.7,0,1.5-0.1,2.2-0.1c0.5,0,0.9,0.4,1,0.9c0.1,0.6-0.1,1-0.6,1.2c-0.6,0.3-1.3,0.4-1.9,0.7c-0.3,0.1-1,0-0.8,0.7
		c0.1,0.3,0.5,0.3,0.9,0.3c0.2,0,0.5,0.1,0.7,0.1c1.5,0.1,2.2,0.6,2.2,1.8c0,1.1-0.5,1.5-2.3,1.6c-0.4,0-0.8,0-1.2,0.3
		c-0.1,0.1-0.2,0.3-0.2,0.4c0,0.1,0.1,0.4,0.2,0.4c0.3,0.1,0.6,0.3,0.9,0.3c0.7,0,1.3-0.2,2-0.3c1.3-0.1,2.2,0.8,2.2,2.1
		c0,0.6-0.4,1.2-0.9,1.3c-0.7,0.2-1.5,0.3-2.2,0.4c-0.5,0.1-1.3-0.1-1.3,0.8c0,0.6,0.6,0.7,1,0.9c1.7,1,1.8,1.9,0.6,3.6
		c-0.3,0.5-0.3,0.8,0.3,0.9c0.2,0.1,0.3,0,0.5,0.1c1.1,0.3,1.9,1.4,1.7,2.4c-0.1,0.8-0.7,1.2-1.5,1.4c-0.2,0-0.3,0.1-0.5,0.1
		c-0.4,0.1-0.6,0.3-0.6,0.7c-0.1,0.7-0.1,1.5,0.1,2.2c0.1,0.4,0.4,0.7,0.9,0.8c0.2,0,0.5,0,0.7,0.1c0.8,0.2,1.5,1.1,1.5,2
		c0,0.8-0.5,1.4-1.3,1.5c-0.2,0-0.3,0.1-0.5,0.1c-0.7,0.3-1,0.7-0.9,1.3c0.1,0.8,0.5,1.2,1.2,1.3c0.3,0,0.7,0,1,0.1
		c0.7,0.2,1.2,0.7,1.3,1.3c0.2,0.8-0.1,1.5-0.7,2c-0.4,0.3-0.9,0.4-1.3,0.6c-0.5,0.2-0.9,0.5-0.8,1.1c0,0.6,0.2,1.2,0.9,1.3
		c0.6,0.1,1.1,0.4,1.5,0.8c0.5,0.5,0.5,1.3,0.1,1.8c-0.3,0.3-0.6,0.5-1,0.8c-0.3,0.3-0.4,0.7-0.5,1.1c-0.1,0.6,0.1,1,0.7,1
		c0.7,0,1.3,0,1.9,0.4c0.8,0.5,1,1.4,0.3,2.1c-0.5,0.5-0.9,1-1.5,1.3c-1.2,0.5-1.3,1.3-1.3,2.4c0,1.6,0,1.6,1.8,1.8
		c0.1,0,0.2,0,0.2,0c1,0.1,1.5,0.7,1.5,1.6c0.1,1-0.4,1.6-1.2,1.9c-0.3,0.1-0.7,0.1-1,0.1c-2,0.3-2.2,0.5-2.4,2.4
		c0,0.6,0,1.2,0.1,1.7c0,0.3,0.2,0.6,0.6,0.7c0.3,0.1,0.7,0,1,0.1c1,0.2,1.7,1.1,1.6,2.1c0,1-0.7,1.6-1.8,1.7
		c-0.4,0-0.8-0.1-1.2-0.1c-0.3,0-0.6,0.2-0.8,0.6c-0.3,0.8-0.5,1.6-0.4,2.4c0,0.7,0.6,1,1.1,1.3c0.2,0.1,0.4,0.3,0.5,0.5
		c1,1.2,0.5,2.9-1.1,3c-1.5,0.1-1.8,0.9-2,2c-0.2,0.9,0.1,1.6,0.4,2.4c0.5,1.2,0.3,1.9-0.7,2.5c-1.1,0.7-1.3,1.6-1.3,2.7
		c0,0.7,0.3,1,1.1,0.9c0.2,0,0.5-0.2,0.7-0.2c0.8,0,1.2,0.3,1.6,1c0.7,1.3-0.3,3.2-1.8,3.4c-0.5,0.1-1,0-1.5,0
		c-0.3,0-0.6,0.1-0.8,0.5c-0.6,0.9-0.5,1.8,0.2,2.7c0.2,0.2,0.4,0.3,0.5,0.5c1,1.4,0.7,2.4-0.9,3.2c-0.1,0-0.2,0.1-0.2,0.1
		c-1,0.2-1.1,1.1-1.3,1.9c-0.2,0.7,0.2,1.1,0.7,1.5c1,0.7,0.7,1.8,0.5,2.7c-0.2,0.8-1,1.1-1.8,1.1c-0.7,0-1.1,0.4-1.2,1
		c-0.2,0.7-0.4,1.4-0.5,2.2c-0.1,0.4,0,0.8,0.2,1.2c1,1.9,2,3.7,1.8,6c0.9,1.4,0.3,2.9,0,4.3c-0.7,2.6-1.1,5.2-1,7.9
		c0,1.5-0.1,3-0.2,4.5c0,0.3,0,0.7,0.4,0.8c0.4,0.1,0.6-0.3,0.7-0.6c0.2-0.5,0.5-1.1,0.7-1.6c0.2-0.4,0.3-0.8,0.5-1.1
		c1.3-1.4,1.7-3.2,1.9-5c0-0.2,0.1-0.3,0.1-0.5c0.1-0.5,0.8-0.6,1.2-0.3c0.4,0.4,0.6,0.9,0.4,1.4c-0.5,2.2-0.6,4.6-1.6,6.7
		c-0.7,1.4-1.3,2.8-2,4.3c-0.2,0.4-0.5,0.9,0.2,1.3c1.5-2.3,3.1-4.5,4.3-7c0.1-0.3,0.2-0.6,0.5-0.9c0.1-0.2,0.4-0.3,0.7-0.2
		c0.2,0,0.5,0.3,0.5,0.5c0.3,0.9,0.2,1.8-0.3,2.6c-1,1.8-2.1,3.6-3.1,5.4c-0.9,1.6-2.2,3.2-2.5,5.1c-0.2,1.3-0.7,2.4-1.5,3.3
		c-0.7,0.8-1.4,1.7-2,2.6c-0.8,1.2-1.5,2.6-2.3,3.8c-0.1,0.3-0.4,0.6-0.2,0.9c0.1,0,0.3,0,0.4-0.1c2.3-2.2,4.4-4.5,6.4-7
		c1.1-1.4,2.2-2.7,3.5-3.9c0.1-0.1,0.5-0.2,0.7-0.1c0.3,0.1,0.4,0.5,0.3,0.8c-0.3,0.9-0.8,1.7-1.4,2.3c-1.2,1.2-2,2.6-2.8,4.1
		C240.6,554.4,240.5,554.6,240.2,554.7l0,0.1L240.2,554.7z M169.7,536.9c0-0.1,0.1-0.1,0.1-0.2c0,0,0-0.1,0-0.2
		C169.8,536.7,169.8,536.8,169.7,536.9c-0.2,0.2-0.4,0.4-0.6,0.6c-0.3,0.1-0.7,0.2-0.9,0.4c-0.5,0.6-1.4,0.9-1.2,2
		c0,0.1,0.1,0.2,0.2,0.2c1-0.1,1.2-1,1.6-1.7c0.1-0.3,0.1-0.6,0.2-1C169.3,537.2,169.5,537.1,169.7,536.9z M82.4,297.8
		c0,0,0.1-0.1,0.1-0.1C82.5,297.7,82.4,297.8,82.4,297.8l0.1,0.2L82.4,297.8z M143,523.6c-0.1,0.2-0.1,0.4-0.2,0.6
		c0,0.2,0,0.3,0.2,0.3c0,0,0-0.1,0-0.2C143,524.1,143,523.9,143,523.6c-0.3-0.5-0.5-1-0.5-1.5c-0.3-2.3-0.8-4.5-1.5-6.7
		c-0.1-0.2,0-0.5,0-0.7c0-0.3,0.6-0.5,0.8-0.4c0.7,0.6,1.6,1.1,2,1.8c1.2,2.2,2.7,4.3,2.6,7.1c0,0.4,0.1,0.8,0.2,1.2
		c0.8,3.7,2.2,6.9,5.5,9.1c1.1,0.7,2,1.7,2.6,2.9c0.8,1.5,2,2.6,3.2,3.8c0.5,0.5,0.8,0.4,1.3,0c0.7-0.7,1.3-1.4,2-2.2l-0.1-0.1
		c0.2,0.4,0.5,0.7,0.9,0.4c0.9-0.8,1.7-1.7,2.1-2.9c0.2-0.2,0.4-0.4,0.6-0.6c0.5,0.1,0.9,0.4,1.1,0.9c0.2,0.4,0.3,1,1,1
		c2.1-1.3,3.7-3.2,5.4-4.9c1-1,1.6-2,1.9-3.4c0.6-3.4,1.9-6.6,3.3-9.8c0.3-0.6,0.5-1.2,1-1.7c0.2-0.2,0.7-0.2,0.8,0.2
		c0.1,0.3,0,0.8,0.2,0.9c0.8,0.7,0.5,1.2-0.2,1.8c-0.7,0.6-1.2,1.4-1.5,2.2c-0.2,0.5-0.2,1,0.2,1.4c0.3,0.4,0.7,0.4,1.1,0.2
		c0.2-0.1,0.5-0.2,0.7-0.2c0.4-0.1,0.9-0.1,1.1,0.2c0.3,0.4,0,0.8-0.3,1.1c-0.9,1-1.1,2.2-1.1,3.4c0,1.3,0.1,2.6,0.1,3.9
		c-0.8-0.7-1.1-0.7-1.3-0.1c-0.4,1.2-1.2,2.2-1.2,3.5c0.1,1.4,0.3,2.8,0.5,4.2c0,0.1,0.2,0.3,0.3,0.3c0.1,0,0.4,0,0.4-0.1
		c0.7-1,0.8-2.2,1.2-3.2c0.6-1.5,0.6-3-0.1-4.5c0.4-0.1,0.8-0.1,0.9-0.7c0.1-0.7,0.3-1.5,0.4-2.2c0.2-1.1,0.3-2.2,1-3
		c0.8-1,1.2-2.1,1.8-3.2c0.3-0.6,0.5-1.3,1-1.7c0.1-0.1,0.3-0.2,0.5-0.1c0.1,0,0.2,0.3,0.2,0.4c-0.4,1.2-0.6,2.4-1.2,3.5
		c-0.3,0.6-0.3,1.2,0.3,1.6c1.4,0.8,1.3,2.2,1.4,3.5c0,0.8-0.4,1.7-0.1,2.5c0.5,1.4,0.5,2.9,0.5,4.4c0,1.9,0.1,3.9-0.7,5.6
		c-0.9,1.8-1.2,3.8-1.8,5.7c-0.2,0.6,0.4,0.6,0.8,0.6c0.1,0.2,0.1,0.3,0.2,0.5c0.1,0.2,0.3,0.4,0.5,0.5c0.2,0,0.5-0.2,0.6-0.3
		c0.4-1,0.8-2.1,0.6-3.4c-0.8,0.5-0.9,1.3-1.4,1.9c-0.2-1.7,0.8-3,1.5-4.4c0.2-0.5,0.5-0.9,1.1-0.9c0.7,0.1,0.8,0.7,0.8,1.3
		c0,0.1,0,0.2,0,0.2c0.2,0.3,0.4,0.3,0.6,0.1c0.6-0.9,1.2-1.8,1.8-2.7c0.3-0.4,0.6-0.7,1-1.1c0.3-0.3,0.9,0,1,0.4
		c0,0.4,0.1,0.9-0.1,1.2c-0.8,2-1.3,4.1-2.6,5.9c-0.2-0.2-0.4-0.4-0.6-0.6c0.1-0.2,0.1-0.3,0.2-0.5c0.2-0.8,1-1.5,0.5-2.4
		c-0.8,0.4-1.1,1.2-1.5,1.9c-0.6,0.9-1,1.9-1.4,2.9c-0.2,0.4-0.3,0.9,0.2,1.1c0.4,0.2,0.8-0.2,1-0.5c0.2-0.2,0.3-0.6,0.3-0.9
		c0.1-0.6,0.4-1.1,0.7-1.5c0.2,0.2,0.4,0.4,0.6,0.6c-0.3,0.6-0.5,1.2-0.8,1.8c-0.1,0.2-0.1,0.5,0.1,0.6c0.2,0.1,0.5,0,0.7-0.1
		c0.8-0.4,1.4-1.1,2-1.8c1.5-1.9,2.9-3.8,4.3-5.8c1.4-1.9,3-3.8,4.2-5.9c0.4-0.6,0.9-1.4,1.7-1.3c1.4,0.2,2.1-1.3,3.4-1.2
		c0.1,0,0.4-0.3,0.4-0.5c0.1-0.6,0.2-1.3,0.3-2c0.1-1.7,0.3-3.3,0.4-5c0.1-0.7,0.1-1.3,0.6-1.9c0.2-0.2,0.5-0.4,0.9-0.3
		c0.4,0.1,0.4,0.5,0.4,0.8c-0.3,2.1-0.5,4.3-1,6.4c-0.4,1.9-0.2,3.8-0.4,5.7c0,0.2,0.1,0.6,0.4,0.5c0.2,0,0.5-0.1,0.6-0.3
		c0.4-0.4,0.6-1,1-1.4c0.7-0.8,1.1-1.6,1-2.7c0-0.7,0.2-1.3,0.4-1.9c0.7-1.8,1.1-3.6,2-5.3c0.4-0.7,0.5-1.6,0.7-2.4
		c0.3-1.9,0.5-3.8,0.7-5.7c0.1-0.7,0.2-1.5,0.3-2.2c0-0.2,0.2-0.5,0.5-0.4c0.2,0.1,0.5,0.2,0.6,0.4c0.4,1.1,0.3,2.3,0.2,3.4
		c-0.1,2.1-0.3,4.1-0.4,6.2c0,0.7-0.3,1.5,0.4,2.1c0.4,0.3,0.8-0.4,1.1-1.9c0.4-2.2,0.6-4.4,0.7-6.7c0-0.5-0.1-1.1,0.3-1.4
		c1.2-0.9,1.1-2.2,1.2-3.4c0.1-2.5,0.1-5,0.1-7.5c0-0.6,0-1.2,0.2-1.7c0.1-0.3,0.3-0.6,0.7-0.6c0.2,0,0.5,0.1,0.6,0.3
		c0.7,1,1.2,2,1,3.2c-0.1,0.8-0.2,1.6,0,2.4c0.7-0.3,0.7-0.9,0.9-1.3c1-1.5,1.5-3.1,1.5-4.9c0-1.7,0.3-3.5,0.4-5.2
		c0.1-0.7,0.5-1.2,0.8-1c0.5,0.2,0.8,0.6,0.8,1.2c0,0.4,0,0.8,0,1.2c0.1,1.7,0.1,3.3,0.2,5c0,0.4,0,0.9,0.5,1
		c0.4,0.1,0.6-0.3,0.8-0.5c0.6-0.5,0.8-1.2,0.8-2c0-3.2,0.5-6.4,0.3-9.7c0-0.5,0.1-1,0.2-1.5c0-0.1,0.2-0.2,0.4-0.3
		c0.1,0,0.3,0,0.4,0.1c0.5,0.5,0.6,1.2,0.6,1.8c0.1,1.2,0.1,2.5,0.6,3.8c0.6-0.4,0.8-1,0.9-1.5c0.2-2.1,0.4-4.3,1.2-6.3
		c0.4-1,0.4-2.1-0.4-3c-0.4-0.4-0.2-0.9,0-1.4c0.3-0.6,0.6-1.2,1.3-1.4c1-0.5,1-1.4,1.2-2.3c0.1-0.8-0.3-1.2-0.9-1.6
		c-0.8-0.6-0.9-1.4-0.6-2.2c0.3-0.9,0.9-1.3,1.9-1.1c0.6,0.2,1-0.1,1.1-0.7c0.1-0.6,0.3-1.1,0.3-1.7c0.1-1.1,0.1-2.1-1.3-2.5
		c-0.9-0.2-1-1.1-0.7-1.8c0.3-0.7,0.8-1.3,1.6-1.5c0.5-0.1,1-0.3,1.4-0.5c0.3-0.1,0.6-0.4,0.6-0.7c0.2-0.7,0.2-1.5-0.1-2.2
		c-0.3-0.7-1-0.5-1.5-0.6c-0.3-0.1-0.6-0.2-0.9-0.4c-0.7-0.4-1-1.2-0.6-1.9c0.4-0.8,1-1.5,2-1.6c0.4,0,0.8-0.1,1.2-0.2
		c0.8-0.3,1.2-2.5,0.5-3.1c-0.1-0.1-0.3-0.2-0.4-0.2c-0.4-0.1-0.8-0.1-1.2-0.1c-0.7-0.1-1.3-0.5-1.5-1.1c-0.3-0.7,0.2-1.3,0.6-1.8
		c0.2-0.2,0.5-0.4,0.8-0.5c0.4-0.2,0.9-0.3,1.4-0.6c1.1-0.5,1.3-1.5,0.5-2.4c-0.1-0.1-0.3-0.2-0.4-0.3c-0.7-0.9-0.7-1.7,0-2.4
		c0.3-0.3,0.7-0.5,1-0.8c0.5-0.4,0.5-0.8,0.3-1.3c-0.2-0.7-0.6-1.2-1.4-1.2c-0.3,0-0.7,0-1-0.1c-1.2-0.2-1.8-1.2-1.4-2.4
		c0.3-0.9,1-1.2,1.9-1.4c0.9-0.2,1.1-0.6,0.9-1.4c-0.2-0.7-0.5-1.1-1.2-1.5c-1.3-0.6-1.5-1.6-0.8-2.8c0.2-0.3,0.5-0.5,0.7-0.7
		c0.8-1,1-2.7,0.1-3.6c-1-1.1-1.1-2.1-0.5-3.3c0.6-1.1,0.4-1.3-0.4-2.1c-1.1-1-1.2-1.6-0.6-2.8c0.1-0.3,0.4-0.5,0.6-0.8
		c0.3-0.6,0.2-0.9-0.5-1c-0.4,0-0.8,0-1.2-0.1c-0.9-0.1-1.2-0.7-1.1-1.6c0.2-0.8,0.5-1.4,1.2-1.8c0.4-0.2,0.9-0.4,1.3-0.7
		c0.3-0.2,0.4-0.6,0.2-0.9c-0.1-0.2-0.3-0.4-0.5-0.5c-1.1-1.2-1.2-1.6-0.1-2.9c0.2-0.2,0.3-0.4,0.2-0.8c-0.2-0.1-0.6-0.1-0.8-0.2
		c-1.2-0.5-1.4-1.6-0.4-2.5c0.2-0.2,0.6-0.4,0.8-0.6c0.5-0.5,0.3-1.6-0.4-1.8c-0.2-0.1-0.5-0.1-0.7-0.1c-0.8-0.1-1.2-0.5-1.4-1.2
		c-0.2-0.8,0.2-1.3,0.8-1.6c0.1-0.1,0.3-0.2,0.4-0.2c0.7-0.3,0.9-0.9,0.8-1.6c0-0.8-0.4-1.1-1-1.5c-1.1-0.7-1.2-1.3-0.5-2.5
		c0.2-0.3,0.4-0.5,0.6-0.8c0.2-0.6,0.2-1.1,0-1.7c-0.2-0.6-0.8-0.5-1.2-0.6c-0.9-0.2-1.2-0.8-1.2-1.6c0-0.7,0.3-1.3,0.8-1.8
		c0.2-0.3,0.5-0.4,0.8-0.6c0.7-0.7,0.5-1.6-0.4-1.9c-0.3-0.1-0.7-0.1-1-0.2c-0.4-0.2-0.6-0.5-0.7-0.9c-0.1-0.7,0.2-1.2,1-1.4
		c0.5-0.1,1,0,1.3-0.6c0.3-0.7-0.1-1.7-0.7-1.9c-0.3-0.1-0.7,0-1-0.1c-1.1-0.3-1.3-1.3-0.5-2.1c0.2-0.2,0.4-0.3,0.6-0.4
		c1-0.4,1-1.2,0.8-2.1c-0.2-0.8-0.4-1.1-1.4-1c-0.7,0-1.3,0.1-2,0.1c-0.7,0-1.1-0.9-0.7-1.5c0.2-0.4,0.5-0.6,0.9-0.8
		c0.6-0.2,1.1-0.3,1.7-0.5c0.6-0.2,0.7-0.6,0.7-1.2c0-0.2-0.1-0.5-0.1-0.7c-0.2-0.7-0.6-1-1.2-0.9c-0.6,0.1-1.1,0.2-1.7,0.2
		c-0.6,0-1-0.6-1-1.2c0-0.6,0.4-1.1,1-1.3c0.5-0.2,1.1-0.4,1.6-0.6c0.4-0.2,0.6-0.5,0.5-1c-0.1-0.5-0.3-1-0.9-1
		c-0.4,0-0.8,0.2-1.2,0.2c-0.6,0-1.1-0.4-1.2-1c-0.1-0.7,0.1-1.2,0.7-1.5c0.4-0.2,0.9-0.4,1.4-0.5c0.8-0.3,1.1-0.8,0.9-1.5
		c-0.2-1.1-0.6-1.7-1.4-1.8c-0.8-0.1-1.7-0.1-2.5-0.3c-0.5-0.1-0.8-0.5-0.8-1.1c0-0.5,0.3-1,0.9-1.1c0.6-0.2,1.1-0.2,1.7-0.3
		c0.5-0.1,0.7-0.4,0.7-0.9c0-0.4-0.1-0.8-0.2-1.2c-0.2-0.8-0.6-1.1-1.4-1.1c-0.5,0-1,0.1-1.5,0c-0.7,0-1.1-0.4-1.2-1.1
		c-0.1-0.7,0.2-1.2,0.7-1.4c0.4-0.1,0.8-0.2,1.2-0.3c0.5-0.1,0.6-0.5,0.6-1c-0.1-0.4-0.2-0.8-0.3-1.2c-0.2-0.5-0.5-0.8-1.2-0.6
		c-0.2,0.1-0.5,0.2-0.7,0.2c-0.5,0-1-0.1-1.2-0.6c-0.3-0.5-0.2-1,0.1-1.4c0.2-0.3,0.6-0.5,0.9-0.8c0.2-0.2,0.5-0.5,0.5-0.8
		c0-0.8-0.2-1.6-0.5-2.4c-0.1-0.3-0.4-0.5-0.8-0.5c-0.3,0-0.7,0-1-0.1c-1.1-0.1-1.2-1.3-0.7-1.9c0.3-0.3,0.6-0.5,1-0.8
		c0.4-0.2,0.7-0.5,0.5-1c-0.1-0.5-0.4-0.9-1-0.9c-0.2,0-0.3,0-0.5,0c-1.2-0.2-1.7-1.4-0.8-2.1c1.3-0.9,1.1-1.9,0.6-3
		c-0.2-0.5-0.6-0.8-1.1-0.8c-0.6-0.1-1.4,0.1-1.7-0.7c-0.3-0.9,0.4-1.4,0.9-1.8c1.2-0.9,0.5-2,0.2-3c-0.2-0.8-1-0.8-1.7-0.7
		c-0.4,0-0.8,0-1.2,0c-0.8-0.1-1.2-1-0.6-1.7c0.2-0.2,0.5-0.4,0.8-0.6c0.4-0.2,0.8-0.3,1.2-0.4c0.2-0.1,0.4-0.4,0.2-0.6
		c-0.1-0.2-0.4-0.3-0.6-0.3c-0.5,0-1,0.2-1.5,0.2c-0.5,0-1,0-1.5,0c-0.5-0.1-0.9-0.4-1-0.9c-0.1-0.6,0.3-1,0.8-1.1
		c0.8-0.3,1.6-0.5,2.4-0.7c0.7-0.2,0.9-0.7,0.8-1.4c-0.2-1.2-0.6-1.6-1.7-1.3c-0.2,0.1-0.5,0.1-0.7,0.1c-0.5,0-0.9-0.4-1.1-0.9
		c-0.2-0.5,0-1.2,0.6-1.5c0.4-0.2,0.8-0.3,1.1-0.5c0.6-0.4,0.6-0.9,0.5-1.5c-0.1-0.7-0.5-1-1.2-1c-0.5,0-1,0.1-1.5,0.1
		c-0.7,0-1.2-0.3-1.3-0.9c-0.1-0.6,0.2-1.1,0.8-1.4c0.4-0.2,0.9-0.3,1.4-0.5c0.6-0.3,0.8-0.8,0.6-1.4c-0.3-1-0.7-1.4-1.8-1.4
		c-0.3,0-0.7,0.1-1,0.1c-0.5,0-1-0.1-1.2-0.7c-0.2-0.7,0-1.4,0.6-1.7c0.4-0.2,0.8-0.3,1.2-0.4c0.6-0.3,0.9-0.7,0.8-1.4
		c-0.1-0.4-0.2-0.8-0.3-1.2c-0.2-0.5-0.5-0.9-1.1-0.7c-0.2,0.1-0.5,0.1-0.7,0.2c-0.4,0.1-0.8,0-1.1-0.4c-0.2-0.4-0.1-0.8,0.1-1.2
		c0.3-0.6,0.9-0.9,1.4-1.4c0.6-0.6,0.4-2.6-0.2-3c-0.2-0.1-0.5-0.1-0.7-0.1c-0.4,0-0.8,0.1-1.2,0.1c-0.6,0-1-0.5-1.1-1.1
		c-0.1-0.7,0.2-1.3,0.8-1.7c0.3-0.2,0.8-0.3,1.1-0.4c0.5-0.2,0.5-0.6,0.4-1c-0.2-0.7-0.5-1.2-1.3-1.3c-0.4,0-0.8-0.1-1.2-0.3
		c-0.5-0.2-0.7-1-0.4-1.5c0.3-0.5,0.9-0.7,1.4-1c0.5-0.3,0.6-0.7,0.5-1.3c-0.2-0.5-0.5-0.9-1-0.9c-0.8,0-1.7,0.1-2.5,0.1
		c-0.4,0-0.8-0.1-1-0.6c-0.2-0.5,0-1,0.4-1.3c0.6-0.5,1.3-0.7,2.1-0.8c0.7-0.1,0.9-0.6,0.9-1.3c0-0.7,0-1.5-0.6-2.1
		c-0.5-0.4-1.1-0.2-1.7-0.1c-0.1,0-0.2,0-0.2,0c-0.7,0-1.2-0.7-1-1.4c0.1-0.4,0.4-0.7,0.7-1c0.5-0.3,1-0.5,1.5-0.8
		c0.1-0.1,0.2-0.3,0.2-0.4c0-0.3-0.2-0.4-0.4-0.5c-0.2-0.1-0.3-0.1-0.5-0.1c-0.6-0.1-1.2,0-1.5-0.7c-0.2-0.6,0.1-1.2,1-1.8
		c0.2-0.1,0.5-0.2,0.7-0.4c0.2-0.1,0.4-0.4,0.4-0.6c0.1-1.5-0.4-2.4-1.8-2.4c-0.7,0-1.5,0.1-2.2,0.1c-0.5,0-0.8-0.3-0.9-0.7
		c-0.2-0.4,0-0.9,0.3-1.1c0.3-0.3,0.7-0.4,1.1-0.5c0.6-0.2,1.1-0.2,1.7-0.3c0.9-0.2,1.1-0.5,1.2-1.4c0.1-1.4-0.4-2-1.9-2
		c-1,0-2,0.1-3,0.1c-0.7,0-1.3-0.6-1.3-1.3c0-0.5,0.5-1.1,1.1-1.2c0.8-0.1,1.6-0.1,2.5-0.2c1.5-0.2,1.8-0.6,1.5-2.2
		c0-0.1,0-0.2,0-0.2c-0.3-1-0.6-1.2-1.5-1.3c-0.6,0-1.2,0-1.7,0c-0.4,0-0.8-0.3-0.9-0.7c-0.2-0.6,0.1-1,0.6-1.2
		c0.6-0.3,1.2-0.4,1.9-0.7c0.2-0.1,0.4-0.3,0.5-0.5c0.5-1-0.3-2.3-1.4-2.3c-0.9,0-1.8,0.3-2.7,0.6c-0.4,0.1-0.8,0-1.1-0.4
		c-0.3-0.3-0.3-0.8-0.1-1.2c0.2-0.6,0.7-1,1.3-1.1c0.7-0.1,1.5-0.2,2.2-0.3c0.4-0.1,0.8-0.3,0.9-0.8c0.2-0.8-0.2-2-1.3-1.9
		c-0.7,0-1.3,0.2-2,0.2c-0.9,0.1-1.6-0.3-2.2-1c-0.3-0.3-0.2-0.8,0.1-1.1c0.3-0.3,0.7-0.4,1.1-0.5c0.8-0.1,1.6-0.2,2.5-0.4
		c0.7-0.1,0.9-0.6,0.7-1.3c-0.2-0.8-0.6-1.2-1.3-1.2c-0.7,0-1.3,0.1-2,0.1c-0.6,0-1.2,0.1-1.7,0c-0.6-0.1-1-0.7-0.8-1.3
		c0.1-0.5,0.4-0.7,0.8-0.8c1.1-0.2,2.1-0.3,3.2-0.5c0.4-0.1,0.8-0.3,0.9-0.7c0.2-1-0.6-2.1-1.5-2.2c-0.9-0.1-1.8,0-2.7-0.1
		c-0.8,0-1.7,0-2.4-0.3c-0.3-0.2-0.5-0.4-0.5-0.8c0-0.4,0.2-0.6,0.6-0.7c0.2-0.1,0.5-0.1,0.7-0.2c1.3-0.2,2.6-0.3,3.9-0.5
		c0.7-0.1,1-0.5,1-1.2c-0.1-1-0.6-1.5-1.5-1.7c-0.7-0.1-1.5-0.1-2.2,0c-0.4,0-0.8,0.1-1.2,0.1c-0.4,0-0.6-0.1-0.8-0.5
		c-0.2-0.4-0.2-0.8,0.1-1.2c0.4-0.5,1.1-0.8,1.7-0.9c0.6-0.1,1.2,0,1.7-0.1c1-0.1,1.3-0.5,1.1-1.5c-0.2-1.2-0.5-1.4-1.6-1.4
		c-0.9,0-1.8,0.1-2.7,0.2c-0.5,0-1,0.1-1.5,0.1c-0.6,0-0.9-0.4-1-0.9c-0.1-0.5,0.2-1,0.7-1.2c0.3-0.1,0.6-0.2,1-0.2
		c1.1-0.2,2.3-0.4,3.4-0.6c0.7-0.1,1-0.6,0.8-1.3c-0.3-1.1-0.7-1.5-1.9-1.5c-0.7,0-1.3,0-2,0c-0.5-0.1-0.9-0.4-1-1
		c0-0.5,0.2-1,0.7-1.2c0.3-0.1,0.6-0.2,1-0.2c0.6-0.1,1.2-0.1,1.7-0.2c0.5-0.1,0.7-0.4,0.6-0.9c-0.2-1.1-0.6-1.4-1.7-1.5
		c-0.7,0-1.5,0.1-2.2,0.1c-0.6,0-0.9-0.3-1-0.9c-0.1-0.5,0.1-1,0.5-1.3c0.2-0.1,0.5-0.2,0.7-0.2c0.7-0.1,1.3-0.1,2-0.2
		c0.5-0.1,0.7-0.4,0.7-0.9c0-0.3-0.1-0.7-0.2-1c-0.4-2.5-0.9-2.8-3.3-2.4c-0.3,0.1-0.6,0.2-1,0.3c-0.2,0.1-0.5,0.1-0.7,0.1
		c-0.5,0-1-0.4-1.1-0.8c-0.1-0.5,0.1-1,0.6-1.3c0.4-0.2,0.9-0.3,1.4-0.4c0.7-0.1,1.3-0.1,2-0.2c0.8-0.1,1.1-0.6,1-1.4
		c-0.2-1-0.6-1.4-1.7-1.5c-0.7-0.1-1.5-0.1-2.2-0.2c-0.5-0.1-0.9-0.4-1-1c-0.1-0.6,0.4-1.1,1-1.2c0.7-0.1,1.3-0.1,2-0.2
		c0.3,0,0.6-0.2,0.8-0.6c0.4-1.2-0.5-2.6-1.7-2.7c-0.7,0-1.5,0-2.2,0c-0.3,0-0.6-0.2-0.7-0.6c-0.2-0.4-0.1-0.8,0.2-1.2
		c0.2-0.2,0.5-0.4,0.8-0.5c0.5-0.2,1-0.2,1.4-0.4c0.7-0.2,0.9-0.6,0.9-1.3c-0.1-0.9-0.5-1.4-1.3-1.5c-0.6-0.1-1.2,0-1.7-0.1
		c-0.7,0-1.5-0.1-2.2-0.2c-0.5-0.1-0.9-0.4-0.9-1c0-0.6,0.4-0.9,0.9-1.1c0.6-0.1,1.3-0.2,2-0.2c0.6-0.1,1.2-0.1,1.7-0.2
		c0.4,0,0.6-0.3,0.7-0.7c0.2-1.1-0.4-2.8-1.8-2.7c-0.7,0-1.3-0.1-2-0.1c-0.5,0-1-0.1-1.5-0.2c-0.5-0.1-0.9-0.4-0.9-1
		c0-0.6,0.4-1,1.1-1.1c0.6-0.1,1.2-0.1,1.7-0.1c0.5,0,1,0,1.5-0.1c0.3-0.1,0.6-0.2,0.7-0.6c0.3-1.1-0.4-2.3-1.5-2.4
		c-0.7-0.1-1.3,0-2-0.1c-0.7-0.1-1.1-0.5-1.2-1.1c0-0.7,0.4-1.3,1-1.5c0.4-0.1,0.8-0.1,1.2-0.2c1.2-0.3,1.6-1.5,0.8-2.4
		c-0.4-0.4-0.8-0.5-1.3-0.5c-1-0.1-2,0-3-0.3c-1.1-0.4-1.2-0.4-1.6,0.4c-0.8,1.6-2.3,2.6-3.6,3.7c-0.5,0.4-1.2,0.6-1.8,0.7
		c-1.1,0-2.2,0.1-3.2-0.2c-0.6-0.1-1.1-0.3-1.7-0.3c-1.9-0.2-2.6,0.4-2.8,2.3c-0.2,2.3-0.4,4.6-0.6,6.9c0,0.5,0,1,0.1,1.5
		c0.1,0.5,0.4,1,1,1c1.7,0.3,3.4,0.7,5.1-0.1c0.9-0.4,1.8-0.8,2.7-1.2c2-0.7,3.9,0.2,4.2,2.2c0.5,2.6,0.2,5.3-0.6,7.8
		c-0.5,1.6-1.8,2.7-3.5,2.6c-1.7,0-3.3-0.4-4-2.4c0-0.2-0.1-0.3-0.2-0.5c-0.3-0.7-0.8-1-1.6-1c-2.5,0-3.8,1.2-4.1,3.7
		c0,0.5,0,1,0,1.5c0.1,1.1,0.2,2.1,0.2,3.2c0.1,2.2-0.5,4.1-2.1,5.7c-0.9,0.9-2,1.1-3.2,0.7c-1.2-0.4-1.6-1.4-1.6-2.5
		c0-0.7,0-1.3,0-2c-0.2-2.3,0.1-4.6-0.5-6.9c-0.9-3.5-0.4-2.8-3.8-3.6c-1.5-0.3-1.8,0-2.4,1.4c-0.1,0.2-0.1,0.3-0.1,0.5
		c-0.4,1.8-1.2,2-2.9,1.8c-2-0.2-3.5-1.7-3.6-3.8c-0.1-1.1,0-2.2,0-3.2c-0.1-3.1,1.6-5.2,5.1-4.7c1.8,0.2,3.6,0.4,5.4,0.6
		c2.1,0.2,3.2-0.8,3.1-2.9c0-0.2,0-0.5-0.1-0.7c-0.2-2.1-0.5-4.3-0.7-6.4c-0.1-0.6-0.2-1.1-0.4-1.7c-0.2-0.7-0.7-1.1-1.4-1.2
		c-0.9-0.2-1.8-0.2-2.7-0.1c-2,0.3-4,0.2-5.9-0.3c-1.1-0.3-2-0.8-2.5-1.9c-0.4-0.7-0.8-1.5-1.2-2.2c-0.2-0.3-0.9-0.3-1.1,0.1
		c-0.5,1-0.2,2,0,2.9c0.1,0.7,0.7,0.8,1.3,1c0.2,0.1,0.5,0.2,0.7,0.3c0.3,0.2,0.4,0.5,0.4,0.9c0,0.5-0.3,0.8-0.7,0.9
		c-0.4,0.1-0.8,0.1-1.2,0.2c-0.6,0.3-0.8,0.8-0.8,1.4c0,0.5,0.3,0.7,0.8,0.8c0.4,0.1,0.8,0.2,1.2,0.4c0.4,0.2,0.6,0.6,0.5,1
		c-0.1,0.4-0.2,0.8-0.7,1c-0.4,0.1-0.8,0.1-1.2,0.2c-0.3,0.1-0.6,0.2-0.8,0.5c-0.5,0.9-0.5,1.9-0.3,2.9c0.1,0.8,0.9,0.9,1.5,1.2
		c0.1,0.1,0.3,0.2,0.4,0.3c0.7,0.5,0.6,1.7-0.2,2.1c-0.4,0.2-0.8,0.3-1.2,0.4c-0.7,0.2-0.9,0.7-0.9,1.3c0,0.5,0.1,1,0.4,1.4
		c0.5,0.7,0.5,1.4-0.1,2c-0.7,0.9-0.6,1.9-0.5,2.8c0,0.5,0.3,0.9,0.7,1.2c1.6,1.2,1.6,1.5,0,2.5c-0.9,0.5-0.9,1.3-1,2.1
		c-0.1,0.6,0.5,0.8,0.9,1.1c1.2,0.9,1.1,1.8-0.2,2.3c-0.5,0.2-1,0.2-1.2,0.8c-0.3,0.9-0.6,1.9-0.7,2.9c0,0.6,0.3,0.9,0.8,1.1
		c0.5,0.1,1,0.1,1.5,0.3c0.7,0.2,1.1,0.7,1,1.2c-0.1,0.5-0.6,0.9-1.3,0.9c-0.3,0-0.7-0.1-1-0.1c-0.9,0-1.2,0.3-1.3,1.1
		c-0.1,1,0.1,1.4,1,1.7c0.3,0.1,0.7,0.2,0.9,0.3c0.4,0.2,0.5,0.7,0.4,1.1c-0.1,0.3-0.2,0.6-0.6,0.7c-0.4,0.1-0.8,0.1-1.2,0.2
		c-0.3,0-0.6,0.2-0.8,0.5c-0.5,1-0.2,1.9,0.9,2.3c0.3,0.1,0.6,0.3,0.9,0.4c0.3,0.2,0.4,0.5,0.4,0.9c0,0.5-0.3,0.8-0.7,0.9
		c-0.5,0.1-1,0-1.5,0c-0.4,0-0.6,0.2-0.7,0.6c-0.1,0.6-0.1,1.1,0.3,1.6c1.4,1.4,1.4,1.5-0.2,2.5c-0.8,0.5-1.1,1.2-1.1,2.1
		c0,0.9,0.7,1,1.4,1.2c0.2,0.1,0.5,0.1,0.7,0.2c0.4,0.2,0.7,0.5,0.6,1c-0.1,0.5-0.5,0.7-0.8,0.8c-0.5,0.2-1,0.1-1.5-0.1
		c-0.3-0.1-0.7-0.1-0.9,0.2c-0.6,0.7-0.9,1.6-0.8,2.5c0,0.3,0.3,0.6,0.6,0.7c0.6,0.2,1.1,0.2,1.7,0.4c0.5,0.2,0.8,0.6,0.7,1.1
		c-0.1,0.5-0.6,0.9-1.1,0.9c-0.5-0.1-1-0.2-1.5-0.3c-0.9-0.1-1.3,0.1-1.5,0.9c-0.4,1.4-0.2,1.8,1.1,2.6c0.3,0.2,0.6,0.3,0.9,0.5
		c0.4,0.3,0.6,0.8,0.4,1.3c-0.2,0.5-0.6,0.8-1.2,0.7c-0.5-0.1-0.9-0.3-1.4-0.5c-0.5-0.2-0.8,0-1,0.4c-0.1,0.2-0.2,0.5-0.3,0.7
		c-0.4,1.4-0.3,1.7,1.1,2.2c0.2,0.1,0.3,0.1,0.5,0.2c0.6,0.3,1,0.8,0.8,1.4c-0.2,0.6-0.6,0.8-1.1,0.8c-0.5,0-1-0.1-1.5-0.1
		c-0.4,0-0.8,0.2-0.9,0.6c-0.1,0.4,0,0.9,0.4,1c0.7,0.3,1.4,0.5,2.1,0.8c0.5,0.2,0.6,0.7,0.5,1.3c-0.1,0.5-0.6,0.9-1.1,0.8
		c-0.5-0.1-0.9-0.3-1.4-0.4c-1.2-0.3-1.7,0.1-1.9,1.3c-0.1,0.5,0.1,0.8,0.5,1c0.5,0.2,1.1,0.4,1.6,0.6c0.7,0.3,1,1.2,0.6,1.9
		c-0.3,0.5-0.8,0.7-1.5,0.4c-0.3-0.1-0.6-0.3-0.9-0.4c-0.4-0.1-0.8-0.1-1.1,0.3c-0.4,0.4-0.5,0.9-0.4,1.4c0.1,0.5,0.5,0.6,0.9,0.8
		c0.7,0.3,1,0.8,0.9,1.6c-0.1,0.7-0.6,1-1.2,1.1c-0.4,0-0.9,0.1-1,0.5c-0.3,0.9-0.5,1.8-0.2,2.7c0.2,0.7,1,0.5,1.5,0.6
		c0.1,0,0.2,0,0.2,0.1c0.5,0.3,1,1.1,0.8,1.7c-0.2,0.5-0.6,0.8-1.1,0.9c-0.4,0-0.8,0-1.2,0c-0.9,0.1-1.1,0.3-1.4,1.2
		c-0.1,0.4-0.2,0.8-0.3,1.2c-0.1,0.8,0,1,0.8,1.3c0.5,0.2,1.1,0.3,1.5,0.8c0.4,0.4,0.5,0.8,0.3,1.4c-0.2,0.4-0.6,0.6-1,0.6
		c-0.3,0-0.7-0.1-1-0.1c-1.5-0.2-1.7-0.1-2.2,1.3c-0.2,0.5-0.3,1-0.4,1.4c-0.2,0.7,0,1.3,0.6,1.7c0.5,0.3,1,0.6,1.4,1.1
		c0.3,0.4,0.3,0.9,0,1.4c-0.3,0.4-0.7,0.3-1.1,0c-0.3-0.2-0.5-0.4-0.9-0.5c-0.2-0.1-0.5-0.1-0.7,0c-0.6,0.4-0.8,1.1-0.8,1.7
		c0,0.6,0.5,0.8,1,1c0.3,0.1,0.6,0.3,0.9,0.4c0.4,0.3,0.6,1,0.3,1.6c-0.2,0.5-0.6,0.7-1.2,0.6c-1.9-0.2-1.9-0.2-2.4,1.5
		c-0.1,0.2-0.1,0.5-0.2,0.7c-0.2,1-0.2,1.8,0.8,2.4c0.6,0.4,0.9,1,0.9,1.7c0,0.5-0.2,0.8-0.7,0.9c-0.2,0-0.5,0-0.7,0
		c-1.4-0.1-1.4-0.1-1.8,1c-0.2,0.5-0.3,0.9-0.4,1.4c-0.2,0.9-0.2,1.6,0.7,2.1c0.7,0.4,0.8,1,0.6,1.7c-0.2,0.6-0.7,1-1.3,1
		c-1.1-0.1-1.4,0.5-1.6,1.4c-0.2,0.8-0.3,1.4,0.5,2c0.3,0.2,0.4,0.5,0.6,0.8c0.4,0.9-0.1,1.8-1.2,1.9c-0.2,0-0.3-0.1-0.5-0.1
		c-0.4,0-0.6,0.1-0.7,0.5c-0.1,0.3-0.1,0.7,0.2,0.9c0.3,0.3,0.7,0.5,1,0.7c0.4,0.3,0.9,0.5,1.3,0.8c0.4,0.3,0.6,0.8,0.3,1.3
		c-0.2,0.4-0.6,0.6-1,0.5c-0.6-0.1-1.1-0.3-1.7-0.4c-0.3-0.1-0.7,0-0.9,0.3c-0.6,0.8-0.7,1.7-0.6,2.6c0.1,0.8,0.9,0.9,1.5,1
		c0.3,0.1,0.6,0.2,0.9,0.3c0.5,0.3,0.7,0.7,0.6,1.2c-0.1,0.4-0.4,0.8-0.8,0.8c-0.6,0.1-1.2,0.1-1.7,0.1c-0.7,0-1,0.4-1.3,1
		c-0.3,0.8-0.4,1.6,0.5,2.2c0.3,0.2,0.5,0.4,0.7,0.7c0.8,1.3,0.3,2.5-1.1,2.9c-0.4,0.1-0.8,0.1-1.2,0.2c-0.8,0.2-1,0.8-1.1,1.5
		c-0.1,0.7,0.2,1.1,0.8,1.4c0.5,0.2,0.9,0.4,1.3,0.6c0.7,0.4,0.9,1.4,0.7,2.2c-0.2,0.7-0.8,1-1.5,1.1c-0.4,0-0.8,0-1.2,0
		c-0.3,0-0.7,0-1,0.1c-0.2,0.1-0.4,0.4-0.4,0.5c0,0.2,0.2,0.5,0.4,0.5c0.4,0.1,0.8,0.1,1.2,0.2c0.6,0.2,1.3,0.3,1.9,0.6
		c0.9,0.4,1.3,1.9,0.9,2.9c-0.3,0.9-1.1,1.2-2.2,1.1c-1.1-0.2-2.1-0.4-3.2-0.5c-0.9-0.1-1.3,0.2-1.5,0.9c-0.5,1.4-0.3,1.9,1.1,2.7
		c0.1,0,0.1,0.1,0.2,0.1c1,0.6,1.4,1.7,1.1,2.8c-0.2,0.8-1,1.4-2.1,1.5c-0.5,0.1-1,0-1.5,0.1c-0.4,0.1-0.8,0.8-0.6,1.2
		c0.2,0.4,0.5,0.7,0.6,1.1c0.7,1.7,0.5,2.5-1.1,3.5c-0.4,0.2-0.7,0.4-0.9,0.8c-0.5,0.9-0.7,1.9-0.6,2.9c0.1,0.9,0.9,1.1,1.5,1.4
		c0.1,0,0.1,0.1,0.2,0.1c0.9,0.6,0.9,1.5,0.8,2.5c-0.1,0.9-0.9,1.1-1.6,1.3c-0.5,0.1-1,0.1-1.5,0.2c-0.2,0-0.5,0.2-0.6,0.4
		c-0.4,0.7-0.6,1.4-0.4,2.1c0.2,0.6,0.7,0.6,1.2,0.8c0.7,0.3,1.4,0.6,2.1,0.8c1.2,0.4,1.6,1.1,1.6,2.5c0,0.8-0.8,1.6-1.7,1.5
		c-0.5-0.1-1-0.3-1.4-0.4c-0.6-0.1-1.1-0.3-1.7-0.4c-0.2,0-0.5,0.1-0.5,0.4c-0.1,0.3,0.1,0.5,0.4,0.6c0.6,0.3,1.2,0.5,1.8,0.8
		c0.6,0.4,0.8,1,0.7,1.7c-0.1,0.6-0.5,1-1.1,1.2c-0.4,0.1-0.8,0.1-1.2,0.2c-1.6,0.3-1.7,0.4-1.9,2.1c-0.1,0.6-0.1,1.2-0.1,1.7
		c0,0.4,0.2,0.8,0.6,1c0.2,0.1,0.5,0.1,0.7,0.2c0.9,0.5,1.3,1.3,1.2,2.2c0,1-0.5,1.6-1.5,1.7c-1,0.2-1.4,0.8-1.4,1.7
		c0,1.2-0.1,2.2,0.8,3.2c1,1.2,0.8,2.1-0.4,3.2c-0.1,0.1-0.3,0.2-0.4,0.3c-0.6,0.4-0.6,0.9-0.6,1.5c0,0.6,0.3,1,0.9,1.4
		c1.1,0.6,1.3,1.6,1.2,2.8c-0.1,1-0.9,1.2-1.7,1.5c-0.7,0.3-1,1.1-0.7,1.8c0.1,0.1,0.1,0.3,0.3,0.4c1.1,1.1,1.2,2.3,0.1,3.5
		c-0.3,0.3-0.4,0.7-0.4,1.1c0,3.6-0.1,7.1-0.1,10.7c0,0.9,0.4,1.3,1.3,1.4c1.1,0.2,1.3,1.4,0.4,2c-1.3,0.9-1.8,2.1-2,3.6
		c-0.2,1.4-0.2,2.8-0.1,4.2c0.2,3.1,0.3,6.3,0.1,9.4c-0.1,1.6,0.1,3.1,0.1,4.7c0,0.2,0.2,0.4,0.3,0.6c0.5-0.4,0.5-0.9,0.6-1.4
		c0.2-1.4,0.1-2.8,0-4.2c-0.1-1-0.2-2,0-3c0.2-1.4,0.2-2.8,0.2-4.2c0-0.7,0-1.5,0.1-2.2c0.1-0.5,0.4-0.9,1-0.9
		c0.5,0,0.9,0.3,0.9,0.9c0,0.7,0,1.5,0,2.2c0,0.7,0,1.3,0.1,2c0.1,0.7,0,2.9-0.2,3.9c-0.6,2.2-0.1,2.8,2.1,3c0.5,0,0.8-0.1,1.1-0.4
		c0.2-0.3,0.4-0.5,0.6-0.8c0.2-0.2,0.6-0.4,0.9-0.2c0.3,0.2,0.3,0.5,0.3,0.9c-0.1,0.4-0.1,0.8-0.2,1.2c-0.6,2.8-0.9,5.7-0.9,8.6
		c0,3.3,0.6,6.6,1,9.9c0.1,0.6,0.3,1.1,0.6,1.6c0.6,0.8,0.8,1.8,0.9,2.8c0.1,1.2,0.1,2.5,0.2,3.7c0.1,1-0.1,2,0.6,2.9
		c0.1-0.1,0.2-0.1,0.2-0.2c0.6-3.5,0.6-6.9,0.2-10.4c-0.1-0.7-0.2-1.3,0.1-1.9c0.1-0.2,0.4-0.4,0.6-0.4c0.2,0,0.5,0.1,0.6,0.3
		c0.5,0.5,0.4,1.3,0.6,1.9c0.3,0.8,0.4,0.9,1.4,0.8c1-0.1,1.3,0.1,1.6,1.1c0.2,0.6,0.3,1.1,0.1,1.7c-0.8,1.8-0.8,3.5,0.1,5.3
		c0.1,0.2,0.1,0.5,0.1,0.7c0.2,1.7,0.6,3.4,1.1,5.1c0.4,1.1,0.5,2.3,0.5,3.4c0.1,1.8,0.1,3.6,0.2,5.5c0.5-0.3,0.3-0.8,0.3-1.2
		c0.1-0.7,0.3-1.3,0.7-1.9c0.2-0.3,0.5-0.7,1-0.5c0.4,0.1,0.4,0.5,0.4,0.8c0,0.2,0,0.5,0,0.7c-0.3,3.7,0.2,7.3,0.5,10.9
		c0,0.5,0,1.1,0.6,1.1c0.5,0,0.8-0.5,1.1-0.9c0.1-0.2,0.2-0.5,0.2-0.7c0-1.9,1.5-2.7,2.6-3.7c0.4-0.3,1-0.4,1.4,0
		c1,0.8,1.8,1.7,1.7,3.1c-0.1,2.1-0.5,4.1-1.1,6.1c-1.1,3.8-1.7,7.6-1.6,11.5c0,0.4-0.2,0.8,0.3,1.1c0.2-0.1,0.4-0.3,0.5-0.5
		c0.5-1.1,1-2.3,1.4-3.4c0.3-0.9,0.7-1.7,1.3-2.4c0.4-0.5,1.1-0.6,1.6-0.3c0.5,0.3,0.5,0.8,0.4,1.3c-0.2,1-0.5,1.9-0.3,2.9
		c0.3,1.9,0.5,3.8,0.8,5.7c0.8,4.6,2,9.1,2.3,13.7c0,0.2,0,0.5,0.1,0.7c0.7,2.2,0.9,4.6,3,6c0.2,0.2,0.3,0.6,0.5,0.8
		c0.2,0.3,0.1,0.8,0.7,0.7c-0.3-3.3-1.1-6.4-1.9-9.5c-1.1-4-2.4-7.9-3.1-12c-0.2-0.8-0.3-1.6-0.2-2.5c0-0.4,0.3-0.6,0.6-0.6
		c0.2,0,0.5,0.2,0.6,0.4c0.3,1.2,0.6,2.4,0.8,3.6c0.3,1.9,0.6,3.8,1,5.6c0.2,0.8,0.3,1.7,1.2,2.1C142.2,522.7,142.3,523.3,143,523.6
		z M86.2,507.7c-0.1,0.2-0.1,0.4-0.2,0.6c0,0.2,0,0.3,0.2,0.2c0,0,0-0.1,0-0.2C86.2,508.1,86.2,507.9,86.2,507.7
		c-0.2-0.2-0.3-0.3-0.5-0.5c-0.1-0.1-0.2,0-0.4,0c0.1,0.1,0.1,0.3,0.2,0.4C85.8,507.6,86,507.6,86.2,507.7z M239.5,536.6
		c-0.5,0.1-0.8,0.4-1,0.9c-0.1,0.2-0.2,0.5,0.1,0.6c0.1,0,0.3-0.1,0.3-0.2C239.1,537.4,239.2,537,239.5,536.6
		c0.1-0.4,0.2-0.6,0.4-0.9c0.1-0.1,0.1-0.3,0.1-0.5c0,0-0.2-0.1-0.2-0.1c-0.1,0.2-0.4,0.4-0.4,0.6
		C239.3,536,239.4,536.3,239.5,536.6z M68.2,325c-0.8,0.7-1.3,1.5-0.9,2.6c-1.7,0.3-2.5,1.5-3.1,2.9c-0.1,0.3-0.2,0.7,0.2,0.9
		c0.1,0.1,0.5-0.1,0.6-0.3c1.1-0.9,1.5-2.3,2.2-3.5C67.6,326.7,67.9,325.8,68.2,325l-0.1-0.2L68.2,325z M145.4,541.6
		c0,0.2-0.3,0.3,0,0.5C145.4,541.9,145.4,541.7,145.4,541.6c-0.3-0.8-0.5-1.7-0.8-2.5c-0.1-0.3,0-0.6-0.4-0.8
		c-0.3-0.1-0.5,0.5-0.3,1C144.2,540.1,144.4,541.2,145.4,541.6z M71.8,308.3c-1,0.9-2.2,2.7-2.6,4c0.8-0.4,1.2-1.1,1.5-1.8
		C71.1,309.7,71.4,309,71.8,308.3c0-0.2,0-0.3-0.1-0.5C71.8,307.9,71.8,308.1,71.8,308.3z M229.9,553.9c1.3-1.6,2.6-3.2,3.9-4.8
		c0.6-0.7,0.9-1.5,0.9-2.5c0-0.2,0-0.5-0.3-0.6c-0.1,0-0.3,0.1-0.4,0.2c-1.2,1.6-2.2,3.3-3.4,4.8
		C229.9,551.8,229.7,552.8,229.9,553.9l-0.1-0.1L229.9,553.9z M181,562.7c1.2,0,2-0.8,2.7-1.5c0.4-0.5,0.8-1.1,1.2-1.5
		c1.5-1.6,2.1-3.7,2.9-5.7c0-0.1-0.1-0.4-0.1-0.4c-0.2-0.1-0.5-0.2-0.7,0c-1.1,0.8-1.8,2-2,3.3c-0.4,1.6-1.1,2.8-2.5,3.8
		C181.7,561.1,181,561.7,181,562.7L181,562.7z M78,517.4L78,517.4c-0.1-0.3,0-0.6-0.1-0.9c-0.3-1.4-0.6-2.9-1.1-4.3
		c-0.6-1.8-1.2-3.6-1.9-5.3c-0.2-0.6-0.6-1.2-0.9-1.7c0-0.1-0.1-0.1-0.2-0.1c-0.3-0.1,0.1,0.3-0.3,0c0.2,1.2,0.3,2.2,0.4,3.3
		c0.4,2.8,1.3,5.4,2.7,7.9C77,516.7,77.3,517.2,78,517.4z M62.4,473c0-0.1,0.1-0.3,0.1-0.4C62.4,472.7,62.4,472.8,62.4,473
		c0,0.2,0.1,0.5,0.1,0.7c0.3,5.7,1.6,11.3,2.3,16.9c0.1,0.7,0.1,1.4,0.8,2c0.3-0.5,0.4-0.9,0.7-1.2c1.3-1.5,1-3-0.1-4.3
		c-1.1-1.4-1.5-2.9-1.7-4.5c-0.3-2.2-0.6-4.4-1-6.6C63.3,474.8,63.3,473.7,62.4,473z M77.6,313.9c1-1.2,1.7-2.6,2.5-4
		c0.6-0.9,1.2-1.8,1.8-2.6c0.3-0.4,0.7-1,1.3-0.9c0.4,0,0.4,1,0,1.8c-0.2,0.4-0.5,0.8-0.8,1.3c-1.1,1.8-2.2,3.6-3.4,5.5
		c-0.3,0.5-0.6,1-0.5,1.6l-0.1-0.1l0.1,0.1c0.3-0.2,0.5-0.5,0.8-0.5c1.3-0.2,2.1-1,2.6-2c0.6-1,1.4-1.8,2.2-2.7
		c0.5-0.5,1-0.9,1.6-1.1c0.1,0,0.3,0,0.4,0.1c0.1,0.1,0.2,0.3,0.1,0.4c-0.3,1-0.9,1.8-1.5,2.5c-2.1,2.4-3.7,5.1-5.6,7.6
		c-0.6,0.8-1.3,1.6-1.3,2.6c0,0.9-0.5,1.5-1.2,2c-0.7,0.5-1.2,1.1-1.6,1.9c-1.8,3.3-3.6,6.7-5.4,10c-0.4,0.7-0.7,1.3,0,2
		c0.3,0.3,0.1,0.8-0.1,1.2c-0.6,0.8-1.1,1.6-1.8,2.4c-0.4,0.5-0.9,1-0.9,1.7c0,0.2,0,0.5,0.2,0.7c0.2,0.2,0.4,0,0.6-0.2
		c0.8-1.1,1.6-2.1,2.3-3.2c1.6-2.4,3.8-4.4,5.5-6.7c0.7-1.1,1.8-1.9,2.8-2.8c0.2-0.2,0.6-0.4,0.9,0c0.1,0.2,0.2,0.5,0.1,0.7
		c-0.4,1.1-1.2,2-2,2.8c-1.6,1.9-3.3,3.7-4.7,5.7c-1.5,2.1-3,4.1-4.2,6.4c-0.8,1.5-1.6,3.1-2.4,4.6c-0.5,0.8-0.6,1.7-0.3,2.6l0-0.1
		c0.2-0.2,0.4-0.3,0.6-0.5c1.7-2.1,3.1-4.5,4.3-6.9c0.2-0.4,0.1-0.8,0.1-1.2c0-1.2,1.2-2.8,2.3-3.2c0.3-0.1,0.9,0.2,1,0.5
		c0.2,0.5,0.2,1,0,1.5c-0.3,0.8-0.6,1.5-1.1,2.2c-2.4,4.1-5.3,8-8,12c-1.8,2.6-3.6,5.2-5.3,7.8c-0.4,0.5-0.6,1.2-1,1.7
		c-0.3,0.5-0.5,1.1-0.4,1.7c0.3,1.3-0.2,2.5-0.7,3.6c-1.8,3.6-3.3,7.4-4.5,11.3c-0.7,2.2-1.6,4.4-2,6.7c-0.1,0.4-0.4,0.9,0.2,1.5
		c0.7-0.9,1.4-1.8,2.1-2.7c0.1-0.1,0.3-0.1,0.4-0.1c0.1,0.1,0.2,0.3,0.2,0.4c0,0.8-0.3,1.4-0.7,2.1c-0.9,1.9-1.7,3.8-2.7,5.6
		c-1.7,3.2-2.3,6.5-2.4,10.1c-0.1,3.4-0.3,6.8-0.4,10.2c0,0.6-0.2,1.2-0.2,1.7c-0.1,0.8-0.3,1.6-1,2.2c-0.6,0.5-0.6,1.1-0.5,1.8
		c0.1,0.7,0.2,1.5,0.2,2.2c0.1,0.6,0.2,1.1,0.8,1.6c0.2-0.7,0.4-1.3,1-1.7c0.9-0.5,1.1-1.2,1.1-2c0-3,0.6-5.9,1.1-8.9
		c0.3-1.8,0.8-3.6,1.5-5.3c0.3-0.8,0.6-1.5,1.2-2.2c0.2-0.3,0.6-0.4,0.9-0.2c0.2,0.1,0.3,0.5,0.2,0.7c-0.2,0.7-0.4,1.4-0.6,2.1
		c-1.4,4.1-2.5,8.2-2.8,12.6c-0.1,1.3-0.2,2.5,0.6,3.6c0.4,0.6,0.4,1.4,0.4,2.2c0.1,2,0.1,4,0.2,6c0.1,2.9,0.6,5.8,1.4,8.6
		c0.2,0.8,0.4,0.9,1.4,0.7c0.2,0,0.6-0.1,0.7,0c0.9,0.7,1.8,1.5,1.8,2.8c0,1.8,0.3,3.5,0.5,5.2c0.1,0.8,0.2,1.5,0.8,2
		c0.5,0.4,0.4,0.8,0.3,1.4c-0.5,2.4,0.1,4.8,0.8,7.1c0.1,0.4,0.2,0.9,0.6,1.1c0.6,0.3,0.8-0.4,1.2-0.6c0.2-0.1,0.5-0.2,0.7-0.3
		c0.5-0.2,0.6-0.5,0.6-1c0-0.7-0.2-1.3-0.7-1.8c-0.9-1-1.4-2.3-1.8-3.5c-1.4-3.9-2-8-2.7-12.1c-0.3-1.7-0.7-3.4-1-5.1
		c-0.1-0.5-0.3-1-1-0.7c-0.3,0.1-0.5-0.1-0.5-0.4c-0.1-0.7-0.1-1.3-0.1-2c0-3,0.1-6,0.2-9c0-1.2,0-2.3,0.1-3.5
		c0-0.7,0.2-1.3,0.6-1.9c0.1-0.2,0.4-0.3,0.6-0.3c0.2,0,0.5,0.2,0.6,0.4c0.1,0.4,0.3,0.8,0.2,1.2c0,1-0.1,2-0.3,3
		c-0.4,3.1-0.1,6.1,0.2,9.2c0.1,0.6,0.3,1.2,0.8,1.5c1,0.5,1.1,1.3,1.1,2.3c0,1,0,2-0.1,3c-0.2,2.1-0.1,4.1,0.9,6
		c0.2,0.4,0.3,0.8,0.4,1.2c0.4,1.5,0.8,3,0.8,4.6c0.1,1.3,0.3,2.6,1,3.8c0.1,0.2,0.4,0.4,0.6,0.4c0.3,0.1,0.4-0.2,0.5-0.4
		c0.1-0.3,0.2-0.6,0.3-0.9c0.5-2.2,0.7-4.4,0.4-6.7c-0.2-1.2-0.3-2.3-0.2-3.5c0.1-0.7,0.2-1.3,0.7-1.8c0.2-0.2,0.7-0.1,0.9,0.1
		c0.3,0.5,0.2,0.9,0.2,1.4c0,2.1-0.2,4.2,0.2,6.2c0.7,3.3,1.5,6.6,2.4,9.9c1,3.5,2.2,6.9,3.5,10.4c0.5,1.4,1.2,2.7,1.9,4.1
		c0.1,0.3,0.3,0.6,0.7,0.5c0.3-0.2,0.3-0.5,0.3-0.9c0-0.2,0-0.3,0-0.5c0-1.7-0.1-3.3-0.1-5c0-0.5,0.1-1,0.2-1.5
		c0.1-0.3,0.4-0.5,0.8-0.5c0.4,0,0.6,0.3,0.7,0.6c0.1,0.3,0.1,0.7,0.1,1c0.2,3,0.7,5.9,1.5,8.8c0.4,1.4,0.6,2.8,0.5,4.2
		c-0.3,3.4,1,6.5,2,9.7c0.2,0.7,0.6,1.4,1.5,1.5c0,0.1,0,0.3-0.1,0.4c0-0.1,0.1-0.3,0.1-0.4c-0.4-1.8-0.8-3.6-0.8-5.4
		c0-1.3,0.4-1.7,1.9-1.6c0.4,0,0.8,0.4,1.1-0.2c-0.1-0.4-0.2-0.9-0.3-1.4c-0.5-2.2-1.1-4.3-1.4-6.6c-0.2-1.4-0.5-2.8-1.3-4
		c-0.3-0.4-0.3-0.9-0.4-1.4c-0.6-1.9-0.9-3.9-1.7-5.7c-1.1-2.3-1.5-4.5-1.4-7c0-1.1-0.1-2.2,0.3-3.2c1.1-3,1.2-6.2,1.4-9.3
		c0-0.3,0-0.7,0.1-1c0.1-0.7,1-1,1.6-0.6c0.5,0.4,0.7,0.9,0.8,1.5c0.1,1,0.2,2,0.4,2.9c0.3,1.4,0.4,2.8,0.1,4.2
		c-0.6,3-0.2,5.9,0.5,8.9c0,0.1,0.2,0.2,0.4,0.3c0.3-0.3,0.3-0.7,0.2-1.1c-0.1-2.7-0.2-5.3-0.2-8c0-2.4,0.2-4.8,1.7-6.9
		c0.3-0.4,0.3-0.9,0.3-1.4c-0.1-2.8,0.6-5.4,0.8-8.2c0.1-1.7,0.5-3.4,0.7-5.2c0.3-2.2,0.4-4.5,0.7-6.7c0.3-2.6,0.2-5.3,0.7-7.9
		c1-4.5,1.3-9.2,2.4-13.7c0-0.2,0.1-0.3,0.1-0.5c0.2-0.9,0-1.5-1-2c-1.6-0.8-1.5-2.6,0.1-3.5c0.3-0.2,0.8-0.2,1.2-0.4
		c1.2-0.4,1.6-1.5,0.7-2.5c-0.2-0.2-0.5-0.4-0.7-0.7c-0.7-0.8-0.7-1.6-0.1-2.5c0.3-0.5,0.8-0.8,1.3-1.1c0.4-0.2,0.8-0.3,1.1-0.6
		c0.4-0.4,0.6-1.4-0.1-1.7c-0.3-0.1-0.6-0.2-0.9-0.4c-1.2-0.7-1.4-1.8-0.6-2.9c0.5-0.6,1.2-0.9,1.9-1c1.1-0.2,1.5-0.8,1.7-1.8
		c0.2-0.8,0.1-1.4-0.3-2.1c-0.8-1.4-0.6-2.1,0.5-3.1c0.2-0.2,0.4-0.3,0.6-0.4c0.8-0.6,0.8-1.6,0.9-2.5c0.1-0.7-0.2-1.2-0.7-1.7
		c-1.5-1.7-1.2-3.4,0.6-4.6c0.6-0.4,1.8-0.2,1.7-1.1c-0.2-1.1-1.4-0.5-2.1-0.7c-1.1-0.3-1.6-1.2-1.2-2.3c0.4-0.9,1-1.5,2-1.7
		c1-0.2,1.9-0.4,2.9-0.6c0.8-0.1,1.2-0.5,1.5-1.1c0.2-0.4,0.4-0.7,0.5-1.1c0.4-1.1,0.3-1.4-0.7-2c-0.4-0.2-0.9-0.4-1.2-0.8
		c-0.3-0.4-0.5-0.8-0.5-1.4c0.1-1.3,1-2.1,2.3-2.2c0.5,0,1,0.1,1.5,0.1c0.3,0,0.6-0.1,0.9-0.4c1.4-1.6,1.3-2.8-0.2-4.2
		c-0.2-0.2-0.4-0.3-0.6-0.5c-0.4-0.4-0.5-0.9-0.3-1.4c0.3-0.9,0.9-1.4,1.8-1.5c0.4-0.1,0.8,0,1.2,0.1c0.6,0,1-0.1,1.2-0.7
		c0.2-0.6,0.2-1.2-0.3-1.6c-0.4-0.3-0.8-0.6-1.2-0.9c-0.5-0.3-0.9-0.7-1.4-1.1c-0.5-0.5-0.5-1.3-0.1-1.8c0.5-0.5,1-0.8,1.7-0.8
		c0.6,0.1,1.1,0.2,1.7,0.3c1.3,0.1,1.6-0.1,2.1-1.3c0.5-1.3,0.5-1.4-0.9-2.3c-0.3-0.2-0.6-0.4-0.8-0.6c-0.8-0.7-0.9-1.6-0.4-2.5
		c0.5-0.9,1.3-1.3,2.3-1.1c0.6,0.1,1.1,0.4,1.7,0.2c0.1,0,0.3-0.2,0.3-0.3c0.1-0.1,0.1-0.4,0-0.5c-0.4-0.4-0.9-0.7-1.3-1.1
		c-0.7-0.7-0.7-1.5-0.1-2.2c0.6-0.7,1.3-1.3,2.3-1.3c0.2,0,0.5,0,0.7-0.1c0.4-0.1,0.7-1,0.3-1.3c-0.4-0.3-0.8-0.5-1.2-0.9
		c-0.8-0.7-0.9-1.6-0.3-2.5c0.5-0.9,1.3-1.2,2.3-1c0.9,0.2,1.4-0.3,1.7-1.1c0.2-0.5,0.4-0.9,0.4-1.4c0.1-0.5-0.2-0.8-0.6-0.9
		c-0.9-0.1-1.8-0.1-2.7-0.2c-0.4,0-0.8-0.2-1-0.6c-0.5-0.8-0.1-1.8,0.8-1.9c1.1-0.1,2.3-0.1,3.5-0.2c0.8,0,1.2-0.4,1.4-1.1
		c0.1-0.2,0.2-0.5,0.2-0.7c0.2-0.8-0.1-1.3-0.9-1.4c-0.4,0-0.8,0-1.2,0c-0.5,0-0.7-0.4-0.9-0.8c-0.4-1.3,0.7-2.8,2-2.7
		c0.5,0,1.3,0.5,1.5-0.2c0.3-1-0.7-0.8-1.3-1c-0.5-0.2-0.9-0.4-0.9-1c0-0.6,0.4-1.1,1-1.2c0.5-0.1,1-0.1,1.5-0.2
		c0.3-0.1,0.6-0.1,0.9-0.4c0.6-0.8,0.7-1.7,0.7-2.6c0-0.7-0.8-0.8-1.2-1c-0.1,0-0.1-0.1-0.2-0.1c-0.3-0.3-0.5-0.6-0.4-1.1
		c0.1-0.4,0.3-0.8,0.7-0.9c0.4-0.1,0.8-0.1,1.2-0.2c0.7,0,1.1-0.4,1.3-1c0.1-0.3,0.2-0.6,0.3-0.9c0.6-2,0.6-2-1.3-2.9
		c-0.1,0-0.2,0-0.2-0.1c-0.4-0.2-0.6-0.6-0.5-1c0.1-0.4,0.3-0.8,0.7-0.9c0.5-0.1,1-0.2,1.5-0.2c1.5,0,1.5-0.5,1.8-1.6
		c0.1-0.3,0.1-0.6,0.2-1c0.4-1.4,0.5-2.8-1.3-3.5c-0.1,0-0.1-0.1-0.2-0.2c-0.4-0.4-0.3-1.3,0.3-1.4c0.4-0.1,0.8-0.1,1.2-0.1
		c1-0.1,1.3-0.2,1.5-1c0.2-0.8,0-1.1-0.9-1.7c-0.3-0.2-0.6-0.3-0.8-0.5c-0.1-0.2-0.2-0.5-0.1-0.7c0.1-0.2,0.3-0.4,0.5-0.5
		c0.6-0.2,1.1,0,1.7,0c0.3,0,0.7,0,0.9-0.3c0.6-0.8,1.1-1.7,0.9-2.7c-0.2-0.8-1.1-0.5-1.7-0.7c-0.2-0.1-0.5-0.1-0.7-0.2
		c-0.5-0.2-0.8-1-0.5-1.5c0.2-0.5,0.6-0.8,1.1-0.9c0.6,0,1.2-0.1,1.7,0c1.6,0.1,2,0.1,2.4-2.1c0-0.1,0-0.2,0-0.2
		c0.2-1.1-0.1-1.4-1.1-1.5c-0.7-0.1-1.3-0.1-2-0.1c-0.4,0-0.8-0.3-0.9-0.7c-0.1-0.5,0-1,0.5-1.3c0.3-0.2,0.7-0.4,1.1-0.4
		c0.7-0.1,1.3-0.1,2-0.1c1-0.1,1.3-0.4,1.3-1.4c0.1-1.2-0.3-1.7-1.5-1.9c-0.7-0.1-1.3-0.1-2-0.1c-0.4,0-0.8-0.1-1.2-0.2
		c-0.4-0.1-0.7-0.5-0.7-1c0-0.5,0.2-1,0.7-1.2c0.7-0.3,1.5-0.2,2.2-0.3c0.7,0,1.3,0.1,2,0c0.6,0,0.8-0.5,1-1c0.1-0.5,0.4-1,0-1.4
		c-0.1-0.2-0.4-0.3-0.6-0.3c-1-0.1-2-0.2-2.9-0.6c-0.5-0.2-0.8-0.8-0.6-1.2c0.2-0.4,0.5-0.7,0.9-0.7c1,0,2,0.1,3,0.1
		c1.4,0,1.7-0.3,2-1.7c0.1-0.7-0.1-1.2-0.8-1.3c-0.7-0.1-1.5-0.1-2.2-0.2c-0.7-0.1-1.2-0.5-1.1-1.1c0-0.6,0.4-1,1.2-1.1
		c0.4-0.1,0.8-0.1,1.2-0.1c0.4,0,0.8,0.1,1.2,0.1c0.2,0,0.5,0,0.7,0c0.4-0.1,0.6-0.3,0.7-0.7c0.1-0.4-0.2-0.7-0.5-0.8
		c-0.5-0.1-1-0.2-1.5-0.2c-1.2-0.2-1.7-0.7-1.6-1.5c0.1-0.8,0.7-1.1,2-0.9c0.4,0,0.8,0.1,1.2,0.2c0.2,0,0.5,0.1,0.7,0.1
		c0.5,0,0.8-0.2,0.9-0.7c0.2-0.6,0.3-1.1,0.3-1.7c0.1-0.6-0.3-1-0.8-1.1c-0.7-0.2-1.5-0.2-2.2-0.4c-0.4-0.1-0.6-0.4-0.6-0.7
		c-0.1-0.4,0.1-0.8,0.5-1c0.3-0.1,0.6-0.2,1-0.2c0.7,0,1.5,0.1,2.2,0.2c0.3,0,0.7-0.1,0.9-0.3c0.5-0.3,0.7-1.4,0.4-2.1
		c-0.2-0.5-0.7-0.7-1.2-0.7c-1-0.1-2-0.1-3-0.2c-0.5,0-0.7-0.4-0.7-0.9c0-0.5,0.2-0.8,0.6-1c0.3-0.1,0.6-0.2,1-0.2
		c0.7,0,1.5,0.1,2.2,0.1c1.5,0.1,1.7-0.1,1.8-1.6c0-0.2,0-0.3,0-0.5c-0.1-0.9-0.3-1.2-1.2-1.3c-0.5-0.1-1-0.1-1.5-0.2
		c-0.5-0.1-0.9-0.4-1-1c0-0.5,0.4-0.9,1-0.9c0.7-0.1,1.3-0.1,2-0.2c0.6-0.1,0.9-0.6,1-1.5c0.1-0.7-0.2-1.2-0.8-1.3
		c-0.6-0.1-1.1-0.2-1.7-0.3c-0.9-0.2-1.3-0.6-1.2-1.2c0.1-0.6,0.5-0.9,1.5-0.9c0.6,0,1.2,0,1.7,0c0.6,0,0.9-0.3,1-0.9
		c0.1-0.7-0.2-1.2-0.8-1.3c-0.7-0.1-1.5-0.2-2.2-0.3c-0.5-0.1-0.9-0.5-0.8-1c0.1-0.6,0.4-0.9,0.9-1c0.8,0,1.7,0,2.5-0.1
		c0.3,0,0.7-0.2,0.8-0.5c0.3-0.6,0.3-1.3,0-1.9c-0.2-0.4-0.6-0.4-1-0.6c-0.3-0.1-0.7-0.1-0.9-0.3c-0.2-0.2-0.4-0.5-0.4-0.8
		c0-0.3,0.2-0.7,0.5-0.8c0.5-0.2,1.1-0.3,1.7-0.4c0.3-0.1,0.6-0.3,0.7-0.6c0.5-1,0.1-2.1-1-2.4c-0.6-0.2-1.3-0.3-1.9-0.6
		c-0.3-0.1-0.4-0.5-0.3-0.8c0.1-0.2,0.3-0.5,0.5-0.5c0.6-0.1,1.1-0.1,1.7-0.1c1.5-0.1,1.8-0.2,2-1.6c0.1-0.6,0.1-1.2,0.1-1.7
		c0-0.6-0.3-0.9-0.9-1c-0.6-0.1-1.3-0.2-1.9-0.4c-0.4-0.1-0.5-0.6-0.5-1c0-0.4,0.3-0.7,0.6-0.7c0.7-0.1,1.5-0.2,2.2-0.3
		c1.2-0.1,1.4-0.3,1.5-1.5c0-0.2,0-0.5,0-0.7c0-1.1-0.2-1.2-1.3-1.5c-0.9-0.2-1.8-0.4-2.7-0.6c-0.4-0.1-0.6-0.6-0.5-1
		c0.1-0.3,0.3-0.6,0.7-0.6c0.8-0.2,1.6,0,2.5,0.1c1.5,0.1,1.8-0.2,1.8-1.6c0-0.2,0-0.3,0-0.5c0-1.2-0.4-1.6-1.6-1.7
		c-0.7-0.1-1.3-0.1-2-0.1c-0.6-0.1-0.9-0.5-0.9-1c0-0.6,0.4-0.9,0.9-1c0.5-0.1,1-0.1,1.5-0.1c0.5,0,1,0,1.5,0c0.5,0,0.8-0.3,0.8-0.8
		c0.1-0.3,0.1-0.7,0.1-1c0-1.1-0.5-1.5-1.5-1.6c-0.4,0-0.8,0.1-1.2,0.1c-0.4,0-0.8-0.1-1.2-0.3c-0.4-0.2-0.5-0.6-0.5-1
		c0-0.5,0.3-0.9,0.7-0.9c0.9-0.1,1.8-0.1,2.7-0.2c0.4,0,0.9-0.1,1-0.6c0.2-0.9,0.3-1.8-0.1-2.7c-0.3-0.7-1.2-0.5-1.8-0.5
		c-0.2,0-0.3,0-0.5-0.1c-0.7-0.2-1.2-0.6-1.1-1.1c0.1-0.6,0.4-0.9,1-1c0.6-0.1,1.1-0.2,1.7-0.3c0.6-0.1,0.9-0.4,0.8-1
		c0-0.6-0.2-1-0.8-1.1c-0.5-0.1-1-0.1-1.4-0.3c-0.5-0.2-0.7-0.7-0.6-1.2c0.1-0.5,0.3-0.8,0.8-0.9c0.5-0.1,1-0.2,1.5-0.3
		c0.6-0.2,1-0.6,1-1.3c0-0.4,0-0.8,0-1.2c-0.1-1.3-0.3-1.4-1.7-1.7c-0.4-0.1-0.8-0.1-1.2-0.2c-0.5-0.2-0.8-0.5-0.9-1.1
		c0-0.5,0.4-0.9,1-0.9c0.7-0.1,1.5-0.1,2.2-0.3c0.3-0.1,0.5-0.4,0.4-0.8c0-0.2-0.2-0.5-0.3-0.6c-0.4-0.3-0.9-0.2-1.4-0.4
		c-0.7-0.2-1.1-0.6-1.1-1.2c0-0.7,0.5-1.1,1-1.2c0.5-0.2,1.1-0.2,1.7-0.4c0.3-0.1,0.6-0.3,0.8-0.5c0.9-1.3,0.2-2.7-1.3-2.8
		c-1.4-0.1-1.7,0.1-2.3,1.4c-0.1,0.3-0.2,0.6-0.3,0.9c-0.4,1.6-0.8,3.2-1.1,4.8c-0.4,1.9-0.6,3.9-1.3,5.8c-0.8,2.2-1.5,4.4-2.6,6.4
		c-0.5,0.9-1,1.8-2.1,1.9c-1.3,0.1-1.8,1-2.2,2.1c-1.3,4.1-2.8,8.1-4.6,12.1c-0.3,0.7-0.4,1.6-0.9,2.3c-1.2,2-2.1,4.1-2.9,6.3
		c-0.2,0.7-0.7,0.7-1.5,0.2c-0.3-0.2-0.6-0.3-0.8,0c-0.3,0.5-0.6,1-0.8,1.5c-0.7,1.9-1.6,3.6-2.5,5.4c-0.3,0.5-0.5,1-0.9,1.5
		c-0.2,0.4-0.6,0.6-1.1,0.3c-0.6-0.4-1-0.4-1.4,0.3c-0.4,0.8-0.7,1.7-1,2.5c-0.6,2.3-1.5,4.6-2.7,6.7c-1.4,2.4-2.2,5-3.5,7.4
		c-0.3,0.5-0.3,1.1-0.4,1.7c-0.2,1.4-0.7,2.7-1.3,4c-1.2,2.3-2.4,4.7-3.6,7.1c-0.9,1.9-1.8,3.8-1.3,5.9c0.1,0.3,0,0.7-0.1,1
		c-0.7,1.9-1.1,3.8-1.1,5.8c0,0.5-0.2,1-0.3,1.5c-0.4,2-1.2,3.8-2.1,5.5c-0.4,0.8-0.3,1,0.7,1.4c1.2,0.6,1.6,1.1,1.4,2.3
		c-0.3,1.6-0.7,3.2-1.8,4.6c-1.2,1.4-2.2,2.9-3.5,4.2c-0.9,0.9-1.6,1.9-1.6,3.2c0,0.6-0.3,1.3-0.5,1.9c-1.7,4.1-3.4,8.1-5.1,12.2
		c-1.1,2.6-2.1,5.2-3.3,7.8c-1.5,3.2-2.8,6.5-4.3,9.8C77.9,311.9,77.6,312.9,77.6,313.9L77.6,313.9L77.6,313.9z M184.6,104.3
		c2.4,0.1,4.7-0.2,7.1-0.5c0.7-0.1,1.3-0.4,1.3-1.2c0-0.5,0.1-1,0.6-1.3c1.3-0.8,1-2,0.7-3.1c-0.6-2.8-1.6-5.6-2.8-8.2
		c-2.9-6.2-5.8-12.5-9.7-18.2c-0.6-0.9-1.2-1.8-2-2.5c-0.6-0.7-1.4-0.8-2.3-0.5c-0.4,0.1-0.8,0.3-1.1,0.5c-0.9,0.5-1.9,0.6-2.9,0.1
		c-1.3-0.7-2.1-0.2-3,0.8c-1.2,1.4-2.2,2.9-3.2,4.4c-2.3,3.6-4.3,7.3-5.7,11.3c-1.2,3.5-2.1,7.2-3,10.8c-0.5,2-0.8,4-0.2,6.1
		c0.3,1.4,0.2,1.4,1.7,1.5c0.8,0,1.7,0.1,2.5,0c2.7-0.1,5.5-0.3,8.2-0.5c1.5-0.1,3,0,4.5-0.1C178.5,103.7,181.5,104.5,184.6,104.3z
		 M173,44.1c0.2-3.5-0.3-6.9-0.7-10.4c-0.4-2.7-0.9-5.4-1.8-8c-1.1-3.3-2.2-6.6-3.2-9.9c-0.3-0.9-0.6-1.7-0.9-2.6
		c-0.3-0.7-0.9-0.7-1.3-0.1c-2,2.9-3.4,6.1-3.8,9.6c-0.2,1.8-0.8,3.6-0.5,5.4c0.5,3.2,0.4,6.4,0.9,9.6c0.6,3.6,0.8,7.2,1.1,10.9
		c0.1,1.3,0.5,2.6,1.1,3.8c0.2,0.5,0.6,0.8,1.2,0.6c2.1-0.5,4.2-0.9,6.3-1.4c1.1-0.3,1.4-0.6,1.5-1.7
		C172.8,48.1,172.9,46.1,173,44.1z M172.2,162.2C172.2,162.2,172.1,162.2,172.2,162.2c0,0.9,0,1.8,0.3,2.7c0.3,1.1,0.2,2.5,1.3,3.1
		c1.2,0.7,2.6,0.3,3.9,0.2c0.7-0.1,1.2-0.5,1.7-1c0.8-0.6,1.6-1.2,2.7-1.2c1.2,0,1.6,0.3,2.1,1.4c0.4,1,0.5,2.1,0.7,3.1
		c0.2,0.9,0.5,1.1,1.3,0.8c0.8-0.3,1.6-0.2,2.4-0.2c1.5-0.1,1.7-0.3,1.5-1.8c-0.1-0.3-0.1-0.7-0.2-1c-0.4-1.5-0.5-1.6-2-1.7
		c-0.4,0-0.8,0-1.2,0c-0.5-0.1-0.9-0.3-1-0.9c-0.1-0.6,0.2-1.2,0.8-1.4c0.5-0.1,1-0.2,1.5-0.3c0.9-0.2,1.2-0.8,0.9-1.7
		c-0.2-0.8-0.6-1.1-1.4-1c-0.7,0-1.3,0.2-2,0.2c-0.6,0-1.1-0.5-1.2-1.1c-0.1-0.6,0.2-0.9,0.6-1.2c0.6-0.4,1.2-0.5,1.9-0.7
		c1.1-0.3,1.3-0.5,1.3-1.2c-0.1-1-0.5-1.5-1.6-1.5c-0.4,0-0.8,0-1.2-0.1c-0.8-0.2-1.1-1.1-0.5-1.7c0.2-0.2,0.5-0.4,0.8-0.6
		c0.4-0.2,0.9-0.3,1.4-0.5c0.5-0.2,0.7-0.6,0.7-1.2c0-1.4-0.5-2-1.9-1.9c-0.2,0-0.5,0-0.7,0.1c-2.6,0.5-5.1,0-7.5-0.8
		c-0.9-0.3-1.7-0.2-2.6,0c-0.9,0.3-1.4,0.7-1.5,1.7c-0.3,3.5-0.3,6.9-0.9,10.4C172.1,161.5,172.2,161.8,172.2,162.2z M164.7,160.4
		C164.7,160.4,164.6,160.4,164.7,160.4c-0.1-0.6-0.1-1.2-0.2-1.7c-0.2-2-0.2-4-0.6-5.9c-0.2-1.1-0.8-2-1.7-2.6
		c-1.2-0.9-3.6-1.1-4.4-0.1c-1,1.2-2.1,1.9-3.5,2c-0.5,0-0.6,0.4-0.6,0.9c0.1,1.5,0,1.6-1.3,1.4c-0.4,0-0.8-0.1-1.2-0.1
		c-0.6,0-0.9,0.3-1.1,0.8c-0.2,0.9-0.2,1.8-0.1,2.7c0,0.5,0.4,0.7,0.8,0.8c0.4,0.1,0.8,0.1,1.2,0.3c0.5,0.2,0.7,0.7,0.7,1.2
		c0,0.6-0.5,0.9-1,0.9c-0.5,0.1-1,0-1.5,0c-0.4,0-0.8,0.3-0.9,0.7c-0.1,0.3-0.1,0.6-0.2,1c-0.2,1.3-0.1,1.5,1.1,1.7
		c0.9,0.2,1.6,0.4,1.7,1.5c0.1,0.7,0.5,1,1.2,1c2.1-0.2,4.1,0.4,6.1,1c0.6,0.2,1.3,0.3,2,0.3c2.1-0.1,3.7-1.7,3.7-3.8
		C164.7,163.1,164.7,161.8,164.7,160.4z M144.5,89.7c0,1.5,0,2.4,0.3,3.3c0.1,0.3,0.3,0.4,0.6,0.3c0.2-0.1,0.5-0.3,0.5-0.5
		c0-0.4-0.1-0.8-0.2-1.2c-0.2-0.9-0.2-1.7,0.5-2.3c0.9-0.9,0.9-1.8,0.3-2.9c-0.3-0.6-0.1-1.3,0.5-1.7c0.3-0.2,0.6-0.4,0.8-0.5
		c2.3-1.7,4.5-3.6,5.9-6.3c0.2-0.4,0.5-0.9,0.9-1.2c1.3-0.9,2-2.2,2.7-3.5c2.2-4.3,5.2-8.1,7.8-12.1c0.4-0.6,1.2-1.2,0.9-1.9
		c-0.5-0.9-1.5-0.4-2.3-0.3c-0.6,0.1-1.1,0.3-1.6,0.6c-3.8,2.2-7.1,4.8-9.6,8.5c-1.2,1.8-2.5,3.7-3.8,5.5c-0.3,0.5-0.6,1-0.5,1.6
		c0,0.7,0.7,1.2,1.3,0.9c0.7-0.4,1.4-0.6,2.1-0.3c0.9,0.3,1.3,1.2,0.7,2c-0.9,1.4-2,2.7-3.5,3.4c-2.3,1.2-3.7,3-4.1,5.6
		C144.7,87.9,144.5,89.1,144.5,89.7z M164.2,136.4c0-0.2-0.1-0.5-0.1-0.8c-0.5-2.9-1-5.9-1.6-8.8c-0.3-1.7-0.8-3.4-1.2-5.1
		c-0.2-0.8-0.5-1.7-1.4-1.9c-1-0.1-1.3,0.8-1.8,1.5c-1.3,2-1.8,4.4-3,6.5c-0.3,0.5-0.4,1.1-0.3,1.7c0.1,1.1,0,2-1,2.6
		c-0.5,0.3-0.7,0.9-0.8,1.5c-0.2,0.8-0.1,1.3,0.5,2c0.9,0.9,1.9,1.6,2.5,2.7c1.3,2.1,2.6,2.6,5,2.1
		C162.8,140,164.1,138.5,164.2,136.4z M180.5,124.6c0.6,0,1.3,0.3,1.6-0.2c0.5-0.7-0.2-1.2-0.5-1.8c-0.4-0.6-0.7-1.1-1.1-1.6
		c-0.5-0.6-1-0.7-1.8-0.3c-0.6,0.3-1,0.9-1.2,1.5c-0.4,1.3-0.7,2.6-1,3.8c-0.2,0.9-0.2,1.8-0.5,2.7c-1.2,2.9-1.2,6-2,8.9
		c-0.1,0.5-0.2,1.2-0.1,1.7c0,0.9,0.6,1.5,1.5,1.7c1.2,0.3,2.3,0,3.4-0.5c0.4-0.2,0.8-0.5,1.3-0.8c1.9-1.1,2.3-1.1,3.9,0.5
		c0.2,0.2,0.5,0.4,0.7,0.6c0.2,0.2,0.7-0.1,0.7-0.4c0.1-0.8-0.2-1.4-0.8-1.6c-0.8-0.2-1.6-0.3-2.4-0.5c-0.4-0.1-0.8-0.1-1.2-0.3
		c-0.4-0.2-0.6-0.6-0.6-1c0-0.5,0.2-0.8,0.6-1c0.4-0.2,0.8-0.2,1.2-0.2c0.7-0.1,1.3,0,2-0.1c0.6-0.1,0.8-0.4,0.9-1
		c0.1-0.9-0.3-1.4-1.2-1.6c-0.7-0.2-1.5-0.2-2.2-0.5c-0.5-0.2-0.8-0.6-0.7-1.2c0.1-0.5,0.3-1,0.8-1.2c0.5-0.1,1-0.1,1.5-0.2
		c0.7-0.1,0.9-0.6,0.8-1.3c-0.2-0.7-0.6-1.2-1.3-1.4c-0.5-0.1-1-0.1-1.5-0.2c-0.8-0.1-1.6-0.3-2.4-0.7c-0.4-0.2-0.6-0.6-0.5-1
		c0.1-0.5,0.4-0.9,1-1C179.7,124.6,180.1,124.6,180.5,124.6z M45.3,399.7c0,1.7,0,3.5,0,5.2c0,0.3,0,0.7,0.3,0.9
		c0.4,0.1,0.5-0.3,0.7-0.5c0.8-1.8,1.6-3.6,2-5.6c0.7-3.3,1.3-6.6,2-10c0.2-0.9,0.2-1-0.8-1c-1-0.1-1.2-0.6-1-1.3
		c0.4-1.3,0.7-2.6,1.2-3.8c0.6-1.6,1.5-3.1,2.2-4.7c1.2-3,2.6-5.9,4.2-8.7c0.3-0.5,0.5-1,0.8-1.6c0.2-0.5-0.1-1-0.6-1.2
		c-0.4-0.1-0.9-0.2-1.2,0.1c-1.2,1.2-2.9,2-3.3,3.9c-0.2,0.7-0.7,1.1-1.4,1.3c-0.3,0.1-0.7,0.1-0.9,0.3c-0.6,0.3-0.8,1.1-0.4,1.7
		c0.3,0.5,0.7,0.7,1.1,0.9c0.3,0.2,0.4,0.5,0.3,0.8c-0.2,0.4-0.3,0.8-0.5,1.1c-1,1.1-1.6,2.5-2.3,3.8c-1.1,2.2-1.6,4.5-0.1,6.8
		c0.6,0.9,0.4,1.9-0.5,2.4c-1,0.6-1.2,1.5-1.4,2.5C45.3,395.2,45.3,397.5,45.3,399.7z M138.5,162c0.1-1.3-0.1-1.5-1-1.7
		c-0.8-0.2-1-0.1-1.4,0.9c-0.3,0.7-0.4,1.4-1.4,1.6c-1,0.2-1.2,0.8-0.9,1.6c0.2,0.5,0.5,1.1,0.8,1.5c0.4,0.6,0.7,1.1,0.7,1.8
		c0,0.5,0.1,1,0.4,1.4c0.5,0.9,0.4,1.7-0.1,2.6c-1.5,2.4-2,5.2-3.1,7.8c-0.1,0.2-0.1,0.5-0.2,0.7c0,0.4,0.2,0.6,0.5,0.8
		c0.3,0.1,0.7,0.1,0.9-0.2c0.2-0.2,0.3-0.4,0.4-0.6c1.3-2.9,2.4-5.8,2.9-9c0.3-1.7,0.5-3.4,0.8-5.1
		C138.4,164.7,138.5,163.2,138.5,162z M143.1,143.9c-0.7,0.4-0.8,0.8-0.8,1.2c-0.6,2.6-1.4,5.1-1.5,7.8c0,0.7,0,1.5-0.4,2.2
		c-0.2,0.3-0.5,0.5-0.8,0.4c-0.2-0.1-0.4-0.3-0.5-0.5c-0.3-0.5-0.2-1-0.1-1.4c0.4-1.9,0.9-3.7,1.2-5.6c0.4-1.7,0.7-3.4,1-5.1
		c0.1-0.7-0.3-1.3-0.8-1.4c-0.6,0-0.8,0.5-1,0.9c-0.7,1.8-1,3.7-1.2,5.6c-0.2,1.9-0.3,3.8-0.6,5.7c-0.2,1.3,0.1,2.5,0.4,3.6
		c0.2,0.6,0.7,0.8,1.4,0.4c1.6-0.9,1.6-0.9,2.1-2.7c0.3-1.1,0.6-2.2,0.9-3.4C142.9,149.1,143.3,146.6,143.1,143.9z M74.6,483.5
		c0.2,1.4,0.3,2.3,0.5,3.3c0.1,0.4,0.1,0.8,0.2,1.2c0.6,3.4,2.1,6.6,2.6,10.1c0,0.2,0.2,0.5,0.3,0.7c0.3,1,0.6,2.1,0.8,3.1
		c0.2,1,0.3,2-0.5,2.8c-0.3,0.3-0.4,0.7-0.3,1.2c0.9,2.4,1.5,4.9,2.7,7.2c0.1,0.2,0.4,0.4,0.6,0.3c0.4-0.1,0.4-0.5,0.3-0.8
		c-0.1-0.5-0.2-1-0.3-1.4c-0.4-1.5-0.9-3-1.3-4.5c-0.6-2-0.5-4.1,0-6.1c0.3-0.9,0.3-1.7-0.1-2.6c-1.6-3.6-3-7.2-3.7-11
		c0-0.2-0.1-0.5-0.2-0.7C76,485.2,75.5,484.5,74.6,483.5z M54.2,459.2c-0.5,0.6-0.7,0.9-0.9,1.1c-1,0.9-1.1,2-0.8,3.2
		c0.1,0.5,0.3,1,0.6,1.3c0.4,0.6,0.5,1.2,0.6,1.9c0.4,3.4,0.9,6.9,1.7,10.3c0.7,2.9,1.4,5.8,1.8,8.7c0.1,0.6,0.2,1.1,0.5,1.6
		c0.1,0.1,0.3,0.2,0.4,0.2c0.1-0.1,0.2-0.3,0.2-0.4c-0.1-0.8-0.3-1.6-0.4-2.4c-0.4-2.9-0.8-5.7-1.2-8.6c-0.6-4.3-1.2-8.5-1.8-12.8
		C54.8,462.1,54.5,460.9,54.2,459.2z M157.1,191C157.1,191,157.1,191,157.1,191c-0.9-0.1-1.8-0.1-2.7-0.1c-0.5,0-1,0.2-1.3,0.7
		c-0.6,1.3-0.8,2.7-0.5,4.1c0,0.2,0.4,0.4,0.6,0.1c0.3-0.4,0.6-0.8,0.9-1.1c1.1-1.3,2.5-1.9,4.2-1.7c1.8,0.3,3.6,0.2,5.4,0.1
		c1.3-0.1,2.6-0.3,3.9,0.3c0.4,0.2,1.3-0.4,1.5-1c0.2-0.5-0.1-0.8-0.4-1.1c-0.6-0.6-1.1-1.2-1.8-1.7c-0.5-0.4-1-0.5-1.6-0.1
		c-0.4,0.3-0.8,0.6-1.2,0.9c-1.2,0.8-2.5,1.2-4,0.9C159.2,191.1,158.1,191.1,157.1,191z M65.6,461.6c-0.1,1.3-0.1,2.5,0.4,3.7
		c0.3,0.8,0.5,1.6,0.6,2.4c0.7,3.9,1.7,7.8,2,11.7c0.1,0.9,1,1.9,1.8,1.7c1.1-0.3,1.7,0.3,2.5,0.6c0.1,0.1,0.3,0,0.5,0
		c0.3-0.1,0.3-0.4,0.2-0.6c-0.9-1.8-1.8-3.5-2.6-5.4c-1.8-4.2-3.5-8.4-4.5-12.8C66.4,462.4,66.3,461.9,65.6,461.6z M123.8,193.1
		c0,0.2,0,0.3,0.1,0.5c0,0.1,0.1,0.2,0.2,0.2c0.2,0,0.4,0,0.4-0.1c0.2-0.2,0.4-0.5,0.6-0.8c1.3-2.5,2.6-5,3.7-7.6
		c0.8-1.9,1.3-3.9,1.9-5.9c0.1-0.3,0-0.7-0.4-0.8c-0.2,0-0.5,0.1-0.6,0.3c-0.3,0.4-0.6,0.8-0.7,1.3c-1,3.5-2.7,6.8-4.2,10.1
		C124.3,191.2,123.9,192.1,123.8,193.1z M136.8,534c-0.3,0-0.4,0.2-0.4,0.5c0.1,2.4,0.4,4.8,1.2,7c0.4,1.2,1.1,2.4,1.7,3.5
		c0.3,0.5,0.7,0.9,1.1,1.3c0.2,0.2,0.5,0.5,0.9,0.3c0.3-0.2,0.3-0.5,0.2-0.9c-0.9-4-2.7-7.8-4.4-11.5
		C137.1,534.2,136.9,534.1,136.8,534z M122.2,502.1c0.2-1.7,0.2-3.5,0.7-5.1c0.1-0.2,0-0.5,0-0.7c-0.4-2.1-0.8-4.1-1.3-6.4
		c-1.7,3.4-2.1,5.1-0.7,9.6c0.2,0.6,0.3,1.3,0.5,1.9C121.6,501.6,121.7,502,122.2,502.1z M203.6,542c0-0.9,0.1-1.3,0.1-1.8
		c0-0.1-0.1-0.3-0.3-0.4c-0.1-0.1-0.4,0-0.4,0.1c-1.2,2.3-2.5,4.7-3.7,7c-0.4,0.8-0.2,1.6,0.4,2.3c0.3,0.3,0.9,0.4,1.1,0
		c0.5-0.9,0.9-2,1.5-2.9C203.2,544.8,203.8,543.3,203.6,542z M82,504.8c0,0.1-0.1,0.3-0.1,0.4c0.6,4.3,2.2,8,4.8,11.5
		c0.1,0.1,0.3,0.2,0.4,0.1c0.1,0,0.2-0.2,0.3-0.3c0.1-0.7,0.1-1.5-0.3-2.2c-1.7-3-3.4-6-4.7-9.2C82.3,504.9,82.1,504.9,82,504.8z
		 M111,454.6c-0.2,0-0.3,0-0.5,0c-0.2,2.9-0.3,5.7-0.5,8.6c0,0.2,0,0.5,0.1,0.7c0.1,0.4,0.2,0.9,0.7,0.8c0.4-0.1,0.8-0.3,0.9-0.8
		c0.1-0.4,0.1-0.8,0-1.2c-0.2-0.9-0.1-1.8-0.1-2.7C111.8,458.3,111.5,456.4,111,454.6z M41.2,422.7c-0.1-1-0.2-2-0.3-2.9
		c0-0.2-0.3-0.4-0.5-0.4c-0.2,0-0.4,0.1-0.6,0.3c-0.1,0.1-0.2,0.3-0.2,0.4c-0.3,1.9-0.6,3.9-0.1,5.8c0.1,0.3,0.3,0.6,0.7,0.6
		c0.4,0,0.6-0.3,0.7-0.6C41.1,424.8,41.2,423.7,41.2,422.7z M268.9,547.6c-1.9,1.7-2.9,3.2-3.1,5.2c0,0.5,0.4,0.9,1,0.8
		c1.2-0.3,2.2-1.5,2.3-2.9C269.1,549.8,269,548.9,268.9,547.6z M160.6,545.7c-0.1-0.5-0.3-0.8-0.6-0.9c-0.3-0.2-0.6,0-0.8,0.3
		c-0.4,0.6-0.9,1.2-1.3,1.8c-0.9,1.3-0.9,2.3,0.3,3.5c0.4,0.4,0.9,0.3,1.2-0.1C160.3,548.8,159.8,547,160.6,545.7z M262.4,551.5
		c0.4,0.1,0.7-0.1,0.9-0.3c1.1-1.3,2.3-2.6,3.3-4c0.7-0.9,1.2-2,1.8-3c0.1-0.1,0-0.3-0.1-0.4c-0.1-0.1-0.3-0.1-0.4,0
		c-0.1,0-0.1,0.1-0.2,0.1c-2.1,2-3.8,4.3-5.5,6.7c-0.1,0.1-0.1,0.3-0.1,0.5C262.2,551.3,262.3,551.4,262.4,551.5z M145.5,156.2
		c0-0.5,0-0.7,0-1c0-0.6-0.6-1-1.2-0.9c-0.5,0.1-0.9,0.3-1.2,0.8c-0.2,0.5-0.4,1.1-0.6,1.6c-0.4,1.3,0,1.8,1.4,1.7
		c0.9,0,1.2-0.2,1.3-1.1C145.4,157,145.5,156.5,145.5,156.2z M130.2,521.8c-0.1,0.8-0.1,1.7-0.9,2.2c-0.5,0.3-0.5,0.8-0.2,1.3
		c0.3,0.7,0.9,1.2,1.6,1.5c0.6,0.2,1.1-0.1,1-0.7c-0.2-1.7-0.4-3.5-0.7-5.2c-0.1-0.6,0-1.3-0.6-1.8c-0.9,0.6,0,1.3-0.1,2
		C130.1,521.3,130.2,521.6,130.2,521.8z M43.9,401.6C43.9,401.6,44,401.6,43.9,401.6c0.1-0.7,0.1-1.3,0.1-2c0-0.5,0-1-0.1-1.5
		c0-0.1-0.2-0.3-0.3-0.3c-0.1,0-0.3,0.2-0.3,0.3c-0.2,0.8-0.3,1.6-0.6,2.4c-0.5,1.6-0.1,3.1,0.3,4.6c0.1,0.2,0.3,0.4,0.6,0.3
		c0.1-0.1,0.3-0.2,0.3-0.4C43.9,403.9,43.9,402.8,43.9,401.6z M53.2,450.7C53.1,450.7,53.1,450.7,53.2,450.7
		c-0.1-0.6-0.1-1.1-0.2-1.7c-0.1-0.6-0.3-1.3-0.5-1.9c-0.2-0.6-0.6-0.7-1.2-0.4c-0.5,0.2-0.7,0.5-0.6,1.1c0.3,1.6,1.6,2.9,1.7,4.5
		c0,0.1,0.3,0.2,0.4,0.2c0.1,0,0.3-0.2,0.3-0.3C53.2,451.6,53.2,451.1,53.2,450.7z M235.5,526c0-0.2,0-0.3,0-0.5
		c-0.1-0.6-0.5-0.8-1-0.9c-0.4-0.1-0.8,0-1,0.4c-0.3,0.7-0.6,1.4-0.6,2.1c0,0.6,0.6,1,1.4,1.1c0.5,0,0.9-0.2,1-0.8
		C235.3,527,235.4,526.5,235.5,526z M202.8,537.4c-0.1,0.1-0.3,0.1-0.4,0.2c-1,1.7-2,3.4-3,5.1c-0.3,0.6-0.5,1.2-0.7,1.8
		c-0.1,0.2,0,0.5,0.3,0.5c0.1,0,0.3-0.1,0.4-0.2c1.7-2.2,2.7-4.7,3.5-7.3C202.9,537.6,202.8,537.5,202.8,537.4z M58.8,499
		C58.9,499,58.9,499,58.8,499c0,0.4,0,0.8,0,1.2c0,1.1,0.2,2.1,0.6,3.1c0.1,0.3,0.5,0.5,0.8,0.4c0.4-0.1,0.5-0.4,0.6-0.7
		c0-0.2,0-0.3-0.1-0.5c-0.9-1.7-1.3-3.5-1.4-5.5c0-0.2-0.2-0.3-0.4-0.2c-0.1,0-0.2,0.1-0.2,0.2C58.8,497.7,58.8,498.4,58.8,499z
		 M219.7,522c-1.2,2-1.4,4.1-1.5,6.3c0,0.6,0.4,0.8,1,0.6c0.9-0.4,1-0.6,0.6-1.5c-0.4-0.9-0.4-1.7-0.3-2.6
		C219.6,523.8,219.6,522.9,219.7,522z M49.1,475.1c-0.3-2.6-0.5-5.2-0.8-7.8c0-0.1-0.1-0.1-0.2-0.1c-0.3-0.1,0,0.3-0.3,0
		C47.7,469.9,47.9,472.5,49.1,475.1z M35,401c-0.3,1.7-0.8,3.3-0.7,5.1c0,0.5,0,1,0.1,1.5c0,0.2,0.3,0.4,0.5,0.4
		c0.2,0,0.5-0.1,0.6-0.3c0.3-0.3,0.4-0.7,0.2-1.1c-0.6-1.6-0.6-3.2-0.6-4.9C35.2,401.5,35.1,401.2,35,401z M89.3,522.9
		c-0.3-1.5-1.2-2.5-2.6-3.1c-0.3-0.1-0.6,0.3-0.6,0.6c0.2,1.6,1.1,2.5,2.5,3C89,523.5,89.4,523.2,89.3,522.9z M314.1,492.5
		c-1,3.1-1.7,5.8-1.9,8.6c0,0.1,0.1,0.3,0.2,0.3c0.2,0.1,0.3-0.1,0.3-0.3c0.5-2.6,1-5.2,1.5-7.7
		C314.4,493.3,314.3,493.2,314.1,492.5z M180.6,555.3c-1.1,0.7-1.6,1.7-1.9,2.8c-0.3,0.9-0.5,1.9-0.7,2.9c-0.1,0.3-0.4,0.7,0.1,1
		C179.6,559.5,180.4,557.6,180.6,555.3z M146,150.1c0-0.8,0-1.4-0.7-1.6c-0.5-0.2-1,0.4-1.1,1.3c0,0.3-0.1,0.7,0,1
		c0.1,0.4,0.3,0.7,0.8,0.8c0.5,0,0.8-0.2,0.9-0.7C146,150.6,146,150.3,146,150.1z M193.6,551.7c0.1,0,0.2,0,0.2,0
		c0.9-0.8,1.4-1.8,1.3-3c0-0.1-0.2-0.3-0.3-0.4c-0.1-0.1-0.3-0.1-0.5,0c-0.6,0.4-1.1,1-1.4,1.7c-0.2,0.5-0.1,1,0.2,1.4
		C193.3,551.6,193.5,551.6,193.6,551.7z M136.8,526.9c-0.1,0.1-0.3,0.2-0.3,0.3c-0.1,0.9-0.1,1.8,0.2,2.7c0.1,0.4,0.5,0.5,0.8,0.2
		c0.1,0,0.1-0.1,0.2-0.1c0.9-0.9,0.6-2.5-0.6-3.1C137,526.9,136.9,526.9,136.8,526.9z M276.9,539.8c-1.6,1.3-2.3,3.2-2.6,5.2
		c0,0.1,0.1,0.3,0.2,0.4c0.1,0,0.4-0.1,0.4-0.2C275.6,543.3,276.2,541.6,276.9,539.8z M85.9,289.2c0.5-1.1,0.9-1.6,1.1-2.2
		c0.2-0.6,0.4-1.2,0.6-1.9c0-0.1,0-0.4-0.1-0.4c-0.1-0.1-0.3,0-0.4,0.1c-1.2,0.8-1.9,1.8-1.2,3.3C85.9,288.3,85.8,288.5,85.9,289.2z
		 M236.7,519.1c0-0.4,0-0.9-0.6-0.9c-0.5-0.1-1,0-1.3,0.5c-0.1,0.2-0.2,0.5-0.2,0.7c-0.1,0.7,0.1,1,0.9,1.2c0.5,0.1,0.9-0.1,1-0.7
		C236.7,519.5,236.7,519.3,236.7,519.1z M182.2,549.1c-0.8,1.4-1.9,2.6-2.3,4.1c-0.1,0.2,0,0.5,0.3,0.6c0.1,0,0.3-0.1,0.4-0.2
		C181.7,552.3,182.2,550.8,182.2,549.1z M58.3,475.1c-0.1,1.7,0.2,3.3,0.5,4.8c0,0.1,0.1,0.1,0.1,0.2c0.1,0.1,0.2,0.1,0.2,0.1
		c0.1-0.1,0.3-0.2,0.3-0.3C59.3,478.3,59,476.6,58.3,475.1z M147.1,139.1c0-0.3,0-0.6-0.1-0.8c-0.1-0.2-0.3-0.4-0.5-0.5
		c-0.2,0-0.5,0.1-0.6,0.2c-0.4,0.6-0.5,1.2-0.3,1.9c0.1,0.3,0.3,0.5,0.7,0.5c0.4,0,0.6-0.2,0.7-0.5
		C147.1,139.7,147.1,139.4,147.1,139.1z M150.2,167.5c0-0.4-0.2-0.6-0.4-0.7c-1.1-0.3-1.7,0.2-1.6,1.4c0,0.3,0.1,0.7,0.5,0.7
		c0.3,0.1,0.7,0,0.8-0.4C149.8,168.2,150,167.8,150.2,167.5z M35.7,386.5c-0.1-0.5,0.2-1.2-0.5-1.3c-0.4-0.1-0.6,0.5-0.8,0.8
		c-0.2,0.3-0.3,0.6-0.4,0.9c-0.1,0.5,0.3,0.8,0.7,0.9c0.4,0.1,0.7-0.1,0.8-0.4C35.7,387.1,35.7,386.8,35.7,386.5z M47.4,439.7
		c0.2-1.8,0.3-3.6,0.1-5.3c0-0.1-0.2-0.2-0.3-0.3c-0.1,0.1-0.3,0.2-0.3,0.3C47,436.2,47.2,437.9,47.4,439.7z M146.5,144.5
		c0-0.7-0.2-1.1-0.7-1.1c-0.5-0.1-0.8,0.3-0.9,0.7c-0.1,0.3-0.1,0.7,0,1c0,0.2,0.3,0.4,0.5,0.5c0.3,0.1,0.7,0,0.8-0.3
		C146.5,144.9,146.5,144.6,146.5,144.5z M185,145.7c0.1,0.3,0.1,0.7,0.3,1.1c0.1,0.1,0.4,0.2,0.6,0.2c0.1,0,0.3-0.1,0.4-0.3
		c0.2-0.7,0.1-1.4-0.5-2c-0.2-0.2-0.5-0.1-0.6,0.2C185.1,145.2,185.1,145.4,185,145.7z M122,198.3c-0.1,0-0.1-0.1-0.2-0.1
		c-0.1,0-0.2,0-0.2,0.1c-0.5,1-1,2-1.5,3.1c-0.1,0.1,0.1,0.3,0.1,0.4c0.1,0,0.4,0,0.4-0.1c0.5-1,1-2.1,1.5-3.1
		C122.1,198.4,122.1,198.3,122,198.3z M35,452.6c0.4-1.3,0.2-2.2,0.1-3.1c0-0.2-0.2-0.5-0.4-0.5c-0.3,0-0.4,0.2-0.4,0.5
		C34.2,450.5,34.3,451.5,35,452.6z M147.6,133.5c0-0.3,0-0.3,0-0.4c0-0.4-0.2-0.9-0.6-0.8c-0.5,0-0.6,0.5-0.6,0.9
		c0,0.3,0,0.7,0.1,0.9c0.1,0.2,0.3,0.3,0.5,0.4c0.1,0,0.3-0.1,0.4-0.2C147.4,133.9,147.5,133.6,147.6,133.5z M59,490.5
		c-0.1-0.3-0.1-0.7-0.2-1.1c-0.1-0.2-0.3-0.4-0.6-0.3c-0.1,0-0.3,0.2-0.3,0.3c-0.1,0.7,0.1,1.3,0.5,1.8c0,0.1,0.2,0.1,0.2,0.1
		c0.1-0.1,0.3-0.2,0.3-0.3C59,491,59,490.8,59,490.5z M42.5,450.1c0.1,0,0.3,0,0.4-0.1c0.3-0.3,0.5-0.6,0.7-1
		c0.2-0.3,0.5-0.6,0.1-0.8c-0.2-0.1-0.6-0.1-0.9,0c-0.6,0.3-0.8,0.9-0.5,1.7C42.3,450,42.4,450.1,42.5,450.1z M89.1,511.4
		c-0.1,0-0.2,0-0.2,0c-0.1,0-0.1,0.1-0.1,0.2c0.1,0.7,0.4,1.2,1,1.7c0.1,0,0.2,0.1,0.2,0c0.1-0.1,0.2-0.3,0.2-0.4
		C90,512.4,89.6,511.9,89.1,511.4z M46.8,455.4c-0.3,1.1-0.2,1.8,0,2.5c0,0.1,0.3,0.3,0.4,0.2c0.1,0,0.2-0.2,0.3-0.4
		C47.5,457,47.2,456.4,46.8,455.4z M235.6,536.6c-0.2,0.3-0.4,0.4-0.4,0.5c-0.2,0.4-0.3,0.8-0.5,1.1c-0.1,0.2-0.1,0.5,0.1,0.7
		c0.1,0.2,0.7-0.1,0.8-0.4C235.7,538,235.8,537.5,235.6,536.6z M92.8,517.9c0.2-0.7-0.1-1.3-0.4-1.8c-0.1-0.1-0.3-0.1-0.4-0.2
		c-0.1,0.1-0.2,0.3-0.2,0.4C92,516.9,92.2,517.5,92.8,517.9z M70.8,486c-0.1,1.6-0.1,1.6,0.8,2.9C71.6,487.8,71.1,487,70.8,486z
		 M45.1,430.4c-0.1-0.3-0.1-0.5-0.2-0.7c0-0.1-0.3-0.2-0.4-0.2c-0.4,0.4-0.2,0.9-0.2,1.3c0,0.1,0.2,0.2,0.3,0.3c0,0,0.2,0,0.2-0.1
		C45,430.8,45.1,430.6,45.1,430.4z M37.3,416.1c0,0.4,0.3,0.8,0.5,0.7c0.4-0.2,0.7-1,0.5-1.4c-0.1-0.2-0.4-0.2-0.6-0.1
		C37.3,415.5,37.3,415.8,37.3,416.1z M95.6,266.2c-0.6,1.2-0.6,1.2-0.6,2.2C95.4,267.8,95.9,267.3,95.6,266.2z M60.8,476.9
		c0.3-0.9,0.4-1.6-0.2-2.2c0,0-0.2,0-0.2,0.1C60,475.6,60.3,476.2,60.8,476.9z M46.1,445.3c-0.4,1.6-0.4,1.6,0.3,2.9
		C46.3,447.1,46.2,446.2,46.1,445.3z M201.3,121.9c-0.1-0.2-0.1-0.4-0.2-0.4c-0.2-0.1-0.5,0-0.6,0.2c-0.1,0.2-0.2,0.4-0.2,0.7
		c0,0.2,0.2,0.4,0.4,0.5c0.2,0.1,0.4-0.1,0.5-0.3C201.2,122.3,201.3,122.1,201.3,121.9z M226.8,508.6c-0.1,0-0.2,0.1-0.2,0.1
		c-0.2,0.4,0,0.8,0.2,1.1c0.1,0.1,0.3,0.1,0.4,0c0.2-0.1,0.3-0.4,0.2-0.6C227.4,508.9,227.2,508.6,226.8,508.6z M172.1,545.5
		c-0.4,0.1-0.5,0.4-0.6,0.7c0,0.3,0,0.5,0.3,0.6c0.1,0,0.4-0.1,0.4-0.2c0.1-0.3,0.2-0.6,0.2-0.9
		C172.4,545.7,172.2,545.6,172.1,545.5z M45.9,418.3c0,0.2,0.1,0.5,0.4,0.4c0.1,0,0.2-0.2,0.2-0.4c0-0.2-0.1-0.5-0.4-0.4
		C46,417.9,46,418.1,45.9,418.3z M212.2,536.1c0-0.4-0.1-0.6-0.5-0.6c-0.1,0-0.4,0.1-0.4,0.2c-0.1,0.4,0.1,0.6,0.4,0.8
		C211.9,536.5,212.1,536.3,212.2,536.1z M235.2,490.1c-0.1-0.2-0.2-0.3-0.3-0.4c-0.1,0.1-0.3,0.2-0.4,0.3c-0.2,0.3-0.3,0.6-0.2,0.9
		c0,0.1,0.1,0.2,0.1,0.2c0.1,0,0.4,0,0.4-0.1C235.1,490.7,235.2,490.4,235.2,490.1z M65.4,459.4c0-0.3-0.2-0.5-0.4-0.5
		c-0.3,0-0.3,0.4-0.2,0.6c0,0.1,0.2,0.3,0.3,0.3C65.3,459.9,65.4,459.7,65.4,459.4z M117.5,207.9c0.3,0,0.4-0.2,0.4-0.5
		c0-0.1-0.1-0.3-0.3-0.4c-0.3-0.1-0.5,0-0.5,0.3C117.1,207.6,117.2,207.8,117.5,207.9z M169,543.3c-0.1-0.1-0.1-0.4-0.2-0.4
		c-0.3,0-0.4,0.2-0.4,0.4c0,0.1,0.1,0.3,0.3,0.3C168.9,543.8,169,543.5,169,543.3z M48,443.2c0-0.1,0-0.4-0.1-0.4
		c-0.1-0.1-0.2,0.1-0.2,0.3c0,0.1,0,0.4,0.1,0.4C47.9,443.5,48,443.4,48,443.2z M42.5,434.5c0-0.2,0-0.5,0-0.7c0,0-0.1,0-0.2-0.1
		c0,0.2,0,0.4,0,0.7C42.3,434.4,42.4,434.4,42.5,434.5z M163.9,539.1c0-0.2,0-0.3-0.2-0.3c-0.1,0-0.2,0.1-0.2,0.1c0,0.1,0,0.2,0,0.4
		C163.7,539.2,163.8,539.2,163.9,539.1z M156.3,542.1c0.2-0.1,0.2-0.2,0.2-0.4c0-0.1-0.1-0.1-0.2-0.1c-0.1,0.1-0.2,0.2-0.3,0.3
		C156,541.9,156.2,542,156.3,542.1z M30.8,408.1c-0.1,0-0.1-0.1-0.2-0.1c-0.1,0-0.1,0.1-0.1,0.2c0,0.2,0.1,0.3,0.3,0.1
		C30.8,408.3,30.8,408.2,30.8,408.1z M49.9,356.2c-0.1,0-0.1-0.1-0.2-0.1c-0.1,0-0.2,0.1-0.2,0.1c0,0.2,0.1,0.3,0.3,0.2
		C49.8,356.3,49.8,356.2,49.9,356.2z M151.3,151.5c-0.1-0.1-0.2-0.3-0.3-0.3c-0.2,0-0.2,0.1-0.2,0.3c0,0.1,0.1,0.2,0.1,0.2
		C151,151.6,151.2,151.5,151.3,151.5z M208.7,150.4c-0.1,0-0.2,0.1-0.2,0.1c0,0.1,0.1,0.3,0.1,0.4c0.1,0,0.2-0.1,0.2-0.1
		C208.8,150.7,208.7,150.5,208.7,150.4z M48.5,447.5c0-0.1-0.1-0.1-0.1-0.2c0,0.1-0.1,0.1-0.1,0.2c0,0.1,0.1,0.1,0.1,0.2
		C48.4,447.6,48.4,447.5,48.5,447.5z M161.9,543.5c0-0.1,0-0.1,0-0.2c-0.1,0-0.2,0-0.3,0.1c0,0,0,0.1,0,0.2
		C161.6,543.5,161.8,543.5,161.9,543.5z M68.8,488.5l0.1-0.2l-0.1,0L68.8,488.5z M58.9,494.1c0,0-0.1,0.1-0.1,0.1
		c0,0.1,0,0.1,0.1,0.2c0,0,0.1-0.1,0.1-0.1C58.9,494.2,58.9,494.2,58.9,494.1z M233.6,496.4c0-0.1,0-0.2,0-0.2
		c-0.1-0.1-0.2-0.1-0.3,0.1c0,0.1,0.1,0.1,0.1,0.2C233.5,496.5,233.6,496.4,233.6,496.4z M41,402.2c0-0.1-0.1-0.1-0.1-0.2
		c0,0-0.1,0.1-0.1,0.1c0,0.1,0.1,0.1,0.1,0.2C40.9,402.3,41,402.3,41,402.2z"/>
	<path d="M169.6,255.4c0.3,2.1,0.1,4.1,0.2,6.2c0.1,1.4,0.4,1.7,1.8,1.8c1.1,0,2.1,0,3.2-0.1c1.6-0.2,3.1-0.3,4.7,0.3
		c1.2,0.4,2,1.1,2,2.5c0.1,1.7,0.5,3.4,0.5,5.2c-0.1,1.7-0.7,2.6-2.4,3c-1.3,0.3-2.5,0.2-3.2-1.1c-0.5-1-1.4-1.4-2.5-1.3
		c-0.7,0.1-1.5,0-2.2,0.1c-1.2,0.1-1.5,0.3-1.5,1.5c-0.1,2.5-0.2,5-0.2,7.5c0,1.8,0.1,3.6,0.2,5.4c0.1,1.7,0.5,2,2.1,2.3
		c1.4,0.3,2.8,0.4,4.2,0.3c1.5-0.1,3,0,4.5,0.1c0.8,0,1.3,0.4,1.7,1.2c1.7,3.9-0.1,6.9-2.2,9c-1.6,1.5-4.2,1.2-5.4-0.6
		c-0.8-1.2-1.6-1.5-2.9-1.3c-0.3,0-0.7,0-1,0c-1.6,0.1-2,0.5-2,2.2c0.1,2.3,0,4.6-0.1,7c-0.1,1.1,0.1,2.2,0.2,3.2
		c0.1,0.8,0.4,1.1,1.3,1.2c0.9,0.1,1.8,0.1,2.7,0.1c1.3,0,2.5-0.1,3.3-1.3c0.4-0.7,1.3-0.8,2-0.7c1.2,0.2,2.5,0.6,3.3,1.6
		c1.5,1.7,2.3,3.6,2.2,5.9c-0.1,1.9-1.3,3.2-3.2,3.5c-1.2,0.2-2.5,0.1-3.7-0.2c-0.6-0.2-1.3-0.4-1.9-0.3c-3.2,0.1-6.3-0.3-9.4-0.4
		c-2.2-0.1-4.5,0-6.7,0.2c-0.7,0.1-1.5,0.2-2.2,0.1c-1-0.1-2,0-2.9,0.4c-0.9,0.4-1.9,0.4-2.9,0.3c-1.5-0.1-2.4-0.8-2.7-2.2
		c-0.5-2.5-0.2-5,0.7-7.3c0.5-1.2,2.4-1.7,3.4-0.7c1.5,1.6,3.3,1.6,5.2,1.6c0.8,0,1.7,0,2.5,0c1,0,1.3-0.3,1.3-1.4
		c0-1.2,0.1-2.3-0.1-3.5c-0.3-2.1-0.4-4.3-0.4-6.4c0-0.4,0-0.8-0.1-1.2c-0.1-0.9-0.5-1.3-1.4-1.4c-0.6-0.1-1.2-0.2-1.7-0.3
		c-1.1-0.2-2.1-0.1-3.1,0.5c-0.9,0.6-2,0.8-3,1.1c-1.1,0.3-2.1-0.4-2.2-1.4c-0.2-2.3-0.8-4.6-0.7-6.9c0.1-1.8,1.2-3.1,2.6-4.1
		c1-0.7,2.6-0.4,3,0.7c0.7,1.9,2,2.1,3.7,2.1c1.2,0,2.3,0.1,3.5,0.1c0.6,0,1-0.3,1-0.9c0-0.6,0-1.2-0.1-1.7
		c-0.3-1.8-0.6-3.6-0.8-5.4c-0.2-1.4-0.3-2.8-0.1-4.2c0.1-0.9-0.1-1.8-0.2-2.7c-0.1-0.6-0.5-1.1-1.1-1.2c-2.4-0.3-4.7-1-7,0.3
		c-0.3,0.2-0.8,0.3-1.2,0.4c-1.1,0.2-2.2-0.4-2.6-1.5c-0.3-0.8-0.7-1.7-0.7-2.6c0-1.3-0.1-2.7-0.1-4c0-0.6,0-1.2,0.4-1.7
		c1.3-1.9,2.5-2.7,4.5-1.3c1.9,1.4,4,1.4,6.2,1.3c1.7,0,2.2-0.5,2.3-2.2c0.1-1.6,0.2-3.2,0.1-4.7c-0.2-2.6-0.4-5.3-0.3-7.9
		c0.1-2.8-0.2-3-2.6-3c-0.5,0-1,0-1.5-0.2c-1.1-0.3-2.1-0.2-3,0.6c-0.6,0.5-1.3,0.7-2.1,0.8c-2,0.4-3.8-1.2-3.6-3.3
		c0.1-1.1,0.1-2.1,0.3-3.2c0.1-0.8,0.2-1.6,0.5-2.4c0.5-1.7,1.9-2.4,3.7-2.1c0.5,0.1,1,0.3,1.4,0.4c0.6,0.3,1.3,0.4,1.9,0.4
		c1.2,0,2.5,0.1,3.7,0.1c0.5,0,1-0.1,1.5-0.1c0.8-0.2,1.3-0.7,1.4-1.5c0.1-0.7,0.1-1.5,0-2.2c-0.4-3.8-0.7-7.6-0.8-11.4
		c0-0.1,0-0.2,0-0.2c-0.1-2.2-0.9-2.5-2.9-2.5c-1.4,0-2.8,0.4-4,1.2c-1.9,1.4-3.8,0.9-5.6-0.3c-0.8-0.5-1.3-1.3-1.5-2.2
		c-0.4-2.9,0.3-5.4,2.6-7.4c1-0.9,1.9-0.8,2.8,0.2c0.2,0.2,0.5,0.5,0.6,0.8c0.9,1.8,2.5,2.3,4.2,2.6c1,0.2,2,0.2,3,0.1
		c1.4-0.1,2.8,0,4.2,0.2c2.1,0.3,4.1,0.4,6.2,0.4c0.6,0,1.2,0,1.7-0.1c1.2-0.2,2.2-0.7,2.7-2c0.3-0.7,0.7-1.3,1.2-1.9
		c1-1.1,2.6-1.2,3.6,0.3c0.7,1.1,1.3,2.3,1.4,3.7c0,1.5-0.1,3-0.2,4.5c0,0.5-0.2,1-0.4,1.4c-0.7,1.5-1.9,2.1-3.4,1.5
		c-0.8-0.3-1.6-0.8-2.5-1.2c-1.1-0.6-2.2-0.5-3.4-0.1c-1,0.3-1.3,0.7-1.4,1.8c0,0.6,0,1.2,0,1.7c-0.1,2.7,0.1,5.5-0.5,8.2
		c-0.2,0.9,0,1.6,0.7,2.2c0.8,0.7,1.5,1.5,2.6,1.8c0.8,0.2,1.5,0.2,2-0.5c0.2-0.3,0.4-0.5,0.6-0.8c1-1,2.3-1,3.3,0
		c0.7,0.7,1.1,1.5,1.3,2.4c0.5,1.9,0.8,3.9,0.7,5.9c-0.1,2.3-1.5,3.5-3.8,3.3c-1.6-0.2-3.3-0.3-4.8-1.2c-0.3-0.2-0.6-0.3-0.9-0.4
		c-1.2-0.3-2.4,0.3-2.8,1.5c-0.5,1.3-0.5,2.8-0.6,4.2C169.7,252.5,169.8,253.9,169.6,255.4z M152.2,290L152.2,290
		c-0.1,0-0.1-0.1-0.1-0.1c0,0-0.1-0.1-0.1-0.1C152.1,289.8,152.1,289.9,152.2,290z M165.5,221.6c-0.4,2.3-0.5,4.6-0.2,6.9
		c0.4,2.6,0.5,5.3,0.4,7.9c-0.1,1.9-0.6,2.5-2.4,3c-0.5,0.1-1,0.3-1.5,0.3c-2.6-0.2-5.3,0.4-7.8-0.7c-1.2-0.5-2,0-2.2,1.2
		c-0.2,1.4-0.3,2.8-0.4,4.2c0,0.5,0.6,0.8,1.1,0.6c0.6-0.3,0.9-0.8,1.1-1.3c0.2-0.6,0.6-0.9,1.2-1.1c2.2-0.6,4.3-1.2,6.6-0.8
		c1,0.2,2-0.1,2.9-0.3c1.6-0.4,2.6-1.3,2.9-3c0.2-1.3,0.5-2.6,0.2-3.9c-0.2-0.6-0.2-1.3-0.2-2c-0.1-2.3-0.1-4.6-0.1-6.9
		C167,224.1,166.7,222.7,165.5,221.6z M164.6,280.4c-0.5,0.4-0.3,0.8-0.2,1.2c0.2,2,0.5,3.9,0.7,5.9c0.4,2.9-0.7,4.2-3.7,4.2
		c-1.7,0-3.5-0.1-5.2-0.1c-0.6,0-1.3-0.3-1.9,0.3c-0.3,0.3,0.5,0.7,1.8,0.9c1,0.1,2,0.2,3,0c1.2-0.3,2.5-0.2,3.7-0.3
		c0.6,0,1.2,0,1.7-0.1c1.2-0.1,1.7-0.6,2-1.8c0.1-0.5,0.2-1,0.1-1.5C166.3,286.1,165.7,283.2,164.6,280.4z M163.9,266.4
		c-3,0.5-5.6,0.3-8.1,0.2c-1,0-2-0.2-2.7-1c-0.2-0.2-0.4-0.3-0.6-0.4c-0.1,0-0.3,0-0.4,0.1c-0.1,0.1-0.1,0.3-0.1,0.4
		c0.1,0.8,0.5,1.4,1.3,1.6c2.7,0.7,5.4,0.5,8.1,0.5C162.1,268,162.8,267.5,163.9,266.4z M155.7,314.5c-1.2-0.4-1.9-0.6-2.7-0.9
		c-2.2-1-2.3-1-2.3,1.5c0,0.1,0,0.2,0,0.2c0,0.5,0.5,0.9,1,0.8C153,315.8,154.3,315.4,155.7,314.5z M153.7,214.9
		c0-0.6-0.5-1.5-0.9-1.6c-0.4-0.1-1,0.4-1.3,1.3c-0.1,0.3-0.2,0.6-0.2,0.9c0,0.3,0.1,0.6,0.5,0.7
		C152.6,216.5,153.7,215.7,153.7,214.9z"/>
	<path d="M169,528.8c0.3-1,1-1.7,1.7-2.4C170.8,527.6,170.7,527.7,169,528.8C169,528.7,169,528.8,169,528.8z"/>
	<path d="M167.2,531.4c0.2-1.2,1.1-1.8,1.8-2.6c0,0,0-0.1-0.1-0.1C168.8,529.9,167.9,530.6,167.2,531.4L167.2,531.4z"/>
	<path d="M164.6,534.9c-0.2,0.2-0.4,0.4-0.5,0.5c-0.3-0.2-0.5-0.4-0.2-0.8C164.3,534.3,164.5,534.5,164.6,534.9z"/>
	<path d="M185,547.8c-0.2,0.4-0.4,0.7-0.6,1.1C184.7,548.5,184.9,548.1,185,547.8z"/>
	<path d="M161.5,537.3c-0.1,0.2-0.3,0.4-0.4,0.6c0,0,0.1,0.1,0.1,0.1C161.2,537.7,161.4,537.6,161.5,537.3
		C161.5,537.4,161.5,537.3,161.5,537.3z"/>
	<path d="M167.1,531.4C167.1,531.4,167.2,531.4,167.1,531.4C167.2,531.4,167.1,531.4,167.1,531.4z"/>
	<path d="M162.2,536.8L162.2,536.8L162.2,536.8z"/>
	<path d="M162.1,536.8c-0.2,0.2-0.4,0.4-0.7,0.6c0,0,0.1,0,0.1,0C161.7,537.2,162,537,162.1,536.8
		C162.2,536.8,162.1,536.8,162.1,536.8z"/>
	<path d="M315.6,470.7c0-2.3,1.1-4.3,1.9-6.4c0.2-0.5,0.8-0.7,1.3-0.5c0.4,0.2,0.7,0.5,0.6,1c-0.1,0.5-0.2,1-0.4,1.4
		c-0.8,1.7-1.6,3.4-2.5,5.1c-0.1,0.3-0.4,0.6-0.8,0.4c-0.1-0.1-0.2-0.4-0.2-0.6C315.5,471,315.6,470.9,315.6,470.7z"/>
</g>
</svg>
