<?xml version="1.0" encoding="utf-8"?>
<!-- Generator: Adobe Illustrator 21.1.0, SVG Export Plug-In . SVG Version: 6.00 Build 0)  -->
<svg version="1.1" id="Layer_1" xmlns="http://www.w3.org/2000/svg" xmlns:xlink="http://www.w3.org/1999/xlink" x="0px" y="0px"
	 viewBox="0 0 262 176" style="enable-background:new 0 0 262 176;" xml:space="preserve">
<style type="text/css">
	.st0{fill:#FFFFFF;}
</style>
<g>
	<g>
		<path class="st0" d="M79.1,107h101.2V5.9H79.1V107z M166.6,19.5V42l-60.1-22.5H166.6z M92.7,28.7l73.9,27.7v27.8L92.7,56.5V28.7z
			 M92.7,70.9l60,22.5h-60V70.9z"/>
	</g>
</g>
<g>
	<path class="st0" d="M23,149.7c0.6,0.3,1.2,0.6,1.6,1.1c0.5,0.5,0.8,1,1.1,1.6c0.3,0.6,0.4,1.3,0.4,2v8.4c0,0.7-0.1,1.4-0.4,2
		c-0.3,0.6-0.7,1.2-1.1,1.7c-0.5,0.5-1,0.8-1.6,1.1c-0.6,0.3-1.3,0.4-2,0.4H3.2c-0.6,0-0.8-0.3-0.8-0.8v-5.4c0-0.2,0.1-0.4,0.2-0.6
		c0.2-0.2,0.4-0.2,0.6-0.2h15.2c0.2,0,0.4-0.1,0.6-0.2c0.2-0.1,0.2-0.3,0.2-0.6v-3.7c0-0.2-0.1-0.4-0.2-0.6
		c-0.2-0.2-0.4-0.2-0.6-0.2H7.5c-0.7,0-1.4-0.1-2-0.4c-0.6-0.3-1.2-0.6-1.7-1.1c-0.5-0.5-0.8-1-1.1-1.6c-0.3-0.6-0.4-1.3-0.4-2V142
		c0-0.7,0.1-1.4,0.4-2s0.6-1.2,1.1-1.6c0.5-0.5,1-0.8,1.7-1.1c0.6-0.3,1.3-0.4,2-0.4h16.8c0.6,0,0.8,0.3,0.8,0.8v5.5
		c0,0.2-0.1,0.4-0.2,0.6c-0.2,0.1-0.4,0.2-0.6,0.2H10.1c-0.2,0-0.4,0.1-0.6,0.2c-0.1,0.2-0.2,0.4-0.2,0.6v3.6c0,0.2,0.1,0.4,0.2,0.6
		c0.1,0.2,0.3,0.2,0.6,0.2H21C21.7,149.3,22.3,149.4,23,149.7z"/>
	<path class="st0" d="M58.3,136.8c0.7,0,1.4,0.1,2,0.4s1.2,0.7,1.7,1.1c0.5,0.5,0.8,1,1.1,1.6c0.3,0.6,0.4,1.3,0.4,2v11.8
		c0,0.7-0.1,1.4-0.4,2c-0.3,0.6-0.7,1.2-1.1,1.6c-0.5,0.5-1,0.8-1.7,1.1c-0.6,0.3-1.3,0.4-2,0.4h-9.9c-0.2,0-0.4,0.1-0.6,0.2
		c-0.2,0.1-0.2,0.3-0.2,0.6v7.3c0,0.6-0.3,0.8-0.8,0.8h-6.2c-0.6,0-0.8-0.3-0.8-0.8v-29.5c0-0.6,0.3-0.8,0.8-0.8H58.3z M55.9,151.8
		v-7.9h-8.7v7.9H55.9z"/>
	<path class="st0" d="M83.2,167.2c0,0.6-0.3,0.8-0.8,0.8h-6.2c-0.6,0-0.8-0.3-0.8-0.8v-29.5c0-0.6,0.3-0.8,0.8-0.8h6.2
		c0.6,0,0.8,0.3,0.8,0.8V167.2z"/>
	<path class="st0" d="M124.1,167.3c0.1,0.2,0.1,0.4,0,0.5c-0.1,0.1-0.3,0.2-0.5,0.2h-7.1c-0.2,0-0.5-0.1-0.7-0.2
		c-0.2-0.1-0.4-0.3-0.5-0.5l-4.7-8.5c-0.1-0.1-0.2-0.2-0.3-0.2h-5.3c-0.1,0-0.2,0.1-0.2,0.2v8.3c0,0.6-0.3,0.8-0.8,0.8h-6.2
		c-0.6,0-0.8-0.3-0.8-0.8v-29.5c0-0.6,0.3-0.8,0.8-0.8h20.2c0.7,0,1.4,0.1,2,0.4c0.6,0.3,1.2,0.7,1.7,1.1c0.5,0.5,0.8,1,1.1,1.6
		c0.3,0.6,0.4,1.3,0.4,2v11.7c0,1.1-0.3,2.1-1,3.1c-0.7,0.9-1.5,1.5-2.6,1.9l-0.1,0c-0.2,0.1-0.3,0.1-0.1,0.3l0,0.1L124.1,167.3z
		 M115.2,144.1h-10.7v7.6h10.7V144.1z"/>
	<path class="st0" d="M145.4,167.2c0,0.6-0.3,0.8-0.8,0.8h-6.2c-0.6,0-0.8-0.3-0.8-0.8v-29.5c0-0.6,0.3-0.8,0.8-0.8h6.2
		c0.6,0,0.8,0.3,0.8,0.8V167.2z"/>
	<path class="st0" d="M181.1,143.6c0,0.2-0.1,0.4-0.2,0.6c-0.2,0.2-0.4,0.2-0.6,0.2H174c-0.2,0-0.4,0.1-0.6,0.2
		c-0.2,0.1-0.2,0.3-0.2,0.6v22c0,0.2-0.1,0.4-0.2,0.6c-0.1,0.2-0.3,0.2-0.6,0.2h-6.2c-0.2,0-0.4-0.1-0.6-0.2
		c-0.2-0.2-0.2-0.4-0.2-0.6v-22c0-0.2-0.1-0.4-0.2-0.6c-0.1-0.1-0.3-0.2-0.6-0.2h-6.3c-0.2,0-0.4-0.1-0.6-0.2
		c-0.2-0.2-0.2-0.4-0.2-0.6v-5.9c0-0.6,0.3-0.8,0.8-0.8h6.3h1.6h6.2h1.6h6.3c0.2,0,0.4,0.1,0.6,0.2c0.2,0.2,0.2,0.4,0.2,0.6V143.6z"
		/>
	<path class="st0" d="M216.8,137.1c0.2,0.2,0.2,0.4,0.2,0.6v2.5v1.3v1.7c0,0.2-0.1,0.4-0.2,0.6c-0.2,0.1-0.4,0.2-0.6,0.2H213h-9.3
		h-2.5c-0.1,0-0.2,0.1-0.2,0.2v4.9c0,0.1,0.1,0.2,0.2,0.2H214c0.2,0,0.4,0.1,0.6,0.2c0.1,0.2,0.2,0.4,0.2,0.6v4.5
		c0,0.2-0.1,0.4-0.2,0.6c-0.1,0.2-0.3,0.2-0.6,0.2h-12.8c-0.1,0-0.2,0.1-0.2,0.2v2.2v0v2.6c0,0.1,0.1,0.2,0.2,0.2h1.9h10.1h3
		c0.2,0,0.4,0.1,0.6,0.2c0.2,0.2,0.2,0.4,0.2,0.6v1.8v2.3v1.5c0,0.2-0.1,0.4-0.2,0.6c-0.2,0.2-0.4,0.2-0.6,0.2h-2.5h-16.9H194
		c-0.6,0-0.8-0.3-0.8-0.8v-1.5v-25.9v-2.1c0-0.2,0.1-0.4,0.2-0.6c0.2-0.2,0.4-0.2,0.6-0.2h3.3h17.5h1.4
		C216.4,136.8,216.6,136.9,216.8,137.1z"/>
	<path class="st0" d="M251.8,136.8c0.7,0,1.4,0.1,2,0.4c0.6,0.3,1.2,0.7,1.6,1.1c0.5,0.5,0.8,1,1.1,1.6c0.3,0.6,0.4,1.3,0.4,2v20.8
		c0,0.7-0.1,1.4-0.4,2c-0.3,0.6-0.7,1.2-1.1,1.7c-0.5,0.5-1,0.8-1.6,1.1c-0.6,0.3-1.3,0.4-2,0.4h-20.1c-0.6,0-0.8-0.3-0.8-0.8v-29.5
		c0-0.6,0.3-0.8,0.8-0.8H251.8z M238.6,160.4h10.5v-16h-10.5V160.4z"/>
</g>
</svg>
