<?xml version="1.0" encoding="utf-8"?>
<!-- Generator: Adobe Illustrator 21.1.0, SVG Export Plug-In . SVG Version: 6.00 Build 0)  -->
<svg version="1.1" id="Layer_1" xmlns="http://www.w3.org/2000/svg" xmlns:xlink="http://www.w3.org/1999/xlink" x="0px" y="0px"
	 viewBox="0 0 612 112.3" style="enable-background:new 0 0 612 112.3;" xml:space="preserve">
<style type="text/css">
	.st0{fill:#FFFFFF;}
	.st1{fill-rule:evenodd;clip-rule:evenodd;fill:#FFFFFF;}
</style>
<g>
	<path class="st0" d="M251,61c0,2.9,0-1,0,1.9c3.4,0,5.5,0.5,5.5,5.1v7.6c-0.2,4.2-4.4,6.4-11.4,6.4c-7.1,0-20.5-4.9-20.5-23.4
		c0-13.3,9.3-24.1,20.6-24.1c9.4,0,14.9,5.5,17.5,14.7h1.7V38.5c-5.4-4.3-12.7-5.9-19.5-5.9c-16.2,0-28.5,11.4-28.5,26.4
		c0,6.1,2.4,12.2,6.6,16.6c5.2,5.4,12.9,8.3,22.3,8.3c6.3,0,12.3-1.6,17.9-4.9V68c0.1-5.2,0.7-5.1,4.4-5.1c0-1.6,0,1.6,0-1.9
		C261.9,61,257.3,61,251,61z"/>
	<line class="st0" x1="48.4" y1="33.3" x2="32.2" y2="33.3"/>
	<path class="st0" d="M32.2,33.3v1.9c5.2,0,4.5,0.9,4.5,6.9v32.5c0,6,0.7,6.9-4.5,6.9v1.9h16v-1.9c-5.1,0-4.4-0.9-4.4-6.9V62.1
		l3.4-3.1l12.9,12.8c4.3,4.3,5.8,6.8,5.8,7.7c0,1.3-0.2,2-3.2,2v1.9h19.7v-1.9c-2.5-0.1-3.9-0.5-8-4.7L51.9,54.7l16-16.3
		c2.7-2.7,3.3-3.6,7-3.6v-1.6H59.4c0,0,0,1,0,1.9c3.4-0.1,3.5,1.1,3.5,2.8c0,2.1-2.3,5.2-7.3,10L43.8,59.3V42.1c0-6-0.7-6.9,4.5-6.9
		c0-1.6,0-1.9,0-1.9"/>
	<path class="st0" d="M118.8,83.3v-1.9c-5.1,0-4.4-6.9-4.4-6.9V42.1c0,0-0.6-6.9,5.5-6.9v-1.9h-17.1v1.9c5.2,0,4.5,6.9,4.5,6.9v32.5
		c0,0,0.7,6.9-4.5,6.9v1.9H118.8"/>
	<path class="st0" d="M185.2,33.3v1.9c6.2,0.8,5.7,2.6,5.7,7c0,7,0,29.8,0,29.8l-35.7-38.7h-11.1v1.9c5.6,0.5,6.4,1.5,6.4,7.1v29.3
		c0,8.9-0.1,9.4-5.2,10v1.9h13.1v-1.9c-5.9-0.6-5.3-1.3-5.3-10V41.1l37.6,42.2h2.7c0,0,0-37.7,0-41.2c0-4.7,0.2-6.3,5.6-7v-1.9
		H185.2z"/>
	<path class="st0" d="M251.8,61"/>
	<path class="st0" d="M307.9,82.1c-7.6,0-11.8-6.3-14.4-13.5c-2.9,0,0.6,0-1.5,0c0.3,2.9,2.1,12.9,2.1,12.9s3.3,0.9,6.8,1.6
		c17.2,3.5,24.2-6.2,24.2-14c0-8.2-7-11.4-13.8-14.5c-6.2-2.8-12-5.5-12-11.7c0-5.7,5.5-8.3,9.2-8.3c5.2,0,9.1,3.8,11.5,11.1l0,0.1
		h0.1h1.3h0.2v-0.2c0-5.5,0-5.1,0-10.5c-9.3-4.7-28.4-3.4-28.4,10.8c0,8.7,7,11.6,13.7,14.5c6.2,2.6,12.1,5.1,12.1,11.8
		C319.1,76.9,315.6,82.1,307.9,82.1"/>
	<path class="st0" d="M368,33.3h-20.1v1.9c6,0,5.4,0.9,5.4,6.9c0,5.9,0,26.4,0,32.5s0.7,6.9-5.1,6.9v1.9c5.4,0,17.6,0,17.6,0v-1.9
		c-6,0-5.4-0.9-5.4-6.9V42.4c0-5.9,0.9-6.9,6-6.9c6,0,13,3.1,13,11.7c0,9.8-5.1,12.9-15.1,12.9v2.2c11.4,0,22.1-4.1,22.1-15.4
		C386.5,36.8,377,33.3,368,33.3z"/>
	<path class="st0" d="M476.9,33.3v1.9c5.2,0,4.5,0.9,4.5,6.9v32.5c0,6,0.7,6.9-4.5,6.9v1.9h16v-1.9c-5.1,0-4.4-0.9-4.4-6.9V62.1
		l3.4-3.1l12.9,12.8c4.3,4.3,5.8,6.8,5.8,7.7c0,1.3-0.2,2-3.2,2v1.9H527v-1.9c-2.5-0.1-3.9-0.5-8-4.7l-22.5-22.1l16-16.3
		c2.7-2.7,3.3-3.6,7-3.6v-1.6h-15.5c0,0,0,1,0,1.9c3.4-0.1,3.5,1.1,3.5,2.8c0,2.1-2.3,5.2-7.3,10l-11.8,11.3V42.1
		c0-6-0.7-6.9,4.5-6.9c0-1.6,0-1.9,0-1.9"/>
	<path class="st0" d="M566.1,58.4c5.6,0,6.9-0.4,7.7,5.3c2,0-1.2,0,2,0c0-1.3,0,3.3,0-12.7c0,0-0.3,0-2,0c-1,5.2-1.8,4.5-8.4,4.5
		h-7.9V38.5c0-2.6,0.6-3,4.5-3h6.7c7.7,0,9.6,1.2,13.1,5.5h1.5c0-0.2-1.7-7.7-1.7-7.7s-33.2,0-36.5,0v1.9c6,0,5.3,0.9,5.3,6.9
		c0,0.1,0,32.4,0,32.5c0,5.6,0.2,6.9-6.1,6.9v1.9c5,0,41.3,0,41.3,0l2.8-10.4h-1.8c-5.4,9.1-7,8.2-13.9,8.2h-10.4
		c-3.9,0-4.9-0.6-4.9-3.1V58.4H566.1"/>
	<path class="st1" d="M466.5,14.9c-3.9,1.1-12,3.8-12.2,4c0.9,0.4,0.4,0.2,1.9,0.7c-1.6,2.6-7.8,8.6-13.6,9.9
		c-0.9,0.2-2.2,1.5,6.4,1.7c-0.1,0.1-3.7,4.8-10,12.2c-3.2-2.4-7.3-3.8-12-3.8c-11.2,0-19,7.7-19,18.7c0,5.5,1.9,10.1,5.2,13.4
		c-8,8.2-17,16.8-26.4,24.8c-1.4,1.2,2,7.6,4.6,4.4c7.8-9.4,15.8-18.7,23.6-27.6c3.2,2.4,7.3,3.7,11.9,3.7c11.2,0,19-7.7,19-18.7
		c0-5.5-1.9-10.1-5.3-13.4c11.1-12,20.5-22.1,26.5-28.9C467.8,15.4,467.2,14.7,466.5,14.9z M414.8,58.3c0-7.5,4.5-15.9,12.2-15.9
		c3.7,0,6.6,2,8.7,4.8c-5.1,5.9-11.4,12.9-18.6,20.4C415.6,64.8,414.8,61.5,414.8,58.3z M439.2,58.3c0,7.5-4.5,15.9-12.2,15.9
		c-3.6,0-6.5-1.9-8.6-4.6c6.4-7.2,12.6-14.1,18.5-20.5C438.4,51.8,439.2,55.1,439.2,58.3z"/>
</g>
</svg>
