<?xml version="1.0" encoding="utf-8"?>
<!-- Generator: Adobe Illustrator 21.1.0, SVG Export Plug-In . SVG Version: 6.00 Build 0)  -->
<svg version="1.1" id="Layer_1" xmlns="http://www.w3.org/2000/svg" xmlns:xlink="http://www.w3.org/1999/xlink" x="0px" y="0px"
	 viewBox="0 0 241.8 35.4" style="enable-background:new 0 0 241.8 35.4;" xml:space="preserve">
<style type="text/css">
	.st0{fill:#F3F4F4;}
</style>
<g>
	<path class="st0" d="M21.3,15.1c0.6,0.2,1.1,0.6,1.5,1c0.4,0.4,0.8,1,1,1.5c0.3,0.6,0.4,1.2,0.4,1.9v7.8c0,0.7-0.1,1.3-0.4,1.9
		c-0.3,0.6-0.6,1.1-1,1.5c-0.4,0.4-0.9,0.8-1.5,1c-0.6,0.2-1.2,0.4-1.9,0.4H3c-0.5,0-0.8-0.3-0.8-0.8v-5c0-0.2,0.1-0.4,0.2-0.6
		c0.2-0.2,0.3-0.2,0.6-0.2H17c0.2,0,0.4-0.1,0.6-0.2c0.2-0.1,0.2-0.3,0.2-0.5v-3.4c0-0.2-0.1-0.4-0.2-0.6c-0.2-0.2-0.3-0.2-0.6-0.2
		H7c-0.7,0-1.3-0.1-1.9-0.4c-0.6-0.2-1.1-0.6-1.5-1c-0.4-0.4-0.8-1-1-1.5c-0.2-0.6-0.4-1.2-0.4-1.9V8c0-0.7,0.1-1.3,0.4-1.9
		s0.6-1.1,1-1.5c0.4-0.4,1-0.8,1.5-1C5.7,3.3,6.4,3.2,7,3.2h15.6c0.5,0,0.8,0.3,0.8,0.8V9c0,0.2-0.1,0.4-0.2,0.5
		c-0.2,0.1-0.3,0.2-0.6,0.2H9.4C9.2,9.8,9,9.9,8.9,10c-0.1,0.2-0.2,0.3-0.2,0.6v3.3c0,0.2,0.1,0.4,0.2,0.6c0.1,0.2,0.3,0.2,0.5,0.2
		h10C20.1,14.7,20.7,14.8,21.3,15.1z"/>
	<path class="st0" d="M54.1,3.2c0.7,0,1.3,0.1,1.9,0.4s1.1,0.6,1.5,1c0.4,0.4,0.8,0.9,1,1.5c0.3,0.6,0.4,1.2,0.4,1.9v11
		c0,0.7-0.1,1.3-0.4,1.9c-0.3,0.6-0.6,1.1-1,1.5c-0.4,0.4-0.9,0.8-1.5,1c-0.6,0.3-1.2,0.4-1.9,0.4h-9.2c-0.2,0-0.4,0.1-0.6,0.2
		c-0.2,0.1-0.2,0.3-0.2,0.5v6.8c0,0.5-0.3,0.8-0.8,0.8h-5.7c-0.5,0-0.8-0.3-0.8-0.8V4c0-0.5,0.3-0.8,0.8-0.8H54.1z M51.9,17.1V9.7
		h-8.1v7.3H51.9z"/>
	<path class="st0" d="M77.2,31.3c0,0.5-0.3,0.8-0.8,0.8h-5.7c-0.5,0-0.8-0.3-0.8-0.8V4c0-0.5,0.3-0.8,0.8-0.8h5.7
		c0.5,0,0.8,0.3,0.8,0.8V31.3z"/>
	<path class="st0" d="M115,31.4c0.1,0.2,0.1,0.4,0,0.5c-0.1,0.1-0.2,0.2-0.5,0.2h-6.6c-0.2,0-0.4-0.1-0.7-0.2
		c-0.2-0.1-0.4-0.3-0.5-0.5l-4.4-7.9c-0.1-0.1-0.2-0.2-0.3-0.2h-4.9c-0.1,0-0.2,0.1-0.2,0.2v7.7c0,0.5-0.3,0.8-0.8,0.8h-5.7
		c-0.5,0-0.8-0.3-0.8-0.8V4c0-0.5,0.3-0.8,0.8-0.8h18.7c0.7,0,1.3,0.1,1.9,0.4s1.1,0.6,1.5,1c0.4,0.4,0.8,0.9,1,1.5s0.4,1.2,0.4,1.9
		v10.9c0,1-0.3,2-0.9,2.8c-0.6,0.8-1.4,1.4-2.4,1.7l-0.1,0c-0.2,0.1-0.2,0.1-0.1,0.2l0,0.1L115,31.4z M106.8,9.9h-10v7h10V9.9z"/>
	<path class="st0" d="M134.8,31.3c0,0.5-0.3,0.8-0.8,0.8h-5.7c-0.5,0-0.8-0.3-0.8-0.8V4c0-0.5,0.3-0.8,0.8-0.8h5.7
		c0.5,0,0.8,0.3,0.8,0.8V31.3z"/>
	<path class="st0" d="M167.9,9.4c0,0.2-0.1,0.4-0.2,0.6c-0.2,0.2-0.3,0.2-0.6,0.2h-5.9c-0.2,0-0.4,0.1-0.6,0.2
		c-0.2,0.1-0.2,0.3-0.2,0.5v20.4c0,0.2-0.1,0.4-0.2,0.6c-0.1,0.2-0.3,0.2-0.5,0.2H154c-0.2,0-0.4-0.1-0.6-0.2
		c-0.2-0.2-0.2-0.3-0.2-0.6V10.9c0-0.2-0.1-0.4-0.2-0.5c-0.1-0.1-0.3-0.2-0.5-0.2h-5.9c-0.2,0-0.4-0.1-0.6-0.2
		c-0.2-0.2-0.2-0.3-0.2-0.6V4c0-0.5,0.3-0.8,0.8-0.8h5.9h1.5h5.7h1.5h5.9c0.2,0,0.4,0.1,0.6,0.2c0.2,0.2,0.2,0.3,0.2,0.6V9.4z"/>
	<path class="st0" d="M201,3.4c0.2,0.2,0.2,0.3,0.2,0.6v2.4v1.2v1.6c0,0.2-0.1,0.4-0.2,0.5c-0.2,0.1-0.3,0.2-0.6,0.2h-2.9h-8.6h-2.3
		c-0.1,0-0.2,0.1-0.2,0.2v4.5c0,0.1,0.1,0.2,0.2,0.2h11.8c0.2,0,0.4,0.1,0.5,0.2c0.1,0.2,0.2,0.3,0.2,0.6v4.1c0,0.2-0.1,0.4-0.2,0.6
		c-0.1,0.2-0.3,0.2-0.5,0.2h-11.8c-0.1,0-0.2,0.1-0.2,0.2v2v0v2.4c0,0.1,0.1,0.2,0.2,0.2h1.7h9.3h2.8c0.2,0,0.4,0.1,0.6,0.2
		c0.2,0.2,0.2,0.3,0.2,0.6v1.7V30v1.4c0,0.2-0.1,0.4-0.2,0.6c-0.2,0.2-0.3,0.2-0.6,0.2h-2.4h-15.7h-2.5c-0.5,0-0.8-0.3-0.8-0.8v-1.4
		v-24V4c0-0.2,0.1-0.4,0.2-0.6c0.2-0.2,0.3-0.2,0.6-0.2h3h16.2h1.3C200.6,3.2,200.8,3.3,201,3.4z"/>
	<path class="st0" d="M233.4,3.2c0.7,0,1.3,0.1,1.9,0.4c0.6,0.3,1.1,0.6,1.5,1c0.4,0.4,0.8,0.9,1,1.5c0.3,0.6,0.4,1.2,0.4,1.9v19.3
		c0,0.7-0.1,1.3-0.4,1.9c-0.3,0.6-0.6,1.1-1,1.5c-0.4,0.4-0.9,0.8-1.5,1c-0.6,0.2-1.2,0.4-1.9,0.4h-18.7c-0.5,0-0.8-0.3-0.8-0.8V4
		c0-0.5,0.3-0.8,0.8-0.8H233.4z M221.2,25.1h9.7V10.2h-9.7V25.1z"/>
</g>
</svg>
