<?xml version="1.0" encoding="utf-8"?>
<!-- Generator: Adobe Illustrator 21.1.0, SVG Export Plug-In . SVG Version: 6.00 Build 0)  -->
<svg version="1.1" id="Layer_1" xmlns="http://www.w3.org/2000/svg" xmlns:xlink="http://www.w3.org/1999/xlink" x="0px" y="0px"
	 viewBox="0 0 600 580.1" style="enable-background:new 0 0 600 580.1;" xml:space="preserve">
<g>
	<g>
		<path d="M227.9,405.1c0.1,0.6,0.4,1.3,0.7,2C228.4,406.4,228.2,405.7,227.9,405.1z"/>
		<path d="M594.7,263.9c-3-7.6-6.8-15-11-22.2c-5.3-9.2-11.1-18.1-19.8-24.3c-8-5.7-14.7-12.8-22.1-19.1c-3.3-2.8-6.6-5.9-9.8-9
			c-4.7-4.4-8.4-9.7-14.1-13.3c-3.9-2.5-8.2-4-12-6.6c-6.2-4.3-13.2-7.1-20.1-10.1c-5.7-2.5-11.7-4.3-17.5-6.6
			c-14.8-5.7-29.9-10.3-44.8-15.5c-6.9-2.4-14.4-3.3-21.8-7.5c5.9-1.6,10.2-5.1,15.8-5.7c12.9-1.4,25.2-4.7,36.8-10.7
			c1.1-0.6,2.1-1.5,2.4-2.7c0.7-2.4,2.3-4.3,3.7-6.3c2.8-4.2,4-8.5,2.4-13.8c-2.1-6.9-5.7-13.2-8.2-19.9c-1.7-4.4-4.5-8.4-9.6-9.8
			c-0.5-0.1-1-0.5-1.4-0.8c-7.3-6.5-16.3-10.9-23.8-17.1c-4-3.3-9.7-4.6-14.8-6.3c-5.9-2-12.1-3.1-18-5.1
			c-12.7-4.2-25.1-9.3-38.3-11.7c-9.2-1.7-17.5-6.4-26.8-7.5c-10.6-1.2-21.1-3.6-31.4-6.3c-8.9-2.3-17.9-3.2-26.7-1.6
			c-10.7,2-21.8,2-32.3,6.1c-7.1,2.8-14.8,4-22.3,6c-8.1,2.3-16,4.7-23.7,8.1c-9.6,4.2-20.1,6.1-30.4,8.6
			c-6.5,1.6-13.3,2.2-19.4,4.5c-12.4,4.7-22.4,13.8-34.1,20c-0.5,0.3-1,0.5-1.3,0.9c-4.2,5-8.4,9.9-12.8,14.7
			c-4.5,4.9-7.1,10.9-7,17.7c0.1,5,3.2,9.2,3.9,14.1c1,6.9,5.6,10,11.9,11.5c5,1.2,9.9,2.6,14.7,4.4c8,3,16.1,5.7,24.7,6.2
			c3.9,0.2,7.2,1.9,10,4.3c7.4,6.6,16.3,9.9,25.9,11.5c5.2,0.9,10.4,0.9,14.7,4.9c2.7,2.5,3.5,5.7,5.5,8.4
			c6.5,8.6,5.7,18.2,4.6,28.1c-5.4-1.1-10.5-2.8-15.8-3.9c-8.4-1.6-16.6-3.7-24.8-6.4c-9.5-3.2-19.8-4.5-30.1-4.3
			c-4.6,0.1-9.3-0.1-13.9-0.1c-8.1,0-16.2,0.4-23.7,3.4c-8.3,3.3-16.4,6.8-24.6,10.3c-8.2,3.6-15.5,8-20.9,15.3
			c-2.1,2.8-4.5,5.9-7.8,7.5c-5.6,2.7-8.7,7.6-11.8,12.5c-3.9,6.3-7.4,12.8-12.3,18.6c-6.6,7.7-11.2,21.8-4.7,32.4
			c5,8.2,10.2,15.2,21.3,13.5c1.1-0.2,2.2-0.1,3.3,0.2c9.6,3,19.4,3.6,29.3,3.6c6.4,0,12.3,1.8,18.3,3.5c0.9,0.3,3.6,0.9,2.1,3.2
			c-5.2,7.6-7.3,16.6-11.2,24.8c-2.3,4.9-3.7,10.4-3.2,15.8c0.5,6.1,1.1,12.2,1.1,18.3c0,5.6,0.1,11.6,5.5,15.4
			c1.7,1.2,3.1,2.5,4.4,4.2c3.3,4.3,7.5,6.9,13.1,7.8c11.5,1.9,22.9,4.5,34.7,1.7c5-1.1,10.3-1,15.4-1.8c4-0.6,5.2,1.4,6.1,4.6
			c1.4,4.9,3.7,9.2,6.9,13.3c3.7,4.6,8.5,7.9,12.5,12.1c3.9,3.9,7.9,7.7,10.8,12.5c4.6,7.8,9.3,15.9,15.8,22.1
			c9.9,9.4,20.3,18.7,34.3,22.3c-1.5,1.6-3.3,1.9-5.2,2.1c-1.3,0.2-3.1,0.3-3.5,1.7c-0.9,3.2-3.6,4.2-5.9,5.8
			c-5.7,4-12.1,7.3-13.7,15.1c-0.3,1.6-1,3.1-1.8,4.5c-4.4,7.4-8,15-7,24.1c0.5,3.9,0.2,8,2.5,11.3c3.9,5.4,11,6.1,16.6,1.6
			c4.4-3.5,8.3-7.5,12.6-11.1c1.7-1.5,4-2.3,5.9-0.5c5,4.7,9.6,9.8,12.4,16.3c4.4,10.1,12.2,17.2,21.8,22c7.1,3.5,14.7,3,22.1-0.3
			c0.6,4.9,4.3,8,9.8,8.3c0.4,0,1,0.1,1.1,0.2c1.3,3.9,5.3,3.1,7.7,5c1.2-1.7,0.7-3.2,0.3-4.8c-0.8-3-1.4-6.1-2-9.2
			c-0.1-0.7-0.3-1.8,0.6-2.2c1-0.4,1.5,0.4,1.8,1.1c1.7,4.2,4.6,8,4.1,13.1c-0.2,2.1,0,4.8,2.5,5.6c2.6,0.8,5.4,2.5,7.9-0.3
			c0.7-0.8,1.6-0.9,2.5-1c7.5-0.7,10.5-4.8,8.9-11.9c-3.6-4.3-0.4-9.1-1.2-13.6c3.5,4,1,8.8,1.7,13.2c3.2-0.1,0.8-3.3,2.5-4.3
			c1.4,1.3,0.7,3.8,2.6,5c2.3-3.3,2.2-6.9,1.4-10.5c-0.3-1.4-0.8-3.5,0.8-4c2-0.6,2,1.5,2.4,2.9c0.2,0.7,0.7,1.5,1.3,2
			c0.9,0.9,1.5,2.7,3,2.4c1.7-0.3,0.9-2.3,1.5-3.4c0.8-1.5,0-4.5,2.1-4.3c2.4,0.2,1.1,3.1,1.6,4.8c0,0.2,0.4,0.3,1,0.7
			c1.7-5.4,6.1-6.1,10.9-6.7c3.7-0.5,7.8-0.9,10.7-3.4c1.6-1.4,2.9-2.9,5.5-4.1c-5,6.3-10.4,9.6-14.8,9.2c-1.8-0.1-3.8-0.8-4.5,1.5
			c-0.5,1.9-0.5,4.3,1,5.8c1.5,1.6,3-0.3,4.4-0.8c1.9-0.8,3.7-1.7,5.6-2.5c5.4-2.2,8.5-6.4,10.3-11.8c0.3-0.8,0.7-2.1,0.4-2.3
			c-2.6-2.1-0.4-3.8,0.2-5.7c1.2-3.8,2.9-7.7,1.9-12.6c-0.8,0.9-1.1,1.1-1.2,1.4c-1.9,6.9-6.3,11.5-12.7,14.5
			c-0.7,0.3-1.3,1.1-2.1,0.5c-0.9-0.7-0.1-1.5,0.1-2.2c0.4-1.2,0.9-2.3,1.3-3.4c0.3-1,1-2.3-0.4-2.8c-1.3-0.5-1.3,1-1.8,1.7
			c-1.5,2-2.8,4.2-6.1,5.6c1.5-6.3,7.8-9.2,8.4-15c-2.4,3.7-5.4,6.8-8.5,9.8c-0.1-3.4,2.5-5.6,3.5-8.5c1.9-5.7,2.1-5.9,0.5-9.8
			c-1,6.8-1.8,12.8-6.6,17.1c0.6-5.6,3.6-10.7,1.5-16.5c1.1,7.9-2.7,13.4-8.8,18c-0.3-4.6,1.3-9.1-1.4-13.5c-1.3,1.6-1,3-1.2,4.3
			c-0.5,3.5-1.9,6.8-3.6,9.9c-1,1.8-3.6,4.3-5.3,1.9c-1.7-2.4-2-1.2-2.9,0c-0.9,1.2-1.8,2.5-2.8,3.9c-1.4-3.2,0.9-6.5-0.7-9.7
			c-1.9,1.7-1.1,3.7-1.9,5.3c-0.9,1.7-2.1,3.4-3.8,3.2c-2.4-0.4-0.8-2.6-1-4c0-0.2-0.4-0.3-0.6-0.4c-0.2,0.1-0.5,0.2-0.7,0.3
			c-1.1,1.1-1.7,3.5-3.6,2.6c-2-0.9-0.6-2.8-0.4-4.3c0.1-0.6,0.2-1.4-0.7-1.7c-1.9,0-1,4.2-3.5,2.5c-1.9-1.3-3-3.4-1.8-6
			c0.3-0.6,0.4-1.4,0.2-1.9c-0.7-1.3-0.6-4.3-2.6-3.3c-3.8,1.9-3.1-0.7-3.3-2.5c-0.4-2.9-2.1-6.5,0.3-8.6c3.5-3,7.9-5,12-7.5
			c0,1-0.4,1.5-0.8,2.1c-0.5,0.8-2.3,1.4-1.4,2.6c1.1,1.4,1.9-0.4,2.6-0.9c1.7-1.1,3.3-1.8,5.4-1.2c-0.3,2.3-1.4,4.2-3.4,6.5
			c3.8-1,3.5-5.4,7.3-6.2c-1.4,2.3-1.9,4.2-2.2,7.4c1.1-2.4,1.8-3.7,2.7-5.8c0.8,5.3,1.4,9.6,2.1,14c0.4,0,0.7,0,1.1,0
			c-0.2-3.5,0.4-6.8,1.8-9.9c0.6-1.2,1.5-2.1,2.9-1.7c1.2,0.4,1.3,1.6,1.2,2.7c-0.1,2.6-0.4,5.3-0.8,7.9c1.3-2.7,2.5-5.4,4-8.5
			c1.8,2.9,2.3,6.6,6.7,6c-0.4-1.1-0.8-2.2-1.2-3.4c-1.2-3.9-0.3-7.2,2.7-9.9c1.1-1,2.4-3,4-2.1c1.4,0.7,0.5,2.7,0.5,4.2
			c0,0.7,0.1,1.3,0.9,1.9c2-2.2,0.7-5.9,3.5-7.6c2.8,2.5-0.6,6.3,2.2,9.5c1.2-3.2,0.6-6.7,3.4-8.9c2.2,2.8,0.1,6.8,3.1,9.8
			c0.5-3.8,0.9-7,1.3-10.2c2.3,1.7,0.5,4.8,2.3,6.9c1.8-2.1-0.1-4.7,1.8-6.5c1.2,1.5,0.7,5.1,2.3,4.6c4.4-1.1,2.9,1.9,3.3,3.7
			c0.2,0.9-0.7,2.6,1,2.5c2.5-0.2,1.7,1.4,1.7,2.6c0.1,2-1,4.1,0.7,7c2.3-7.9,3.7-15.3,2-22c-2-7.9-1.2-14.3,3.3-20.8
			c1.3-1.9,2.9-3.6,4.3-5.4c4.2-5.4,12.1-6.1,16.7-1c3.4,3.8,8.1,5.3,12.3,7.6c0.7,0.4,1.5,0.2,2.3-0.2c4.5-2.6,7.4-6.2,7.8-11.6
			c0.4-5.2,0.2-10.4-2-15.2c-1.4-3.1-1.9-6.1-1.6-9.5c0.1-1.7,0.7-3.7-0.7-5.1c-3.9-4-8-7.8-11.6-12.3c-2.8-3.6-6.6-6.3-10-9.5
			c-2.2-2.1-3.2-4.4-1.5-7.2c0.4-0.7,0.8-1.4,0.7-2.2c-0.5-4.8,0.8-9.4,1.7-14.1c1.9-9.9,7.3-16.8,16.7-20.9c3.4-1.5,6.8-2.2,10.3-3
			c7.7-1.9,13.1-7.9,18.6-12.5c9.1-7.7,13-20.2,22.2-28.5c4-3.6,7.8-7.7,11.5-11.7c6-6.4,13.1-11.7,20-17.2
			c5.4-4.3,10.5-4.6,16.6-3.4c3.8,0.7,6.8,3,10.4,4.1c9.8,2.9,19.4,6.4,29.9,7.3c6.5,0.5,13,1.7,19.4,0.5c5.2-0.9,10.3-3.3,12.7-7.8
			C599,288,599.4,275.8,594.7,263.9z M320.4,547.6c2.8,2.6,2.7,5.6,3.2,8.6C320.7,553.7,320.3,552.6,320.4,547.6z M315.9,554.8
			c3.1,4.2,7.1,7.8,6.8,13.4c-0.1,0.9,0.2,2-1,2.3c-0.9,0.2-2.4,0.2-2.6-0.6C317.9,564.9,315,560.3,315.9,554.8z M312.6,562.9
			c2.4,3.5,2.1,7.6,2.5,11.5c0.1,0.6-0.4,1.1-1,1c-1.1-0.1-1.7-0.9-1.9-1.9C311.4,570,312.4,566.5,312.6,562.9z M310.4,548.5
			c0.7,2.8,0.8,5.6-1.5,8.3C308.3,553.7,308.5,552.3,310.4,548.5z M70.2,283.5c-2.1-1-4.3,1.2-6.6,1.4c-7.7,0.9-15.1-0.7-22.6-1.9
			c-6.3-1-12.7-1.8-19.1-1.8c-3.9,0-7.3-1.4-9.4-5.3c-1.8-3.3-4.1-6.4-6.1-9.6c-1.8-2.9-2.5-6.2-1.3-9.4c2.9-7.4,4.8-15.2,11.5-20.5
			c2.4-1.9,4.2-5.1,5.4-8.1c2.9-6.9,6.9-13,12.9-17.2c4.1-2.9,6.5-6.8,8.7-10.9c3.6-6.5,9.9-9.9,16-12.9c9.9-4.8,20-9.3,30.3-13.1
			c7-2.6,14.7-2.4,22.2-2.5c4.4-0.1,8.7,0.3,13.1,0c8.1-0.5,16.1,1.2,23.8,3c8.4,1.9,16.7,4.5,25,6.9c8.3,2.4,17.2,2.5,25,6.8
			c8.7,4.8,18.6,7.4,25.9,14.6c4,3.8,8.1,7.5,12.1,11.3c6.6,6.2,15.1,9.9,22.4,15.3c4.2,3.1,7.3,7.1,10.5,11.1c3.2,4,7,7.4,9.5,12
			c4.1,7.6,9.5,14.6,12.9,22.5c3.3,7.6,5.8,15.8,1.7,24.2c-0.6,1.2-1.1,3.3-2.3,3.2c-5.1-0.3-10.1,2.6-15.2,0.1
			c-0.9-0.4-1.7-1.4-2.9-0.4c-3.8,3.3-4.1,3.2-7.2-1c6.1-0.8,12-1.4,17.9-2.3c5.5-0.8,8.7-6.5,6.3-11.5c-4-8.1-7.7-16.2-15.2-22.2
			c-4.6-3.6-9-8.2-10-14.7c-0.3-2-1.3-2.7-3.1-1.6c-1.7,1-3.2,0.4-4.5-0.6c-5.7-4.3-11.4-8.6-17.1-12.8
			c-7.3-5.4-14.6-10.7-21.9-15.9c-6-4.3-12.8-6.1-20.1-6.3c-13.8-0.2-27.4,0.7-41,3.5c-8.4,1.8-17.8,0.8-24.5-4
			c-9.7-6.9-20.2-5.3-30.4-6.6c-5.1-0.6-9.5-1.9-12.3-6.4c-0.4-0.6-0.8-1.2-1.5-0.9c-0.4,0.1-0.8,0.8-0.8,1.2c0.2,6.5-5.4,8-9.6,9.6
			c-5.4,2.1-9.8,5.5-14.5,8.6c-1.2,0.8-2.2,1.6-3.5,1.8c-10,1.4-17,7.7-24.3,13.8c-3,2.5-6.2,4.6-9,7.5c-6.4,6.7-9.2,14.8-11.1,23.4
			c-1,4.5,1.3,8.4,5.8,9.7c14.2,4,28.6,6.2,43.4,4.6c7.3-0.8,14.1,2.6,21.4,3.2c-0.4,3.2-1.8,4.3-4.9,3.3
			C78.3,284.3,74.1,285.4,70.2,283.5z M198.8,164.2c7.2,6.1,7.3,14.7,11.1,22.3c-2.4-0.4-4.4-0.9-4.5-2.7
			C204.9,177,200.4,171.6,198.8,164.2z M302.1,352.2c-2.3-5.7-4.4-11.5-1.6-17.9c2.5,16.2,13.7,29.3,15.1,46
			c-0.1-7.4-1.6-14.4-4.7-21.1c-4.7-10.3-9.2-20.7-8.8-32.3c0-1,0.1-1.9,0.2-2.9c0-0.4,0.2-0.7,0.7-2.2c3.9,8.7,3.3,18,8.3,25.3
			c-0.8-4-1.3-7.9-0.3-12.4c6.2,10.7,11.3,21.4,15.6,32.5c0.4-0.1,0.8-0.3,1.2-0.4c-0.6-2.8-1.2-5.6-1.8-8.4
			c5.1,4.7,6.7,10.9,8.7,17.6c-3.4-1-3.9-3.7-5.7-5.9c0.5,5.4,3.3,10.9-1.8,15.2c-1.9-2.7-3-5.9-3.4-9.5c-0.9-6.8-4.1-12.6-8.3-17.8
			c-0.5-0.6-0.9-1.4-2.6-0.9c1.8,3.3,3.4,6.6,5.2,9.8c2.2,3.9,3.6,7.7,2.7,12.4c-0.6,3.3,0.6,6.7,1.7,9.9c0.5,1.4,1.5,3.1-0.1,4.1
			c-1.8,1-1.9-1.3-2.8-2.1c-1.9-1.7-2.6-4.1-3.2-6.5c-0.2-1.1-0.1-2.4-2.3-3.2c0.7,5.5,0.2,10.6-0.3,16c-1.2-0.5-2.5-0.6-3.1-1.3
			c-2.9-3.6-8.3-3.8-10.7-8c-0.4-0.6-1.3-1.4-2-0.5c-0.7,0.8,0.1,1.7,0.6,2.1c2.1,1.8,3,4.6,5.7,6.2c2.3,1.3,3.4,4.4,4.8,7.9
			c-6-2.3-8.6-7.4-12.2-10.9c-3.7-3.6-5-9.2-9.6-12.7c0.9,2.7,1.8,5.3,2.8,8.4c-4.1-2.4-6.8-6.8-12.1-6.4c-2.2,0.2-2.1-2.5-3.3-3.7
			c-3.6-3.4-5.9-7.6-6.4-13.2c3.6,3.3,5.4,7.6,8.1,11.1c0.1-3.9-2.4-7.4-1.2-12.2c2.4,3.7,4.3,6.7,6.3,9.6c0.7,1,0.7,3.3,2.5,2.6
			c2.2-0.8,0.1-2.2-0.2-3.3c-0.8-4-2.4-7.8-2.4-11.9c0-0.8-0.2-1.7,1.3-2.2c1.8,3,0.9,7.3,4.3,10.9c-1-6.2-2.3-11.5,1.1-17.3
			c3.6,10.5,1,21.8,8.2,30.4c-1.3-5.4-4.6-10.3-4.2-17.2c3.2,5.4,5.9,10.1,8.6,14.7c0.3-0.1,0.7-0.3,1-0.4c-5.9-10.9-14-21.2-9.1-36
			c1.5,9.4,4.4,17.2,9.6,23.9c-1.4-5.6-5.2-10.2-6.6-15.9c-1.4-5.9-2.2-11.7-1.3-17.8c4.6,10.3,7.5,21,10,32
			C304.1,361.5,303.9,356.8,302.1,352.2z M352.6,338c1.9,2.3,2.4,4.7,2.1,7.5c-0.6,5-1.1,10-1.7,14.9c-1,8-5.9,14-10.8,20.7
			c-1.6-11.7-5.3-21.6-12-30.3c-3.9-5-6.9-10.4-6.7-17c0-0.5-0.1-1.1-0.3-1.6c-1.9-7.4-0.9-14.2,2.7-21.1c3.7-7.2,6.9-14.7,8.3-22.9
			c0.1-0.7,0-2,1.2-1.6c1.2,0.4,2.1,1.4,2.1,2.8c-0.2,10.7,1.4,21.1,5.1,31.1C344.9,326.7,348.3,332.7,352.6,338z M344.3,316.8
			c2.2,0.8,2.1,3.1,3.1,4.7c1.1,1.7,2.1,3.4,3.5,5.7C346.4,326.1,344,322,344.3,316.8z M351.3,409.6c2.8-1.3,2.7-3.7,3.6-5.3
			c2.7-5.1,6.8-9.2,11-12.9c5.9-5.2,11.3-10.5,12.9-18.7c0.1,5.5-1.3,10.6-4.8,14.8c-1.9,2.3-3.5,4.7-4.7,7.5
			c-2.6,5.8-5.7,11.4-11.8,14.5c-1.8,0.9-3,2.4-3.4,4.4c-1.4,8-2.7,16.1-4,24.1c0,0.2,0.3,0.4,0.6,0.6c2-0.7,1.5-3,2.7-4.2
			c1.3,5-3.3,6.2-5.5,9.3c-1.3-2.3,0.1-4.7-1.3-7.5c-3.2,4.9-0.1,12.3-6.8,14.9c-1.2-3.3,3.1-5.8,0.9-9.6c-1.4,3.2-2.6,5.8-3.7,8.5
			c-0.2,0.5-0.5,1-1.2,0.9c-0.7,0-0.7-0.6-0.9-1.1c-0.3-1,0.5-2.6-1-2.8c-1.7-0.2-1.2,1.8-2.1,2.6c-0.3,0.3-0.5,0.8-1,1.7
			c-1.4-2.4-0.7-4.5-0.2-6.5c0.3-1.2,1.4-3.2-0.1-3.6c-2.2-0.5-1.5,2-1.9,3.2c-0.6,1.6-0.6,3.4-2.9,4.6c0.4-2.8,0.7-5.6,1.3-8.4
			c0.6-2.3,1-4.5,1.2-6.8c0.1-0.8,0.1-2.2-0.7-2.1c-4.3,0.5-2-2.7-1.7-3.7c1.5-5.2,3.3-10.3,5.1-15.4c0.2-0.6,0.8-1.4,2-1.3
			c0.1,2.4-1.2,4.4-2,6.5c-0.3,0.7-0.8,1.6,0.4,2c0.9,0.3,1.2-0.5,1.5-1.1c1.6-3.1,2.1-6.8,4.2-9.7c0.2-0.3,0.2-0.9,0-1.1
			c-1.8-2.2-1.8-2.2-0.3-4.6c1.3-2,2.7-4,3.9-5.8c2.5,3.3,1.7,7,0.7,10.6c0.4,0.1,0.8,0.2,1.2,0.3c2.6-6.9,5.2-13.8,7.8-20.7
			c0.4,0.1,0.8,0.3,1.1,0.4c0.3,2.5-0.5,4.9-1.1,7.3c-0.3,1.3-0.7,2.6-0.9,4c-0.1,0.7-0.5,1.7,0.5,2.2c1.3,0.6,1.3-1,2-1.3
			c0,0,0-0.1,0-0.1c0.1-0.1,0.1-0.1,0.2-0.2c1.6-5.1,3.1-10.2,4.9-15.1c2.7-7.1,5.2-14.4,9.3-20.9c0.3,4,0.1,7.8-2.5,11.3
			c-2.9,3.8-5.5,7.7-5.8,13c-0.3,4.4-3,8.3-5.9,11.8c0,0.1-0.1,0.2-0.1,0.3c0,0-0.1,0-0.1,0.1C351.5,403.3,352.9,406.3,351.3,409.6z
			 M379.3,391.7c0.5-1.2,1.7-2.1,2.8-2.9c0.9-0.7,1.3-2.6,2.7-1.9c1.4,0.6,1.3,2.3,1.1,3.7c-1,5.1-3.3,9.7-5.7,14.2
			c-0.5,1-1.2,0.9-2,0.9c-2.9,0-5.9,0-9.4,0C374.2,402.1,376.9,397,379.3,391.7z M348.8,453.8c0.1,0.5-1.1,0.7-1.7,0.5
			c-0.9-0.3-0.7-1-0.6-1.7c0.7-3.3,2.4-5.8,5.3-7.8C350.5,447.7,348.1,450.3,348.8,453.8z M215.7,428.9
			c10.5,9.4,35.6,12.3,36.9,24.9C248.4,453,213.5,431.4,215.7,428.9z M235.4,432.2c5.7,0.9,27.1,12.5,31.6,19.4
			C260,451.1,240.8,434,235.4,432.2z M270.6,454.6c6.6,3,11.9,5.8,14.7,11.9C280.9,462.6,274.2,461.5,270.6,454.6z M280.1,503.9
			c-5.4,0-9.7,1.4-13.3,5.3c-2.2,2.3-6.6,1.2-8.7,0c-2.1-1.2-2.2-5.3-1.2-8.3c1.3-3.9,3.8-7.2,6.1-10.5c1.5-2.3,3.6-0.8,4.9,0.4
			C272.2,494.6,276.6,498.3,280.1,503.9z M235.4,423.8c17.1,4.9,41.3,21.1,51,26.8C276.7,446.2,259.6,440.6,235.4,423.8z
			 M258.7,403.3c0.2-0.2,0.5-0.4,0.7-0.6c3.1,3.5,6.2,6.9,9.4,10.4c1.9,2.1,4.1,3.6,7,3.4c1-0.1,1.8,0.2,1.8,1
			c0,1.3-1.2,0.7-1.9,0.6c-6.8-0.4-10.9-4.9-14.6-9.9C260,406.9,259.5,405,258.7,403.3z M267.5,433.4c6.8,2.9,25.4,9,27.2,14.1
			C290.2,445.7,278.1,438.4,267.5,433.4z M254.9,394.4c-1.7-0.6-2.3-2.3-2.6-3.9c-1.4-6.8-4.2-13.1-6.6-19.6
			c-1.2-3.3-4.1-5.7-4.9-9.2c-0.5-2.2-0.1-2.7,2-2.5c0.1,0,0.3,0,0.4,0c9.5-2.3,10.9,5.9,14.7,11.1c5.2,7.1,7.8,15.7,13.5,22.5
			c2.4,2.9,6,4.6,8.3,7.7c0.6,0.7,1.4,1.3,1.4,2.4C270.8,404.2,263.5,397.4,254.9,394.4z M258.1,366.5c4.4,0.5,14.8,14,17.1,23.1
			c-4.3-3.7-8.4-5.9-10-10.9C263.7,374.2,259.3,371.2,258.1,366.5z M280.3,385.6c2.9,1.9,6.1,2.1,7.6,5c0.5,0.9,1.3,2,0.4,2.9
			c-0.7,0.7-1.8,0.3-2.7-0.2C283.1,391.7,280.4,390.2,280.3,385.6z M258.3,295c-3.1-1-5.9-2.5-7.3-5.8
			C255.7,288.3,256.4,292.5,258.3,295z M223.6,267.8c-1.4,3.9-3.3,2.5-5.8,1.5c-7.5-3-14-8.4-22-10.1c-8.3-1.7-15.6-6.3-23.9-7.6
			c-13-1.9-25.5-1.1-37.9,4.1c-5.1,2.1-10.8,2.8-16.3,3.7c-7,1.1-12.2,5.4-17.5,9.5c-0.4,0.3-0.6,0.9-0.9,1.3
			c-3.4,3.6-4.3,3.4-7.6-0.2c-4.2-4.6-8.8-9.1-11.8-14.2c-5.5-9.2-13.9-11.5-23-13.5c-3-0.6-3-0.7-5.9-3.5
			c13.1-0.5,22.7,7.8,34.3,11.8c-0.7-3.8-2.9-5.4-5.6-6.5c-1.6-0.7-3.2-1.4-4.8-2.3c-1.2-0.6-2.2-1.6-0.7-2.8
			c0.9-0.8,1.2-2.9,3.4-1.2c3.5,2.7,7.1,5.4,11.3,7c0.8,0.3,1.5,1.3,2.9,0.4c-3.9-4.2-8.7-7.5-11.8-12.4c4.3,1.3,7,5.2,11.5,6.3
			c-2-3.7-6.7-5.5-7.9-10.4c7.1,1.3,10.1,8.6,16.6,10.2c-3.9-2.8-6.2-7.1-10.4-10.4c3.4-0.1,5.2,1.6,6.5,3.5
			c3.6,5.2,9.7,7.7,13.6,12.6c0.4,0.5,1,1.1,1.7,0.3c0.6-0.8-0.1-1.2-0.6-1.7c-3-2.8-5.9-5.5-9-8.2c-1.4-1.2-2.5-2.3-2.8-4.1
			c0.4-0.1,0.7-0.3,0.9-0.2c4.9,2.7,10.9,4.1,13.3,10.1c1.3,3.3,4.9,4.6,6.7,7.6c0.3,0.5,1,0.5,1.4-0.1c0.5-0.9,0-1.8-0.7-2.1
			c-4.5-2.7-6.3-7.7-9.3-11.7c-2.2-2.9-4.4-6.1-5-10.6c2.9,2,5.3,3.7,7.7,5.4c0.6,0.4,1.1,1,1.7,0.3c0.6-0.7,0.1-1.3-0.5-1.7
			c-1.8-1.3-2.2-3.3-2.8-5.9c2.1,1.5,4,2.3,5,4.4c0.4,0.9,1.2,2,2.5,1.7c1-0.2,1.4-1.2,1.7-2.2c0.3-1.3,0.4-3.2,2-3.2
			c1.9,0,2.7,1.7,3.7,3.3c2.4,4,4.6,8.3,8.9,12.3c-0.2-4-1.9-6.3-2.7-8.9c-0.8-2.4-2.6-6.6-0.6-7.3c2.6-0.9,2.8,3.4,3.9,5.6
			c2.4,4.7,4.8,9.4,7.4,14c0.6,1.1,1.6,2.2,3.5,2.3c-0.3-5.4-3.5-10-3.1-16.2c2.5,3.6,7.4,2.5,8.9,6.5c0.1,0.2,0.8,0.5,1.1,0.4
			c5.7-1.8,5,2.5,5.6,5.7c0.3,1.7,0.6,3.4,1,5.9c2.3-3.6,0.1-6.9,1.1-10c4.2,1.6,2.3,6.8,5.9,9.2c0.3-5-2.5-9.2-1.5-13.8
			c1.5-0.2,2,0.8,2.3,1.9c0.6,3,3.4,3.2,5.4,4.2c1.5,0.8,1.1-2,2.6-2c1.2,0.7,0.5,3.4,2.7,2.9c1.5-0.4,1.6-2,1.8-3.4
			c0.1-0.7,0.3-1.3,0.5-2c0.5-1.4,1.4-3.5,2.7-3.2c2.1,0.4,0.7,2.5,0.7,3.8c-0.2,4.3-1,8.6-1.7,13c3.1-7.8,7-15.2,10.8-22.8
			c0.4,5.5-3.4,10-3.6,16.1c4.6-4.4,6-10.5,11-13.7c-4.6,8.3-7.2,17.2-9.3,26.9c2.7-1.2,2.8-3.3,3.2-4.9c1.6-6.1,5-11.4,8.2-16.8
			c0.7-1.3,2-2.3,3.1-3.2c0.9-0.7,2-2,3.1-0.9c0.9,0.9-0.2,2-0.7,2.9c-1.5,2.9-3.2,5.7-5.4,8.1c-1.1,1.2-1.7,2.6-1.1,4.5
			c2.8-3.2,5.1-6.8,8.1-9.7c0.4-0.3,0.5-0.9,0.9-1.2c2.2-1.9,8.9-3.3,9-1.9c0.3,2.9-1.6,5.3-3.8,7.1c-3,2.3-4.4,5.8-7.1,8.3
			c-0.8,0.7-0.7,1.7-0.1,2.8c3.9-4,6.7-9.1,11.9-11.7c0.6-0.3,1.2-0.7,1.8-1c1.9-0.9,4.4-2.7,6-1.2c1.5,1.5-0.7,3.6-1.5,5.4
			c-0.5,1.1-1.7,1.9-1.2,3.6c2.6,0,2.9-3.2,5.4-4c-1.2,4.7-4.8,8.1-5.6,13.5c4.2-3.9,5.9-9.5,12.2-11.3c-2.6,4.6-5.4,8.1-6.3,12.7
			c2.5-2.4,5.6-3.8,8.4-5.9c0.8-0.6,1.1-2.5,2.4-1.4c1.1,0.9,0.2,2.4-0.4,3.3c-1.8,2.5-3.8,4.9-5.7,7.4c-0.4,0.5-0.7,1.1-1.3,2.3
			c5.6-1.6,7.1-7.6,12.5-8.9c-3.7,6-9.5,9.8-13.3,15.5c4.9-1.3,7.4-6.5,12.8-8c-0.9,1.6-1.5,2.8-2.2,3.9c-1.7,2.6,2.7,1.4,1.9,2.9
			c-0.6,1.3-2.5,2.1-1.9,3.8c0.6,2,3.1,0.9,4.6,2c-3.9,2.3-7.6,4.4-11.1,6.8c-2.3,1.5-3.8,0.3-5-1c-2.2-2.4-4.9-4-7.9-4.6
			c-2.9-0.7-2.5-2-1.8-4.1c1.2-3.5,4.3-5.9,5.1-9.6C227,261.4,224.9,264.5,223.6,267.8z M58.1,266.3c-2.7,2.3-4,5.1-7.8,6
			C51.7,268.4,53.7,266.5,58.1,266.3z M84.5,217.8c0.6-1.6,2.8-0.5,3.5,0c4.1,2.6,8.9,4.1,12.2,7.8c1.1,1.2,3,1.4,3.7,3.6
			c-2.9-0.2-4-2.3-5.7-3.5c-3.4-2.5-7-4.5-11.1-5.6C85.9,219.8,83.9,219.6,84.5,217.8z M136.6,373.7c-5.8,3-11.9,5-18.1,6.9
			c-7.6,2.3-14.8-0.2-22.2-1.2c-5.1-0.7-10.3-1.8-14.5-4.9c-3.7-2.7-6.6-6.3-10.1-9.2c-2.4-2-2.9-5.8-2.9-9c0-7.4-0.7-14.7-1.2-22
			c-0.3-5.3,1.1-10.3,3.2-15c4.3-9.2,7-19.1,13.1-27.5c4.9-6.8,10.6-12.9,16-19.4c4.5-5.4,10.4-8.3,16.5-10.6
			c4.4-1.7,9.5-2,14.3-3.2c4.1-1,7.9-2.7,11.9-3.8c11-3.2,22.6-4.2,33.4-0.5c7.3,2.5,14.7,4.4,21.9,7c4.7,1.7,9.2,4,13.3,6.8
			c3.6,2.4,7.6,3.8,11.5,5c7.3,2.2,12.3,7.4,18,11.7c4.7,3.6,9.4,7.2,14.2,10.7c7.6,5.5,14.8,11.6,20.9,18.7
			c4.2,4.9,6.9,11.2,9,17.6c1.4,4.4,0.4,8-1.9,11.5c-1.3,2.1-2.8,4-3.8,6.3c-0.5,1.3-1.6,2-3.2,2.2c-6.5,1-12.9,2.2-19.4,3.1
			c-3.7,0.5-6.7,3.7-10.8,2.9c-1.1-0.2-2.2-0.1-3.3-0.2c-1.3-0.2-2.4-0.6-2.4-2.2c0-1.8,1.4-1.8,2.6-1.9c6.6-0.4,12.9-1.8,19.2-3.8
			c4.7-1.5,9.4-3.3,13.6-6c4.5-3,5.4-11.1,1.8-15.2c-0.6-0.7-1.2-1.5-1.8-2.1c-3.6-3.5-3.7-3.6-6.1,0.7c-1.5,2.6-2.9,3.2-4.6,0.3
			c-1-1.7-2.5-2.5-4.2-2.8c-7.5-1.6-14.3-5.1-20.7-8.8c-5.3-3-10.7-6.4-15.3-10.7c-0.6-0.6-1.3-1.1-2.1-1.2
			c-9.2-1.8-15.3-9.4-23.4-13.1c-4.2-1.9-6-5.7-7.3-9.8c-0.4-1.2-0.7-2.8-1.9-2.9c-1.6,0-1.3,1.8-1.4,2.8c0,2.8-1.7,2.3-3.3,1.7
			c-7.6-2.6-15.4-4.8-21.6-10.4c-0.7-0.6-1.7-1-2.6-1.1c-6-0.3-12-0.7-17.9-0.6c-1.6,0-4.5-0.7-4.7,2.6c0,0.2-0.6,0.5-0.9,0.4
			c-4.8-1.5-9.7,0.6-12.7,2.7c-8.8,6.1-20.1,7.5-27.5,16.4c-3.5,4.2-8.3,7.6-11.7,12.1c-0.9,1.2-1.8,2.5-1.9,4
			c-0.6,6.6-2.5,12.8-4.9,18.9c-2.5,6.3-3,13.2-2.2,19.7c0.7,5.8,2.1,12.4,6.8,16.5c3.6,3.2,8,5.7,12,8.6c0.5,0.4,1.4,0.6,1.8,0
			c0.8-1,0.3-2-0.2-3.1c-1.8-4-0.6-7.3,2.9-10.4c0.3,3.2-0.8,5.7-1.2,8.3c-0.8,5.4,1.2,7.8,6.7,8.3c5.1,0.5,10-1,15-1.4
			c1.8-0.1,2.9-1.2,2.9-3.6c0-2.2-0.3-5.2,3.7-6.4c-1.9,3.3-1.2,6.1,1,7.5c2.1,1.4,5.2,0.9,7.3-0.6c1.6-1.1,2.1-0.6,2.8,0.6
			C139,373.2,137.5,373.2,136.6,373.7z M243.3,333.4c1.6-4.8,5.9-3.2,7.9-5c3.2-2.8,5.6-0.9,8.6,0.3
			C254.6,331.1,248.7,329.8,243.3,333.4z M217.5,330.1c-0.7-4.4,1.4-8,3.1-11.8C221.8,322.8,219.3,326.3,217.5,330.1z M185.2,309.8
			c-2.5-5.3-2.8-10.6-2.8-17.1C187.6,298.4,186.8,303.9,185.2,309.8z M108.8,365.5c0.5-2,1.2-3.9,1.9-5.8c0.6-1.5,1.5-2.6,4-2.1
			c-2.7,2.4-2.9,5.4-3.6,8.3c-0.3,1.5-0.1,4.4-2.4,3.8C106.9,369.3,108.5,366.9,108.8,365.5z M98.3,327.8c0.2-0.7,0.2-0.9,0.3-0.9
			c2.2-0.8,4.4-0.8,6.6,0.2c0.2,0.1,0.2,1.3,0,1.4C102.8,329.8,100.6,328.5,98.3,327.8z M102.7,373.2c-0.7-3.2,0.1-5.5,1.2-8.2
			C105,369.8,104.9,370,102.7,373.2z M95.3,353.3c-1.4,3.1-2.7,5.8-4.4,9.5C90.4,358,91.4,355.2,95.3,353.3z M115.6,368.1
			c0-2.1,1.3-3.7,3-5.8c-0.2,2.6-0.3,4.3-0.5,6c-0.1,1-0.4,2.1-1.5,2C115.2,370.3,115.6,369,115.6,368.1z M192.7,400.2
			c-0.6-0.9-0.8-2.1-2.3-1.7c-1.6,0.5-1.4,1.9-1.2,3.1c0.2,1,2.9,8.2,4.5,10c-4.4-2.1-9.5-13.4-12.5-16.3c-2,2.4-0.8,4.7,0.4,7.1
			c3,5.7,4.9,12,8.6,17.5c0.5,0.7,1.8,2.3,0.3,3.1c-1.4,0.7-2.1-0.8-2.7-1.9c-5.5-11.6-13.4-21.9-18.6-33.6c-1.8-4-3.8-8-6-12.6
			c-1,2.5-0.4,3.9,0.6,5.1c1.9,2.4,4,5.7,3.7,8c-1,6.4,4.5,10.3,5.2,16.1c-4.2-2.3-3.6-8-8.2-10.7c0.5,4.3,2.8,7.1,3.4,10.6
			c-16.1-23.4-30.6-48-50.7-68.3c3.8-0.2,7.2,1.1,9.8,4.5c4.1,5.5,8.2,11.1,12.3,16.6c0.5,0.7,0.8,2.1,2,1.6c1.6-0.6,0-1.6,0-2.4
			c0.2-7.1-5.6-11.2-8.5-16.8c-2.3-4.4-6.1-7.8-7.9-12.5c-0.3-0.9-1.2-1.5-1.9-1.2c-4.9,2.2-7.3-1.7-10.3-4.3c2.5,1.2,5,2.5,7.4,3.7
			c0.3-0.3,0.5-0.5,0.8-0.8c-4.9-4.3-4.9-11.8-11.2-15.2c3.2-0.1,5.5,1.2,7.1,3.7c2.7,4.4,5.7,8.3,10.1,11.4
			c3.7,2.6,5.2,7.5,8.8,10.5c6.2,5.2,9,13.2,15,18.8c2.8,2.6,3.7,6.5,5.7,9.7c1.1,1.8,1.8,3.9,4,4.9c-12.7-23.5-24.9-47.3-45.6-65.4
			c2.8-0.6,4.1,0,6,1.9c6.7,6.6,12.7,13.7,17.8,21.5c0.2,0.3,0.6,0.3,1.9,0.8c-6.8-12-15.3-21.6-24.5-31.3c3.3,0,5.4,0.5,7.1,2.9
			c1.9,2.7,5.2,4.3,6.9,7.3c0.5,0.8,1.2,1.8,2.2,0.9c0.8-0.8,0.4-1.7-0.3-2.5c-2.6-2.9-5.2-5.9-7.8-8.8c-0.6-0.7-1.7-1.3-0.9-2.4
			c0.9-1.3,2-0.4,2.8,0.2c4.8,3.6,8.6,8.2,12.9,12.3c1.4,1.3,3,4.4,4.4,3.1c1.4-1.2-1.4-3.4-2.6-4.5c-3.6-3.4-6.1-7.7-9.4-11.3
			c-0.5-0.5-1.5-1.2-0.6-2c0.9-0.8,1.6-0.2,2.2,0.8c1.8,2.9,2.5,0.7,3.2-0.9c8.1,8.3,12.5,19.3,19.5,28.3c0.3-0.2,0.6-0.3,0.9-0.5
			c-6.5-12.1-13-24.3-19.5-36.4c0.3-0.2,0.6-0.4,0.9-0.5c5.8,8.5,11.6,17,16.1,26.5c-1.3-8.9-8.3-15.4-10.6-25.1
			c6.9,6,8.2,14.6,14,20.1c1.2-1.3,0.6-2,0.1-2.7c-3-4.5-4.9-9.6-7.3-14.5c-0.7-1.4-1.4-3.4-0.1-4c1.7-0.9,2.3,1.2,2.9,2.5
			c2,4.4,4.1,8.9,6.2,13.5c2.9-1.5,4.2-3.1,2.1-6.5c-0.8-1.2-2.5-2.8-1-5.5c6.9,9.8,6.9,21.9,12.9,31.6c-0.2-3.6-1.7-6.9-2.9-10.2
			c-1.3-3.5-1.9-7.1-1.5-10.8c0.1-1.1,0-2.4,1.3-2.7c1.6-0.3,2.1,1,2.5,2.2c2.1,6.6,5.9,12.6,7.1,19.5c0.1,0.8,0.3,1.7,1.8,1.8
			c0.1-5.4-3-10.3-2.5-15.7c3.9,10.4,7.4,20.8,10.5,31.5c0.7-3.4-0.1-6.6-1-9.7c-1.8-6.2-1.5-9.5,1.5-14c2.2,6.8,0.9,14,4.3,20.2
			c-0.7-8.8-0.5-17.6-0.1-26.4c2.3,6.3,0.7,13.3,3.2,19.6c1-7.3-2-14.9,2.2-22c0,1.5,0,3,0,4.4c-0.1,1.6-0.3,3.3-0.3,4.9
			c-0.2,4.2-0.4,8.4-0.5,12.7c0,0.9-0.3,2.6,1.1,2.7c1.3,0,1.3-1.5,1.4-2.6c0.1-4.2,0.5-8.4,1.8-12.5c0.2-0.7,0.6-1.4,1.5-3.2
			c0.4,5,0.1,8.8-0.4,12.6c-0.1,0.8-0.9,2.2,0.4,2.5c1.5,0.4,1.4-1.2,1.7-2.2c0.7-2.3,1.2-4.7,3.3-7.4c-0.8,7.4-1.5,13.7-2.2,20.1
			c-0.8,7.8-0.2,15.5,1.4,23.1c0.1,0.7,0,1.9,1.2,1.6c1.3-0.3,1-1.4,0.7-2.3c-1.5-4.1-1.5-8.3-1.3-12.6c1.5,4.6,1.8,9.5,3.9,13.9
			c0.6,1.2,1.1,2.6,2.5,1.8c1.1-0.6,0.3-2.1-0.2-2.9c-4.5-7.9-4.4-16.7-4.4-25.3c0-5-0.5-10.4,3.9-15.6c-2.2,9,0.4,17.4-1.6,25.5
			c-0.3,1.1-0.1,2.4,1.1,2.8c1.4,0.5,1.9-0.6,2.1-1.8c0.1-0.7,0.5-1.3,1.1-1.5c0.5,3-1.9,6.6,1.9,9.2c0.5,0.3-0.2,2.3-0.3,3.5
			c-0.1,0.9-0.2,2.2,1,2.4c1.6,0.3,1.1-1.1,1.2-2c0.1-1.1,0.2-2.1,0.4-4.4c2.1,5.4,2.6,9.7,1.3,14.3c5.1-5.6,0.2-11.9,1.6-17.7
			c-1.9-0.4-1.4,1.4-2.3,1.6c-2-1.1,2.5-19.5,5.8-22.4c-2.9,8.1-1.7,16.5-1.8,24.8c1.1-5.1,2.5-10,5.9-13.9c2.4-2.7,5-5.3,7.6-7.8
			c0.8-0.8,2.3-1.5,3.2-0.2c0.9,1.3-0.6,1.8-1.5,2.4c-2.7,1.9-5.3,3.8-6.8,6.9c-0.5,1-0.3,1.8-0.1,2.7l0,0c1.1-0.5,2.2-1.1,3.3-1.6
			c-7,8-1.3,16.2-0.8,24.1c0.3,4.4,0.7,8.6-0.1,12.9c-0.6,2.9,0,5.9,0.1,8.9c0.1,1.6,0.3,3.3-1.9,4.4c0.1-5.9-3.4-10.4-5.4-15.4
			c0.1,3.4,1,6.5,2.3,9.6c1.4,3.3,1.6,7.1,2,10.8c0.3,3.2,3.2,6.5-0.1,10.3c-0.7-3.1-1.3-5.6-3.4-8.1c-1.1,3.7-4.3,6.6-3.4,10.6
			c0.2,0.7,0.5,1.3,0.7,2c-0.4-0.7-0.6-1.4-0.7-2c-2.6-6.9-7.2-12.6-10.2-19.2c1.1,3.7,0.4,8,4.1,10.7c0.6,0.5,1.3,1.2,1.4,1.9
			c1.4,7.4,5.4,13.8,7.9,21.9c-8-4.6-9.1-12-11.3-18.9c-3.2,2.4-2.2-1.4-3.6-3c-0.8,6.6,2.3,11.7,4,17.2
			c-4.2-5.5-7.3-11.5-11.9-16.6c1.4,5,5.6,8.8,7,14.6c-3.1-2.6-4.1-6.1-6.9-8.8c-0.7,2.8,1.4,4.4,1.4,6.7c-1.8-0.4-3.6-1.2-4.1-2.9
			c-1.3-5.3-5.3-9.1-7.1-14.1c-1.8-5.1-4-10-6-14.9c-0.3-0.7-0.3-1.7-2-1.5c2.4,7.6,3.3,15.6,5.7,23c2.3,7.2,11.4,19.7,16.2,26.2
			c-6.2-3.8-15.5-15-17.5-21.8C194.3,403.6,193.9,401.8,192.7,400.2z M198.3,434.8c7.6,6.3,26.7,16.8,34.8,21.9
			C225.9,456.4,198.9,443.3,198.3,434.8z M210.3,499.3c-0.5,4.7-3.1,8.2-6.5,11.4c-4.4,4.1-7.6,8.9-7.4,15.2c0.1,2.3,0,4.9,2,6.7
			c-3.5-0.3-4.3-3-4.7-5.2c-1.1-5.4-2.2-11-2.2-16.4c0.1-4.9,3.8-8.9,5.7-13.3c1.2-3,3.3-5.7,4.2-8.8c1.2-3.8,4-5.6,7-7.4
			c3.8-2.3,7.5-4.6,10.4-8.1c1.2-1.4,2.6-2.6,4.7-2.8c1.2-0.1,2.5-0.4,3.5-1.1c7.8-4.8,16.7-5.3,25.4-6.5c5.2-0.7,13,4.7,14,9.8
			c0.5,2.7-2.2,3.2-3.7,4.5c-0.4-0.3-0.7-0.5-0.7-0.6c-1.4-6.8-6-9-12.1-5.6c-7.3,4-14.6,8-22,11.9c-0.6,0.3-1.5,1-1.8,0.8
			c-4.3-3.7-3.7,0.9-4.6,2.7c-0.8,1.7-2.4,2.2-3.9,2.7C213,491,210.8,494.4,210.3,499.3z M234.1,515.1c-0.8-1.4-2.5-2.5-3.6-1.6
			c-1.4,1.2-0.1,2.7,1,3.7c0.4,0.4,0.7,0.8,1,1.3c-1.2,1-1.7-0.3-2.4-0.6c-4-1.9-7.4-4.9-12.1-5.3c-1.4-0.1-3.8-1.5-3.1-2.2
			c1.9-1.7-0.7-6.4,4-5.9c1.7,0.2,3.4-0.3,5.2,0.5c-0.5-2.3-2.8-1-3.7-2.4c1.2-2.2,3.2-0.3,4.7-0.9c-2.2-2.6-2-5.6-1.3-8.9
			c3.1,5.2,2.7,12.8,10.6,14.4c-1.5,0.9-1.6,0.2-2-0.1c-0.9-0.6-2.1-1.9-3-0.3c-0.8,1.4,0.8,1.8,1.7,2.3c3.5,2,7.2,3.8,7.3,9.1
			C236.4,517.6,235,516.6,234.1,515.1z M240.9,515.5c-0.6-2.4-3.6-3-3.9-6.2c-0.2-2.6-2.7-5-5.6-5.7c-2.4-0.6-2.6-2.2-2.7-3.9
			c-0.1-1.6,1.4-1.7,2.6-1.9c2.3-0.2,2.5,1.5,2.8,3.2c0.2,1.2,0.2,2.5,2,2.5c-1.1-4.8-1.1-9.8-3.4-14.3c-0.3-0.6-0.3-1.7,0.7-2.1
			c1.1-0.4,1.4,0.5,1.7,1.3c0.8,2,1.6,4.1,2.6,6.5c1.5-2.5-0.8-6.4,0-6.1c3.8,1.3,1.9-2.9,3.7-3.1c0.6,2-0.4,4.2,0.6,6.4
			c1.4-2,2.5-3.9,2.6-6.3c0.1-1.7,1.3-3,2.7-3.9c0.9-0.6,1.8-1.7,2.9-0.8c1.3,1,0,2-0.4,2.9c-3.1,7.5-3.1,7.5-2.6,14.4
			c-0.3,0-0.6,0-0.8-0.1c-1.2-0.8-1.8-3.8-3.4-2.5c-1.6,1.3,0.9,2.6,1.5,4c0.8,1.8,2.4,3.3,2.6,5.6c-2.2-0.7-3.1-2.6-4.7-3.8
			c-0.6-0.4-1.2-0.8-1.8-0.2c-0.7,0.7,0,1.1,0.4,1.7c1.9,2.7,1.6,4.5-1.4,6.9c-0.7,0.6-0.6,1.2,0,1.7c0.8,0.9,1.8,1.7,2.7,2.5
			c0.4,0.4,0.7,0.9,0.2,1.4C241.8,516.1,240.9,515.8,240.9,515.5z M294.8,529.9c-2.7,2.8-3.3,6.8-6.3,9.4c-2.8,2.5-5.8,3.9-9.6,3.6
			c-0.9-0.1-2.3-1.1-2.8,0.5c-0.6,1.6,0.8,2.1,1.9,2.7c0.8,0.4,1.7,0.9,2.7,1.4c-1.7,1.1-2.2,3.6-4.9,3c-0.9-0.2-2-0.1-2.1,1.3
			c-0.2,1.7,1.2,1.5,2.2,1.6c1.1,0.1,2.1,0.1,3.3,0.6c-2.5,1.5-5.4,1.5-8.2,1.4c-1.6,0-3.2-0.7-4.8-0.8c-1.2-0.1-3-1.2-3.6,0.5
			c-0.5,1.6,1.2,2.3,2.6,2.5c1.1,0.2,1.6,1,2.5,2.6c-5.7-1.9-10.2-4.4-13.9-8.2c-1.2-1.3-2.5-2.5-3.5-3.8c-1-1.3-2.8-2.2-1.4-4.4
			c0.6-1-0.5-2-1.1-2.9c-3-4.6-4.5-9.8-6.6-14.8c-0.1-0.3,0.2-0.7,0.4-1.3c1.8,0.9,3.1,2.4,3.3,4c0.5,5.1,2.6,9.2,6.5,12.5
			c0.8,0.7,1.6,1.6,1.6,2.7c0.2,3.6,3.1,4.2,5.9,5.1c-4.1-2.5-5.3-6.2-5.3-10.8c0-2.2-2.2-3.9-3.8-5.6c-2.3-2.2-3.7-4.9-3-9.1
			c4.6,5.3,7.4,12.2,15.5,12.7c-1.4-3.3-5.6-4.1-6-7.9c2.6-0.8,5,0.9,7.5,0.7c2.3-0.2,4.9,2.5,7.1-1.1c-4.6-0.1-9.3,0.2-13.2-1.8
			c-2.1-1.1-2.9-4.4-4.1-7.1c4,3.3,7.9,7,13.8,5.2c-2.2-1.3-5.9-0.7-5.5-5.1c3.2,1.3,5.6-0.3,8.1-2c1.2-0.8,2.8-1.6,1.8-3
			c-1-1.3-2.4-0.1-3.2,0.9c-0.5,0.6-0.9,0.9-2.1,0.6c2.6-1.7,2.2-5.2,4.8-7c4.6-3.3,6.8-3.3,10.6,0.3c-4.6,2.3-5.5,8.3-10.5,10.3
			c4.3-0.1,6.6-4.5,11.1-5c-0.6,2.8-3.3,2.1-4.5,3.8c3.7,1.8,7.5-3.6,11.1,0.8c-3.5,2.8-8.9,3.5-11,8.5c2.4,1.3,5.5-0.9,8,1
			c0.1,2-2.3,2.5-2.8,4.6c2.5-0.3,4-1.8,5.4-3.3c1.1-1.1,2.4-2,3.9-2C293.8,527.6,296,528.7,294.8,529.9z M298.9,469.9
			c-1.3,1.3-1.9-0.1-2.5-0.7c-4.1-3.7-7.5-8.1-11.9-11.6c-2.2-1.7-4.4-3.1-6.7-4.6c-1.3-0.8-2.9-1.3-3.7-3.6
			c5.9,3.8,12.1,5.7,17,10.1c2.6,2.3,5.3,4.6,7.4,7.3C299.2,467.9,300.2,468.7,298.9,469.9z M305.2,557.2c-1.8-2.9-4.3-5.6-2.4-9.9
			C305.7,550.3,305.5,553.7,305.2,557.2z M290.4,421.5c-0.1,0-0.2,0-0.3,0c0,0-0.1-0.1-0.1-0.1c-3.3,0.4-6.4,0.3-9.7-2.5
			c4-0.2,7.1,0.2,9.7,2.5c0.1,0,0.1,0,0.2,0C290.3,421.4,290.3,421.5,290.4,421.5c4.3-0.3,7.8,1.4,11.3,3.8c4.9,3.3,10,6.1,13.5,11
			c0.9,1.3,2.5,0.5,3.8,0.7c0,0,0,0,0,0c-0.1-8.7,3.8-16.3,7.3-23.9c-3.2,7.7-3.9,16.2-7.3,23.9c0,0,0,0,0,0c0,0,0,0,0,0
			c0,0,0,0,0,0c-0.7,0.9-1.5,1.9-2.4,3C308.5,432.9,300.2,426.1,290.4,421.5z M356.6,490.8C356.6,490.8,356.6,490.8,356.6,490.8
			c-0.1,0.1-0.2,0.1-0.3,0.2c-0.6,0.4-0.9,1.2-1.9,1.3c-6.8,0.8-8.6,2.6-10.3,9.4c-0.2,0.8-0.3,1.6-1.1,2.2
			c-0.9-1.3-0.3-2.7-0.3-4.1c-0.1-3-0.6-5-4.2-3c-0.7,0.4-1.8-0.6-1.5-1.3c0.4-1,2-1.7,0.6-3.3c-2.2,3.3-5.4,5.5-8.3,8.7
			c0.5-5.7,5.2-9.5,5.1-15.3c-2.5,1.1-0.6,5.4-4.3,4.9c-2.1-0.3-0.5-2.1-1.3-3.1c-1.6,0.5-1.1,4.1-4.2,2.7c1-4.4,0-9.1,0.2-13.8
			c0-1-1-2.2,1-2.2c1.4,0,2,1,1.7,2.2c-0.6,2.6,0.2,5,0.5,7.7c0.5-3.4,0.4-7,3.3-9.9c2.3,2.2,0.9,5.8,2.7,8.6
			c1.3-1.3,0.8-2.6,0.9-3.9c0.2-1.6-0.4-4,1.5-4.1c1.7-0.1,1.8,2.3,1.7,3.9c0,2.2,0.4,4.2,1.6,6.3c1.2-1.6,2.3-3.1,3.8-5.1
			c1.1,4.2,0,7.1-1.8,10.3c2.4-1.3,4.9-2.4,7.2-3.8c1.7-1.1,3.5-2.2,5.2-1c1.4,1,0.5,2.4-0.7,3.7c-0.4,0.5,0.7,2.7,2.7,1.8
			C356.3,490.9,356.4,490.8,356.6,490.8C356.6,490.8,356.6,490.8,356.6,490.8c3.7-0.4,6.5-3,9.7-3.7
			C365.1,490.2,361.4,491.8,356.6,490.8z M357.9,481.8c-5-2-8.3-6.5-12.1-10c-5.4-5-11.5-6.5-18.2-6.4c-4.2,0-8.4,0.9-12.2,3.1
			c-1.7,1-3.6,2.1-3.2,4.2c0.4,2.2,2.7,1.1,4.2,1.4c1.1,0.2,2.5-0.6,3.3,0.8c0.1,0.2-0.1,0.9-0.3,1.1c-1.1,1-2.3,1.3-3.7,0.6
			c-2-0.9-4.1-1.6-5.8-2.9c-4.5-3.2-4.5-7,0.4-10.6c3.5-2.5,7.3-4.6,11.2-6.5c2.3-1.1,5.1-1.1,7,0.5c2.2,1.8,4.6,2,7.1,2.3
			c10.2,0.9,18.9,4.4,24.4,13.8c1.6,2.8,4,5.1,6.1,7.5c0.9,1.1,1.9,2,1.8,4C364.3,483.7,361,483.1,357.9,481.8z M405.5,419.9
			c6.8,5.4,11.1,13.2,18,18.6c1.3,1,1.2,2.5,1,3.7c-0.5,4.2,0.5,8,2.1,11.9c1.7,4.2,2,8.7,1.4,13.3c-0.5,3.8-1.4,7.4-5.4,8.8
			c-4,1.4-7.9-0.1-10.5-2.9c-2.9-3.1-6.2-5.5-10.5-7.8c4-0.8,6.2,1.4,8.7,2.7c2.2,1.1,4.2,2.6,6.8,2.7c3.3,0.1,4-0.9,2.6-3.9
			c-2.9-5.9-6.8-11.5-8.5-17.8c-2-7.4-8.3-10.4-12.4-15.6c-1.9-2.3-4.7-3.7-6.2-6.4c-0.7-1.2-2.2-2.5-3.3-2.1
			c-3.9,1.6-5.1-2-7.5-3.2c-5.3-2.8-10.6-6.2-17.2-4c-4.3,1.4-5.4,4.6-2.4,8c2.9,3.3,7.1,5.4,8.6,10c0.4,1.2,1.6,0.7,1.9-0.5
			c0.5-1.7,0.8-3.4,1.2-5.1c2.2,3.7,3.4,7.4,0.5,11.3c3.2-2.6,2.4-6.1,2.3-9.4c0-1.1-0.3-2.1-0.3-3.2c0-0.8,0.3-1.7,1.4-1.6
			c0.9,0.1,1,0.9,1,1.5c0.1,3.8,2.2,7.3-0.1,12c2.4-1.8,2.3-3.3,2.3-4.7c0-1.1,0.1-2.3,1.3-2.7c1.4-0.5,1.9,0.8,2.5,1.6
			c0.7,1,1,2-0.2,3.2c-2.5,2.3-4.1,5.4-5.9,8.5c2.1,0.4,2.7-1,3.1-2.4c0.8-2.4,2.5-4.2,4.2-5.9c0.5-0.5,1.3-1.8,2.3-0.7
			c0.6,0.7,0.5,1.7-0.3,2.6c-1.8,2-3.5,4.1-5.2,6.2c-1,1.2-2.4,2.3-1.7,4.6c2-3.9,5.1-6.5,7.5-9.7c1-1.4,2.8-3.2,3.2,0.6
			c0.1,1,0.5,1.5,1.6,1.2c4-1,3.7,0.9,2.5,3.6c-0.2,0.5,0.2,1.3,0.3,2l0,0c4.6,0,4.7,0.2,3,4c-0.3,0.6-0.9,1.1-0.4,1.8
			c0.5,0.7,1.2,0.3,1.9,0.1c0.9-0.4,1.8-0.3,2.8-0.1c1.3,0.4,1.6,1.4,1.8,2.5c0.2,1.4-1,1.4-1.9,1.6c-1.3,0.4-2.7,0.5-4,1
			c-2.2,0.8-4.3,1.8-1.6,4.5c-7,0.8-11.6,5.1-16.2,9.7c-0.8-2.8-1.8-5.3-3.7-0.7c-0.4,0.9-1.1,1.1-2,0.8c-1.7-0.5-0.5-1.5-0.2-2.2
			c0.8-2,1-3.7-2-2.9c-3.3,0.8-3.5-1.2-3.6-3.6c-0.1-1.9,1.9-4.6-0.4-5.5c-1.7-0.7-2.2,2.7-3.8,3.8c-1-0.7-0.9-2.7-2.3-2.6
			c-5.1,0.1-2.7-3.3-2.1-4.9c2.1-5.5,4.9-10.7,9.2-14.7c1.4-1.3,1-2,0-2.9c-1.7-1.5-3.4-3.1-5.3-4.4c-4.4-2.9-6.9-7.4-9.1-11.8
			c-2.8-5.7,0.7-10.6,7.3-11.4c9.6-1.2,19.1-0.3,28.5,1.1C397.4,412.8,401.4,416.7,405.5,419.9z M397.8,393.8
			c-1.2,3.7-0.4,7.6-1.4,11.3c-1.4,5.3-4.9,2.9-7.8,2.5c-3.6-0.5-2.6-3.4-1.8-5c3.9-8.1,3.6-16.9,5.4-25.4c0.8-3.8,1.4-7.7,5.2-10.5
			c1.1,2,0.2,3.8-0.3,5.2c-2.9,7.7-3.8,15.9-6.2,23.6c-0.5,1.7-0.7,3.2,1.5,4.4c4.1-7.2,5.3-15.8,10.5-22.6
			C401.3,382.8,399.5,388.3,397.8,393.8z M591.7,293.6c-1.1,3.4-4.7,5.1-7.9,6.5c-5.7,2.4-11.4,4.1-17.8,3c-8-1.4-16.5-0.4-24.1-3.6
			c-10.9-4.6-22.9-6.4-33.1-12.7c-2-1.3-2.2-1.1-3-4.5c-12.6,13.6-21.9,29.6-35.2,42.2c1.4-2.4,1.6-5.3,3.7-7.4
			c-2.4,0.5-4.6,1.2-5.7,3.5c-3.5,8-8.1,15.3-13.3,22.2c-0.2,0.3-0.6,0.6-0.8,1c-3.2,7.6-10.4,10.8-16.8,14.7
			c-2.4,1.5-4.1,4.5-7.9,4.2c1.6-3.9,5.8-4.9,7.8-8c1.1-1.7,2.6-3.1,3.7-4.8c0.6-0.9,1.7-2.4,0.6-3.3c-1.5-1.2-2.7,0.5-3.3,1.5
			c-1,1.7-2.4,2.9-4,4l0.1-0.1c-3.1,2.2-5.2,5.5-8.6,7.3c-1.9,1-4.3,2-5.6,0.1c-1.3-1.8,0.4-3.8,2-5c3.3-2.2,6.1-4.9,8.4-8.2
			c2.6-3.8,3.4-8.2,4.8-12.6c-0.8,0.1-1,0.1-1,0.2c-1.5,6.6-6.9,9.6-11.8,13.1c-2.8,2-5.5,4.4-8,6.8c-1.8,1.7-3.6,2.3-6.4,1.2
			c3.1-4.2,6.8-7.6,10.7-10.8c3.4-2.8,4.5-6.8,4.7-11.2c-4.9,9.4-13.8,10.9-23.1,11.5c1-4.3,4.9-7,7.3-10.6c4-6,7.1-12.1,7.9-19.4
			c0.3-2.7,1.4-5.2,2.2-7.8c0.2-0.9,1.7-2,0-2.5c-1.5-0.5-1.6,1.2-1.9,2.1c-1.1,3.9-2.1,7.8-3.1,11.7c-0.7-0.9-1.3-3.2-2.3-0.2
			c-1,3.1-2.9,5.4-6.1,6.6c-0.6-1.5-0.3-2.8,0-4.1c0.2-0.8,1.2-2-0.5-2.2c-1.2-0.2-1.5,1.1-1.6,2c-0.5,3.7,0.1,7.7-2.6,11
			c-1.4-1.5,0.9-3.6-1.3-5c-0.9,2.1-1.8,4.1-2.5,6.1c-1.3,4.1-4.8,6.6-7.3,9.7c-2.9,3.5-4.2,7.9-7.2,11.2c-0.4,0.5-0.7,1.4-1.5,1.2
			c-0.8-0.2-1.2-1.1-1.2-1.9c-0.1-2.7,0.1-5.4,0.7-8.1c1-4.9,1.7-10.4,1-15c-1.3-8.7,0.7-16.8,1.6-25.1c0-0.2-0.2-0.5-0.6-1.3
			c-3,5.2-2.5,10.8-3.8,16.6c-4-9.1-7.7-17.6-7.2-27.3c-1.8,6.2-0.8,12,1.4,17.8c1.8,4.5,3.9,9,4.5,13.9c0.3,2.4-0.2,4.5-1.3,7.1
			c-2.1-5.4-5-9.8-6.5-14.9c-1.6,1.8-0.5,3.4-0.1,4.9c0.4,1.7,1.4,3.3,2.1,4.9c0.9,1.9,1.2,3.9,0.1,5.8c-0.3,0.6-0.8,0.7-1.3,0.3
			c-1.7-1-1.9-2.8-2.4-4.5c-0.5-1.7-0.1-3.9-2.4-5.2c-1.2,2.8,0.1,5.6-0.8,9c-2-6.2-1.8-12.2-3.8-17.9c-1.9-5.5-6.4-9.8-7.5-15.8
			c-2.6,5.1,3.9,9.3,1.9,14.3c-7.8-1.2-8.2-8.7-11.3-13.6c-4.6-7.4-6.3-15.8-5.9-24.5c0.4-7.8-2.4-15-4-22.5c-0.5-2.5-1-5.1-1.2-7.6
			l0.1,0.1c-2.4-6.5-3.7-13.3-4.9-20c-0.9-5-4.9-8.9-4.8-14.2c0-1-1.3-0.6-2.1-0.5c-5.9,1-10.9-1.5-15.5-4.5c-1.9-1.2-3.9-2-5.9-2.6
			c-6.1-1.8-11.9-4.6-16.6-8.2c-6.3-4.9-14.1-9.4-13.4-19.8c0.2-3.3-1-6.9-1.3-10.4c-0.3-4.2,1.1-7.6,3.7-10.8
			c4-4.8,7.9-9.7,11.9-14.4c1.4-1.7,3.6-2.5,5.7-3.1c9-2.6,18-5.1,26.8-8.3c16.5-6,33.3-2.8,49.9-3c6.1-0.1,12.3,2.9,18.2,5.3
			c1.1,0.4,2.2,1.5,2.9-0.4c1.1-3.1,3.9-3.8,6.5-4.5c8-2,16.2-3.6,24.3-5.2c7.3-1.5,14.6-2.7,21.8-4.4c5-1.2,8.5-4,11.2-8.1
			c1.1-1.6,1.5-3.4,1-5.1c-1.4-4.9-2.6-10.1-6.4-13.8c-6.9-6.7-14.4-12.6-23.8-15.7c-1.3-0.4-3.3-1-3.5-1.9c-1.4-6.1-6.2-4-10-4.6
			c-8.8-1.3-17.5-3.2-26.2-4.2c-7.9-1-15.9-1.7-23.9,0.6c-2.3,0.7-5,0-7.2-1c-8.5-4-18.2-3.4-26.6-7c-13.6-5.9-27.5-1.2-41.1-2.5
			c-2.6-0.3-6,1.8-6.8-3.1c-0.3-1.7-3-1.2-3.7,0c-2.3,3.6-5.9,3.5-9.5,4.4c-9.2,2.4-18.4,1.2-27.6,1.3c-8,0-15.7-1.6-23.2-4
			c-4.7-1.5-9.2-2.3-14-1c-2.2,0.6-4.6,0.6-6.8,1c-4.8,0.8-9.2,1.7-13.5,4.7c-8.1,5.7-17.3,9-27.6,7.6c-8.6-1.1-16.9,1.5-24.8,4.1
			c-3.7,1.3-7.6,2.7-11.4,4.1c-8.8,3.1-15.7,9.5-20.4,17.1c-6.3,10.3-4.3,19.8,8,24.6c6.7,2.6,13.6,4.4,20.5,6.4
			c1.2,0.4,3,0.5,4-0.1c4-2.3,7.2-1.5,11.1,0.8c8.8,5.2,17.5,10.4,27.8,12.9c7.1,1.7,14,4.1,21.2,5.8c0.7,0.2,1.3,0.4,1.6-0.3
			c0.4-0.8,0-1.5-0.4-2.2c-4.3-8.4-10-15.4-16.9-22c-9.2-8.8-19-16.7-29.5-23.8c-2.1-1.4-4.4-2-6.7-2.7c-1.4-0.4-2.8-0.8-4.8-2.5
			c5.9,0.2,10.9,1.6,14.6,3.9c5.8,3.5,12.1,6.4,17.2,11.1c6.2,5.7,11.3,12.3,17,18.4c4.3,4.7,9,8.6,15.3,10.7
			c0.5-2.4-1.3-2.2-2.2-2.8c-9.8-5.9-16.4-15-23.7-23.4c-3.4-3.9-7.1-7.5-10.6-11.2c-0.6-0.7-1.8-1.5-0.8-2.3c1.2-1,1.3,0.7,1.9,1.2
			c7.3,6.7,14.5,13.4,19.9,21.7c0.5,0.8,1.3,1.4,1.9,2.1c0.7,0.7,1.5,2.2,2.6,1.4c1.4-1.1-0.6-1.7-0.9-2.6
			c-1.3-4.6-6.4-6.9-7.6-12.4c9.5,6.2,12.1,18.1,21.9,23.3c-2.1-5-4.8-9.6-4.4-15.3c1.3,0.5,1.9,1.7,2.5,2.8c0.5,1,1,2.8,2.5,2.1
			c1.3-0.6,0.5-2.3,0.2-3.3c-2-6.5-3.3-13.2-7.8-18.6c-0.6-0.8-1.7-2-0.4-2.8c1.2-0.7,2.4-0.4,3,1.4c1.1,2.9,4.3,4.5,5.4,7.5
			c0.3,0.8,1.1,1.3,2,0.8c0.8-0.4,0.6-1.1,0.5-1.8c-0.3-3.9-2.7-7.1-4.5-10.4c-1.2-2.1-2.3-4.1-2.4-7.6c3.3,3.5,4.7,7.1,6.2,10.6
			c1.5,3.6,2.4,7.5,5.1,10.5c0.8,0.9,1.7,2.2,3,1.6c1.8-0.9,0-2.1-0.3-3.1c-1.3-3.7-2.1-7.5-2.4-11.6c2,0.4,2.3,1.9,2.8,3.3
			c1.7,4.7,1.8,9.6,2.2,14.5c0.5,6.7,3.4,12.5,5.8,18.6c1.5-13.2-2.7-25.8-3.9-38.9c3.2,0.4,3.2,3,3.9,4.9c0.4,1.2,0.6,2.7,2.1,2.3
			c1.3-0.4,0.7-1.9,0.4-2.9c-0.3-1-0.9-2-0.1-3.7c2.6,6.7,4.3,13.3,8.2,19.2c-1.3-8.3-2.6-16.7-3.9-25.3c4.9,1.7,2.9,7.5,6.7,9.9
			c0.6-3,0.6-5.8-0.1-8.7c-0.3-1.3-1.1-2.5-0.6-4c0.4-1-0.2-2.3,1.2-2.8c1.3-0.5,2.4,0.1,3.4,0.9c0.8,0.7,1.1,2,2.7,1.9
			c0.9-1.4,0.1-3.7,2-5c3.6,3.1,3,8.1,5.3,12.2c2.7-5.3-1.6-11.6,2.8-16.8c1.4,2.5,1.9,4.5,1.8,6.9c-0.5,5.8-0.7,11.7-0.9,17.5
			c0,0.8-0.7,2.2,0.9,2.1c1.2,0,0.7-1.2,0.8-1.9c0.5-5.6,0-11.3,1.4-16.8c1.4,3.4-0.2,6.7,0,10.1c0.1,1.1-1.5,2.8,0.3,3.1
			c2,0.3,1.1-1.9,1.5-3.1c0.2-0.5,0.3-1,0.5-1.9c2.6,2.7,2.1,6.1,3.4,9.1c2-6.5,0.2-13.5,2.8-20.5c5,9.6,2.6,19,1,28.4
			c2.6-1.6,0.9-5.2,4-6.4c1,2.7,1.5,5.4,0.2,8.2c-0.4,0.8-0.4,1.9-0.6,2.8c-0.2,0.9-0.8,2.1,0.5,2.5c1.7,0.4,1.5-1.3,1.7-2.2
			c1.6-6.6,2.2-13.4,2.5-20.2c0.2-3,0.4-6,0.5-9c0-1.1,0.2-2.5,1.1-2.9c1.3-0.6,2.3,0.7,3,1.6c1,1.2,1.7,2.8,2.4,4.2
			c0.4,0.9,0.6,2,1.9,1.7c1.1-0.2,0.7-1.4,0.7-2.1c0-1.8,0.3-3.5,1.1-5.6c2.3,9.4,1.3,18.2,0.9,27.1c0,1.2-1.5,3.1,0.6,3.3
			c1.5,0.1,1.3-2.2,1.3-3.4c-0.1-10.6,3.2-20.7,5.2-30.9c0.3-1.3,0.4-2.8,2-3.4c1.8,1.9,1.1,4,0.5,6.1c-2,6.8-2.1,14-3.5,20.9
			c-0.2,0.8-0.4,1.9,0.6,2.1c1.4,0.3,1.3-1,1.5-1.9c0.3-1.4,0.5-2.9,0.8-4.6c3.3,9.9,5.5,19.6,2.6,29.9c2.7-1.6,2.2-4.1,2.8-6.3
			c2.4-10.6-0.1-21.7,3.3-32.2c0.7-2.1,1.4-4.1,2.2-6.1c0.3-0.8,0.9-2,2-1.7c1.2,0.3,1.5,1.6,1.4,2.6c-0.4,3.8-2,7.3-3.1,10.9
			c-0.6,2-3.1,4.6-1.1,5.7c1.3,0.7,2-3.1,2.7-5c2.2-5.7,3.2-11.8,5.9-17.4c0.1-0.2,0.1-0.5,0.2-0.8c0.5-1.4,1.5-2.7,2.9-2.1
			c1.4,0.6,0.7,2.3,0.2,3.3c-1.2,2.4-2.7,4.7-3.3,7.4c-1.4,6.4-2.7,12.8-1,19.3c1.6,6.2-1.4,11.7-1.9,17.6
			c-0.3,3.4-0.5,6.9-0.1,10.4c6.6-16.8,8.2-35.5,20.2-50.2c-3.5,0.5-3.7,4.3-6.5,5.9c1.2-4.5,3.3-8.2,6.3-11.6
			c0.9-1.1,1.9-2.3,3.3-1.5c1.5,0.8,0.8,2.5,0.4,3.7c-2.2,6.1-4.5,12.3-6.8,18.4c-0.9,2.3-1.7,4.7-1.6,7.3c1.9-0.6,2-2,2.3-3.3
			c1.4-6.6,4.9-12.4,7.3-18.5c0.3-0.9,0.9-1.7,1.6-2.3c0.6-0.6,0.9-1.9,2.2-1.2c1.4,0.7,0.9,1.8,0.4,2.8c-2.1,5-4.2,10-6.4,15
			c-0.7,1.6-1.4,3.2-0.8,5.1c4-7.7,6.6-16.3,14-22.7c0.7,4.2-1,6.8-2.8,9.5c-1.6,2.5-3,5.1-3.4,8.2c4.8-4.2,6.1-10.9,11.8-15.4
			c-0.6,7.4-6.7,11.5-7.3,18c3.1-4.3,6.6-8.1,10.7-11.4c0.8-0.7,1.6-1.5,2.4-2.2c0.6-0.4,1.4-1,2.2-0.2c0.6,0.6,0.2,1.3,0,1.9
			c-1.4,3.1-2.8,6.2-4.2,9.3c-1.3,2.9-2.7,5.9-2,9.9c4.5-4.4,6.3-10.2,11.3-13.7c-2,3.4-4,6.8-5.9,10.3c-0.9,1.6-2.6,4.4-1.5,5
			c2.1,1,2.8-2.1,3.9-3.5c1.7-2,2.4-4.5,3.4-6.9c0.7-1.8,1.7-3.1,3.6-3.5c0.9-0.2,1.7-1.6,2.9-0.3c1.1,1.2-0.2,1.9-0.5,2.9
			c-1.5,5.1-4.9,9.2-6.3,14.4c4.3-2.9,6.7-7.8,12.3-10c-2.9,5-5.6,9.6-8.2,14.2c-0.5,0.9-2.3,2.2-1.1,3c1.7,1.1,1.8-1.4,2.7-2.2
			c1.8-1.9,2.7-4.6,5.4-6.2c-0.3,2.9-2.6,4.9-2.2,8.2c1.6-1.4,2.9-2.5,4.1-3.6c0-0.1,0-0.1,0.1-0.2c0,0,0.1,0,0.1,0
			c2.2-5.7,6.8-9.6,10.9-13.8c-2.2,3.3-4,7-7.1,9.7c-0.9,0.8-2.5,2.2-0.8,3.3c1.3,0.9,1.4-1.1,2-1.9c5.2-7.3,11.8-12.7,20.7-15
			c-1.2,1.1-2.2,2.3-3.5,3.2c-9.8,7.1-16.7,16.3-20.9,27.7c-0.4,1-0.8,2-1.3,3c-0.9,1.9-2.6,1.3-3.9,0.9c-1.7-0.5-0.4-1.8-0.3-2.7
			c0.4-4.3,3.4-7.6,5-11.5c0.7-1.7,0.7-2.4-0.8-2.9c0,0,0,0,0,0.1c0,0-0.1,0.1-0.1,0.1c-0.8,3-2.6,5.4-4,8.1
			c-0.6,1.1-1.8,2.1-1.9,3.1c-0.2,6.1-4.7,5.5-8.5,5.4c-6.3-0.1-12.5-0.7-18.8,0.1c-2.1,0.3-2.3-0.6-1.5-2.4c2.2-4.9,2.3-10.6,6-15
			c1.4-1.7,2.4-4.3,0.2-6.7c-3.3,2.4-3.7,6.3-4.6,9.6c-1.1,3.7-2.8,7.3-2.9,11.4c-0.1,2.2-1.7,3.6-4.2,3.4c-4.5-0.3-9,0-13.1,2.1
			c-2.1,1-2.6-0.3-3-1.9c-1-3.3-0.1-6.5,0.3-9.7c0.6-4.1,1.4-8.2,2.2-12.6c-3.7,2.3-9.3,15.5-9.4,22.2c1.8-5.1,2.7-9.6,5.6-14.1
			c1.1,3.7,0.4,6.5-0.3,9.3c-0.7,3,1.7,6.8-1,8.8c-2.2,1.7-5.7,1.6-8.5,2.5c-6,2-12.5,2.5-18.1,5.8c-2.7,1.6-4.8,0-5.3-3.2
			c-1.1-7.2-3.1-14.3-2.4-21.7c-1.5,4.5-1.4,9.2-0.1,13.5c3.3,11.1,0,19.9-7.3,28.5c-5.2,6.1-9.5,13.2-11.2,21.3
			c-1,4.8,0.6,9.4,3.9,12.8c4.1,4.4,5.9,9.9,9,14.8c0.9,1.4,1.7,2.8,2.4,4.3c0.6,1.3,1.8,1.2,2.3,0.5c2.7-3.9,2.8-0.3,3.6,1.2
			c0.5,1.1,0.8,2.3,1.4,3.4c0.8,1.3,0.4,4,2.4,3.5c1.5-0.4,0.8-2.9,0.8-4.5c0-0.8-0.1-1.6-0.2-3.1c2.4,2.3,2.2,4.6,2.2,6.8
			c0.1,8.8-0.9,17.6,4.2,25.7c2.8,4.5,2.2,10,2.2,15.2c0,1.5-0.3,3.1,0.9,4.5c1.3-5,0.9-10,0.6-15c-0.4-6.4-3.6-12.3-3.2-18.8
			c0.1-2.6,0.2-5.2,0.3-7.8c0.1-1.2-0.2-2.6,1.8-2.8c1.8-0.1,2.1,0.8,2.4,2.3c0.4,2.3,1.1,4.5,1.7,6.7c0.2,0.6,0.6,1.3,1.5,1.1
			c0.9-0.2,0.6-1,0.6-1.7c-0.1-2-0.3-4,0.2-6.1c2.2,2.7,3.6,5.7,3.9,9.2c0.2,2.7,0.4,5.4,1.7,7.9c0.2,0.5,0.3,1.1,1,1.1
			c1,0,1-0.8,1.1-1.4c0.1-2.5,0.1-4.9,0.2-7.4c0.1-0.8-0.2-2.2,1.2-2.3c1.6-0.1,1.4,1.4,1.6,2.4c0.3,2.2,0.4,4.4,1,6.5
			c0.3,1.2,0.2,3.1,2.1,3.1c2,0,1.6-1.8,1.9-3.1c0.1-0.4,0.2-0.7,0.3-1.3c3.6,5.6,2.9,11.9,3.7,17.9c0.3,2.5-0.7,5.8,3.8,5.5
			c1.5-0.1,1.1,1.8,0.9,2.7c-1.9,10.7-2.6,21.6-6.9,31.7c-1,2.4-0.7,5.3-2.9,8.2c-0.5-11.4,2.1-22-0.4-32.7
			c-0.2,12.4-0.3,24.9-2.7,38c-2.4-5-1-9.6-2.7-13.8c-2.1,7.3,0.3,15-2.2,22.2c-0.3-10.6-2.1-21.1-0.8-31.7
			c-2.7,3.7-0.9,8.4-2.8,12.3c-2.7-7.2-1.6-14.6-2.3-21.9c-2,3.7-0.8,7.8-1.7,12c-4-6.4-6.9-12.9-11.1-18.7
			c-1.8-2.5-0.3-5.5-0.7-8.4c-1.3-9-2.6-18.1-5-26.9c-0.7-2.5-1.2-5-1.4-7.6c-1.3,3.2-0.4,6.2,0.5,9.3c2.3,8.3,3.5,16.8,4.6,25.3
			c0.1,0.8-0.1,1.5-0.3,3.4c-4.2-7.1-8.7-12.5-8.8-20.7c-0.1-7.8-1.7-15.7-2.2-23.5c0-0.5-0.2-1.1-1.1-1.3
			c-0.3,9.9,2.9,19.6,2.1,29.6c-9.4-9-6.5-20.4-6.9-31.2c-1.1,6.8-2.5,13.6-0.5,20.7c-4-1.4-6.1-5.2-6.3-11.3
			c-0.3-6.4-1.3-12.7,0.6-19.1c0.5-1.6,0.4-3.5-0.4-5.4c-2.4,9.8-2.9,19.5-1.2,29.3c-2.9-1.3-2.3-1.6-3.3-4.2
			c-2.6-6.6-1.4-13.4-2.1-20.2c-1.9,6.5-1.5,13.1,0,20.6c-4.5-4.5-4.5-10.2-8-14.1c1,3.3,2,6.7,3.1,10.2c-6.1-2.1-7.6-7.7-9.5-12.6
			c-4.5-12.1-7-24.8-9-37.6c-0.2-1.4-0.1-3-2-4.8c0.9,5.5,1.5,10.3,2.4,15.1c0.7,3.6,1.9,7.1,2.5,10.7c0.4,2.4,1.6,4.8-0.3,7.4
			c-1,1.3,0.1,3.7,0.8,5.5c0.9,2.2,1.9,4.4,2.1,7.3c-4.7-3.4-9.2-6.6-13.6-9.8c-0.9-0.7-0.7-1.8-0.7-2.9c0-5-0.4-10-2.6-14.7
			c-0.7,4.9,1.4,9.8,0.4,15.1c-3.3-2.5-6.7-3.8-8.6-7.9c-2.7-5.9-4-12.4-7.4-18c-2.7-4.4-4.4-10-8.2-12.8c-5.1-3.6-6.2-8.6-8.5-13.4
			c-0.8-1.9-2.3-2.4-4.3-2.4c-7.8,0-15.4-1.3-22.9-3.1c-4.3-1-7.9-3-11.5-5.8c-6.2-5-13.4-7.9-21.5-8.5c-7.2-0.5-14-2.4-20.4-6.2
			c-2.5-1.5-6-1.5-9.1-2c-7.7-1.2-10.6-3.8-12.4-11.3c-0.7-2.8-1.3-5.6-2.4-8.2c-2.5-5.9-0.9-11.5,2.2-16.3
			c5-7.8,10.8-15.5,18.3-20.8c5.7-4.1,12.1-7.6,18-11.5c13.7-9.1,29.5-10.7,44.7-14.6c9.3-2.4,18.8-4.8,27.2-9.8
			c3-1.7,6.2-2.9,9.6-3.2c9.8-0.7,18.6-5.6,28.2-7.3c7.4-1.3,14.7-3.5,22.2-4.4c6.1-0.8,12.1-1.7,18.2-2c8.1-0.4,15.7,1.1,23.3,4.1
			c3.8,1.5,8.3,1.4,12.4,2.1c6,0.9,12.4,1,18,3.1c6.5,2.5,13.2,3.7,19.8,5.7c9,2.7,18,5,27,7.9c8.8,2.9,17.5,5.9,26.5,8.3
			c6.2,1.6,12.7,3.6,18.4,6.8c4.5,2.5,8.3,6.4,12.7,9.3c4.2,2.8,8.3,6.1,12.7,8.5c6.1,3.3,9.5,7.8,11.8,14.2
			c2.1,5.8,5.5,11.2,6.8,17.4c0.3,1.5,0.9,3,0.2,4.4c-4.1,7.9-8,15.7-17.8,18.2c-6.9,1.7-13.3,5.8-20.5,5.8
			c-6.5,0-12.5,1.8-18.7,2.9c-4.9,0.8-9.7,2.4-14.5,3.6c0.1,1.6,1.3,1.3,2.1,1.6c9.2,3.3,18.7,5.7,27.9,8.7c7.3,2.4,14.7,4.4,22,6.9
			c10.4,3.5,20.6,7.8,30.9,11.7c0.5,0.2,1,0.6,1.5,0.7c8.8,1.3,16,6.4,23.9,9.7c7,2.9,13.5,7.1,19.6,11.6c4.4,3.2,7.9,7.6,11.6,11.7
			c2.7,2.9,5.9,5.2,8.8,7.7c4.2,3.6,8.4,7.3,12.3,11.1c7.5,7.3,17.2,12.3,23.2,21.2c4.3,6.4,9.1,12.5,11.9,19.9
			c1.8,4.8,4.8,9.1,6.8,13.8C597,274,594.9,283.9,591.7,293.6z M405.5,113.1c-1.7,0-2.4-1-3.1-2c-1.7-2.2-3.1-3.3-4,0.5
			c-0.4,1.7-1.5,1.3-2.5,0.6c-3.1-2.4-4.8,0-6.2,2c-1.9,2.7-2,2.9-5.4-0.4c3.4,1.2,4.3-1.3,5.4-2.7c2.5-3.3,7.5-1.1,9.7-4.8
			c0.1-0.2,0.9-0.2,1.1,0c3.5,5,6.3,0.1,9.3-0.8c1.4-0.4,2.5-0.1,3.2,0.7c1.4,1.8,4.5,2.1,4.7,5.1c0,0.8-0.6,0.7-1.1,0.7
			c-0.8,0-1.1-0.7-1.4-1.3c-1-2.1-3.2-4-5-3.1C408,108.6,404.4,109.3,405.5,113.1z M318,64.2c-1.2,6-4.3,10.8-7,17
			C310.6,73.9,314,65.9,318,64.2z M288.8,84.2c-1-5.6,1-10.6,3.3-15.6C292.5,74.2,289.4,78.9,288.8,84.2z M184.3,106
			c-3.5-3.1-6.5-6.5-8.3-11C178.5,98.9,183.3,101,184.3,106z M111.7,102.1c-1.5-1.2-3.1-0.1-4.3,1.5c-0.8,1-2,1.8-3.5,1.7
			c-0.9-1.3,4.5-6-2.3-4.2c-1.3,0.3-1-1.5-0.3-2.1c1.2-1,2.7-1.8,4.8-3.2c-0.1,4.5,2.1,4.6,5,3.9c3.7-0.9,7.4-1.6,11.4-2.5
			c-0.8,2.7-3,2.5-4.6,3.2c-1.3,0.6-2.6,1.2-2.1,3c0.4,1.5,1.7,2.2,3.2,2c1.7-0.2,3.5-0.5,5.6-0.8c-2.4,3.5-1.4,4.6,2.2,3.8
			c0.5-0.1,1.5-0.2,1.5-0.1c1.7,7,5.6,1.3,8.8,1.6c0,2.5,0.4,4.3-3.8,3.6c-3.1-0.5-6-3.7-9.6-1.4c-0.5,0.3-1.2-0.5-1.2-1.3
			c-0.1-2.4-1.3-2.2-3-1.4c-0.8,0.4-1.8,0.2-2.1-0.7c-1.1-3.6-2.9-1.6-4.5-0.6c-0.8,0.5-1.6,1.5-2.4,0.4c-0.5-0.7,0.1-1.6,0.6-2.1
			C112.2,105,113.2,103.3,111.7,102.1z M147.2,120.4c-1.8,0.1-3.9-0.4-3.6-3.2c0.1-1.1-0.9-1.4-1.7-0.8c-1.8,1.4-3.2,0.7-3.8-1.1
			c-0.8-2.3,1.8-1.3,2.6-2.1c2.1-2.2,3.7-2.9,3.6,1.5c0,2.4,1,2.5,5.4,1.3C149.7,118.3,149.4,120.3,147.2,120.4z M153.4,120.5
			c0.6-0.8,1.4-1.7,2.3-0.9c1,0.8-0.1,2-0.1,3c0,1.2-0.8,1.8-1.9,1.5c-1.3-0.3-2.5-0.9-4.4-1.6C151,121.6,152.5,121.6,153.4,120.5z"
			/>
		<polygon points="319,437 319,437 319,437 		"/>
		<path d="M290,421.4c0,0,0.1,0,0.1,0.1c0.1,0,0.2,0,0.3,0c-0.1,0-0.1-0.1-0.2-0.1C290.1,421.4,290.1,421.4,290,421.4z"/>
		<path d="M356.2,491c0.1,0,0.2-0.1,0.3-0.2c0,0,0,0,0,0c0,0,0,0,0,0C356.4,490.8,356.3,490.9,356.2,491z"/>
		<path d="M371,104.4c0,0-0.1,0-0.1,0c0,0.1,0,0.1-0.1,0.2C370.9,104.6,371,104.5,371,104.4C371,104.5,371,104.4,371,104.4z"/>
		<path d="M352.4,400.1c-0.1,0.1-0.1,0.1-0.2,0.2c0,0,0,0.1,0,0.1c0,0,0.1,0,0.1-0.1C352.3,400.3,352.4,400.2,352.4,400.1z"/>
		<path d="M350.7,557.5c1.9,0,1.9,1.1,1.3,2.2c-0.3,0.7-1.1,1.3-1.8,1.5c-5.9,2.1-8.3,7.5-11.6,12c-1,1.4-1.9,2.8-3.8,2.6
			c-1.5-0.1-1.7-1.6-2.1-2.7c-0.8-2,0.4-2.8,1.9-3.8c1.7-1,3-2.5,4.1-4.3C341.5,560.5,346.2,559,350.7,557.5z"/>
		<path d="M434.9,351.8c-1.2-0.3-2.3,0.9-3.7-0.1c3.5-5.4,9.8-8.4,12.2-16c0.6,4.9,2.9,1.7,5.3,2.4c-4.6,2.5-7.6,5.9-11,8.8
			c-1.7,1.4-2.6,3-2.9,5C434.7,351.9,434.9,351.8,434.9,351.8z"/>
		<path d="M344.1,216.9c-0.3-12.4-4.9-23.8-8.4-35.5c-1.3,1.2-0.1,2.9-1.7,4c-3.3-2.1-2.9-7.3-7.1-9.2c0.4,5.9,4.4,10.8,4,17.1
			c-2.9-1.7-2.6-4.7-3.9-6.7c-1.8-2.9-2.1-7.4-7.8-5.6c3.4,9.3,9.1,18.3,9,29.1c-2.9-10.3-7.9-19.4-13.9-28.3c-0.3,3-0.3,3-6.8,0.2
			c5.7,5.6,9.3,11.4,12.1,17.7c1,2.3,3.2,5,1.4,7.1c-2.1,2.5-5,0.1-7.1-0.9c-11.5-5.8-23.6-10.6-32.9-20.1c-4.5-4.6-7-12.3-0.9-17.1
			c3.1-2.5,4.4-6.5,7-9.3c4.2-4.7,9.7-7.9,16.2-8.6c6.5-0.7,12.8-2.5,19.4-3.1c4.9-0.4,9.2,0.7,13.5,2.3c9.2,3.5,18.4,7.2,28.1,9.3
			c5.4,1.1,10.1,4.2,15.4,5.9c4.9,1.6,10.1,1.7,14.8,3.9c1.3,0.6,3,0.5,4-1.6c1.1-2.4,3.5-3.8,5.6-5.3c0.6-0.4,1.3-0.7,1.8-0.1
			c0.6,0.7-0.1,1.2-0.4,1.7c-2.6,4.8-2.6,4.9,2.9,6.2c3,0.8,6.1,1.7,9.1,2.1c7.8,1,14.1,6,21.5,8c6.4,1.7,12.5,4.2,18.8,6.4
			c0.4,0.1,0.8,0.5,1.1,0.4c9-1.5,16,4.3,23.4,7.6c10.2,4.6,20.7,9.1,28.9,17.8c3.7,4,9.2,7,13.5,10.9c6.1,5.6,12.2,11.2,17.9,17.4
			c4.8,5.2,9.7,11.2,15.5,15c6.2,4,10.1,9.5,14.9,14.5c3,3.1,6.6,5.5,9.2,9.2c2.5,3.6,3.5,7.4,3,11.5c-0.8,6.6-6.9,10-15.3,9
			c-10.2-1.2-20.5-2.9-29.9-6.7c-9.5-3.8-19.4-5-29-7.7c-1.2-0.3-2.3-0.5-2.8-2c-1.3-3.4-3.2-4.1-6.2-1.6
			c-5.9,5-11.5,10.2-16.1,16.4c-0.9,1.3-1.8,2.7-3.4,3.4c0.3-4.2,8.4-12.6,19.9-23.2c7.8-7.1,15.5-14,26.8-17.1
			c-5.3-1.1-9.7-3.5-14.1-0.1c-4,3.1-9.6,3.6-12.7,8.3c-2.1,3.1-4.8,5.8-7.5,8.4c7.8-14.2,20.9-21.8,35.1-28.3
			c-14.5,2.3-26.8,8.2-36.5,19.7c-5,6-9.9,12.1-15,18c-0.7,0.8-1.5,2-3.3,1.8c5.9-7.6,9.3-16.4,13.6-24.7c3.7-7.1,8-13.4,14.1-18.5
			c0.4-0.3,0.6-0.7,1.2-1.5c-13.5,6.2-21.6,17.6-30,28.6c1-5.3,4.6-9.1,7.1-13.4c5-8.5,11-16.3,19.8-21.5c1.4-0.8,1.9-1.7,0.9-3.2
			c-1.3-2-2.3,0-2.8,0.5c-7,7.2-15.1,13.2-21.4,21.3c-5.9,7.6-9.3,16.2-13.6,24.4c-0.9,1.8,0,4.5-3.1,5.2
			c6.8-21.7,18.6-40.6,34.7-56.8c-6,1.9-9.8,6.5-13.5,10.8c-2.2,2.6-4.9,4.8-6.8,7.9c-3.2,5.2-5.5,10.9-8.4,16.2
			c-0.5,0.9-0.9,2.5-2.2,1.9c-1.3-0.6-0.5-1.9-0.1-2.9c2.2-5.3,4.5-10.7,7.1-16.7c-7.4,6.1-10.1,14.2-13.5,21.8
			c-0.9,2-1.6,4-2.3,6.1c-0.2,0.6-0.5,1-1.2,0.8c-0.7-0.2-0.8-0.8-0.6-1.3c2.2-5.2-0.6-11.1,3-16.3c2.7-3.8,2.4-10.7,1-14.1
			c-3.7,2.1-2.9,8-7.8,9c2.9-4.8,4.7-10.1,7.4-15c1.6-3,3.2-6,4.7-9c0.5-1,1.2-2.3,0.9-3.1c-1.7-4.3,1.2-7.3,2.8-10.7
			c0.9-1.9,1.6-4,2.7-6.7c-3.7,2.1-5.7,5.1-7.3,7.8c-4.7,7.9-9,16-10.7,25.3c-1.9,10-4.9,19.8-8.4,29.4c-0.3,0.9-0.3,2.3-2.3,2.3
			c0.5-4.3,2.5-8.1,3.2-12.2c1.6-8.2,2.6-16.4,3.9-24.6c0.1-0.4,0.4-0.9,0.2-1.2c-4-7.2,1.9-12.6,3.5-18.7c0.1-0.4,0.3-0.7,0.5-1.1
			c-3.2,1.6-4.4,3.8-7.8,12.4c-1.9,4.8-2,10-3.2,15.3c-1.8-2.7-1.8-2.7-0.3-13.9c0.6-4.7,1.7-9.4,3.7-13.7c2-4.2,4.3-8.3,6-12.7
			c-6.5,6.5-11.3,13.8-13.1,23c-1.3,6.8-3.1,13.5-4.7,20.2c-0.3,1.1-0.2,2.5-3.1,3.7c4.4-15.1,5.9-29.9,11.6-44.8
			c-4.1,1.8-6.4,3.9-8.1,6.8c-2.6,4.6-3.8,9.6-4.8,14.7c-0.2,1-0.2,2.9-1.8,2.6c-1.6-0.3-0.6-1.8-0.5-2.8c0.2-3.6-0.1-7.3,0.1-11.1
			c-1.1,3.9-2.1,7.9-3.2,11.8c-0.2,0.9-0.1,2-1.4,2.2c-1.2,0.2-0.6-1.7-1.7-1.7c-1.2,2.9-1.2,5.9-1.5,8.9c-0.1,0.7,0.6,1.8-0.8,1.7
			c-0.8,0-1-0.8-1.1-1.5c-0.4-2.9,1-5.7,1.1-8.4c0.2-8.2,0.8-16.4,0-25.5c-8.4,10-9,20.9-9.1,32.1c-1.3-3.9-1.4-7.9-1-11.8
			c0.6-6.1,1.6-12.1,2.4-18.2c0.1-0.9,0.9-2.4-0.5-2.8c-1.3-0.4-1.8,1.1-2.1,2c-0.8,2.4-1.4,4.8-2.6,7.2c-0.5-3.2-0.6-6.4,0.3-9.6
			c1.3-4.3,1.8-8.8,1.8-13.3c0-1,0.3-2.5-1-2.8c-1.4-0.4-2.1,1-2.6,2.1c-1.9,4.7-2,9.6-1.6,14.4c0.6,8.3-0.9,16.6-0.7,24.9
			c0,0.3-0.4,0.6-0.9,1.4c-0.7-2.2-1.2-4-1.9-6.3c-1.1,3.4-1.8,6.5-1.4,9.7c0.1,0.9-0.7,2.3,1.2,2.4c2.4,0.2,1-1.7,1.4-2.5
			c0.2-0.3,0.3-0.7,0.9-2c1,5.9,0.7,10.8,0.6,15.7c-0.4,0-0.9,0-1.3,0c0-2.8,0-5.7,0-8.5c-1.5,3.3-0.6,6.6-1,10.4
			c-1.6-1.7-1.4-3.6-1.5-5.3c-0.1-1.7,0-3.5,0-5.4c-1.5,0.5-1.3,1.9-2.5,3c0-7.5,0-14.5,0-21.5c-3.1,4.5-2.9,10.2-7.4,14
			c1.2-5.4,2-10.9,3.6-16.1c2-6.5,3.6-13.1,4.8-19.8c0.6-3.1-0.3-6.1-1.5-9.2c-2.9,11.8-6.7,23.4-7.9,35.6c-0.4-0.1-0.8-0.2-1.2-0.2
			c1.2-11.4,2.3-22.7,3.5-34.1c-3.2,8.5-2.4,17.6-5,26.7c-1.8-1.9-1-3.6-0.9-5.2c0.6-8.7,1.7-17.3,0.2-26c-0.1-0.5-0.3-1-0.4-1.6
			c-0.2-1-0.7-2-1.7-2c-1.4,0-1,1.4-1.2,2.2c-0.9,5.7-0.6,11.4-0.6,17.1c0,3.1,0,3-2.1,5.3c-0.6,0.6-0.3,2.1-0.4,3.2
			c-0.3,4.7-0.6,9.4-1.7,14.1c-0.4-12.9-1.5-25.6-6.2-37.7c-1.6,10-0.3,20.1-1.4,30.1c-2.1-3.4-2-7.1-2.7-10.7
			c-0.7-3.5-1.1-7-1.7-10.5c-0.2-1.1-0.3-2.5-1.7-2.3c-1.5,0.3-0.8,1.8-0.7,2.8c0.8,6.9,0.5,13.9,0.7,20.9c0,1,0.1,2.1-1.2,4
			c-2.1-11-0.3-22-7.4-31.4c-1.2,3.9,1.3,7.3-0.6,11.2c-3.6-11-5.6-22-12.2-31.4c0,6.4,1.2,12.3,3.9,18c4.7,9.8,4.3,20,2.7,30.4
			c-0.2,1.1-0.5,1.9-1.8,1.6L344.1,216.9z M531.2,280c0,7,0.6,7.9,6.3,9.6c1.3,0.4,2.7,0.7,3.8,1.4c0.9,0.6,1.6,1.7,2.6,0.5
			c0.5-0.6,0.4-1.7-0.6-2c-1.5-0.4-2.1-3.8-3.2-2.2c-1.9,2.5-2.3,0.5-3-0.4C535.2,284.6,534.7,281.3,531.2,280z M300.6,171.1
			c2.9,4.3,6.8,7,10.2,7.5C308.6,174.8,306.3,170.9,300.6,171.1z M489.2,222.1c4.8-1.3,8.2-3.5,10.7-7.6
			C494.8,215,491.4,217.3,489.2,222.1z M530,287.1c-1-2.7-1-5.9-4.4-6.4c-1.2-0.2-1.4,1.3-1.2,2.5
			C524.8,286.3,526.5,287.5,530,287.1z M525,258.3c5.5,0.8,10.1-0.4,14.6-1.1C535,256.9,530.4,256.4,525,258.3z M561.4,286.7
			c-0.7,1.5-0.5,2.8-0.2,4.2c0.3,1.3,1.1,2,2.3,1.7c1.3-0.3,0.6-1.6,0.4-2.4C563.6,288.9,562.7,287.7,561.4,286.7z"/>
		<path d="M225.8,186.3c-2.1-1.9-2.3-4.6-2.5-7c-1.9-16-6.9-30.8-14-45.2c-3.2-6.5-6.3-13.5-6.5-21.1c2.9,7.8,5.5,15.8,9.5,23.2
			c0.7-4.4-2.4-7.9-2.3-12c3.6,5,3.3,11.4,6.2,17.7c0.8-5.3-0.8-9.6,0-14C217.8,147.5,222.9,166.7,225.8,186.3z"/>
		<path d="M347.7,243.8c-3-7.3-5.6-13.6-8.2-20c1.8,12.4,1.6,24.9,4.1,37.1c-4.4-10.4-3.4-21.6-5.5-32.3c-2.1-10.7-5-21.3-7.7-32.5
			c2.5,0.8,2.3,2.4,2.6,3.5c1.1,4.2,1.9,8.5,3,12.7c0.8,3,1.7,5.6,4.2,8.4c3.1,3.3,3.9,8.8,5.4,13.5
			C346.5,237,349.2,239.3,347.7,243.8z"/>
		<path d="M235.6,101.5c3.3,15,5.2,30.1,1.8,45c-2.6,11.3-0.6,21.9,1.3,32.7c0.2,1.3,0.9,2.5-0.2,4.2c-1.1-3.4-1.4-6.6-2-9.6
			c-2.2-10.3-1.8-20.3,0.5-30.6c2.1-9.7,1.2-19.8,0.2-29.7C236.6,109.5,236.1,105.5,235.6,101.5z"/>
		<path d="M352.5,257.8c-0.6,4.8,1,9.6-1.8,14.3c-1.6,2.8-1.8,6.2-0.9,9.5c0.7,2.5,1.4,5,0.5,7.8c-1.3-4.4-4.2-8.8-2.8-13.3
			c1.8-5.8,0.4-10.9-1.1-16.3c-0.8-2.7-1.1-5.4,0.1-8.2c1.2,4.8,1.6,9.8,3.6,14.6C351.5,263.3,350.1,260.1,352.5,257.8z"/>
		<path d="M350.9,225c1.4,3.6,3.2,7,3.3,10.9c1.6-6-2.3-12.1,0.3-18.2c2.8,5.6,2.3,21.5-1.3,30.8C354.1,240.3,351.5,232.8,350.9,225
			z"/>
		<path d="M393.9,304.5c1.5,2.3,0.4,4.3,0.4,6.1c1.7,0.9,1.5-1.9,3.4-1.1c-0.9,8.2-8.4,13.6-9.9,21.6c-0.5-3.2,0.1-6.3,1.7-9
			c2.1-3.6,3.5-7.2,2.9-11.4C392,308.6,392.6,306.5,393.9,304.5z"/>
		<path d="M437.5,333.9c4.1-11.9,10.8-21.3,16.6-31.2c1-1.7,2.5-2.9,4-4c0.4-0.3,0.4-2.1,1.5-0.8c0.6,0.7,0.3,1.3-0.4,2
			c-7.1,7.1-10.9,16.4-16.4,24.5c-0.8,1.1-1.1,2.4-1.3,3.8C441,330.5,439.9,332.2,437.5,333.9z"/>
		<path d="M306.7,254.7c0.3-0.7,0.6-1.3,1.4-3c-0.4,7.8-0.8,14.5-1.2,21.2c-0.5,0-0.9,0-1.4,0c0.2-11.6-1-23.1-1.4-34.7
			C305.8,243.5,305.1,249.3,306.7,254.7z"/>
		<path d="M251.5,150.9c0.1-15.1,3.5-30.1,0.7-45.3C257,120.7,252.1,135.8,251.5,150.9z"/>
		<path d="M381.9,280.7c-3.4-15.6,2.3-30,6-44.7C386.3,250.9,378.9,265,381.9,280.7z"/>
		<path d="M213.5,175.5c-3.8-12.1-7.4-23.5-12.2-34.1C204.5,142.5,214.4,168.6,213.5,175.5z"/>
		<path d="M415.8,240.4c-0.3,10-0.7,20.1-5.2,29.5C413.3,260.3,413.4,250.2,415.8,240.4z"/>
		<path d="M248.1,150.5c1.7-15.9-3.6-31.8,1.3-47.6C245.7,118.7,251.2,134.7,248.1,150.5z"/>
		<path d="M375.2,257.4c0.6-10.6,6.1-19.8,8.4-29.9C383.3,238.2,377.1,247.2,375.2,257.4z"/>
		<path d="M391.1,272.1c-2.1-9.6,1.1-18.7,2.1-28C394.4,253.6,389.8,262.7,391.1,272.1z"/>
		<path d="M332.4,243.5c-1-7.3-2-14.7-3-22c-0.3-2.2-1.2-4.4-0.7-6.7c3.6,9.7,3.3,20,5.7,30c-1.3,0.1-1.6-0.8-2.1-1.4
			C332.3,243.4,332.4,243.5,332.4,243.5z"/>
		<path d="M209.9,173.3c-4.1-9.2-11.9-16.7-12.6-27.5C200.1,155.7,206.8,163.7,209.9,173.3z"/>
		<path d="M470.7,305.3c5.8-6.2,10.4-13.6,17.4-18.7C482.8,293.3,477.9,300.3,470.7,305.3z"/>
		<path d="M368.2,221.1c1.7,8.1,2.5,16.3,0,24.5C369.2,237.4,368,229.3,368.2,221.1z"/>
		<path d="M362.7,238.6c0.9-7.8,1.8-15.6,2.7-23.3c0.4,0,0.8,0.1,1.3,0.1c-0.2,7.8-0.5,15.6-2.8,23.3
			C363.5,238.6,363.1,238.6,362.7,238.6z"/>
		<path d="M399.1,250.7c0.3,8.9,1.4,17.9-0.5,26.8C398.3,268.6,397.7,259.6,399.1,250.7z"/>
		<path d="M368.8,314.2c-3.4-6.9-6.1-14-5.9-21.9C364.8,299.7,367.8,306.7,368.8,314.2z"/>
		<path d="M273.2,101.9c-0.2-3.8-0.4-7.6-0.5-11.4c0-0.9-0.5-2.5,1.3-2.4c1.3,0,1.2,1.2,1.3,2.1c0.4,2.9,0.3,5.7-0.1,8.5
			c-0.4,2.3-0.9,4.4-0.2,6.8c0.2,0.5,0.2,2.2-1.3,2c-1-0.1-0.9-1.2-0.9-2c0-1.2,0.1-2.4,0.2-3.7C273,101.9,273.1,101.9,273.2,101.9z
			"/>
		<path d="M423.1,315.4c0.8-8.5,7.7-13.8,10.9-22.2c0.3,3.5,0.3,3.5-5.1,11.7C426.7,308.3,424.3,311.5,423.1,315.4z"/>
		<path d="M375,224.4c1.5,9.2-1.8,17.8-3.3,26.7C372.4,242.1,374.6,233.4,375,224.4z"/>
		<path d="M360.4,267.6c0.8,6.3,2.3,12.4,2.4,18.8C360,280.4,359.6,274,360.4,267.6z"/>
		<path d="M344,216.8c-0.1,3.8,2.6,7,1.4,11.1c-1.5-5.8-4.9-11.1-5.2-17.3c2,1.8,1.7,4.8,3.8,6.4C344.1,216.9,344,216.8,344,216.8z"
			/>
		<path d="M403.7,216.2c2,7.2,1,14.4-0.1,21.6C402.7,230.6,404.7,223.4,403.7,216.2z"/>
		<path d="M457.5,288c2.2-5.6,2.3-12.1,6.4-17C461.6,276.7,461.3,283,457.5,288z"/>
		<path d="M250.3,167.4c-0.2,8.1,1.2,16.2,0.7,24.4C249.7,183.7,249.2,175.6,250.3,167.4z"/>
		<path d="M381.9,217.1c0.2,6-0.4,11.8-3.8,17C379.9,228.5,380.1,222.6,381.9,217.1z"/>
		<path d="M430.7,256.5c-1.2,5-2.4,10-3.7,15c-0.4-0.1-0.8-0.2-1.2-0.2c0.7-5.1,1.9-10.1,3.3-15
			C429.7,256.3,430.2,256.4,430.7,256.5z"/>
		<path d="M339.7,204.1c-2.7-4.3-4.2-9-4.2-14.1C338.2,194.3,338.5,199.3,339.7,204.1z"/>
		<path d="M319.4,120.8c0.2-6.5-0.6-13.1,2.4-19.3C319.5,107.8,321.1,114.5,319.4,120.8z"/>
		<path d="M462.8,293.6c1-4.4,5.8-6.2,6-11.3C470.7,285.8,467.3,291.5,462.8,293.6z"/>
		<path d="M445.7,346.4c1.9-2.7,3.3-6,7.4-7.8C451.7,343,448.4,344.5,445.7,346.4z"/>
		<path d="M283.6,116.2c0.1,3.7,1.7,7.4-0.2,11.1C282.5,123.6,281.8,119.9,283.6,116.2z"/>
		<path d="M370.4,286.5c-0.8-3.7,0.3-7.1,2.5-10.3c-0.5,3.5-1,7-1.5,10.5C371.1,286.6,370.7,286.6,370.4,286.5z"/>
		<path d="M474.3,310.1c2.2-2.2,3.2-5.5,6.6-7.6C479.6,306.4,477.7,308.9,474.3,310.1z"/>
		<path d="M408.2,238.3c0.6,2.7,0.9,5.5-0.7,8.1C407,243.6,407,240.9,408.2,238.3z"/>
		<path d="M204.1,339.1c0.8-4.8-0.7-9.5,1.1-13.9c0.4,0,0.8,0,1.1,0c0,4.2,0.5,8.5-0.1,12.6c-0.9,6.5-0.1,12.7,1.3,19
			c0.5,2.1,0.5,4-0.2,6c-0.3,0.8,0.4,2.2-1.1,2.2c-0.8,0-1.3-0.8-1.7-1.6c-4.8-9.6-5.6-20.2-7.4-30.6c-0.1-0.5,0-1.1,1-1.5
			c1.4,2.3,0.4,5.5,3,8.3c-0.5-3.2-0.9-5.5-1.4-8.2C202.1,333.7,200.9,337.3,204.1,339.1z"/>
		<path d="M189.9,359.2c-5.3-12.8-6.6-26.3-7.9-39.9C185.3,332.5,185.7,346.2,189.9,359.2z"/>
		<path d="M202.2,364.9c-4.4-10-6.8-20.5-7.9-31.3C196.8,344.1,199.8,354.4,202.2,364.9z"/>
		<path d="M212.7,374.1c0.4-3.8,0.1-7.4,0.3-11.1c2.8,6.4,0.2,13.5,2.7,20.1c-3-4.5-6.6-8.5-7.3-14.8
			C210.7,370.1,209.8,373.3,212.7,374.1z"/>
		<path d="M182.3,377.9c-3.2-8.1-7.1-16-6.6-25.1C177.3,361.3,180.9,369.3,182.3,377.9z"/>
		<path d="M177.4,394.1c-5.2-8.4-8.2-17.7-11.9-26.8C170.7,375.7,173.7,385,177.4,394.1z"/>
		<path d="M235.4,338.6c-2.5,1.2-1.9,3.6-2,5.7c-0.2,3.8,0.7,7.6-0.6,11.3c-0.2,0.6-0.2,1.4-1.2,1.5c-0.9-0.2-0.8-1-0.7-1.5
			c1-4.3,0.3-8.6,0.4-12.9C231.3,340.7,231,336.9,235.4,338.6C235.4,338.7,235.4,338.6,235.4,338.6z"/>
		<path d="M212.4,394.3c-4.1-6.3-7.9-12.8-8.5-20.7C206.4,380.6,209.2,387.5,212.4,394.3z"/>
		<path d="M193,351.7c-0.9-5.7-1.9-11.3-2.8-17c0.4-0.1,0.8-0.1,1.2-0.2C192.5,340.1,194.3,345.7,193,351.7z"/>
		<path d="M161.1,318.5c1.7,4.5,5.1,8.3,4.5,13.6c-1.9-4.4-3.8-8.9-5.6-13.3C160.4,318.7,160.7,318.6,161.1,318.5z"/>
		<path d="M216.6,258.4c1.5-5.2,3.9-9.8,7.8-13.5C222.3,249.7,218.3,253.5,216.6,258.4z"/>
		<path d="M227.1,253.6c-1.9,4.3-5,6.8-5.2,10.8C221.1,260.3,222.3,257.9,227.1,253.6z"/>
		<path d="M396.1,449c-3.8,3.6-8.4,5.8-13.1,7.7c3.4-2.9,7.7-4.3,10.8-7.6C394.4,448.4,395.3,449,396.1,449
			C396.1,449,396.1,449,396.1,449z"/>
		<path d="M372,462.8c0.4-0.6,0.8-1.3,1.3-1.9c2.2-2.1,3-5.3,5.7-7C377.1,457.2,375.8,460.9,372,462.8z"/>
		<path d="M259.6,541.2c4.8,3.7,9.4,5.9,14.7,6.6C269.3,548.7,261.1,545.2,259.6,541.2z"/>
	</g>
</g>
</svg>
