<?xml version="1.0" encoding="utf-8"?>
<!-- Generator: Adobe Illustrator 21.1.0, SVG Export Plug-In . SVG Version: 6.00 Build 0)  -->
<svg version="1.1" id="Layer_1" xmlns="http://www.w3.org/2000/svg" xmlns:xlink="http://www.w3.org/1999/xlink" x="0px" y="0px"
	 viewBox="0 0 44 38.7" style="enable-background:new 0 0 44 38.7;" xml:space="preserve">
<style type="text/css">
	.st0{fill:#FFFFFF;}
</style>
<g>
	<polygon class="st0" points="23.8,18.8 23.8,11 20.8,11 20.8,18.8 13,18.8 13,21.8 20.8,21.8 20.8,29.6 23.8,29.6 23.8,21.8 
		31.5,21.8 31.5,18.8 	"/>
	<path class="st0" d="M22.2,5C13.8,5,6.9,11.9,6.9,20.3s6.9,15.4,15.4,15.4s15.4-6.9,15.4-15.4S30.7,5,22.2,5z M22.2,32.7
		c-6.8,0-12.4-5.6-12.4-12.4S15.4,8,22.2,8s12.4,5.6,12.4,12.4S29.1,32.7,22.2,32.7z"/>
</g>
</svg>
