<?xml version="1.0" encoding="utf-8"?>
<!-- Generator: Adobe Illustrator 21.1.0, SVG Export Plug-In . SVG Version: 6.00 Build 0)  -->
<svg version="1.1" id="Layer_1" xmlns="http://www.w3.org/2000/svg" xmlns:xlink="http://www.w3.org/1999/xlink" x="0px" y="0px"
	 viewBox="0 0 21.7 5.2" style="enable-background:new 0 0 21.7 5.2;" xml:space="preserve">
<style type="text/css">
	.st0{fill:#252525;}
</style>
<g>
	<rect x="0.6" y="2.7" transform="matrix(0.7072 -0.707 0.707 0.7072 -1.423 2.3977)" class="st0" width="3.1" height="0.5"/>
	<rect x="2.4" y="2.7" transform="matrix(0.7071 -0.7071 0.7071 0.7071 -0.9029 3.654)" class="st0" width="3.1" height="0.5"/>
	<rect x="4.2" y="2.7" transform="matrix(0.7072 -0.707 0.707 0.7072 -0.3829 4.9092)" class="st0" width="3.1" height="0.5"/>
	<rect x="6" y="2.7" transform="matrix(0.7072 -0.707 0.707 0.7072 0.1371 6.1648)" class="st0" width="3.1" height="0.5"/>
	<rect x="7.7" y="2.7" transform="matrix(0.7071 -0.7071 0.7071 0.7071 0.6577 7.4215)" class="st0" width="3.1" height="0.5"/>
	<rect x="9.5" y="2.7" transform="matrix(0.7071 -0.7071 0.7071 0.7071 1.1779 8.6773)" class="st0" width="3.1" height="0.5"/>
	<rect x="11.3" y="2.7" transform="matrix(0.7071 -0.7071 0.7071 0.7071 1.6981 9.9333)" class="st0" width="3.1" height="0.5"/>
	<rect x="13.1" y="2.7" transform="matrix(0.7073 -0.7069 0.7069 0.7073 2.2164 11.1863)" class="st0" width="3.1" height="0.5"/>
	<rect x="14.8" y="2.7" transform="matrix(0.7071 -0.7071 0.7071 0.7071 2.7384 12.4448)" class="st0" width="3.1" height="0.5"/>
	<rect x="16.6" y="2.7" transform="matrix(0.7071 -0.7071 0.7071 0.7071 3.2587 13.7009)" class="st0" width="3.1" height="0.5"/>
	<rect x="18.4" y="2.7" transform="matrix(0.7073 -0.7069 0.7069 0.7073 3.7762 14.953)" class="st0" width="3.1" height="0.5"/>
</g>
</svg>
